//Event file generated from Sappy .s format.
	#include "MPlayDef.event"

	#define	song0D_grp  voicegroup000
	#define	song0D_pri  0
	#define	song0D_rev  0
	#define	song0D_mvl  127
	#define	song0D_key  0
	#define	song0D_tbs  1
	#define	song0D_exg  0
	#define	song0D_cmp  1

	// .rodata
	//	song0D
	ALIGN 4


//**************** Track 1 (Midi-Chn.0) ****************//

song0D_001:
//  #01 //000   ----------------------------------------
 BYTE   KEYSH   song0D_key+0
 BYTE   TEMPO   124*song0D_tbs/2
 BYTE   VOICE   40
 BYTE   PAN   c_v+0
 BYTE   VOL   45*song0D_mvl/mxv
 BYTE   W06
 BYTE   N44  Cs3  v060
 BYTE   W48
 BYTE   N23  Gs2
 BYTE   W24
 BYTE   Cs3
 BYTE   W18
//  #01 //001   ----------------------------------------
 BYTE   W06
 BYTE   N44  Ds3  v048
 BYTE   W48
 BYTE   Fs3  v056
 BYTE   W42
//  #01 //002   ----------------------------------------
Label_012E0944:
 BYTE   W06
 BYTE   N88  Gs3  v052
 BYTE   W90
//  #01 //003   ----------------------------------------
 BYTE   W96
//  #01 //004   ----------------------------------------
 BYTE   W96
//  #01 //005   ----------------------------------------
 BYTE   W96
//  #01 //006   ----------------------------------------
 BYTE   W96
//  #01 //007   ----------------------------------------
 BYTE   W96
//  #01 //008   ----------------------------------------
 BYTE   W96
//  #01 //009   ----------------------------------------
 BYTE   W36
 BYTE   N05  Cs4  v056
 BYTE   W06
 BYTE   Bn3  v080
 BYTE   W06
 BYTE   N06  An3  v076
 BYTE   W06
 BYTE   N01  An3  v056
 BYTE   W06
 BYTE   N05  An3  v072
 BYTE   W06
 BYTE   Gs3  v080
 BYTE   W06
 BYTE   N23  Fs3  v076
 BYTE   W24
//  #01 //010   ----------------------------------------
 BYTE   N36  Cs3
 BYTE   W01
 BYTE   W01
 BYTE   W01
 BYTE   W01
 BYTE   W01
 BYTE   W01
 BYTE   W01
 BYTE   W01
 BYTE   W01
 BYTE   W02
 BYTE   W01
 BYTE   W02
 BYTE   W01
 BYTE   W02
 BYTE   W01
 BYTE   W02
 BYTE   W01
 BYTE   W02
 BYTE   W01
 BYTE   W02
 BYTE   W01
 BYTE   W02
 BYTE   W01
 BYTE   W02
 BYTE   W01
 BYTE   W02
 BYTE   W01
 BYTE   W02
 BYTE   W01
 BYTE   N02  Ds3  v080
 BYTE   W03
 BYTE   En3
 BYTE   W03
 BYTE   Fs3
 BYTE   W02
 BYTE   W01
 BYTE   N68  Gs3  v092
 BYTE   W01
 BYTE   W01
 BYTE   W01
 BYTE   W01
 BYTE   W01
 BYTE   W01
 BYTE   W01
 BYTE   W01
 BYTE   W01
 BYTE   W03
 BYTE   W03
 BYTE   W03
 BYTE   W03
 BYTE   W03
 BYTE   W03
 BYTE   W03
 BYTE   W03
 BYTE   W03
 BYTE   W03
 BYTE   W03
 BYTE   W03
 BYTE   W03
//  #01 //011   ----------------------------------------
 BYTE   W03
 BYTE   W03
 BYTE   W03
 BYTE   W03
 BYTE   W03
 BYTE   W09
 BYTE   N23  Bn3  v080
 BYTE   W24
 BYTE   N15  As3  v084
 BYTE   W16
 BYTE   Gs3  v076
 BYTE   W16
 BYTE   Fs3  v072
 BYTE   W16
//  #01 //012   ----------------------------------------
 BYTE   N80  Gs3  v080
 BYTE   W84
 BYTE   N05  En3  v072
 BYTE   W06
 BYTE   Fs3  v084
 BYTE   W06
//  #01 //013   ----------------------------------------
 BYTE   N72  Gs3  v088
 BYTE   W03
 BYTE   W06
 BYTE   W03
 BYTE   W03
 BYTE   W03
 BYTE   W03
 BYTE   W03
 BYTE   W03
 BYTE   W03
 BYTE   W03
 BYTE   W03
 BYTE   W03
 BYTE   W03
 BYTE   W03
 BYTE   W03
 BYTE   W03
 BYTE   W03
 BYTE   W03
 BYTE   W03
 BYTE   W03
 BYTE   W03
 BYTE   W03
 BYTE   W03
 BYTE   W03
 BYTE   W03
 BYTE   W03
 BYTE   W03
 BYTE   W03
 BYTE   W02
 BYTE   W01
 BYTE   W01
 BYTE   W01
 BYTE   W01
 BYTE   W03
//  #01 //014   ----------------------------------------
 BYTE   N36  Cs3  v080
 BYTE   W03
 BYTE   W01
 BYTE   W01
 BYTE   W01
 BYTE   W02
 BYTE   W01
 BYTE   W02
 BYTE   W01
 BYTE   W02
 BYTE   W01
 BYTE   W02
 BYTE   W01
 BYTE   W02
 BYTE   W01
 BYTE   W02
 BYTE   W01
 BYTE   W02
 BYTE   W01
 BYTE   W02
 BYTE   W01
 BYTE   W02
 BYTE   W01
 BYTE   W02
 BYTE   W01
 BYTE   W02
 BYTE   W01
 BYTE   N02  Ds3
 BYTE   W02
 BYTE   W01
 BYTE   En3
 BYTE   W02
 BYTE   W01
 BYTE   Fs3
 BYTE   W03
 BYTE   N68  Gs3  v092
 BYTE   W01
 BYTE   W01
 BYTE   W01
 BYTE   W01
 BYTE   W01
 BYTE   W01
 BYTE   W01
 BYTE   W01
 BYTE   W03
 BYTE   W03
 BYTE   W03
 BYTE   W03
 BYTE   W03
 BYTE   W03
 BYTE   W03
 BYTE   W03
 BYTE   W03
 BYTE   W03
 BYTE   W03
 BYTE   W03
 BYTE   W03
 BYTE   W01
//  #01 //015   ----------------------------------------
 BYTE   W02
 BYTE   W03
 BYTE   W03
 BYTE   W03
 BYTE   W03
 BYTE   W03
 BYTE   W02
 BYTE   W05
 BYTE   N21  Bn3  v084
 BYTE   W24
 BYTE   N15  As3  v080
 BYTE   W16
 BYTE   Bn3  v088
 BYTE   W16
 BYTE   Cs4  v072
 BYTE   W16
//  #01 //016   ----------------------------------------
 BYTE   N32  Gs3  v068
 BYTE   W36
 BYTE   N05  Fs3  v072
 BYTE   W06
 BYTE   Gs3
 BYTE   W06
 BYTE   N32  Cs4  v076
 BYTE   W36
 BYTE   N05  Gs3  v080
 BYTE   W06
 BYTE   Cs4
 BYTE   W06
//  #01 //017   ----------------------------------------
 BYTE   N32  Ds4  v064
 BYTE   W36
 BYTE   N05  Cs4  v084
 BYTE   W06
 BYTE   Ds4  v064
 BYTE   W06
 BYTE   TIE  Gs4  v052
 BYTE   W04
 BYTE   W01
 BYTE   W01
 BYTE   W01
 BYTE   W01
 BYTE   W01
 BYTE   W02
 BYTE   W01
 BYTE   W02
 BYTE   W01
 BYTE   W02
 BYTE   W01
 BYTE   W02
 BYTE   W01
 BYTE   W02
 BYTE   W01
 BYTE   W02
 BYTE   W01
 BYTE   W02
 BYTE   W01
 BYTE   W02
 BYTE   W01
 BYTE   W02
 BYTE   W01
 BYTE   W02
 BYTE   W01
 BYTE   W01
 BYTE   W01
 BYTE   W02
 BYTE   W01
 BYTE   W02
 BYTE   W01
 BYTE   W01
//  #01 //018   ----------------------------------------
 BYTE   W01
 BYTE   W01
 BYTE   W02
 BYTE   W01
 BYTE   W02
 BYTE   W01
 BYTE   W02
 BYTE   W01
 BYTE   W02
 BYTE   W01
 BYTE   W02
 BYTE   W01
 BYTE   W02
 BYTE   W01
 BYTE   W02
 BYTE   W01
 BYTE   W02
 BYTE   W01
 BYTE   W02
 BYTE   W01
 BYTE   W02
 BYTE   W01
 BYTE   W02
 BYTE   W01
 BYTE   W02
 BYTE   W01
 BYTE   W02
 BYTE   W01
 BYTE   W02
 BYTE   W01
 BYTE   W02
 BYTE   W01
 BYTE   W02
 BYTE   W01
 BYTE   W02
 BYTE   W01
 BYTE   W02
 BYTE   W01
 BYTE   W02
 BYTE   W01
 BYTE   W02
 BYTE   W01
 BYTE   W01
 BYTE   W23
 BYTE   EOT
 BYTE   W10
//  #01 //019   ----------------------------------------
 BYTE   W88
 BYTE   W01
 BYTE   W01
 BYTE   W06
//  #01 //020   ----------------------------------------
 BYTE   N68  Ds3  v096
 BYTE   W03
 BYTE   W06
 BYTE   W03
 BYTE   W03
 BYTE   W03
 BYTE   W03
 BYTE   W03
 BYTE   W03
 BYTE   W03
 BYTE   W03
 BYTE   W03
 BYTE   W03
 BYTE   W03
 BYTE   W03
 BYTE   W03
 BYTE   W03
 BYTE   W03
 BYTE   W03
 BYTE   W03
 BYTE   W03
 BYTE   W03
 BYTE   W03
 BYTE   W03
 BYTE   N28  Cs3
 BYTE   W24
//  #01 //021   ----------------------------------------
 BYTE   W02
 BYTE   W03
 BYTE   W01
 BYTE   N05  Ds3  v080
 BYTE   W02
 BYTE   W03
 BYTE   W01
 BYTE   N60  En3
 BYTE   W02
 BYTE   W03
 BYTE   W03
 BYTE   W03
 BYTE   W03
 BYTE   W03
 BYTE   W03
 BYTE   W03
 BYTE   W03
 BYTE   W03
 BYTE   W03
 BYTE   W03
 BYTE   W03
 BYTE   W03
 BYTE   W03
 BYTE   W03
 BYTE   W03
 BYTE   W03
 BYTE   W03
 BYTE   W01
 BYTE   W02
 BYTE   W01
 BYTE   W02
 BYTE   W01
 BYTE   W01
 BYTE   N03  Cs3  v100
 BYTE   W01
 BYTE   W01
 BYTE   W02
 BYTE   Ds3
 BYTE   W01
 BYTE   W02
 BYTE   W01
 BYTE   En3
 BYTE   W02
 BYTE   W01
 BYTE   W01
 BYTE   Fs3
 BYTE   W01
 BYTE   W01
 BYTE   W02
 BYTE   Gs3
 BYTE   W01
 BYTE   W03
//  #01 //022   ----------------------------------------
 BYTE   N80  Fs3  v076
 BYTE   N80  An3  v092
 BYTE   W07
 BYTE   W06
 BYTE   W03
 BYTE   W03
 BYTE   W06
 BYTE   W03
 BYTE   W03
 BYTE   W03
 BYTE   W03
 BYTE   W03
 BYTE   W03
 BYTE   W03
 BYTE   W03
 BYTE   W03
 BYTE   W03
 BYTE   W03
 BYTE   W03
 BYTE   W03
 BYTE   W03
 BYTE   W03
 BYTE   W03
 BYTE   W03
 BYTE   W03
 BYTE   W03
 BYTE   W02
 BYTE   N05  Fs3  v080
 BYTE   N05  An3  v084
 BYTE   W01
 BYTE   W03
 BYTE   W02
 BYTE   Gn3
 BYTE   N05  Bn3  v076
 BYTE   W01
 BYTE   W02
 BYTE   W03
//  #01 //023   ----------------------------------------
 BYTE   N23  Gn3  v088
 BYTE   N44  Cn4  v084
 BYTE   W06
 BYTE   W06
 BYTE   W03
 BYTE   W06
 BYTE   W03
 BYTE   N23  En3  v092
 BYTE   W06
 BYTE   W03
 BYTE   W03
 BYTE   W03
 BYTE   W03
 BYTE   W03
 BYTE   W03
 BYTE   Cn4  v084
 BYTE   N44  Gn4  v060
 BYTE   W03
 BYTE   W03
 BYTE   W03
 BYTE   W03
 BYTE   W03
 BYTE   W03
 BYTE   W03
 BYTE   W03
 BYTE   N23  Bn3  v084
 BYTE   W03
 BYTE   W03
 BYTE   W03
 BYTE   W03
 BYTE   W03
 BYTE   W09
//  #01 //024   ----------------------------------------
 BYTE   N44  An3  v092
 BYTE   N44  Fn4  v056
 BYTE   W06
 BYTE   W06
 BYTE   W06
 BYTE   W06
 BYTE   W03
 BYTE   W03
 BYTE   W06
 BYTE   W03
 BYTE   W03
 BYTE   W03
 BYTE   W03
 BYTE   N15  Cn4  v080
 BYTE   N15  En4  v072
 BYTE   W03
 BYTE   W03
 BYTE   W03
 BYTE   W03
 BYTE   W03
 BYTE   W01
 BYTE   Bn3  v088
 BYTE   N15  Dn4  v084
 BYTE   W02
 BYTE   W03
 BYTE   W03
 BYTE   W03
 BYTE   W03
 BYTE   W02
 BYTE   An3  v080
 BYTE   N15  Cn4  v076
 BYTE   W01
 BYTE   W03
 BYTE   W03
 BYTE   W03
 BYTE   W03
 BYTE   W01
 BYTE   W02
//  #01 //025   ----------------------------------------
 BYTE   N05  Fs3  v084
 BYTE   N05  Bn3  v088
 BYTE   W06
 BYTE   An3  v092
 BYTE   N05  Cs4
 BYTE   W04
 BYTE   W02
 BYTE   N84  Bn3  v080
 BYTE   N84  Ds4  v088
 BYTE   W07
 BYTE   W06
 BYTE   W06
 BYTE   W06
 BYTE   W03
 BYTE   W03
 BYTE   W06
 BYTE   W03
 BYTE   W03
 BYTE   W03
 BYTE   W03
 BYTE   W03
 BYTE   W03
 BYTE   W03
 BYTE   W03
 BYTE   W03
 BYTE   W03
 BYTE   W03
 BYTE   W14
//  #01 //026   ----------------------------------------
 BYTE   W96
//  #01 //027   ----------------------------------------
 BYTE   W96
//  #01 //028   ----------------------------------------
 BYTE   W96
//  #01 //029   ----------------------------------------
 BYTE   W96
//  #01 //030   ----------------------------------------
 BYTE   N05  En3  v072
 BYTE   W06
 BYTE   En3  v040
 BYTE   W06
 BYTE   Bn2  v072
 BYTE   W06
 BYTE   An2  v076
 BYTE   W06
 BYTE   N24  En2  v084
 BYTE   W30
 BYTE   N05  En2  v056
 BYTE   W06
 BYTE   Gn2  v072
 BYTE   W06
 BYTE   An2
 BYTE   W06
 BYTE   Bn2  v068
 BYTE   W06
 BYTE   Bn2  v056
 BYTE   W06
 BYTE   N04  En3  v072
 BYTE   W06
 BYTE   N05  En3  v040
 BYTE   W06
//  #01 //031   ----------------------------------------
 BYTE   Fs3  v072
 BYTE   W06
 BYTE   N09  Fs3  v040
 BYTE   W12
 BYTE   N05  En3  v068
 BYTE   W06
 BYTE   N56  An3  v056
 BYTE   W01
 BYTE   W01
 BYTE   W01
 BYTE   W01
 BYTE   W01
 BYTE   W03
 BYTE   W01
 BYTE   W02
 BYTE   W01
 BYTE   W02
 BYTE   W01
 BYTE   W02
 BYTE   W01
 BYTE   W02
 BYTE   W01
 BYTE   W02
 BYTE   W01
 BYTE   W02
 BYTE   W01
 BYTE   W02
 BYTE   W01
 BYTE   W02
 BYTE   W01
 BYTE   W02
 BYTE   W01
 BYTE   W02
 BYTE   W01
 BYTE   W02
 BYTE   W01
 BYTE   W02
 BYTE   W01
 BYTE   W02
 BYTE   W13
 BYTE   N05  Gn3  v060
 BYTE   W06
 BYTE   An3  v064
 BYTE   W06
//  #01 //032   ----------------------------------------
 BYTE   N24  Gn3  v056
 BYTE   W01
 BYTE   W07
 BYTE   W04
 BYTE   W04
 BYTE   W04
 BYTE   W04
 BYTE   Fs3
 BYTE   W03
 BYTE   W04
 BYTE   W04
 BYTE   W04
 BYTE   W04
 BYTE   W03
 BYTE   W02
 BYTE   N24
 BYTE   W02
 BYTE   W04
 BYTE   W04
 BYTE   W04
 BYTE   W03
 BYTE   W04
 BYTE   W03
 BYTE   En3  v052
 BYTE   W01
 BYTE   W04
 BYTE   W04
 BYTE   W03
 BYTE   W04
 BYTE   W04
 BYTE   W04
//  #01 //033   ----------------------------------------
 BYTE   Dn3  v064
 BYTE   W11
 BYTE   W06
 BYTE   W04
 BYTE   W03
 BYTE   Cs3  v060
 BYTE   W04
 BYTE   W03
 BYTE   W07
 BYTE   W04
 BYTE   W03
 BYTE   W03
 BYTE   Dn3
 BYTE   W01
 BYTE   W03
 BYTE   W04
 BYTE   W03
 BYTE   W04
 BYTE   W03
 BYTE   W04
 BYTE   W02
 BYTE   En3  v056
 BYTE   W01
 BYTE   W04
 BYTE   W03
 BYTE   W04
 BYTE   W03
 BYTE   W09
//  #01 //034   ----------------------------------------
 BYTE   TIE  Fn3  v060
 BYTE   W44
 BYTE   W02
 BYTE   W03
 BYTE   W03
 BYTE   W03
 BYTE   W03
 BYTE   W03
 BYTE   W03
 BYTE   W03
 BYTE   W03
 BYTE   W03
 BYTE   W03
 BYTE   W03
 BYTE   W03
 BYTE   W03
 BYTE   W03
 BYTE   W03
 BYTE   W03
 BYTE   W02
//  #01 //035   ----------------------------------------
 BYTE   W01
 BYTE   W03
 BYTE   W03
 BYTE   W03
 BYTE   W03
 BYTE   W03
 BYTE   W03
 BYTE   W03
 BYTE   W03
 BYTE   W03
 BYTE   W03
 BYTE   W03
 BYTE   W03
 BYTE   W03
 BYTE   W01
 BYTE   EOT
 BYTE   W02
 BYTE   W03
 BYTE   W03
 BYTE   W03
 BYTE   W03
 BYTE   W40
 BYTE   W01
//  #01 //036   ----------------------------------------
 BYTE   W96
//  #01 //037   ----------------------------------------
 BYTE   W96
//  #01 //038   ----------------------------------------
 BYTE   W96
//  #01 //039   ----------------------------------------
 BYTE   W96
//  #01 //040   ----------------------------------------
 BYTE   W96
//  #01 //041   ----------------------------------------
 BYTE   W92
 BYTE   W03
 BYTE   W01
//  #01 //042   ----------------------------------------
 BYTE   N48  Gn3  v104
 BYTE   W06
 BYTE   W03
 BYTE   W03
 BYTE   W06
 BYTE   W03
 BYTE   W03
 BYTE   W03
 BYTE   W06
 BYTE   W03
 BYTE   W03
 BYTE   W03
 BYTE   W03
 BYTE   W03
 BYTE   TIE  Gs3  v084
 BYTE   W03
 BYTE   W03
 BYTE   W03
 BYTE   W03
 BYTE   W03
 BYTE   W03
 BYTE   W03
 BYTE   W03
 BYTE   W03
 BYTE   W03
 BYTE   W03
 BYTE   W03
 BYTE   W03
 BYTE   W03
 BYTE   W03
 BYTE   W03
//  #01 //043   ----------------------------------------
 BYTE   W03
 BYTE   W03
 BYTE   W03
 BYTE   W03
 BYTE   W03
 BYTE   W03
 BYTE   W03
 BYTE   W03
 BYTE   W03
 BYTE   W03
 BYTE   W03
 BYTE   W03
 BYTE   W03
 BYTE   W03
 BYTE   W03
 BYTE   W03
 BYTE   N48  Fn3  v080
 BYTE   W01
 BYTE   EOT
 BYTE   Gs3
 BYTE   W02
 BYTE   W03
 BYTE   W03
 BYTE   W03
 BYTE   W03
 BYTE   W03
 BYTE   W03
 BYTE   W03
 BYTE   W03
 BYTE   W01
 BYTE   W20
//  #01 //044   ----------------------------------------
 BYTE   N72  Gs3  v064
 BYTE   W05
 BYTE   W10
 BYTE   W07
 BYTE   W11
 BYTE   W06
 BYTE   W07
 BYTE   W07
 BYTE   W07
 BYTE   N13  Fn3  v068
 BYTE   W04
 BYTE   W06
 BYTE   W02
 BYTE   Gn3  v072
 BYTE   W05
 BYTE   W04
 BYTE   W03
 BYTE   Gs3  v088
 BYTE   W04
 BYTE   W03
 BYTE   W04
 BYTE   W01
//  #01 //045   ----------------------------------------
 BYTE   TIE  As3  v084
 BYTE   W06
 BYTE   W03
 BYTE   W03
 BYTE   W04
 BYTE   W03
 BYTE   W04
 BYTE   W03
 BYTE   W04
 BYTE   W03
 BYTE   W04
 BYTE   W03
 BYTE   W03
 BYTE   W04
 BYTE   W03
 BYTE   W04
 BYTE   W03
 BYTE   W04
 BYTE   W03
 BYTE   W04
 BYTE   W03
 BYTE   W04
 BYTE   W03
 BYTE   W03
 BYTE   W04
 BYTE   W03
 BYTE   W04
 BYTE   W03
 BYTE   W01
//  #01 //046   ----------------------------------------
 BYTE   Gs3  v072
 BYTE   W01
 BYTE   EOT
 BYTE   As3
 BYTE   W07
 BYTE   W04
 BYTE   W04
 BYTE   W04
 BYTE   W04
 BYTE   W04
 BYTE   W04
 BYTE   W04
 BYTE   W05
 BYTE   W04
 BYTE   W04
 BYTE   W04
 BYTE   W04
 BYTE   W04
 BYTE   W04
 BYTE   W04
 BYTE   W04
 BYTE   W04
 BYTE   W05
 BYTE   W04
 BYTE   W04
 BYTE   W04
 BYTE   W02
//  #01 //047   ----------------------------------------
 BYTE   W01
 BYTE   Gs3
 BYTE   W01
 BYTE   W04
 BYTE   W04
 BYTE   W04
 BYTE   W04
 BYTE   W04
 BYTE   W05
 BYTE   W04
 BYTE   W04
 BYTE   W04
 BYTE   W04
 BYTE   W04
 BYTE   W04
 BYTE   W04
 BYTE   W04
 BYTE   W04
 BYTE   W05
 BYTE   W28
//  #01 //048   ----------------------------------------
 BYTE   GoTo
  POIN2 Label_012E0944
//  #01 //049   ----------------------------------------
 BYTE   W02
 BYTE   FINE

//**************** Track 2 (Midi-Chn.1) ****************//

song0D_002:
//  #02 //000   ----------------------------------------
 BYTE   KEYSH   song0D_key+0
 BYTE   VOICE   48
 BYTE   PAN   c_v+0
 BYTE   VOL   40*song0D_mvl/mxv
 BYTE   N44  Gs2  v060
 BYTE   N44  Cs3
 BYTE   W12
 BYTE   W08
 BYTE   W08
 BYTE   W08
 BYTE   W08
 BYTE   W04
 BYTE   N23  En2
 BYTE   N23  Gs2
 BYTE   W04
 BYTE   W05
 BYTE   W08
 BYTE   W04
 BYTE   W03
 BYTE   N23
 BYTE   N23  Cs3
 BYTE   W05
 BYTE   W04
 BYTE   W04
 BYTE   W08
 BYTE   W03
//  #02 //001   ----------------------------------------
 BYTE   N44  Cs3  v048
 BYTE   N44  Ds3
 BYTE   W01
 BYTE   W04
 BYTE   W04
 BYTE   W05
 BYTE   W04
 BYTE   W04
 BYTE   W04
 BYTE   W04
 BYTE   W04
 BYTE   W04
 BYTE   W04
 BYTE   W04
 BYTE   W02
 BYTE   Cs3  v056
 BYTE   N44  Fs3
 BYTE   W02
 BYTE   W04
 BYTE   W04
 BYTE   W04
 BYTE   W05
 BYTE   W04
 BYTE   W04
 BYTE   W04
 BYTE   W05
 BYTE   W12
//  #02 //002   ----------------------------------------
Label_012DFA64:
 BYTE   N92  Cs3  v064
 BYTE   N92  Gs3  v052
 BYTE   W12
 BYTE   W04
 BYTE   W04
 BYTE   W04
 BYTE   W04
 BYTE   W04
 BYTE   W04
 BYTE   W04
 BYTE   W04
 BYTE   W04
 BYTE   W04
 BYTE   W04
 BYTE   W04
 BYTE   W04
 BYTE   W04
 BYTE   W04
 BYTE   W04
 BYTE   W04
 BYTE   W04
 BYTE   W04
 BYTE   W04
 BYTE   W04
//  #02 //003   ----------------------------------------
 BYTE   Cs3  v064
 BYTE   N44  En3  v068
 BYTE   W04
 BYTE   W04
 BYTE   W04
 BYTE   W04
 BYTE   W04
 BYTE   W04
 BYTE   W04
 BYTE   W04
 BYTE   W04
 BYTE   W04
 BYTE   W04
 BYTE   W04
 BYTE   Fs3
 BYTE   W04
 BYTE   W04
 BYTE   W04
 BYTE   W04
 BYTE   W04
 BYTE   W04
 BYTE   W04
 BYTE   W04
 BYTE   W04
 BYTE   W04
 BYTE   W08
//  #02 //004   ----------------------------------------
 BYTE   N88  Cs3  v044
 BYTE   TIE  En3  v068
 BYTE   W04
 BYTE   W04
 BYTE   W08
 BYTE   W04
 BYTE   W04
 BYTE   W08
 BYTE   W04
 BYTE   W08
 BYTE   W04
 BYTE   W04
 BYTE   W04
 BYTE   W04
 BYTE   W04
 BYTE   W04
 BYTE   W04
 BYTE   W04
 BYTE   W04
 BYTE   W04
 BYTE   W04
 BYTE   W04
 BYTE   W04
//  #02 //005   ----------------------------------------
 BYTE   N90  Bn2  v056
 BYTE   W04
 BYTE   W08
 BYTE   W04
 BYTE   W04
 BYTE   W04
 BYTE   W04
 BYTE   W04
 BYTE   W04
 BYTE   W04
 BYTE   W04
 BYTE   W04
 BYTE   N44  Fs3  v064
 BYTE   W01
 BYTE   EOT
 BYTE   En3
 BYTE   W03
 BYTE   W04
 BYTE   W04
 BYTE   W04
 BYTE   W04
 BYTE   W04
 BYTE   W04
 BYTE   W04
 BYTE   W04
 BYTE   W04
 BYTE   W08
//  #02 //006   ----------------------------------------
 BYTE   N92  An2  v060
 BYTE   N92  Gs3  v068
 BYTE   W24
 BYTE   W12
 BYTE   W08
 BYTE   W08
 BYTE   W04
 BYTE   W08
 BYTE   W08
 BYTE   W04
 BYTE   W08
 BYTE   W04
 BYTE   W04
 BYTE   W04
//  #02 //007   ----------------------------------------
 BYTE   Gs2  v056
 BYTE   N44  Fs3  v068
 BYTE   W04
 BYTE   W08
 BYTE   W04
 BYTE   W04
 BYTE   W04
 BYTE   W04
 BYTE   W04
 BYTE   W04
 BYTE   W04
 BYTE   W04
 BYTE   W04
 BYTE   N40  En3
 BYTE   W04
 BYTE   W04
 BYTE   W04
 BYTE   W04
 BYTE   W04
 BYTE   W04
 BYTE   W04
 BYTE   W04
 BYTE   W04
 BYTE   W04
 BYTE   W02
 BYTE   N05  Fs3
 BYTE   W02
 BYTE   W04
//  #02 //008   ----------------------------------------
 BYTE   N92  An2  v052
 BYTE   N92  Gs3  v060
 BYTE   W12
 BYTE   W08
 BYTE   W08
 BYTE   W08
 BYTE   W08
 BYTE   W08
 BYTE   W04
 BYTE   W08
 BYTE   W04
 BYTE   W08
 BYTE   W04
 BYTE   W04
 BYTE   W08
 BYTE   W04
//  #02 //009   ----------------------------------------
 BYTE   N90  Bn2  v052
 BYTE   N90  Fs3  v060
 BYTE   W04
 BYTE   W04
 BYTE   W04
 BYTE   W04
 BYTE   W08
 BYTE   W04
 BYTE   W04
 BYTE   W04
 BYTE   W04
 BYTE   W04
 BYTE   W04
 BYTE   W04
 BYTE   W04
 BYTE   W04
 BYTE   W04
 BYTE   W04
 BYTE   W04
 BYTE   W04
 BYTE   W04
 BYTE   W04
 BYTE   W12
//  #02 //010   ----------------------------------------
 BYTE   W96
//  #02 //011   ----------------------------------------
 BYTE   W96
//  #02 //012   ----------------------------------------
 BYTE   W96
//  #02 //013   ----------------------------------------
 BYTE   W96
//  #02 //014   ----------------------------------------
 BYTE   W96
//  #02 //015   ----------------------------------------
 BYTE   W96
//  #02 //016   ----------------------------------------
 BYTE   W96
//  #02 //017   ----------------------------------------
 BYTE   W96
//  #02 //018   ----------------------------------------
 BYTE   W96
//  #02 //019   ----------------------------------------
 BYTE   W96
//  #02 //020   ----------------------------------------
 BYTE   W96
//  #02 //021   ----------------------------------------
 BYTE   W96
//  #02 //022   ----------------------------------------
 BYTE   W96
//  #02 //023   ----------------------------------------
 BYTE   W96
//  #02 //024   ----------------------------------------
 BYTE   W96
//  #02 //025   ----------------------------------------
 BYTE   W96
//  #02 //026   ----------------------------------------
 BYTE   W96
//  #02 //027   ----------------------------------------
 BYTE   W96
//  #02 //028   ----------------------------------------
 BYTE   W96
//  #02 //029   ----------------------------------------
 BYTE   W96
//  #02 //030   ----------------------------------------
 BYTE   W96
//  #02 //031   ----------------------------------------
 BYTE   W96
//  #02 //032   ----------------------------------------
 BYTE   W96
//  #02 //033   ----------------------------------------
 BYTE   W96
//  #02 //034   ----------------------------------------
 BYTE   N92  Ds2  v080
 BYTE   N92  Cn3  v092
 BYTE   W16
 BYTE   W06
 BYTE   W06
 BYTE   W03
 BYTE   W03
 BYTE   W06
 BYTE   W03
 BYTE   W04
 BYTE   W03
 BYTE   W03
 BYTE   W03
 BYTE   W03
 BYTE   W03
 BYTE   W03
 BYTE   W03
 BYTE   W03
 BYTE   W03
 BYTE   W03
 BYTE   W03
 BYTE   W03
 BYTE   W03
 BYTE   W03
 BYTE   W03
 BYTE   W01
 BYTE   W03
//  #02 //035   ----------------------------------------
 BYTE   N44  Fn2  v076
 BYTE   N44  Cn3  v092
 BYTE   W04
 BYTE   W07
 BYTE   W03
 BYTE   W07
 BYTE   W04
 BYTE   W07
 BYTE   W03
 BYTE   W04
 BYTE   W03
 BYTE   W04
 BYTE   W02
 BYTE   Gn2  v080
 BYTE   N17  Cn3
 BYTE   W01
 BYTE   W04
 BYTE   W03
 BYTE   W04
 BYTE   W03
 BYTE   W03
 BYTE   N05  Cs3  v088
 BYTE   W01
 BYTE   W04
 BYTE   W01
 BYTE   N23  Ds3  v092
 BYTE   W02
 BYTE   W04
 BYTE   W03
 BYTE   W04
 BYTE   W11
//  #02 //036   ----------------------------------------
 BYTE   N92  Gs2  v076
 BYTE   N92  Fn3  v088
 BYTE   W06
 BYTE   W06
 BYTE   W06
 BYTE   W03
 BYTE   W03
 BYTE   W06
 BYTE   W03
 BYTE   W03
 BYTE   W03
 BYTE   W03
 BYTE   W03
 BYTE   W03
 BYTE   W03
 BYTE   W03
 BYTE   W03
 BYTE   W03
 BYTE   W03
 BYTE   W04
 BYTE   W03
 BYTE   W03
 BYTE   W03
 BYTE   W03
 BYTE   W03
 BYTE   W08
 BYTE   W06
//  #02 //037   ----------------------------------------
 BYTE   Gn2  v076
 BYTE   N36  Ds3  v080
 BYTE   W01
 BYTE   W04
 BYTE   W04
 BYTE   W08
 BYTE   W03
 BYTE   W04
 BYTE   W04
 BYTE   W04
 BYTE   W04
 BYTE   W03
 BYTE   N02  Fn2  v100
 BYTE   W01
 BYTE   W02
 BYTE   Gn3  v096
 BYTE   W01
 BYTE   W02
 BYTE   Gs2  v100
 BYTE   W02
 BYTE   W01
 BYTE   N44  As3  v076
 BYTE   W03
 BYTE   W04
 BYTE   W04
 BYTE   W04
 BYTE   W03
 BYTE   W04
 BYTE   W04
 BYTE   W04
 BYTE   W04
 BYTE   W14
//  #02 //038   ----------------------------------------
 BYTE   N92  Cn2  v080
 BYTE   N84  Gn3
 BYTE   W16
 BYTE   W08
 BYTE   W09
 BYTE   W08
 BYTE   W04
 BYTE   W04
 BYTE   W09
 BYTE   W04
 BYTE   W04
 BYTE   W04
 BYTE   W04
 BYTE   W05
 BYTE   W04
 BYTE   W04
 BYTE   N02  Fn3  v096
 BYTE   W03
 BYTE   Gn3  v100
 BYTE   W01
 BYTE   W02
 BYTE   Fn2  v096
 BYTE   W02
 BYTE   W01
//  #02 //039   ----------------------------------------
 BYTE   N92  Cn2  v076
 BYTE   N44  Cn3  v092
 BYTE   W13
 BYTE   W14
 BYTE   W13
 BYTE   W08
 BYTE   Gs2
 BYTE   W06
 BYTE   W13
 BYTE   W14
 BYTE   W13
 BYTE   W02
//  #02 //040   ----------------------------------------
 BYTE   N92  As2  v076
 BYTE   N92  Fn3  v088
 BYTE   W05
 BYTE   W03
 BYTE   W04
 BYTE   W03
 BYTE   W03
 BYTE   W04
 BYTE   W03
 BYTE   W04
 BYTE   W03
 BYTE   W03
 BYTE   W04
 BYTE   W03
 BYTE   W04
 BYTE   W03
 BYTE   W03
 BYTE   W04
 BYTE   W03
 BYTE   W04
 BYTE   W03
 BYTE   W03
 BYTE   W04
 BYTE   W03
 BYTE   W04
 BYTE   W03
 BYTE   W03
 BYTE   W01
 BYTE   W09
//  #02 //041   ----------------------------------------
 BYTE   As2  v076
 BYTE   N44  Fn3  v092
 BYTE   W15
 BYTE   W03
 BYTE   W03
 BYTE   W03
 BYTE   W03
 BYTE   W03
 BYTE   W03
 BYTE   W03
 BYTE   W03
 BYTE   W03
 BYTE   W03
 BYTE   W03
 BYTE   Ds3  v088
 BYTE   W03
 BYTE   W03
 BYTE   W03
 BYTE   W03
 BYTE   W03
 BYTE   W03
 BYTE   W03
 BYTE   W03
 BYTE   W03
 BYTE   W03
 BYTE   W03
 BYTE   W03
 BYTE   W03
 BYTE   W03
 BYTE   W03
 BYTE   W03
//  #02 //042   ----------------------------------------
 BYTE   TIE  Gs2  v080
 BYTE   N92  Fn3
 BYTE   W03
 BYTE   W01
 BYTE   W03
 BYTE   W03
 BYTE   W03
 BYTE   W03
 BYTE   W03
 BYTE   W03
 BYTE   W03
 BYTE   W03
 BYTE   W03
 BYTE   W03
 BYTE   W03
 BYTE   W03
 BYTE   W03
 BYTE   W03
 BYTE   W03
 BYTE   W03
 BYTE   W03
 BYTE   W03
 BYTE   W03
 BYTE   W03
 BYTE   W03
 BYTE   W03
 BYTE   W03
 BYTE   W03
 BYTE   W03
 BYTE   W03
 BYTE   W03
 BYTE   W03
 BYTE   W03
 BYTE   W02
 BYTE   W03
//  #02 //043   ----------------------------------------
 BYTE   N23  Fn3  v076
 BYTE   W03
 BYTE   W03
 BYTE   W03
 BYTE   W03
 BYTE   W03
 BYTE   W03
 BYTE   W03
 BYTE   W03
 BYTE   N24  Ds3
 BYTE   W03
 BYTE   W03
 BYTE   W03
 BYTE   W03
 BYTE   W03
 BYTE   W03
 BYTE   W03
 BYTE   W03
 BYTE   N21  As3  v080
 BYTE   W03
 BYTE   W03
 BYTE   W03
 BYTE   W03
 BYTE   W03
 BYTE   W03
 BYTE   W03
 BYTE   W03
 BYTE   N23  Gs3
 BYTE   W03
 BYTE   W03
 BYTE   W03
 BYTE   W03
 BYTE   W03
 BYTE   W03
 BYTE   W03
 BYTE   W02
 BYTE   EOT
 BYTE   Gs2
 BYTE   W01
//  #02 //044   ----------------------------------------
 BYTE   N92  As2
 BYTE   N44  Ds4  v076
 BYTE   W03
 BYTE   W03
 BYTE   W03
 BYTE   W03
 BYTE   W03
 BYTE   W03
 BYTE   W03
 BYTE   W03
 BYTE   W03
 BYTE   W03
 BYTE   W03
 BYTE   W03
 BYTE   W03
 BYTE   W03
 BYTE   W03
 BYTE   W03
 BYTE   Gs3
 BYTE   W03
 BYTE   W03
 BYTE   W03
 BYTE   W03
 BYTE   W03
 BYTE   W03
 BYTE   W03
 BYTE   W03
 BYTE   W03
 BYTE   W03
 BYTE   W03
 BYTE   W03
 BYTE   W03
 BYTE   W03
 BYTE   W02
 BYTE   W04
//  #02 //045   ----------------------------------------
 BYTE   N92  As2  v080
 BYTE   N92  As3
 BYTE   W02
 BYTE   W03
 BYTE   W06
 BYTE   W03
 BYTE   W03
 BYTE   W03
 BYTE   W06
 BYTE   W03
 BYTE   W03
 BYTE   W03
 BYTE   W06
 BYTE   W03
 BYTE   W03
 BYTE   W03
 BYTE   W03
 BYTE   W03
 BYTE   W03
 BYTE   W03
 BYTE   W06
 BYTE   W03
 BYTE   W03
 BYTE   W03
 BYTE   W03
 BYTE   W03
 BYTE   W03
 BYTE   W03
 BYTE   W03
 BYTE   W03
 BYTE   W01
//  #02 //046   ----------------------------------------
 BYTE   TIE  Gs2  v076
 BYTE   TIE  Gs3  v080
 BYTE   W02
 BYTE   W03
 BYTE   W03
 BYTE   W03
 BYTE   W03
 BYTE   W03
 BYTE   W03
 BYTE   W03
 BYTE   W03
 BYTE   W03
 BYTE   W03
 BYTE   W03
 BYTE   W03
 BYTE   W03
 BYTE   W03
 BYTE   W03
 BYTE   W03
 BYTE   W03
 BYTE   W03
 BYTE   W03
 BYTE   W03
 BYTE   W03
 BYTE   W03
 BYTE   W03
 BYTE   W03
 BYTE   W03
 BYTE   W03
 BYTE   W03
 BYTE   W03
 BYTE   W03
 BYTE   W03
 BYTE   W03
 BYTE   W01
//  #02 //047   ----------------------------------------
 BYTE   W02
 BYTE   W03
 BYTE   W03
 BYTE   W03
 BYTE   EOT
 BYTE   Gs2  v068
 BYTE   W03
 BYTE   W03
 BYTE   W03
 BYTE   W03
 BYTE   W03
 BYTE   W03
 BYTE   W03
 BYTE   W03
 BYTE   W03
 BYTE   W03
 BYTE   W02
 BYTE   W52
 BYTE   W01
//  #02 //048   ----------------------------------------
 BYTE   GoTo
  POIN2 Label_012DFA64
//  #02 //049   ----------------------------------------
 BYTE   W02
 BYTE   FINE

//**************** Track 3 (Midi-Chn.2) ****************//

song0D_003:
//  #03 //000   ----------------------------------------
 BYTE   KEYSH   song0D_key+0
 BYTE   VOICE   110
 BYTE   VOL   34*song0D_mvl/mxv
 BYTE   PAN   c_v+0
 BYTE   TIE  Cs2  v112
 BYTE   W03
 BYTE   W03
 BYTE   W03
 BYTE   W03
 BYTE   W03
 BYTE   W03
 BYTE   W03
 BYTE   W06
 BYTE   W06
 BYTE   W06
 BYTE   W06
 BYTE   W03
 BYTE   W03
 BYTE   W06
 BYTE   W03
 BYTE   W03
 BYTE   W06
 BYTE   W03
 BYTE   W03
 BYTE   W03
 BYTE   W03
 BYTE   W03
 BYTE   W03
 BYTE   W03
 BYTE   W03
 BYTE   W03
//  #03 //001   ----------------------------------------
 BYTE   W03
 BYTE   W03
 BYTE   W03
 BYTE   W03
 BYTE   W03
 BYTE   W03
 BYTE   W03
 BYTE   W03
 BYTE   W03
 BYTE   W03
 BYTE   W03
 BYTE   W03
 BYTE   W03
 BYTE   W03
 BYTE   W03
 BYTE   W03
 BYTE   W03
 BYTE   W03
 BYTE   W18
 BYTE   EOT
 BYTE   W24
//  #03 //002   ----------------------------------------
Label_012DF766:
 BYTE   W96
//  #03 //003   ----------------------------------------
 BYTE   W96
//  #03 //004   ----------------------------------------
 BYTE   W96
//  #03 //005   ----------------------------------------
 BYTE   W36
 BYTE   W03
 BYTE   W03
 BYTE   W03
 BYTE   W03
 BYTE   N24  Fs2  v080
 BYTE   N24  Ds3
 BYTE   W03
 BYTE   W03
 BYTE   W03
 BYTE   W03
 BYTE   W03
 BYTE   W03
 BYTE   N05  Gs2  v076
 BYTE   N05  En3  v080
 BYTE   W03
 BYTE   W03
 BYTE   N23  An2
 BYTE   N23  Fs3  v084
 BYTE   W03
 BYTE   W03
 BYTE   W03
 BYTE   W03
 BYTE   W03
 BYTE   W03
 BYTE   W06
//  #03 //006   ----------------------------------------
 BYTE   N92  Gs2  v068
 BYTE   N92  En3  v080
 BYTE   W03
 BYTE   W09
 BYTE   W09
 BYTE   W09
 BYTE   W09
 BYTE   W06
 BYTE   W09
 BYTE   W06
 BYTE   W09
 BYTE   W03
 BYTE   W09
 BYTE   W06
 BYTE   W03
 BYTE   W06
//  #03 //007   ----------------------------------------
 BYTE   Fs2
 BYTE   W03
 BYTE   W06
 BYTE   W09
 BYTE   W03
 BYTE   W03
 BYTE   N23  En3  v072
 BYTE   W03
 BYTE   W03
 BYTE   W06
 BYTE   W03
 BYTE   W06
 BYTE   W03
 BYTE   Ds3
 BYTE   W03
 BYTE   W03
 BYTE   W03
 BYTE   W03
 BYTE   W03
 BYTE   W03
 BYTE   W03
 BYTE   W03
 BYTE   Bn2  v080
 BYTE   W03
 BYTE   W03
 BYTE   W03
 BYTE   W03
 BYTE   W03
 BYTE   W03
 BYTE   W06
//  #03 //008   ----------------------------------------
 BYTE   N44  Gs2
 BYTE   N44  Cs3  v084
 BYTE   W12
 BYTE   W15
 BYTE   W09
 BYTE   W09
 BYTE   W03
 BYTE   An2  v080
 BYTE   N44  Cs3  v084
 BYTE   W06
 BYTE   W09
 BYTE   W09
 BYTE   W06
 BYTE   W09
 BYTE   W03
 BYTE   W06
//  #03 //009   ----------------------------------------
 BYTE   Bn2
 BYTE   W09
 BYTE   W03
 BYTE   W06
 BYTE   W03
 BYTE   W06
 BYTE   W03
 BYTE   W06
 BYTE   W03
 BYTE   W03
 BYTE   W03
 BYTE   W03
 BYTE   Cs3  v088
 BYTE   W03
 BYTE   W03
 BYTE   W06
 BYTE   W03
 BYTE   W03
 BYTE   W03
 BYTE   W03
 BYTE   W03
 BYTE   W03
 BYTE   W03
 BYTE   W03
 BYTE   W03
 BYTE   W03
 BYTE   W06
//  #03 //010   ----------------------------------------
 BYTE   N92  En2  v080
 BYTE   N92  Gs2
 BYTE   W96
//  #03 //011   ----------------------------------------
 BYTE   TIE  En2  v076
 BYTE   TIE  Gs2
 BYTE   W18
 BYTE   W06
 BYTE   W06
 BYTE   W03
 BYTE   W06
 BYTE   W03
 BYTE   W03
 BYTE   W06
 BYTE   W03
 BYTE   W03
 BYTE   W03
 BYTE   W03
 BYTE   W03
 BYTE   W03
 BYTE   W03
 BYTE   W03
 BYTE   W03
 BYTE   W03
 BYTE   W03
 BYTE   W03
 BYTE   W03
 BYTE   W03
 BYTE   W03
//  #03 //012   ----------------------------------------
 BYTE   W03
 BYTE   W03
 BYTE   W03
 BYTE   W03
 BYTE   W03
 BYTE   W03
 BYTE   W03
 BYTE   W02
 BYTE   EOT
 BYTE   En2  v056
 BYTE   W01
 BYTE   W72
//  #03 //013   ----------------------------------------
 BYTE   W96
//  #03 //014   ----------------------------------------
 BYTE   N92  Cs2  v092
 BYTE   W06
 BYTE   W06
 BYTE   W06
 BYTE   W03
 BYTE   W06
 BYTE   W03
 BYTE   W03
 BYTE   W06
 BYTE   W03
 BYTE   W03
 BYTE   W03
 BYTE   W03
 BYTE   W03
 BYTE   W03
 BYTE   W03
 BYTE   W03
 BYTE   W03
 BYTE   W03
 BYTE   W03
 BYTE   W03
 BYTE   W03
 BYTE   W03
 BYTE   W03
 BYTE   W03
 BYTE   W03
 BYTE   W03
 BYTE   W03
//  #03 //015   ----------------------------------------
 BYTE   Cs2  v096
 BYTE   W92
 BYTE   W01
 BYTE   W03
//  #03 //016   ----------------------------------------
 BYTE   W03
 BYTE   N92
 BYTE   W03
 BYTE   W03
 BYTE   W03
 BYTE   W03
 BYTE   W03
 BYTE   W03
 BYTE   W03
 BYTE   W03
 BYTE   W03
 BYTE   W03
 BYTE   W03
 BYTE   W03
 BYTE   W03
 BYTE   W03
 BYTE   W03
 BYTE   W03
 BYTE   W03
 BYTE   W03
 BYTE   W03
 BYTE   W03
 BYTE   W03
 BYTE   W03
 BYTE   W03
 BYTE   W03
 BYTE   W03
 BYTE   W03
 BYTE   W03
 BYTE   W03
 BYTE   W03
 BYTE   W03
 BYTE   W03
//  #03 //017   ----------------------------------------
 BYTE   Bn1  v100
 BYTE   W03
 BYTE   W03
 BYTE   W06
 BYTE   W03
 BYTE   W03
 BYTE   W03
 BYTE   W03
 BYTE   W03
 BYTE   W03
 BYTE   W03
 BYTE   W03
 BYTE   W03
 BYTE   W03
 BYTE   W03
 BYTE   W03
 BYTE   W03
 BYTE   W03
 BYTE   W03
 BYTE   W03
 BYTE   W03
 BYTE   W03
 BYTE   W03
 BYTE   W03
 BYTE   W03
 BYTE   W03
 BYTE   W03
 BYTE   W03
 BYTE   W03
 BYTE   W03
 BYTE   W03
 BYTE   W03
//  #03 //018   ----------------------------------------
 BYTE   N68  Ds3  v088
 BYTE   N92  An3  v092
 BYTE   W09
 BYTE   W06
 BYTE   W09
 BYTE   W06
 BYTE   W06
 BYTE   W06
 BYTE   W06
 BYTE   W09
 BYTE   W03
 BYTE   W06
 BYTE   W03
 BYTE   W03
 BYTE   N23  En3  v096
 BYTE   W03
 BYTE   W03
 BYTE   W09
 BYTE   W03
 BYTE   W03
 BYTE   W03
//  #03 //019   ----------------------------------------
 BYTE   N68  Bn2  v088
 BYTE   N92  Gs3  v084
 BYTE   W03
 BYTE   W06
 BYTE   W03
 BYTE   W03
 BYTE   W03
 BYTE   W06
 BYTE   W03
 BYTE   W03
 BYTE   W03
 BYTE   W03
 BYTE   W03
 BYTE   W03
 BYTE   W03
 BYTE   W03
 BYTE   W06
 BYTE   W03
 BYTE   W03
 BYTE   W03
 BYTE   W03
 BYTE   W03
 BYTE   W03
 BYTE   N23  En3  v096
 BYTE   W03
 BYTE   W03
 BYTE   W03
 BYTE   W03
 BYTE   W03
 BYTE   W03
 BYTE   W03
 BYTE   W03
//  #03 //020   ----------------------------------------
 BYTE   N68  Ds3  v088
 BYTE   N92  Fs3  v092
 BYTE   W06
 BYTE   W06
 BYTE   W03
 BYTE   W09
 BYTE   W03
 BYTE   W06
 BYTE   W03
 BYTE   W03
 BYTE   W09
 BYTE   W03
 BYTE   W03
 BYTE   W09
 BYTE   W03
 BYTE   W03
 BYTE   W03
 BYTE   N23  En3  v096
 BYTE   W03
 BYTE   W09
 BYTE   W03
 BYTE   W03
 BYTE   W03
 BYTE   W03
//  #03 //021   ----------------------------------------
 BYTE   N44  Gs2  v088
 BYTE   N92  Gs3  v092
 BYTE   W03
 BYTE   W03
 BYTE   W03
 BYTE   W03
 BYTE   W03
 BYTE   W06
 BYTE   W03
 BYTE   W03
 BYTE   W03
 BYTE   W03
 BYTE   W06
 BYTE   W03
 BYTE   W03
 BYTE   W03
 BYTE   N44  En3  v096
 BYTE   W03
 BYTE   W06
 BYTE   W03
 BYTE   W03
 BYTE   W03
 BYTE   W03
 BYTE   W06
 BYTE   W03
 BYTE   W03
 BYTE   W03
 BYTE   W03
 BYTE   W06
 BYTE   W03
//  #03 //022   ----------------------------------------
 BYTE   N92  Fs2  v092
 BYTE   N92  Cs3
 BYTE   W03
 BYTE   W03
 BYTE   W03
 BYTE   W09
 BYTE   W06
 BYTE   W06
 BYTE   W09
 BYTE   W06
 BYTE   W03
 BYTE   W06
 BYTE   W06
 BYTE   W03
 BYTE   W06
 BYTE   W03
 BYTE   W06
 BYTE   W03
 BYTE   W03
 BYTE   W06
 BYTE   W03
 BYTE   W03
//  #03 //023   ----------------------------------------
 BYTE   Gn2  v096
 BYTE   N92  Cn3
 BYTE   W03
 BYTE   W06
 BYTE   W03
 BYTE   W03
 BYTE   W03
 BYTE   W03
 BYTE   W03
 BYTE   W03
 BYTE   W03
 BYTE   W03
 BYTE   W03
 BYTE   W06
 BYTE   W03
 BYTE   W03
 BYTE   W03
 BYTE   W03
 BYTE   W03
 BYTE   W03
 BYTE   W03
 BYTE   W03
 BYTE   W03
 BYTE   W03
 BYTE   W03
 BYTE   W03
 BYTE   W03
 BYTE   W03
 BYTE   W03
 BYTE   W03
 BYTE   W03
 BYTE   W03
//  #03 //024   ----------------------------------------
 BYTE   An2  v092
 BYTE   N92  Cn3  v088
 BYTE   N92  Fn3
 BYTE   W03
 BYTE   W03
 BYTE   W06
 BYTE   W03
 BYTE   W03
 BYTE   W06
 BYTE   W03
 BYTE   W03
 BYTE   W03
 BYTE   W03
 BYTE   W03
 BYTE   W03
 BYTE   W03
 BYTE   W03
 BYTE   W03
 BYTE   W03
 BYTE   W03
 BYTE   W03
 BYTE   W03
 BYTE   W03
 BYTE   W03
 BYTE   W03
 BYTE   W03
 BYTE   W03
 BYTE   W03
 BYTE   W03
 BYTE   W03
 BYTE   W03
 BYTE   W03
 BYTE   W03
//  #03 //025   ----------------------------------------
 BYTE   Fs2  v096
 BYTE   N92  Ds3  v084
 BYTE   W06
 BYTE   W06
 BYTE   W03
 BYTE   W06
 BYTE   W06
 BYTE   W03
 BYTE   W03
 BYTE   W03
 BYTE   W06
 BYTE   W03
 BYTE   W03
 BYTE   W03
 BYTE   W03
 BYTE   W03
 BYTE   W03
 BYTE   W03
 BYTE   W03
 BYTE   W03
 BYTE   W03
 BYTE   W03
 BYTE   W03
 BYTE   W03
 BYTE   W03
 BYTE   W12
//  #03 //026   ----------------------------------------
 BYTE   W96
//  #03 //027   ----------------------------------------
 BYTE   W96
//  #03 //028   ----------------------------------------
 BYTE   W96
//  #03 //029   ----------------------------------------
 BYTE   W96
//  #03 //030   ----------------------------------------
 BYTE   W96
//  #03 //031   ----------------------------------------
 BYTE   W96
//  #03 //032   ----------------------------------------
 BYTE   PAN   c_v-14
 BYTE   W96
//  #03 //033   ----------------------------------------
 BYTE   W96
//  #03 //034   ----------------------------------------
 BYTE   W96
//  #03 //035   ----------------------------------------
 BYTE   W96
//  #03 //036   ----------------------------------------
 BYTE   W96
//  #03 //037   ----------------------------------------
 BYTE   W96
//  #03 //038   ----------------------------------------
 BYTE   W96
//  #03 //039   ----------------------------------------
 BYTE   PAN   c_v+21
 BYTE   W03
 BYTE   W03
 BYTE   W03
 BYTE   W03
 BYTE   W03
 BYTE   W03
 BYTE   W03
 BYTE   W03
 BYTE   W03
 BYTE   W03
 BYTE   W03
 BYTE   W03
 BYTE   W03
 BYTE   W03
 BYTE   W03
 BYTE   W03
 BYTE   W03
 BYTE   W03
 BYTE   W03
 BYTE   W03
 BYTE   W03
 BYTE   W03
 BYTE   W03
 BYTE   W03
 BYTE   W03
 BYTE   W03
 BYTE   W03
 BYTE   W15
//  #03 //040   ----------------------------------------
 BYTE   W96
//  #03 //041   ----------------------------------------
 BYTE   W96
//  #03 //042   ----------------------------------------
 BYTE   W96
//  #03 //043   ----------------------------------------
 BYTE   W96
//  #03 //044   ----------------------------------------
 BYTE   W96
//  #03 //045   ----------------------------------------
 BYTE   W96
//  #03 //046   ----------------------------------------
 BYTE   W96
//  #03 //047   ----------------------------------------
 BYTE   W96
//  #03 //048   ----------------------------------------
 BYTE   GoTo
  POIN2 Label_012DF766
//  #03 //049   ----------------------------------------
 BYTE   PAN   c_v+6
 BYTE   W02
 BYTE   FINE

//**************** Track 4 (Midi-Chn.3) ****************//

song0D_004:
//  #04 //000   ----------------------------------------
 BYTE   KEYSH   song0D_key+0
 BYTE   VOICE   61
 BYTE   PAN   c_v+0
 BYTE   VOL   45*song0D_mvl/mxv
 BYTE   W96
//  #04 //001   ----------------------------------------
 BYTE   W96
//  #04 //002   ----------------------------------------
Label_012E939A:
 BYTE   N36  Cs2  v112
 BYTE   W36
 BYTE   W03
 BYTE   N02  Ds2  v120
 BYTE   W03
 BYTE   En2
 BYTE   W03
 BYTE   Fs2
 BYTE   W03
 BYTE   N68  Gs2  v116
 BYTE   W02
 BYTE   W01
 BYTE   W01
 BYTE   W01
 BYTE   W01
 BYTE   W01
 BYTE   W06
 BYTE   W03
 BYTE   W03
 BYTE   W03
 BYTE   W03
 BYTE   W03
 BYTE   W03
 BYTE   W03
 BYTE   W03
 BYTE   W03
 BYTE   W03
 BYTE   W03
 BYTE   W02
//  #04 //003   ----------------------------------------
 BYTE   W01
 BYTE   W03
 BYTE   W03
 BYTE   W03
 BYTE   W03
 BYTE   W03
 BYTE   W02
 BYTE   W06
 BYTE   N18  Bn2
 BYTE   W24
 BYTE   N14  As2  v120
 BYTE   W16
 BYTE   Gs2
 BYTE   W16
 BYTE   Fs2
 BYTE   W16
//  #04 //004   ----------------------------------------
Label_012E93D0:
 BYTE   N80  Gs2  v120
 BYTE   W84
 BYTE   N05  En2  v108
 BYTE   W06
 BYTE   Fs2  v120
 BYTE   W06
 BYTE   PEND 
//  #04 //005   ----------------------------------------
 BYTE   N72  Gs2  v124
 BYTE   W05
 BYTE   W03
 BYTE   W03
 BYTE   W03
 BYTE   W03
 BYTE   W03
 BYTE   W03
 BYTE   W03
 BYTE   W03
 BYTE   W03
 BYTE   W03
 BYTE   W03
 BYTE   W03
 BYTE   W03
 BYTE   W03
 BYTE   W03
 BYTE   W03
 BYTE   W03
 BYTE   W03
 BYTE   W03
 BYTE   W03
 BYTE   W03
 BYTE   W03
 BYTE   W03
 BYTE   W03
 BYTE   W02
 BYTE   W02
 BYTE   W01
 BYTE   W02
 BYTE   W01
 BYTE   W02
 BYTE   W01
 BYTE   W02
 BYTE   W01
 BYTE   W02
 BYTE   W01
 BYTE   W02
//  #04 //006   ----------------------------------------
 BYTE   N32  Cs2  v112
 BYTE   W01
 BYTE   W02
 BYTE   W01
 BYTE   W02
 BYTE   W01
 BYTE   W02
 BYTE   W01
 BYTE   W02
 BYTE   W01
 BYTE   W02
 BYTE   W01
 BYTE   W02
 BYTE   W01
 BYTE   W02
 BYTE   W01
 BYTE   W02
 BYTE   W01
 BYTE   W02
 BYTE   W01
 BYTE   W11
 BYTE   N02  Ds2  v120
 BYTE   W03
 BYTE   En2
 BYTE   W03
 BYTE   Fs2
 BYTE   W03
 BYTE   N64  Gs2  v116
 BYTE   W01
 BYTE   W01
 BYTE   W01
 BYTE   W01
 BYTE   W03
 BYTE   W03
 BYTE   W03
 BYTE   W03
 BYTE   W03
 BYTE   W03
 BYTE   W03
 BYTE   W03
 BYTE   W03
 BYTE   W03
 BYTE   W03
 BYTE   W03
 BYTE   W03
 BYTE   W03
 BYTE   W02
//  #04 //007   ----------------------------------------
 BYTE   W01
 BYTE   W03
 BYTE   W03
 BYTE   W03
 BYTE   W01
 BYTE   W13
 BYTE   N22  An2
 BYTE   W24
 BYTE   N14  Gs2  v120
 BYTE   W16
 BYTE   Cs2
 BYTE   W16
 BYTE   Ds2
 BYTE   W16
//  #04 //008   ----------------------------------------
 BYTE   N80  Gs2
 BYTE   W84
 BYTE   N05  Fs2  v108
 BYTE   W06
 BYTE   Gs2  v104
 BYTE   W06
//  #04 //009   ----------------------------------------
 BYTE   N80  Cs3  v096
 BYTE   W11
 BYTE   W06
 BYTE   W06
 BYTE   W03
 BYTE   W03
 BYTE   W06
 BYTE   W03
 BYTE   W03
 BYTE   W03
 BYTE   W03
 BYTE   W03
 BYTE   W03
 BYTE   W03
 BYTE   W03
 BYTE   W03
 BYTE   W03
 BYTE   W03
 BYTE   W03
 BYTE   W03
 BYTE   W03
 BYTE   W03
 BYTE   W03
 BYTE   W03
 BYTE   W03
 BYTE   W03
 BYTE   W03
 BYTE   W01
//  #04 //010   ----------------------------------------
 BYTE   N32  Cs2  v112
 BYTE   W02
 BYTE   W01
 BYTE   W02
 BYTE   W01
 BYTE   W02
 BYTE   W01
 BYTE   W02
 BYTE   W01
 BYTE   W02
 BYTE   W01
 BYTE   W02
 BYTE   W01
 BYTE   W02
 BYTE   W01
 BYTE   W18
 BYTE   N02  Ds2  v108
 BYTE   W03
 BYTE   En2
 BYTE   W03
 BYTE   Fs2
 BYTE   W03
 BYTE   N68  Gs2  v116
 BYTE   W01
 BYTE   W01
 BYTE   W06
 BYTE   W03
 BYTE   W03
 BYTE   W03
 BYTE   W03
 BYTE   W03
 BYTE   W03
 BYTE   W03
 BYTE   W03
 BYTE   W03
 BYTE   W03
 BYTE   W03
 BYTE   W03
 BYTE   W03
 BYTE   W01
//  #04 //011   ----------------------------------------
 BYTE   W02
 BYTE   W03
 BYTE   W03
 BYTE   W03
 BYTE   W03
 BYTE   W03
 BYTE   W03
 BYTE   W04
 BYTE   N18  Bn2
 BYTE   W24
 BYTE   N14  As2  v120
 BYTE   W16
 BYTE   Gs2
 BYTE   W16
 BYTE   Fs2
 BYTE   W16
//  #04 //012   ----------------------------------------
 BYTE   PATT
  POIN2 Label_012E93D0
//  #04 //013   ----------------------------------------
 BYTE   N72  Gs2  v124
 BYTE   W02
 BYTE   W03
 BYTE   W03
 BYTE   W03
 BYTE   W03
 BYTE   W03
 BYTE   W03
 BYTE   W03
 BYTE   W03
 BYTE   W03
 BYTE   W03
 BYTE   W03
 BYTE   W03
 BYTE   W03
 BYTE   W03
 BYTE   W03
 BYTE   W03
 BYTE   W03
 BYTE   W03
 BYTE   W03
 BYTE   W03
 BYTE   W03
 BYTE   W03
 BYTE   W03
 BYTE   W19
 BYTE   W03
 BYTE   W01
 BYTE   W02
//  #04 //014   ----------------------------------------
 BYTE   N32  Cs2  v112
 BYTE   W01
 BYTE   W02
 BYTE   W01
 BYTE   W02
 BYTE   W01
 BYTE   W02
 BYTE   W01
 BYTE   W02
 BYTE   W01
 BYTE   W02
 BYTE   W01
 BYTE   W02
 BYTE   W01
 BYTE   W02
 BYTE   W01
 BYTE   W02
 BYTE   W01
 BYTE   W02
 BYTE   W01
 BYTE   W02
 BYTE   W01
 BYTE   W02
 BYTE   W06
 BYTE   N02  Ds2  v108
 BYTE   W03
 BYTE   En2
 BYTE   W03
 BYTE   Fs2
 BYTE   W03
 BYTE   N68  Gs2  v116
 BYTE   W01
 BYTE   W01
 BYTE   W01
 BYTE   W01
 BYTE   W06
 BYTE   W03
 BYTE   W03
 BYTE   W03
 BYTE   W03
 BYTE   W03
 BYTE   W03
 BYTE   W03
 BYTE   W03
 BYTE   W03
 BYTE   W03
 BYTE   W03
 BYTE   W03
 BYTE   W02
//  #04 //015   ----------------------------------------
 BYTE   W01
 BYTE   W03
 BYTE   W03
 BYTE   W03
 BYTE   W03
 BYTE   W03
 BYTE   W02
 BYTE   W06
 BYTE   N21  Bn2  v120
 BYTE   W24
 BYTE   N14  As2  v116
 BYTE   W16
 BYTE   Bn2  v124
 BYTE   W16
 BYTE   Cs3  v108
 BYTE   W16
//  #04 //016   ----------------------------------------
 BYTE   N84  Cs3  v096
 BYTE   W09
 BYTE   W11
 BYTE   W05
 BYTE   W06
 BYTE   W05
 BYTE   W05
 BYTE   W05
 BYTE   W06
 BYTE   W05
 BYTE   W05
 BYTE   W05
 BYTE   W06
 BYTE   W05
 BYTE   W05
 BYTE   W04
 BYTE   N02  Ds3  v088
 BYTE   W02
 BYTE   W01
 BYTE   Cs3
 BYTE   W03
 BYTE   Ds3
 BYTE   W01
 BYTE   W02
//  #04 //017   ----------------------------------------
 BYTE   N92  Gs3
 BYTE   W07
 BYTE   W01
 BYTE   W01
 BYTE   W01
 BYTE   W01
 BYTE   W01
 BYTE   W01
 BYTE   W01
 BYTE   W01
 BYTE   W03
 BYTE   W03
 BYTE   W03
 BYTE   W03
 BYTE   W03
 BYTE   W03
 BYTE   W03
 BYTE   W03
 BYTE   W03
 BYTE   W03
 BYTE   W03
 BYTE   W03
 BYTE   W03
 BYTE   W03
 BYTE   W03
 BYTE   W03
 BYTE   W03
 BYTE   W03
 BYTE   W03
 BYTE   W03
 BYTE   W03
 BYTE   W03
 BYTE   W03
 BYTE   W03
 BYTE   W09
//  #04 //018   ----------------------------------------
 BYTE   W96
//  #04 //019   ----------------------------------------
 BYTE   W96
//  #04 //020   ----------------------------------------
 BYTE   W96
//  #04 //021   ----------------------------------------
 BYTE   W96
//  #04 //022   ----------------------------------------
 BYTE   W96
//  #04 //023   ----------------------------------------
 BYTE   W96
//  #04 //024   ----------------------------------------
 BYTE   W84
 BYTE   W01
 BYTE   W02
 BYTE   W01
 BYTE   W02
 BYTE   W01
 BYTE   W02
 BYTE   W01
 BYTE   W02
//  #04 //025   ----------------------------------------
 BYTE   W01
 BYTE   W02
 BYTE   W01
 BYTE   W02
 BYTE   W01
 BYTE   W02
 BYTE   W01
 BYTE   W02
 BYTE   W01
 BYTE   W02
 BYTE   W01
 BYTE   W02
 BYTE   W01
 BYTE   W02
 BYTE   W01
 BYTE   W02
 BYTE   W01
 BYTE   W02
 BYTE   W01
 BYTE   W02
 BYTE   W01
 BYTE   W02
 BYTE   W01
 BYTE   W02
 BYTE   W01
 BYTE   W02
 BYTE   W01
 BYTE   W02
 BYTE   W01
 BYTE   W02
 BYTE   W01
 BYTE   W02
 BYTE   W01
 BYTE   W02
 BYTE   W01
 BYTE   W02
 BYTE   W01
 BYTE   W02
 BYTE   W01
 BYTE   W02
 BYTE   W01
 BYTE   W02
 BYTE   W01
 BYTE   W02
 BYTE   W01
 BYTE   W02
 BYTE   W01
 BYTE   W02
 BYTE   W01
 BYTE   W02
 BYTE   W01
 BYTE   W02
 BYTE   W01
 BYTE   W02
 BYTE   W01
 BYTE   W02
 BYTE   W01
 BYTE   W02
 BYTE   W01
 BYTE   W08
//  #04 //026   ----------------------------------------
 BYTE   TIE  En2  v127
 BYTE   W04
 BYTE   W01
 BYTE   W01
 BYTE   W01
 BYTE   W01
 BYTE   W01
 BYTE   W01
 BYTE   W06
 BYTE   W03
 BYTE   W03
 BYTE   W03
 BYTE   W03
 BYTE   W03
 BYTE   W03
 BYTE   W03
 BYTE   W03
 BYTE   W03
 BYTE   W03
 BYTE   W03
 BYTE   W03
 BYTE   W03
 BYTE   W03
 BYTE   W03
 BYTE   W03
 BYTE   W03
 BYTE   W03
 BYTE   W03
 BYTE   W03
 BYTE   W03
 BYTE   W03
 BYTE   W03
 BYTE   W03
 BYTE   W03
 BYTE   W03
 BYTE   W02
//  #04 //027   ----------------------------------------
 BYTE   W01
 BYTE   W03
 BYTE   W03
 BYTE   W02
 BYTE   W07
 BYTE   EOT
 BYTE   W02
 BYTE   N05  En2  v048
 BYTE   W06
 BYTE   N17  En2  v124
 BYTE   W18
 BYTE   N05  En2  v048
 BYTE   W06
 BYTE   N17  Gn2  v124
 BYTE   N17  Bn2  v104
 BYTE   W18
 BYTE   N05  Gn2  v048
 BYTE   N05  Bn2
 BYTE   W06
 BYTE   N15  Bn2  v108
 BYTE   N17  En3  v104
 BYTE   W18
 BYTE   N05  Bn2  v048
 BYTE   N05  En3
 BYTE   W06
//  #04 //028   ----------------------------------------
 BYTE   N14  Cn3  v104
 BYTE   N17  Fs3  v088
 BYTE   W18
 BYTE   N05  Cn3
 BYTE   N05  Gn3
 BYTE   W06
 BYTE   N92  Cn3  v108
 BYTE   N90  Gn3  v127
 BYTE   W03
 BYTE   W01
 BYTE   W01
 BYTE   W01
 BYTE   W01
 BYTE   W01
 BYTE   W01
 BYTE   W01
 BYTE   W06
 BYTE   W03
 BYTE   W03
 BYTE   W03
 BYTE   W03
 BYTE   W03
 BYTE   W03
 BYTE   W03
 BYTE   W03
 BYTE   W03
 BYTE   W03
 BYTE   W03
 BYTE   W03
 BYTE   W03
 BYTE   W03
 BYTE   W03
 BYTE   W03
 BYTE   W03
 BYTE   W03
 BYTE   W02
//  #04 //029   ----------------------------------------
 BYTE   W01
 BYTE   W03
 BYTE   W03
 BYTE   W02
 BYTE   W12
 BYTE   N02  Cn3  v048
 BYTE   N02  Gn3
 BYTE   W03
 BYTE   N17  Dn3  v104
 BYTE   N17  Fs3  v092
 BYTE   W18
 BYTE   N05  Dn3  v080
 BYTE   N05  Gn3
 BYTE   W06
 BYTE   N11  Dn3  v084
 BYTE   N11  Fs3  v100
 BYTE   W12
 BYTE   N03  Dn3  v048
 BYTE   N03  Fs3
 BYTE   W04
 BYTE   N11  An2  v092
 BYTE   N11  Dn3  v108
 BYTE   W12
 BYTE   N03  An2  v048
 BYTE   N03  Dn3
 BYTE   W04
 BYTE   N12  Dn2  v096
 BYTE   N12  An2  v116
 BYTE   W13
 BYTE   N02  Dn2  v048
 BYTE   N02  An2
 BYTE   W03
//  #04 //030   ----------------------------------------
 BYTE   N92  Bn2  v104
 BYTE   W04
 BYTE   W11
 BYTE   W11
 BYTE   W11
 BYTE   W06
 BYTE   W05
 BYTE   W06
 BYTE   W05
 BYTE   W06
 BYTE   W05
 BYTE   W06
 BYTE   W05
 BYTE   W06
 BYTE   W05
 BYTE   W01
 BYTE   W03
//  #04 //031   ----------------------------------------
 BYTE   N05  Bn2  v048
 BYTE   W13
 BYTE   W02
 BYTE   N02  Fs2  v104
 BYTE   W03
 BYTE   Gn2
 BYTE   W01
 BYTE   W02
 BYTE   An2
 BYTE   W03
 BYTE   N14  En2  v120
 BYTE   N14  Bn2  v127
 BYTE   W06
 BYTE   W06
 BYTE   W03
 BYTE   N02  Bn2  v104
 BYTE   W03
 BYTE   Cn3
 BYTE   W03
 BYTE   Dn3
 BYTE   W02
 BYTE   W01
 BYTE   N14  Bn2  v088
 BYTE   N14  En3  v104
 BYTE   W04
 BYTE   W06
 BYTE   W05
 BYTE   N02  Dn3
 BYTE   W03
 BYTE   En3
 BYTE   W03
 BYTE   Fs3
 BYTE   W03
 BYTE   N23  En3  v108
 BYTE   N23  An3  v120
 BYTE   W03
 BYTE   W05
 BYTE   W06
 BYTE   W10
//  #04 //032   ----------------------------------------
 BYTE   N68  Gn3  v088
 BYTE   N68  Bn3  v096
 BYTE   W03
 BYTE   W01
 BYTE   W01
 BYTE   W01
 BYTE   W01
 BYTE   W06
 BYTE   W03
 BYTE   W03
 BYTE   W03
 BYTE   W03
 BYTE   W03
 BYTE   W03
 BYTE   W03
 BYTE   W03
 BYTE   W03
 BYTE   W03
 BYTE   W03
 BYTE   W03
 BYTE   W03
 BYTE   W03
 BYTE   W03
 BYTE   W03
 BYTE   W03
 BYTE   W01
 BYTE   W04
 BYTE   N02  Gn3  v048
 BYTE   N02  Bn3
 BYTE   W03
 BYTE   N17  Dn3  v104
 BYTE   N17  Fs3
 BYTE   W07
 BYTE   W03
 BYTE   W03
 BYTE   W03
 BYTE   W02
 BYTE   N05  Dn3  v048
 BYTE   N05  Fs3
 BYTE   W01
 BYTE   W03
 BYTE   W02
//  #04 //033   ----------------------------------------
 BYTE   N44  Bn2  v088
 BYTE   N44  En3  v100
 BYTE   W01
 BYTE   W03
 BYTE   W03
 BYTE   W03
 BYTE   W03
 BYTE   W03
 BYTE   W03
 BYTE   W03
 BYTE   W03
 BYTE   W03
 BYTE   W03
 BYTE   W03
 BYTE   W03
 BYTE   W03
 BYTE   W03
 BYTE   W02
 BYTE   W03
 BYTE   N17  Bn2  v104
 BYTE   N17  Dn3  v112
 BYTE   W03
 BYTE   W03
 BYTE   W03
 BYTE   W03
 BYTE   W03
 BYTE   W03
 BYTE   N05  Cs3
 BYTE   N05  En3  v116
 BYTE   W03
 BYTE   W03
 BYTE   N23  Dn3  v112
 BYTE   N23  Fs3  v120
 BYTE   W03
 BYTE   W03
 BYTE   W03
 BYTE   W03
 BYTE   W03
 BYTE   W03
 BYTE   W06
//  #04 //034   ----------------------------------------
 BYTE   N11  Cn2  v116
 BYTE   W12
 BYTE   N03  Fn2  v104
 BYTE   W04
 BYTE   Gs2
 BYTE   W04
 BYTE   As2
 BYTE   W04
 BYTE   N52  Cn3  v112
 BYTE   W01
 BYTE   W01
 BYTE   W01
 BYTE   W01
 BYTE   W06
 BYTE   W03
 BYTE   W03
 BYTE   W03
 BYTE   W03
 BYTE   W03
 BYTE   W03
 BYTE   W03
 BYTE   W03
 BYTE   W03
 BYTE   W03
 BYTE   W03
 BYTE   W01
 BYTE   W10
 BYTE   N05  Cn3  v060
 BYTE   W06
 BYTE   N03  Fn2  v084
 BYTE   N03  Gs2  v112
 BYTE   W04
 BYTE   Cn2  v084
 BYTE   N03  Fn2  v112
 BYTE   W04
 BYTE   Gs2  v100
 BYTE   N03  Cn3  v104
 BYTE   W04
//  #04 //035   ----------------------------------------
 BYTE   N44  Fn2
 BYTE   N44  As2  v096
 BYTE   W01
 BYTE   W01
 BYTE   W01
 BYTE   W06
 BYTE   W03
 BYTE   W03
 BYTE   W03
 BYTE   W03
 BYTE   W03
 BYTE   W03
 BYTE   W03
 BYTE   W03
 BYTE   W03
 BYTE   W03
 BYTE   W03
 BYTE   W03
 BYTE   W03
 BYTE   N05  Gs2  v088
 BYTE   N05  Cn3  v116
 BYTE   W06
 BYTE   N11  Gs2  v056
 BYTE   N11  Cn3
 BYTE   W12
 BYTE   N05  As2  v088
 BYTE   N05  Cs3  v116
 BYTE   W06
 BYTE   N23  As2  v096
 BYTE   N23  Ds3  v104
 BYTE   W24
//  #04 //036   ----------------------------------------
 BYTE   N11  Cn2  v116
 BYTE   W12
 BYTE   N03  Fn2  v104
 BYTE   W04
 BYTE   Gs2  v108
 BYTE   W04
 BYTE   As2  v104
 BYTE   W04
 BYTE   N23  Cn3  v112
 BYTE   W01
 BYTE   W01
 BYTE   W01
 BYTE   W01
 BYTE   W01
 BYTE   W03
 BYTE   W01
 BYTE   W02
 BYTE   W01
 BYTE   W02
 BYTE   W01
 BYTE   W02
 BYTE   W01
 BYTE   W02
 BYTE   W01
 BYTE   W01
 BYTE   W02
 BYTE   N11  Fn2  v080
 BYTE   N11  Gs2  v100
 BYTE   W12
 BYTE   N03  Fn2  v036
 BYTE   N03  Gs2  v044
 BYTE   W04
 BYTE   N11  Cn2  v080
 BYTE   N11  Fn2  v100
 BYTE   W12
 BYTE   N03  Cn2  v036
 BYTE   N03  Fn2  v044
 BYTE   W04
 BYTE   N11  Gs2  v092
 BYTE   N11  Cn3  v096
 BYTE   W12
 BYTE   N03  Gs2  v044
 BYTE   N03  Cn3
 BYTE   W04
//  #04 //037   ----------------------------------------
 BYTE   N44  Gn2  v104
 BYTE   N44  Ds3  v096
 BYTE   W01
 BYTE   W01
 BYTE   W01
 BYTE   W06
 BYTE   W03
 BYTE   W03
 BYTE   W03
 BYTE   W03
 BYTE   W03
 BYTE   W03
 BYTE   W03
 BYTE   W03
 BYTE   W03
 BYTE   W03
 BYTE   W03
 BYTE   W03
 BYTE   W03
 BYTE   N23  Gn2
 BYTE   N23  As2  v104
 BYTE   W24
 BYTE   Ds2  v096
 BYTE   N23  Gn2  v104
 BYTE   W24
//  #04 //038   ----------------------------------------
 BYTE   N11  Cn2  v116
 BYTE   W12
 BYTE   N03  Cn2  v104
 BYTE   N03  Fn2
 BYTE   W04
 BYTE   N03
 BYTE   N03  Gs2
 BYTE   W04
 BYTE   Gn2
 BYTE   N03  As2
 BYTE   W04
 BYTE   N52  Gs2  v100
 BYTE   N52  Cn3  v112
 BYTE   W02
 BYTE   W01
 BYTE   W01
 BYTE   W01
 BYTE   W06
 BYTE   W03
 BYTE   W03
 BYTE   W03
 BYTE   W03
 BYTE   W03
 BYTE   W03
 BYTE   W03
 BYTE   W03
 BYTE   W03
 BYTE   W03
 BYTE   W03
 BYTE   W02
 BYTE   W08
 BYTE   N05  Gs2  v060
 BYTE   N05  Cn3
 BYTE   W06
 BYTE   N03  Fn2  v084
 BYTE   N03  Gs2  v112
 BYTE   W04
 BYTE   Cn2  v084
 BYTE   N03  Fn2  v112
 BYTE   W04
 BYTE   Gs2  v100
 BYTE   N03  Cn3  v104
 BYTE   W04
//  #04 //039   ----------------------------------------
 BYTE   N44  Gn2
 BYTE   N44  As2  v096
 BYTE   W01
 BYTE   W01
 BYTE   W06
 BYTE   W03
 BYTE   W06
 BYTE   W03
 BYTE   W03
 BYTE   W03
 BYTE   W03
 BYTE   W03
 BYTE   W03
 BYTE   W03
 BYTE   W03
 BYTE   W03
 BYTE   W02
 BYTE   W02
 BYTE   N05  Gs2  v088
 BYTE   N05  Cn3  v116
 BYTE   W06
 BYTE   Gs2  v056
 BYTE   N05  Cn3
 BYTE   W12
 BYTE   As2  v088
 BYTE   N05  Cs3  v116
 BYTE   W06
 BYTE   N23  As2  v092
 BYTE   N23  Ds3  v112
 BYTE   W24
//  #04 //040   ----------------------------------------
 BYTE   N11  Gs2  v092
 BYTE   N11  Cn3  v112
 BYTE   W12
 BYTE   N03  Ds2  v064
 BYTE   N03  Gn2  v088
 BYTE   W04
 BYTE   Fn2  v064
 BYTE   N03  Gs2  v088
 BYTE   W04
 BYTE   Gn2  v064
 BYTE   N03  As2  v088
 BYTE   W04
 BYTE   N56  Gs2  v096
 BYTE   N56  Cn3  v116
 BYTE   W03
 BYTE   W01
 BYTE   W01
 BYTE   W01
 BYTE   W06
 BYTE   W03
 BYTE   W03
 BYTE   W03
 BYTE   W03
 BYTE   W03
 BYTE   W03
 BYTE   W03
 BYTE   W03
 BYTE   W03
 BYTE   W03
 BYTE   W03
 BYTE   W02
 BYTE   W10
 BYTE   N05  Gs2  v060
 BYTE   N05  Cn3
 BYTE   W03
 BYTE   Fn2  v084
 BYTE   W06
 BYTE   Gn2
 BYTE   N05  Cn3  v096
 BYTE   W06
//  #04 //041   ----------------------------------------
 BYTE   N08  Gn2  v088
 BYTE   N08  As2  v096
 BYTE   W09
 BYTE   N05  Gn2  v060
 BYTE   N05  As2
 BYTE   W09
 BYTE   Fn2  v088
 BYTE   N05  Gs2  v096
 BYTE   W06
 BYTE   N68  As2  v092
 BYTE   N68  Ds3  v104
 BYTE   W04
 BYTE   W01
 BYTE   W06
 BYTE   W03
 BYTE   W03
 BYTE   W03
 BYTE   W03
 BYTE   W03
 BYTE   W03
 BYTE   W03
 BYTE   W03
 BYTE   W03
 BYTE   W03
 BYTE   W03
 BYTE   W03
 BYTE   W03
 BYTE   W03
 BYTE   W03
 BYTE   W03
 BYTE   W01
 BYTE   W12
//  #04 //042   ----------------------------------------
 BYTE   W96
//  #04 //043   ----------------------------------------
 BYTE   W96
//  #04 //044   ----------------------------------------
 BYTE   W96
//  #04 //045   ----------------------------------------
 BYTE   W96
//  #04 //046   ----------------------------------------
 BYTE   W96
//  #04 //047   ----------------------------------------
 BYTE   W96
//  #04 //048   ----------------------------------------
 BYTE   GoTo
  POIN2 Label_012E939A
//  #04 //049   ----------------------------------------
 BYTE   W02
 BYTE   FINE

//**************** Track 5 (Midi-Chn.4) ****************//

song0D_005:
//  #05 //000   ----------------------------------------
 BYTE   KEYSH   song0D_key+0
 BYTE   VOICE   63
 BYTE   VOL   34*song0D_mvl/mxv
 BYTE   PAN   c_v+0
 BYTE   W72
 BYTE   N03  Cs2  v104
 BYTE   W03
 BYTE   Ds2
 BYTE   W03
 BYTE   En2
 BYTE   W03
 BYTE   Fs2
 BYTE   W03
 BYTE   Gs2
 BYTE   W03
 BYTE   An2
 BYTE   W03
 BYTE   Bn2
 BYTE   W03
 BYTE   Cs3
 BYTE   W03
//  #05 //001   ----------------------------------------
 BYTE   N92  Ds3
 BYTE   W01
 BYTE   W02
 BYTE   W01
 BYTE   W02
 BYTE   W01
 BYTE   W02
 BYTE   W01
 BYTE   W02
 BYTE   W01
 BYTE   W01
 BYTE   W06
 BYTE   W03
 BYTE   W03
 BYTE   W06
 BYTE   W03
 BYTE   W03
 BYTE   W03
 BYTE   W03
 BYTE   W03
 BYTE   W03
 BYTE   W03
 BYTE   W03
 BYTE   W03
 BYTE   W03
 BYTE   W03
 BYTE   W03
 BYTE   W03
 BYTE   W03
 BYTE   W03
 BYTE   W03
 BYTE   W03
 BYTE   W03
 BYTE   W01
 BYTE   W06
 BYTE   N02  Ds3  v044
 BYTE   W03
//  #05 //002   ----------------------------------------
Label_012DEDFB:
 BYTE   N68  Gs2  v080
 BYTE   N68  Cs3  v084
 BYTE   W72
 BYTE   N23  Bn2  v088
 BYTE   N23  Ds3
 BYTE   W24
//  #05 //003   ----------------------------------------
 BYTE   N92  Cs3
 BYTE   N44  En3
 BYTE   W48
 BYTE   Fs3
 BYTE   W48
//  #05 //004   ----------------------------------------
 BYTE   N68  Cs3  v064
 BYTE   N68  En3  v096
 BYTE   W72
 BYTE   N23  Cs3  v084
 BYTE   N23  Ds3  v092
 BYTE   W24
//  #05 //005   ----------------------------------------
 BYTE   N44  Cs3  v084
 BYTE   N44  En3  v092
 BYTE   W48
 BYTE   N17  Gs2  v096
 BYTE   N17  Bn2
 BYTE   W18
 BYTE   N05  An2  v088
 BYTE   N05  Cs3
 BYTE   W06
 BYTE   N17  Bn2  v080
 BYTE   N17  Ds3
 BYTE   W18
 BYTE   N05  Bn2  v044
 BYTE   N05  Ds3
 BYTE   W06
//  #05 //006   ----------------------------------------
 BYTE   N92  An2  v080
 BYTE   N68  Cs3  v084
 BYTE   W72
 BYTE   N23  Ds3  v088
 BYTE   W24
//  #05 //007   ----------------------------------------
 BYTE   N92  Gs2
 BYTE   N44  En3
 BYTE   W48
 BYTE   N23  Ds3
 BYTE   W24
 BYTE   N05  Ds3  v044
 BYTE   W06
 BYTE   Ds3  v088
 BYTE   W06
 BYTE   N06  En3
 BYTE   W06
 BYTE   N05  Fs3
 BYTE   W06
//  #05 //008   ----------------------------------------
 BYTE   N44  Fs3  v064
 BYTE   N76  Gs3  v096
 BYTE   W48
 BYTE   N28  En3  v064
 BYTE   W30
 BYTE   N05  En3  v044
 BYTE   N05  Gs3
 BYTE   W06
 BYTE   Bn2  v088
 BYTE   W06
 BYTE   Cs3  v084
 BYTE   W06
//  #05 //009   ----------------------------------------
 BYTE   N32  Ds3  v096
 BYTE   W32
 BYTE   W01
 BYTE   N02  Ds3  v044
 BYTE   W03
 BYTE   N05  Fs2  v088
 BYTE   N05  Ds3
 BYTE   W06
 BYTE   Gs2  v084
 BYTE   N05  En3
 BYTE   W06
 BYTE   N11  An2  v096
 BYTE   N11  Fs3
 BYTE   W12
 BYTE   N05  An2  v088
 BYTE   N05  Fs3
 BYTE   W06
 BYTE   Bn2  v084
 BYTE   N05  Gs3
 BYTE   W06
 BYTE   N23  Cs3  v096
 BYTE   N23  An3
 BYTE   W24
//  #05 //010   ----------------------------------------
 BYTE   N80  Gs2  v120
 BYTE   W84
 BYTE   N05  Gs2  v108
 BYTE   W06
 BYTE   Gs2  v120
 BYTE   W06
//  #05 //011   ----------------------------------------
 BYTE   N40  Gs2  v104
 BYTE   N40  Cs3  v076
 BYTE   W42
 BYTE   N05  Gs2  v044
 BYTE   N05  Cs3
 BYTE   W06
 BYTE   N44  Fs2  v096
 BYTE   W48
//  #05 //012   ----------------------------------------
 BYTE   N76  Cs2  v100
 BYTE   N76  En2  v108
 BYTE   W78
 BYTE   N05  Cs2  v044
 BYTE   N05  En2
 BYTE   W06
 BYTE   Gs2  v104
 BYTE   W06
 BYTE   N05
 BYTE   W06
//  #05 //013   ----------------------------------------
 BYTE   N32  Cs2  v096
 BYTE   N32  Gs2  v116
 BYTE   W36
 BYTE   W03
 BYTE   N05  Cs2  v044
 BYTE   N05  Gs2
 BYTE   W09
 BYTE   Bn1  v104
 BYTE   N08  Fs2  v108
 BYTE   W06
 BYTE   N05  Bn1  v044
 BYTE   W03
 BYTE   Fs2
 BYTE   W09
 BYTE   N02  Bn1  v108
 BYTE   N05  Gs2  v096
 BYTE   W03
 BYTE   N02  Bn1  v044
 BYTE   W03
 BYTE   N21  Bn1  v104
 BYTE   N20  An2  v124
 BYTE   W24
//  #05 //014   ----------------------------------------
 BYTE   N72  Cs2  v100
 BYTE   N72  Gs2  v116
 BYTE   W84
 BYTE   N02  Cs2  v088
 BYTE   N05  Gs2  v116
 BYTE   W03
 BYTE   N02  Cs2  v044
 BYTE   W03
 BYTE   Cs2  v084
 BYTE   N05  Gs2  v120
 BYTE   W03
 BYTE   N02  Cs2  v044
 BYTE   W03
//  #05 //015   ----------------------------------------
 BYTE   N40  Cs2  v088
 BYTE   N40  Gs2  v104
 BYTE   W42
 BYTE   N05  Cs2  v044
 BYTE   N05  Gs2
 BYTE   W06
 BYTE   N23  Fs2  v104
 BYTE   N23  Cs3  v084
 BYTE   W24
 BYTE   N16  Fs2  v108
 BYTE   N15  Bn2  v100
 BYTE   W18
 BYTE   N05  Fs2  v044
 BYTE   N05  Bn2
 BYTE   W06
//  #05 //016   ----------------------------------------
 BYTE   N76  Fs2  v084
 BYTE   N76  As2  v100
 BYTE   W78
 BYTE   N05  Fs2  v044
 BYTE   N05  As2
 BYTE   W06
 BYTE   Gs2  v104
 BYTE   W06
 BYTE   Fs2  v108
 BYTE   W06
//  #05 //017   ----------------------------------------
 BYTE   N13  Ds2  v124
 BYTE   N13  Gs2
 BYTE   W15
 BYTE   N02  Ds2  v044
 BYTE   N02  Gs2
 BYTE   W03
 BYTE   N05  Gs2  v112
 BYTE   N05  Cs3
 BYTE   W06
 BYTE   N23  Gs2
 BYTE   N23  Cs3
 BYTE   W24
 BYTE   Bn2  v104
 BYTE   N23  Ds3
 BYTE   W24
 BYTE   Cs3  v096
 BYTE   N23  En3
 BYTE   W24
//  #05 //018   ----------------------------------------
 BYTE   W96
//  #05 //019   ----------------------------------------
 BYTE   W96
//  #05 //020   ----------------------------------------
 BYTE   W96
//  #05 //021   ----------------------------------------
 BYTE   W96
//  #05 //022   ----------------------------------------
 BYTE   W96
//  #05 //023   ----------------------------------------
 BYTE   W96
//  #05 //024   ----------------------------------------
 BYTE   W96
//  #05 //025   ----------------------------------------
 BYTE   W96
//  #05 //026   ----------------------------------------
 BYTE   W96
//  #05 //027   ----------------------------------------
 BYTE   W96
//  #05 //028   ----------------------------------------
 BYTE   W96
//  #05 //029   ----------------------------------------
 BYTE   W96
//  #05 //030   ----------------------------------------
 BYTE   W96
//  #05 //031   ----------------------------------------
 BYTE   W96
//  #05 //032   ----------------------------------------
 BYTE   W96
//  #05 //033   ----------------------------------------
 BYTE   W96
//  #05 //034   ----------------------------------------
 BYTE   W96
//  #05 //035   ----------------------------------------
 BYTE   W96
//  #05 //036   ----------------------------------------
 BYTE   W96
//  #05 //037   ----------------------------------------
 BYTE   W96
//  #05 //038   ----------------------------------------
 BYTE   W96
//  #05 //039   ----------------------------------------
 BYTE   W96
//  #05 //040   ----------------------------------------
 BYTE   W96
//  #05 //041   ----------------------------------------
 BYTE   W96
//  #05 //042   ----------------------------------------
 BYTE   W96
//  #05 //043   ----------------------------------------
 BYTE   W96
//  #05 //044   ----------------------------------------
 BYTE   W96
//  #05 //045   ----------------------------------------
 BYTE   W96
//  #05 //046   ----------------------------------------
 BYTE   W96
//  #05 //047   ----------------------------------------
 BYTE   W42
 BYTE   W01
 BYTE   W52
 BYTE   W01
//  #05 //048   ----------------------------------------
 BYTE   GoTo
  POIN2 Label_012DEDFB
//  #05 //049   ----------------------------------------
 BYTE   W02
 BYTE   FINE

//**************** Track 6 (Midi-Chn.5) ****************//

song0D_006:
//  #06 //000   ----------------------------------------
 BYTE   KEYSH   song0D_key+0
 BYTE   VOICE   57
 BYTE   PAN   c_v+0
 BYTE   VOL   45*song0D_mvl/mxv
 BYTE   W84
 BYTE   W01
 BYTE   W02
 BYTE   W01
 BYTE   W02
 BYTE   W01
 BYTE   W02
 BYTE   W01
 BYTE   W02
//  #06 //001   ----------------------------------------
 BYTE   W96
//  #06 //002   ----------------------------------------
Label_012E054A:
 BYTE   W96
//  #06 //003   ----------------------------------------
 BYTE   W96
//  #06 //004   ----------------------------------------
 BYTE   W96
//  #06 //005   ----------------------------------------
 BYTE   W96
//  #06 //006   ----------------------------------------
 BYTE   W96
//  #06 //007   ----------------------------------------
 BYTE   W96
//  #06 //008   ----------------------------------------
 BYTE   W96
//  #06 //009   ----------------------------------------
 BYTE   W96
//  #06 //010   ----------------------------------------
 BYTE   W10
 BYTE   W01
 BYTE   W01
 BYTE   W84
//  #06 //011   ----------------------------------------
 BYTE   W96
//  #06 //012   ----------------------------------------
 BYTE   W72
 BYTE   N11  Bn2  v108
 BYTE   W12
 BYTE   N02  En3
 BYTE   W03
 BYTE   Fs3
 BYTE   W03
 BYTE   Gs3
 BYTE   W03
 BYTE   An3
 BYTE   W03
//  #06 //013   ----------------------------------------
 BYTE   N40  Bn3  v100
 BYTE   W42
 BYTE   N05  Bn3  v032
 BYTE   W06
 BYTE   N11  An3  v100
 BYTE   W12
 BYTE   N03  An3  v032
 BYTE   W04
 BYTE   N11  Bn3  v072
 BYTE   W12
 BYTE   N03  Bn3  v032
 BYTE   W04
 BYTE   N11  An3  v080
 BYTE   W12
 BYTE   N03  An3  v032
 BYTE   W04
//  #06 //014   ----------------------------------------
 BYTE   N22  Gs3  v080
 BYTE   W24
 BYTE   N64  Cs3  v092
 BYTE   W66
 BYTE   N05  Cs3  v036
 BYTE   W06
//  #06 //015   ----------------------------------------
 BYTE   W96
//  #06 //016   ----------------------------------------
 BYTE   W92
 BYTE   W03
 BYTE   W01
//  #06 //017   ----------------------------------------
 BYTE   W96
//  #06 //018   ----------------------------------------
 BYTE   W96
//  #06 //019   ----------------------------------------
 BYTE   W96
//  #06 //020   ----------------------------------------
 BYTE   W96
//  #06 //021   ----------------------------------------
 BYTE   W96
//  #06 //022   ----------------------------------------
 BYTE   W96
//  #06 //023   ----------------------------------------
 BYTE   W96
//  #06 //024   ----------------------------------------
 BYTE   W92
 BYTE   W02
 BYTE   W02
//  #06 //025   ----------------------------------------
 BYTE   W96
//  #06 //026   ----------------------------------------
 BYTE   N03  Bn2  v112
 BYTE   W03
 BYTE   Bn2  v052
 BYTE   W09
 BYTE   En3  v100
 BYTE   W03
 BYTE   En3  v048
 BYTE   W03
 BYTE   Gn3  v100
 BYTE   W03
 BYTE   Gn3  v048
 BYTE   W03
 BYTE   N44  Bn3  v108
 BYTE   W01
 BYTE   W01
 BYTE   W01
 BYTE   W01
 BYTE   W06
 BYTE   W06
 BYTE   W03
 BYTE   W03
 BYTE   W03
 BYTE   W03
 BYTE   W03
 BYTE   W03
 BYTE   W03
 BYTE   W03
 BYTE   W03
 BYTE   W02
 BYTE   W06
 BYTE   N05  Bn3  v044
 BYTE   W09
 BYTE   N03  Gn3  v104
 BYTE   N03  Bn3  v112
 BYTE   W03
 BYTE   Gn3  v048
 BYTE   N03  Bn3  v052
 BYTE   W03
 BYTE   Gn3  v108
 BYTE   N03  Bn3
 BYTE   W03
 BYTE   Gn3  v048
 BYTE   N03  Bn3  v052
 BYTE   W03
//  #06 //027   ----------------------------------------
 BYTE   N09  Fs3  v092
 BYTE   N09  Bn3  v100
 BYTE   W12
 BYTE   N05  Fs3  v060
 BYTE   N05  Bn3
 BYTE   W06
 BYTE   N03  Fs3  v100
 BYTE   N03  An3  v112
 BYTE   W03
 BYTE   Fs3  v048
 BYTE   N03  An3  v052
 BYTE   W03
 BYTE   N64  Fs3  v092
 BYTE   N64  An3  v124
 BYTE   W01
 BYTE   W01
 BYTE   W01
 BYTE   W01
 BYTE   W06
 BYTE   W03
 BYTE   W06
 BYTE   W03
 BYTE   W03
 BYTE   W03
 BYTE   W03
 BYTE   W03
 BYTE   W03
 BYTE   W03
 BYTE   W03
 BYTE   W03
 BYTE   W03
 BYTE   W03
 BYTE   W03
 BYTE   W03
 BYTE   W03
 BYTE   W01
 BYTE   W04
 BYTE   N05  Fs3  v060
 BYTE   N05  An3
 BYTE   W06
//  #06 //028   ----------------------------------------
 BYTE   N03  Bn2  v112
 BYTE   W03
 BYTE   Bn2  v052
 BYTE   W09
 BYTE   En3  v096
 BYTE   W03
 BYTE   En3  v048
 BYTE   W03
 BYTE   Gn3  v100
 BYTE   W03
 BYTE   Gn3  v048
 BYTE   W03
 BYTE   N48  Bn3  v112
 BYTE   W01
 BYTE   W01
 BYTE   W01
 BYTE   W01
 BYTE   W06
 BYTE   W06
 BYTE   W03
 BYTE   W03
 BYTE   W03
 BYTE   W03
 BYTE   W03
 BYTE   W03
 BYTE   W03
 BYTE   W03
 BYTE   W03
 BYTE   W02
 BYTE   W09
 BYTE   N05  Bn3  v060
 BYTE   W06
 BYTE   N03  Fs3  v100
 BYTE   N03  Bn3  v112
 BYTE   W03
 BYTE   Fs3  v048
 BYTE   N03  Bn3  v052
 BYTE   W03
 BYTE   Fs3  v104
 BYTE   N03  Bn3  v108
 BYTE   W03
 BYTE   Fs3  v048
 BYTE   N03  Bn3
 BYTE   W03
//  #06 //029   ----------------------------------------
 BYTE   N08  Fs3  v092
 BYTE   N08  Bn3  v100
 BYTE   W12
 BYTE   N05  Fs3  v060
 BYTE   N05  Bn3
 BYTE   W06
 BYTE   N03  Fs3  v100
 BYTE   N03  An3  v104
 BYTE   W03
 BYTE   Fs3  v048
 BYTE   N03  An3
 BYTE   W03
 BYTE   N60  An3  v108
 BYTE   N60  Dn4  v088
 BYTE   W01
 BYTE   W01
 BYTE   W01
 BYTE   W06
 BYTE   W03
 BYTE   W03
 BYTE   W03
 BYTE   W03
 BYTE   W03
 BYTE   W03
 BYTE   W03
 BYTE   W03
 BYTE   W03
 BYTE   W03
 BYTE   W03
 BYTE   W03
 BYTE   W03
 BYTE   W03
 BYTE   W01
 BYTE   W11
 BYTE   N05  An3  v060
 BYTE   N05  Dn4
 BYTE   W09
//  #06 //030   ----------------------------------------
 BYTE   N03  Gn2  v112
 BYTE   N03  Bn2
 BYTE   W03
 BYTE   Gn2  v052
 BYTE   N03  Bn2
 BYTE   W09
 BYTE   Bn2  v100
 BYTE   N03  En3
 BYTE   W03
 BYTE   Bn2  v048
 BYTE   N03  En3
 BYTE   W03
 BYTE   En3  v100
 BYTE   N03  Gn3
 BYTE   W03
 BYTE   En3  v048
 BYTE   N03  Gn3
 BYTE   W03
 BYTE   N48  Gn3  v108
 BYTE   N48  Bn3
 BYTE   W01
 BYTE   W01
 BYTE   W01
 BYTE   W01
 BYTE   W01
 BYTE   W06
 BYTE   W06
 BYTE   W03
 BYTE   W03
 BYTE   W03
 BYTE   W03
 BYTE   W03
 BYTE   W03
 BYTE   W03
 BYTE   W03
 BYTE   W03
 BYTE   W01
 BYTE   W09
 BYTE   N05  Gn3  v060
 BYTE   N05  Bn3
 BYTE   W06
 BYTE   N03  Gn3  v104
 BYTE   N03  Bn3  v112
 BYTE   W03
 BYTE   Gn3  v048
 BYTE   N03  Bn3  v052
 BYTE   W03
 BYTE   Gn3  v108
 BYTE   N03  Bn3
 BYTE   W03
 BYTE   Gn3  v048
 BYTE   N03  Bn3  v052
 BYTE   W03
//  #06 //031   ----------------------------------------
 BYTE   N09  Fs3  v092
 BYTE   N09  Bn3  v100
 BYTE   W18
 BYTE   N03  Fs3
 BYTE   N03  An3  v112
 BYTE   W03
 BYTE   Fs3  v048
 BYTE   N03  An3  v052
 BYTE   W03
 BYTE   N56  Fs3  v092
 BYTE   N56  An3  v124
 BYTE   W02
 BYTE   W01
 BYTE   W01
 BYTE   W06
 BYTE   W03
 BYTE   W03
 BYTE   W03
 BYTE   W03
 BYTE   W03
 BYTE   W03
 BYTE   W03
 BYTE   W03
 BYTE   W03
 BYTE   W03
 BYTE   W03
 BYTE   W03
 BYTE   W03
 BYTE   W03
 BYTE   W01
 BYTE   W07
 BYTE   N05  Fs3  v060
 BYTE   N05  An3
 BYTE   W12
//  #06 //032   ----------------------------------------
 BYTE   N03  Gn2  v112
 BYTE   N03  Bn2
 BYTE   W03
 BYTE   Gn2  v052
 BYTE   N03  Bn2
 BYTE   W09
 BYTE   Bn2  v100
 BYTE   N03  En3  v096
 BYTE   W03
 BYTE   Bn2  v048
 BYTE   N03  En3
 BYTE   W03
 BYTE   En3  v100
 BYTE   N03  Gn3
 BYTE   W03
 BYTE   En3  v048
 BYTE   N03  Gn3
 BYTE   W03
 BYTE   N48  Gn3  v108
 BYTE   N48  Bn3  v112
 BYTE   W01
 BYTE   W01
 BYTE   W01
 BYTE   W01
 BYTE   W06
 BYTE   W06
 BYTE   W03
 BYTE   W03
 BYTE   W03
 BYTE   W03
 BYTE   W03
 BYTE   W03
 BYTE   W03
 BYTE   W03
 BYTE   W03
 BYTE   W02
 BYTE   W09
 BYTE   N05  Gn3  v060
 BYTE   N05  Bn3
 BYTE   W06
 BYTE   N03  Gn3  v104
 BYTE   N03  Bn3  v112
 BYTE   W03
 BYTE   Gn3  v048
 BYTE   N03  Bn3  v052
 BYTE   W03
 BYTE   Gn3  v108
 BYTE   N03  Bn3
 BYTE   W03
 BYTE   Gn3  v048
 BYTE   N03  Bn3
 BYTE   W03
//  #06 //033   ----------------------------------------
 BYTE   N08  Fs3  v092
 BYTE   N08  Bn3  v100
 BYTE   W12
 BYTE   N05  Fs3  v048
 BYTE   N05  Bn3
 BYTE   W06
 BYTE   N03  Gn3  v088
 BYTE   N03  Cs4  v092
 BYTE   W03
 BYTE   Gn3  v036
 BYTE   N03  Cs4
 BYTE   W03
 BYTE   N23  An3  v088
 BYTE   N23  Dn4  v096
 BYTE   W24
 BYTE   N08  Bn3  v080
 BYTE   N08  Dn4  v084
 BYTE   W12
 BYTE   N05  Bn3  v048
 BYTE   N05  Dn4
 BYTE   W06
 BYTE   N03  Cs4  v088
 BYTE   N03  En4  v092
 BYTE   W03
 BYTE   Cs4  v036
 BYTE   N03  En4
 BYTE   W03
 BYTE   N24  Dn4  v076
 BYTE   N24  Fs4  v088
 BYTE   W24
//  #06 //034   ----------------------------------------
 BYTE   W96
//  #06 //035   ----------------------------------------
 BYTE   W96
//  #06 //036   ----------------------------------------
 BYTE   W96
//  #06 //037   ----------------------------------------
 BYTE   W96
//  #06 //038   ----------------------------------------
 BYTE   N03  Cn3  v112
 BYTE   W03
 BYTE   Cn3  v040
 BYTE   W09
 BYTE   Fn3  v096
 BYTE   W04
 BYTE   Gs3  v100
 BYTE   W04
 BYTE   As3  v096
 BYTE   W04
 BYTE   N52  Cn4  v108
 BYTE   W01
 BYTE   W02
 BYTE   W02
 BYTE   W03
 BYTE   W03
 BYTE   W03
 BYTE   W03
 BYTE   W03
 BYTE   W03
 BYTE   W03
 BYTE   W03
 BYTE   W03
 BYTE   W03
 BYTE   W03
 BYTE   W03
 BYTE   W03
 BYTE   W03
 BYTE   W07
 BYTE   N05  Cn4  v056
 BYTE   W06
 BYTE   N03  Gs3  v108
 BYTE   W04
 BYTE   Fn3
 BYTE   W04
 BYTE   Cn4  v100
 BYTE   W04
//  #06 //039   ----------------------------------------
 BYTE   N44  As3  v092
 BYTE   W01
 BYTE   W01
 BYTE   W02
 BYTE   W06
 BYTE   W03
 BYTE   W03
 BYTE   W03
 BYTE   W03
 BYTE   W03
 BYTE   W03
 BYTE   W03
 BYTE   W03
 BYTE   W03
 BYTE   W03
 BYTE   W03
 BYTE   W02
 BYTE   W03
 BYTE   N05  Cn4  v112
 BYTE   W09
 BYTE   Cn4  v052
 BYTE   W09
 BYTE   Cs4  v112
 BYTE   W06
 BYTE   N23  Ds4  v108
 BYTE   W24
//  #06 //040   ----------------------------------------
 BYTE   N03  Cn4  v112
 BYTE   W03
 BYTE   Cn4  v040
 BYTE   W09
 BYTE   Gn3  v096
 BYTE   W04
 BYTE   Gs3  v100
 BYTE   W04
 BYTE   As3  v096
 BYTE   W04
 BYTE   N48  Cn4  v108
 BYTE   W02
 BYTE   W01
 BYTE   W02
 BYTE   W03
 BYTE   W02
 BYTE   W03
 BYTE   W01
 BYTE   W02
 BYTE   W01
 BYTE   W02
 BYTE   W01
 BYTE   W02
 BYTE   W01
 BYTE   W02
 BYTE   W01
 BYTE   W02
 BYTE   W01
 BYTE   W02
 BYTE   W01
 BYTE   W02
 BYTE   W01
 BYTE   W02
 BYTE   W01
 BYTE   W02
 BYTE   W01
 BYTE   W02
 BYTE   W01
 BYTE   W10
 BYTE   N05  Cn4  v056
 BYTE   W06
 BYTE   N03  Cn4  v112
 BYTE   W03
 BYTE   Cn4  v040
 BYTE   W03
 BYTE   Cn4  v108
 BYTE   W03
 BYTE   Cn4  v036
 BYTE   W03
//  #06 //041   ----------------------------------------
 BYTE   N08  Cn4  v096
 BYTE   W12
 BYTE   N05  Cn4  v056
 BYTE   W06
 BYTE   N03  Cs4  v104
 BYTE   W03
 BYTE   Cs4  v032
 BYTE   W03
 BYTE   N68  Ds4  v096
 BYTE   W01
 BYTE   W01
 BYTE   W02
 BYTE   W06
 BYTE   W03
 BYTE   W03
 BYTE   W03
 BYTE   W03
 BYTE   W03
 BYTE   W03
 BYTE   W03
 BYTE   W03
 BYTE   W03
 BYTE   W03
 BYTE   W03
 BYTE   W03
 BYTE   W03
 BYTE   W03
 BYTE   W03
 BYTE   W03
 BYTE   W03
 BYTE   W03
 BYTE   W08
//  #06 //042   ----------------------------------------
 BYTE   W96
//  #06 //043   ----------------------------------------
 BYTE   W96
//  #06 //044   ----------------------------------------
 BYTE   W96
//  #06 //045   ----------------------------------------
 BYTE   W96
//  #06 //046   ----------------------------------------
 BYTE   W96
//  #06 //047   ----------------------------------------
 BYTE   W96
//  #06 //048   ----------------------------------------
 BYTE   GoTo
  POIN2 Label_012E054A
//  #06 //049   ----------------------------------------
 BYTE   W02
 BYTE   FINE

//**************** Track 7 (Midi-Chn.6) ****************//

song0D_007:
//  #07 //000   ----------------------------------------
 BYTE   KEYSH   song0D_key+0
 BYTE   VOICE   68
 BYTE   PAN   c_v+0
 BYTE   VOL   45*song0D_mvl/mxv
 BYTE   W96
//  #07 //001   ----------------------------------------
 BYTE   W96
//  #07 //002   ----------------------------------------
Label_012DFD76:
 BYTE   W96
//  #07 //003   ----------------------------------------
 BYTE   W96
//  #07 //004   ----------------------------------------
 BYTE   W96
//  #07 //005   ----------------------------------------
 BYTE   W96
//  #07 //006   ----------------------------------------
 BYTE   W96
//  #07 //007   ----------------------------------------
 BYTE   W96
//  #07 //008   ----------------------------------------
 BYTE   W96
//  #07 //009   ----------------------------------------
 BYTE   W96
//  #07 //010   ----------------------------------------
 BYTE   W96
//  #07 //011   ----------------------------------------
 BYTE   W96
//  #07 //012   ----------------------------------------
 BYTE   W96
//  #07 //013   ----------------------------------------
 BYTE   W96
//  #07 //014   ----------------------------------------
 BYTE   W96
//  #07 //015   ----------------------------------------
 BYTE   W96
//  #07 //016   ----------------------------------------
 BYTE   W96
//  #07 //017   ----------------------------------------
 BYTE   N44  Cs3  v076
 BYTE   W13
 BYTE   W04
 BYTE   W09
 BYTE   W09
 BYTE   W04
 BYTE   W05
 BYTE   W04
 BYTE   N23  Gs3  v080
 BYTE   W05
 BYTE   W04
 BYTE   W04
 BYTE   W05
 BYTE   W04
 BYTE   W02
 BYTE   N21  En3  v076
 BYTE   W03
 BYTE   W04
 BYTE   W05
 BYTE   W04
 BYTE   W06
 BYTE   W02
//  #07 //018   ----------------------------------------
 BYTE   N68  Fs3  v088
 BYTE   W04
 BYTE   W06
 BYTE   W03
 BYTE   W06
 BYTE   W03
 BYTE   W03
 BYTE   W03
 BYTE   W06
 BYTE   W03
 BYTE   W03
 BYTE   W03
 BYTE   W03
 BYTE   W03
 BYTE   W03
 BYTE   W03
 BYTE   W03
 BYTE   W03
 BYTE   W03
 BYTE   W03
 BYTE   W03
 BYTE   W02
 BYTE   N23  Gs3
 BYTE   W01
 BYTE   W03
 BYTE   W03
 BYTE   W03
 BYTE   W02
 BYTE   W12
//  #07 //019   ----------------------------------------
 BYTE   N60  En3  v100
 BYTE   W06
 BYTE   W06
 BYTE   W03
 BYTE   W03
 BYTE   W06
 BYTE   W03
 BYTE   W03
 BYTE   W03
 BYTE   W03
 BYTE   W03
 BYTE   W03
 BYTE   W03
 BYTE   W03
 BYTE   W03
 BYTE   W03
 BYTE   W03
 BYTE   W03
 BYTE   W03
 BYTE   N08  En3  v048
 BYTE   W03
 BYTE   W03
 BYTE   W03
 BYTE   N14  Gs2  v092
 BYTE   W03
 BYTE   W03
 BYTE   W03
 BYTE   W03
 BYTE   W03
 BYTE   N02  Cs3  v112
 BYTE   W03
 BYTE   Ds3
 BYTE   W03
 BYTE   En3
 BYTE   W03
//  #07 //020   ----------------------------------------
 BYTE   N68  Fs3  v104
 BYTE   W03
 BYTE   W01
 BYTE   W06
 BYTE   W03
 BYTE   W03
 BYTE   W03
 BYTE   W03
 BYTE   W03
 BYTE   W03
 BYTE   W03
 BYTE   W03
 BYTE   W03
 BYTE   W03
 BYTE   W03
 BYTE   W03
 BYTE   W03
 BYTE   W03
 BYTE   W03
 BYTE   W03
 BYTE   W03
 BYTE   W03
 BYTE   W03
 BYTE   W03
 BYTE   W02
 BYTE   N28  En3  v100
 BYTE   W01
 BYTE   W03
 BYTE   W03
 BYTE   W03
 BYTE   W03
 BYTE   W02
 BYTE   W09
//  #07 //021   ----------------------------------------
 BYTE   W06
 BYTE   N05  Fs3  v092
 BYTE   W06
 BYTE   N48  Gs3
 BYTE   W12
 BYTE   W01
 BYTE   W02
 BYTE   W01
 BYTE   W02
 BYTE   W01
 BYTE   W02
 BYTE   W01
 BYTE   W02
 BYTE   W01
 BYTE   W02
 BYTE   W01
 BYTE   W02
 BYTE   W01
 BYTE   W02
 BYTE   W01
 BYTE   W02
 BYTE   W01
 BYTE   W02
 BYTE   W01
 BYTE   W02
 BYTE   W01
 BYTE   W02
 BYTE   W01
 BYTE   W02
 BYTE   W01
 BYTE   W02
 BYTE   N05  Gs3  v048
 BYTE   W01
 BYTE   W02
 BYTE   W01
 BYTE   W01
 BYTE   W01
 BYTE   W01
 BYTE   W02
 BYTE   N23  Gs3  v072
 BYTE   W01
 BYTE   W02
 BYTE   W01
 BYTE   W02
 BYTE   W01
 BYTE   W02
 BYTE   W01
 BYTE   W02
 BYTE   W01
 BYTE   W02
 BYTE   W01
 BYTE   W02
 BYTE   W01
 BYTE   W02
 BYTE   W01
 BYTE   W02
//  #07 //022   ----------------------------------------
 BYTE   N84  An3  v060
 BYTE   W03
 BYTE   W03
 BYTE   W03
 BYTE   W03
 BYTE   W03
 BYTE   W03
 BYTE   W03
 BYTE   W02
 BYTE   W03
 BYTE   W02
 BYTE   W01
 BYTE   W02
 BYTE   W01
 BYTE   W02
 BYTE   W01
 BYTE   W02
 BYTE   W01
 BYTE   W02
 BYTE   W01
 BYTE   W02
 BYTE   W01
 BYTE   W02
 BYTE   W01
 BYTE   W02
 BYTE   W01
 BYTE   W02
 BYTE   W01
 BYTE   W02
 BYTE   W01
 BYTE   W02
 BYTE   W01
 BYTE   W02
 BYTE   W01
 BYTE   W02
 BYTE   W01
 BYTE   W02
 BYTE   W01
 BYTE   W02
 BYTE   W01
 BYTE   W02
 BYTE   W01
 BYTE   W02
 BYTE   W01
 BYTE   W02
 BYTE   W01
 BYTE   W02
 BYTE   W01
 BYTE   W13
//  #07 //023   ----------------------------------------
 BYTE   W96
//  #07 //024   ----------------------------------------
 BYTE   W96
//  #07 //025   ----------------------------------------
 BYTE   W04
 BYTE   W03
 BYTE   W06
 BYTE   W03
 BYTE   W03
 BYTE   W03
 BYTE   W06
 BYTE   W02
 BYTE   N05  An2  v088
 BYTE   W01
 BYTE   W03
 BYTE   W02
 BYTE   Bn2
 BYTE   W01
 BYTE   W03
 BYTE   W02
 BYTE   Cs3
 BYTE   W01
 BYTE   W03
 BYTE   W02
 BYTE   Ds3
 BYTE   W01
 BYTE   W03
 BYTE   W02
 BYTE   En3
 BYTE   W01
 BYTE   W03
 BYTE   W02
 BYTE   N32  Fs3
 BYTE   W01
 BYTE   W03
 BYTE   W03
 BYTE   W03
 BYTE   W03
 BYTE   W03
 BYTE   W03
 BYTE   W03
 BYTE   W03
 BYTE   W02
 BYTE   W09
//  #07 //026   ----------------------------------------
 BYTE   W96
//  #07 //027   ----------------------------------------
 BYTE   W96
//  #07 //028   ----------------------------------------
 BYTE   W96
//  #07 //029   ----------------------------------------
 BYTE   W96
//  #07 //030   ----------------------------------------
 BYTE   W96
//  #07 //031   ----------------------------------------
 BYTE   W96
//  #07 //032   ----------------------------------------
 BYTE   W96
//  #07 //033   ----------------------------------------
 BYTE   W96
//  #07 //034   ----------------------------------------
 BYTE   W96
//  #07 //035   ----------------------------------------
 BYTE   W96
//  #07 //036   ----------------------------------------
 BYTE   W96
//  #07 //037   ----------------------------------------
 BYTE   W96
//  #07 //038   ----------------------------------------
 BYTE   W96
//  #07 //039   ----------------------------------------
 BYTE   W96
//  #07 //040   ----------------------------------------
 BYTE   N05  Gs3  v084
 BYTE   W06
 BYTE   Gs3  v048
 BYTE   W06
 BYTE   N06  Fn3  v080
 BYTE   W06
 BYTE   Gn3  v100
 BYTE   W06
 BYTE   N52  Gs3  v088
 BYTE   W54
 BYTE   N05  Gs3  v048
 BYTE   W09
 BYTE   N02  Fn3  v104
 BYTE   W03
 BYTE   Gn3  v096
 BYTE   W03
 BYTE   Gs3  v088
 BYTE   W03
//  #07 //041   ----------------------------------------
 BYTE   N05  As3
 BYTE   W06
 BYTE   As3  v048
 BYTE   W12
 BYTE   Gs3  v076
 BYTE   W06
 BYTE   N22  Ds3  v056
 BYTE   W24
 BYTE   N05  Ds3  v084
 BYTE   W06
 BYTE   Ds3  v048
 BYTE   W12
 BYTE   N06  Gs3  v092
 BYTE   W06
 BYTE   N22  As3  v068
 BYTE   W24
//  #07 //042   ----------------------------------------
 BYTE   N92  Cn4  v056
 BYTE   W09
 BYTE   W03
 BYTE   W03
 BYTE   W03
 BYTE   W03
 BYTE   W03
 BYTE   W03
 BYTE   W03
 BYTE   W03
 BYTE   W03
 BYTE   W03
 BYTE   W03
 BYTE   W03
 BYTE   W03
 BYTE   W03
 BYTE   W03
 BYTE   W03
 BYTE   W03
 BYTE   W03
 BYTE   W03
 BYTE   W03
 BYTE   W03
 BYTE   W03
 BYTE   W03
 BYTE   W03
 BYTE   W03
 BYTE   W03
 BYTE   W03
 BYTE   W06
//  #07 //043   ----------------------------------------
 BYTE   W96
//  #07 //044   ----------------------------------------
 BYTE   W96
//  #07 //045   ----------------------------------------
 BYTE   W96
//  #07 //046   ----------------------------------------
 BYTE   W96
//  #07 //047   ----------------------------------------
 BYTE   W96
//  #07 //048   ----------------------------------------
 BYTE   GoTo
  POIN2 Label_012DFD76
//  #07 //049   ----------------------------------------
 BYTE   W02
 BYTE   FINE

//**************** Track 8 (Midi-Chn.7) ****************//

song0D_008:
//  #08 //000   ----------------------------------------
 BYTE   KEYSH   song0D_key+0
 BYTE   VOICE   73
 BYTE   PAN   c_v+0
 BYTE   VOL   45*song0D_mvl/mxv
 BYTE   W96
//  #08 //001   ----------------------------------------
 BYTE   W96
//  #08 //002   ----------------------------------------
Label_012E0076:
 BYTE   W96
//  #08 //003   ----------------------------------------
 BYTE   W96
//  #08 //004   ----------------------------------------
 BYTE   W96
//  #08 //005   ----------------------------------------
 BYTE   W96
//  #08 //006   ----------------------------------------
 BYTE   W96
//  #08 //007   ----------------------------------------
 BYTE   W96
//  #08 //008   ----------------------------------------
 BYTE   W84
 BYTE   N05  Ds5  v076
 BYTE   W06
 BYTE   En5  v084
 BYTE   W06
//  #08 //009   ----------------------------------------
 BYTE   N84  Cs5  v092
 BYTE   W21
 BYTE   W03
 BYTE   W01
 BYTE   W02
 BYTE   W01
 BYTE   W02
 BYTE   W01
 BYTE   W02
 BYTE   W01
 BYTE   W02
 BYTE   W01
 BYTE   W02
 BYTE   W01
 BYTE   W02
 BYTE   W01
 BYTE   W02
 BYTE   W01
 BYTE   W02
 BYTE   W01
 BYTE   W02
 BYTE   W01
 BYTE   W02
 BYTE   W01
 BYTE   W02
 BYTE   W01
 BYTE   W02
 BYTE   W01
 BYTE   W02
 BYTE   W01
 BYTE   W02
 BYTE   W01
 BYTE   W02
 BYTE   W01
 BYTE   W02
 BYTE   W01
 BYTE   W02
 BYTE   W01
 BYTE   W02
 BYTE   W01
 BYTE   W02
 BYTE   W01
 BYTE   W02
 BYTE   W01
 BYTE   W02
 BYTE   W01
 BYTE   W08
//  #08 //010   ----------------------------------------
 BYTE   W96
//  #08 //011   ----------------------------------------
 BYTE   W96
//  #08 //012   ----------------------------------------
 BYTE   W96
//  #08 //013   ----------------------------------------
 BYTE   W96
//  #08 //014   ----------------------------------------
 BYTE   W96
//  #08 //015   ----------------------------------------
 BYTE   W96
//  #08 //016   ----------------------------------------
 BYTE   W96
//  #08 //017   ----------------------------------------
 BYTE   W96
//  #08 //018   ----------------------------------------
 BYTE   W96
//  #08 //019   ----------------------------------------
 BYTE   W96
//  #08 //020   ----------------------------------------
 BYTE   W96
//  #08 //021   ----------------------------------------
 BYTE   W48
 BYTE   W01
 BYTE   W06
 BYTE   W06
 BYTE   W06
 BYTE   W03
 BYTE   W02
 BYTE   N23  Gs4  v104
 BYTE   W04
 BYTE   W03
 BYTE   W03
 BYTE   W06
 BYTE   W03
 BYTE   W03
 BYTE   W02
//  #08 //022   ----------------------------------------
 BYTE   N68  An4  v096
 BYTE   W01
 BYTE   W06
 BYTE   W03
 BYTE   W03
 BYTE   W03
 BYTE   W03
 BYTE   W03
 BYTE   W03
 BYTE   W03
 BYTE   W03
 BYTE   W03
 BYTE   W03
 BYTE   W03
 BYTE   W03
 BYTE   W03
 BYTE   W03
 BYTE   W03
 BYTE   W03
 BYTE   W03
 BYTE   W03
 BYTE   W03
 BYTE   W03
 BYTE   W03
 BYTE   W14
 BYTE   N05  An4  v104
 BYTE   W06
 BYTE   Bn4
 BYTE   W06
//  #08 //023   ----------------------------------------
 BYTE   N44  Cn5  v096
 BYTE   W09
 BYTE   W02
 BYTE   W01
 BYTE   W02
 BYTE   W01
 BYTE   W02
 BYTE   W01
 BYTE   W02
 BYTE   W01
 BYTE   W02
 BYTE   W01
 BYTE   W02
 BYTE   W01
 BYTE   W02
 BYTE   W01
 BYTE   W02
 BYTE   W01
 BYTE   W02
 BYTE   W01
 BYTE   W02
 BYTE   W01
 BYTE   W01
 BYTE   W03
 BYTE   W03
 BYTE   W02
 BYTE   Gn5
 BYTE   W01
 BYTE   W03
 BYTE   W03
 BYTE   W03
 BYTE   W03
 BYTE   W03
 BYTE   W03
 BYTE   W03
 BYTE   W03
 BYTE   W03
 BYTE   W03
 BYTE   W03
 BYTE   W03
 BYTE   W11
//  #08 //024   ----------------------------------------
 BYTE   Fn5  v104
 BYTE   W44
 BYTE   W04
 BYTE   N13  En5  v092
 BYTE   W02
 BYTE   W03
 BYTE   W06
 BYTE   W03
 BYTE   W02
 BYTE   Dn5  v108
 BYTE   W01
 BYTE   W03
 BYTE   W03
 BYTE   W03
 BYTE   W03
 BYTE   W03
 BYTE   Cn5  v100
 BYTE   W03
 BYTE   W03
 BYTE   W03
 BYTE   W03
 BYTE   W03
 BYTE   W01
//  #08 //025   ----------------------------------------
 BYTE   N28  Bn4
 BYTE   W02
 BYTE   W03
 BYTE   W03
 BYTE   W03
 BYTE   W03
 BYTE   W03
 BYTE   W03
 BYTE   W03
 BYTE   W02
 BYTE   W03
 BYTE   W02
 BYTE   N02  Fs4  v104
 BYTE   W01
 BYTE   W03
 BYTE   W02
 BYTE   Gs4  v096
 BYTE   W01
 BYTE   W03
 BYTE   W02
 BYTE   An4  v092
 BYTE   W01
 BYTE   W03
 BYTE   W02
 BYTE   Bn4  v088
 BYTE   W01
 BYTE   W03
 BYTE   W02
 BYTE   Cs5  v092
 BYTE   W01
 BYTE   W03
 BYTE   W02
 BYTE   N32  Ds5  v104
 BYTE   W01
 BYTE   W03
 BYTE   W03
 BYTE   W03
 BYTE   W03
 BYTE   W03
 BYTE   W03
 BYTE   W03
 BYTE   W14
//  #08 //026   ----------------------------------------
 BYTE   W96
//  #08 //027   ----------------------------------------
 BYTE   W96
//  #08 //028   ----------------------------------------
 BYTE   W96
//  #08 //029   ----------------------------------------
 BYTE   W96
//  #08 //030   ----------------------------------------
 BYTE   W96
//  #08 //031   ----------------------------------------
 BYTE   W96
//  #08 //032   ----------------------------------------
 BYTE   W96
//  #08 //033   ----------------------------------------
 BYTE   W84
 BYTE   W03
 BYTE   N02  Gn3  v072
 BYTE   W03
 BYTE   Gs3  v096
 BYTE   W03
 BYTE   As3
 BYTE   W03
//  #08 //034   ----------------------------------------
 BYTE   TIE  Cn4  v092
 BYTE   W03
 BYTE   W01
 BYTE   W01
 BYTE   W01
 BYTE   W01
 BYTE   W01
 BYTE   W01
 BYTE   W01
 BYTE   W12
 BYTE   W06
 BYTE   W09
 BYTE   W06
 BYTE   W06
 BYTE   W06
 BYTE   W06
 BYTE   W03
 BYTE   W03
 BYTE   W06
 BYTE   W03
 BYTE   W03
 BYTE   W03
 BYTE   W03
 BYTE   W03
 BYTE   W03
 BYTE   W03
 BYTE   W02
//  #08 //035   ----------------------------------------
 BYTE   W01
 BYTE   W03
 BYTE   W03
 BYTE   W03
 BYTE   W03
 BYTE   W03
 BYTE   W03
 BYTE   W03
 BYTE   W03
 BYTE   W03
 BYTE   W03
 BYTE   W02
 BYTE   W14
 BYTE   EOT
 BYTE   W01
 BYTE   N17  Cn4  v080
 BYTE   W18
 BYTE   N05  Cs4  v100
 BYTE   W06
 BYTE   N23  Ds4  v088
 BYTE   W24
//  #08 //036   ----------------------------------------
 BYTE   N92  Fn4  v104
 BYTE   W05
 BYTE   W01
 BYTE   W01
 BYTE   W01
 BYTE   W01
 BYTE   W01
 BYTE   W01
 BYTE   W01
 BYTE   W01
 BYTE   W06
 BYTE   W03
 BYTE   W03
 BYTE   W03
 BYTE   W03
 BYTE   W03
 BYTE   W03
 BYTE   W03
 BYTE   W03
 BYTE   W03
 BYTE   W03
 BYTE   W03
 BYTE   W03
 BYTE   W03
 BYTE   W03
 BYTE   W03
 BYTE   W03
 BYTE   W03
 BYTE   W03
 BYTE   W03
 BYTE   W03
 BYTE   W03
 BYTE   W03
 BYTE   W11
//  #08 //037   ----------------------------------------
 BYTE   N36  Ds4  v084
 BYTE   W36
 BYTE   W03
 BYTE   N02  Fn4  v064
 BYTE   W03
 BYTE   Gn4
 BYTE   W03
 BYTE   Gs4  v100
 BYTE   W03
 BYTE   N23  As4  v076
 BYTE   W24
 BYTE   N21  Gn4  v088
 BYTE   W24
//  #08 //038   ----------------------------------------
 BYTE   N84  Gn4  v108
 BYTE   W04
 BYTE   W06
 BYTE   W06
 BYTE   W06
 BYTE   W06
 BYTE   W06
 BYTE   W03
 BYTE   W06
 BYTE   W06
 BYTE   W03
 BYTE   W06
 BYTE   W03
 BYTE   W03
 BYTE   W06
 BYTE   W03
 BYTE   W03
 BYTE   W06
 BYTE   W03
 BYTE   W02
 BYTE   N02  Fn4  v096
 BYTE   W01
 BYTE   W02
 BYTE   Gn4  v088
 BYTE   W01
 BYTE   W02
 BYTE   Fn4  v076
 BYTE   W01
 BYTE   W02
//  #08 //039   ----------------------------------------
 BYTE   N84  Cn4  v084
 BYTE   W04
 BYTE   W03
 BYTE   W03
 BYTE   W03
 BYTE   W03
 BYTE   W03
 BYTE   W03
 BYTE   W03
 BYTE   W03
 BYTE   W03
 BYTE   W03
 BYTE   W03
 BYTE   W03
 BYTE   W03
 BYTE   W03
 BYTE   W03
 BYTE   W03
 BYTE   W03
 BYTE   W03
 BYTE   W03
 BYTE   W03
 BYTE   W03
 BYTE   W03
 BYTE   W03
 BYTE   W03
 BYTE   W03
 BYTE   W03
 BYTE   W03
 BYTE   W03
 BYTE   W03
 BYTE   W01
 BYTE   W01
 BYTE   W01
 BYTE   W01
 BYTE   W01
//  #08 //040   ----------------------------------------
 BYTE   W96
//  #08 //041   ----------------------------------------
 BYTE   W96
//  #08 //042   ----------------------------------------
 BYTE   N92  Cn4  v100
 BYTE   W06
 BYTE   W02
 BYTE   W04
 BYTE   W04
 BYTE   W04
 BYTE   W04
 BYTE   W04
 BYTE   W04
 BYTE   W04
 BYTE   W04
 BYTE   W04
 BYTE   W04
 BYTE   W04
 BYTE   W04
 BYTE   W04
 BYTE   W04
 BYTE   W04
 BYTE   W04
 BYTE   W04
 BYTE   W04
 BYTE   W04
 BYTE   W04
 BYTE   W04
 BYTE   W04
//  #08 //043   ----------------------------------------
 BYTE   Cs4  v080
 BYTE   W04
 BYTE   W04
 BYTE   W04
 BYTE   W04
 BYTE   W04
 BYTE   W04
 BYTE   W04
 BYTE   W04
 BYTE   W04
 BYTE   W04
 BYTE   W04
 BYTE   W04
 BYTE   W04
 BYTE   W04
 BYTE   W04
 BYTE   W04
 BYTE   W04
 BYTE   W04
 BYTE   W04
 BYTE   W20
//  #08 //044   ----------------------------------------
 BYTE   Cs4  v096
 BYTE   W04
 BYTE   W08
 BYTE   W08
 BYTE   W04
 BYTE   W04
 BYTE   W08
 BYTE   W04
 BYTE   W04
 BYTE   W08
 BYTE   W04
 BYTE   W04
 BYTE   W04
 BYTE   W04
 BYTE   W04
 BYTE   W04
 BYTE   W04
 BYTE   W04
 BYTE   W04
 BYTE   W04
 BYTE   W04
//  #08 //045   ----------------------------------------
 BYTE   Ds4  v064
 BYTE   W04
 BYTE   W04
 BYTE   W04
 BYTE   W04
 BYTE   W04
 BYTE   W04
 BYTE   W04
 BYTE   W04
 BYTE   W04
 BYTE   W04
 BYTE   W04
 BYTE   W04
 BYTE   W04
 BYTE   W04
 BYTE   W04
 BYTE   W04
 BYTE   W04
 BYTE   W04
 BYTE   W04
 BYTE   W04
 BYTE   W04
 BYTE   W04
 BYTE   W04
 BYTE   W04
//  #08 //046   ----------------------------------------
 BYTE   TIE  Cs4  v076
 BYTE   W08
 BYTE   W04
 BYTE   W04
 BYTE   W04
 BYTE   W04
 BYTE   W04
 BYTE   W04
 BYTE   W04
 BYTE   W04
 BYTE   W04
 BYTE   W04
 BYTE   W04
 BYTE   W04
 BYTE   W04
 BYTE   W04
 BYTE   W04
 BYTE   W04
 BYTE   W04
 BYTE   W04
 BYTE   W04
 BYTE   W04
 BYTE   W04
 BYTE   W04
//  #08 //047   ----------------------------------------
 BYTE   N92  Gs3  v092
 BYTE   W08
 BYTE   W08
 BYTE   W04
 BYTE   W04
 BYTE   W04
 BYTE   W04
 BYTE   W04
 BYTE   W04
 BYTE   W04
 BYTE   W04
 BYTE   W04
 BYTE   W04
 BYTE   W04
 BYTE   W04
 BYTE   W04
 BYTE   W04
 BYTE   W04
 BYTE   W04
 BYTE   W04
 BYTE   W04
 BYTE   W04
 BYTE   W03
 BYTE   EOT
 BYTE   Cs4
 BYTE   W01
//  #08 //048   ----------------------------------------
 BYTE   GoTo
  POIN2 Label_012E0076
//  #08 //049   ----------------------------------------
 BYTE   W02
 BYTE   FINE

//**************** Track 9 (Midi-Chn.8) ****************//

song0D_009:
//  #09 //000   ----------------------------------------
 BYTE   KEYSH   song0D_key+0
 BYTE   VOICE   14
 BYTE   PAN   c_v+0
 BYTE   VOL   34*song0D_mvl/mxv
 BYTE   N48  Cs3  v112
 BYTE   W72
 BYTE   N23  Gs3  v104
 BYTE   W24
//  #09 //001   ----------------------------------------
 BYTE   N48  Cs3  v112
 BYTE   W96
//  #09 //002   ----------------------------------------
Label_5528A8:
 BYTE   N48  Cs3  v112
 BYTE   W96
//  #09 //003   ----------------------------------------
 BYTE   W96
//  #09 //004   ----------------------------------------
 BYTE   W96
//  #09 //005   ----------------------------------------
 BYTE   W96
//  #09 //006   ----------------------------------------
 BYTE   W96
//  #09 //007   ----------------------------------------
 BYTE   W96
//  #09 //008   ----------------------------------------
 BYTE   W96
//  #09 //009   ----------------------------------------
 BYTE   W96
//  #09 //010   ----------------------------------------
 BYTE   W96
//  #09 //011   ----------------------------------------
 BYTE   W96
//  #09 //012   ----------------------------------------
 BYTE   W96
//  #09 //013   ----------------------------------------
 BYTE   W96
//  #09 //014   ----------------------------------------
 BYTE   W96
//  #09 //015   ----------------------------------------
 BYTE   W96
//  #09 //016   ----------------------------------------
 BYTE   W96
//  #09 //017   ----------------------------------------
 BYTE   W13
 BYTE   W04
 BYTE   W09
 BYTE   W09
 BYTE   W04
 BYTE   W05
 BYTE   W04
 BYTE   W05
 BYTE   W04
 BYTE   W04
 BYTE   W05
 BYTE   W04
 BYTE   W05
 BYTE   W04
 BYTE   W05
 BYTE   W04
 BYTE   W06
 BYTE   W02
//  #09 //018   ----------------------------------------
 BYTE   W96
//  #09 //019   ----------------------------------------
 BYTE   W96
//  #09 //020   ----------------------------------------
 BYTE   W96
//  #09 //021   ----------------------------------------
 BYTE   W96
//  #09 //022   ----------------------------------------
 BYTE   W96
//  #09 //023   ----------------------------------------
 BYTE   W96
//  #09 //024   ----------------------------------------
 BYTE   W96
//  #09 //025   ----------------------------------------
 BYTE   W96
//  #09 //026   ----------------------------------------
 BYTE   W96
//  #09 //027   ----------------------------------------
 BYTE   W96
//  #09 //028   ----------------------------------------
 BYTE   W96
//  #09 //029   ----------------------------------------
 BYTE   W96
//  #09 //030   ----------------------------------------
 BYTE   W96
//  #09 //031   ----------------------------------------
 BYTE   W96
//  #09 //032   ----------------------------------------
 BYTE   W96
//  #09 //033   ----------------------------------------
 BYTE   W96
//  #09 //034   ----------------------------------------
 BYTE   W96
//  #09 //035   ----------------------------------------
 BYTE   W96
//  #09 //036   ----------------------------------------
 BYTE   W96
//  #09 //037   ----------------------------------------
 BYTE   W96
//  #09 //038   ----------------------------------------
 BYTE   W96
//  #09 //039   ----------------------------------------
 BYTE   W96
//  #09 //040   ----------------------------------------
 BYTE   W96
//  #09 //041   ----------------------------------------
 BYTE   W32
 BYTE   W04
 BYTE   W04
 BYTE   W04
 BYTE   W04
 BYTE   W04
 BYTE   W04
 BYTE   W04
 BYTE   W04
 BYTE   W04
 BYTE   W04
 BYTE   W04
 BYTE   W04
 BYTE   W04
 BYTE   W04
 BYTE   W02
 BYTE   W02
 BYTE   W04
//  #09 //042   ----------------------------------------
 BYTE   W96
//  #09 //043   ----------------------------------------
 BYTE   W96
//  #09 //044   ----------------------------------------
 BYTE   W96
//  #09 //045   ----------------------------------------
 BYTE   W96
//  #09 //046   ----------------------------------------
 BYTE   W96
//  #09 //047   ----------------------------------------
 BYTE   W96
//  #09 //048   ----------------------------------------
 BYTE   GoTo
  POIN2 Label_5528A8
//  #09 //049   ----------------------------------------
 BYTE   W02
 BYTE   FINE

//**************** Track 10 (Midi-Chn.9) ****************//

song0D_010:
//  #10 //000   ----------------------------------------
 BYTE   KEYSH   song0D_key+0
 BYTE   VOICE   46
 BYTE   PAN   c_v+0
 BYTE   VOL   34*song0D_mvl/mxv
 BYTE   W96
//  #10 //001   ----------------------------------------
 BYTE   W96
//  #10 //002   ----------------------------------------
Label_012E02E6:
 BYTE   W96
//  #10 //003   ----------------------------------------
 BYTE   W96
//  #10 //004   ----------------------------------------
 BYTE   W96
//  #10 //005   ----------------------------------------
 BYTE   W96
//  #10 //006   ----------------------------------------
 BYTE   W96
//  #10 //007   ----------------------------------------
 BYTE   W96
//  #10 //008   ----------------------------------------
 BYTE   W96
//  #10 //009   ----------------------------------------
 BYTE   W96
//  #10 //010   ----------------------------------------
 BYTE   W96
//  #10 //011   ----------------------------------------
 BYTE   W96
//  #10 //012   ----------------------------------------
 BYTE   W96
//  #10 //013   ----------------------------------------
 BYTE   W96
//  #10 //014   ----------------------------------------
 BYTE   W96
//  #10 //015   ----------------------------------------
 BYTE   W96
//  #10 //016   ----------------------------------------
 BYTE   W96
//  #10 //017   ----------------------------------------
 BYTE   W96
//  #10 //018   ----------------------------------------
 BYTE   N05  Gs4  v072
 BYTE   W04
 BYTE   W02
 BYTE   Fs4  v076
 BYTE   W02
 BYTE   W04
 BYTE   Ds4  v084
 BYTE   W04
 BYTE   W02
 BYTE   Bn3  v080
 BYTE   W02
 BYTE   W04
 BYTE   An3  v092
 BYTE   W04
 BYTE   W02
 BYTE   Cs4  v052
 BYTE   W02
 BYTE   W04
 BYTE   Ds4  v048
 BYTE   W04
 BYTE   W02
 BYTE   Fs4  v072
 BYTE   W02
 BYTE   W04
 BYTE   Gs4
 BYTE   W04
 BYTE   W02
 BYTE   Fs4  v080
 BYTE   W02
 BYTE   W04
 BYTE   Ds4  v088
 BYTE   W04
 BYTE   W02
 BYTE   Bn3  v064
 BYTE   W02
 BYTE   W04
 BYTE   An3  v072
 BYTE   W04
 BYTE   W02
 BYTE   Gs3
 BYTE   W02
 BYTE   W04
 BYTE   Ds3  v092
 BYTE   W04
 BYTE   W02
 BYTE   Gs3  v072
 BYTE   W02
 BYTE   W04
//  #10 //019   ----------------------------------------
 BYTE   Gs4  v092
 BYTE   W04
 BYTE   W02
 BYTE   Fs4  v056
 BYTE   W02
 BYTE   W04
 BYTE   En4  v060
 BYTE   W04
 BYTE   W02
 BYTE   Bn3  v076
 BYTE   W02
 BYTE   W04
 BYTE   Gs3
 BYTE   W04
 BYTE   W02
 BYTE   Fs3  v096
 BYTE   W02
 BYTE   W04
 BYTE   En3  v072
 BYTE   W04
 BYTE   W02
 BYTE   Bn2  v080
 BYTE   W02
 BYTE   W04
 BYTE   Gs2
 BYTE   W04
 BYTE   W02
 BYTE   Bn2  v100
 BYTE   W02
 BYTE   W04
 BYTE   En3  v076
 BYTE   W04
 BYTE   W02
 BYTE   Fs3  v072
 BYTE   W02
 BYTE   W04
 BYTE   Gs3  v100
 BYTE   W04
 BYTE   W02
 BYTE   Bn3  v072
 BYTE   W02
 BYTE   W04
 BYTE   En4
 BYTE   W04
 BYTE   W02
 BYTE   Fs4  v064
 BYTE   W02
 BYTE   W04
//  #10 //020   ----------------------------------------
 BYTE   Gs4  v056
 BYTE   W04
 BYTE   W02
 BYTE   Fs4  v068
 BYTE   W02
 BYTE   W04
 BYTE   Ds4  v088
 BYTE   W04
 BYTE   W02
 BYTE   Bn3  v076
 BYTE   W02
 BYTE   W04
 BYTE   An3  v064
 BYTE   W04
 BYTE   W02
 BYTE   Cs4  v084
 BYTE   W02
 BYTE   W04
 BYTE   Ds4  v068
 BYTE   W04
 BYTE   W02
 BYTE   Fs4  v084
 BYTE   W02
 BYTE   W04
 BYTE   Gs4  v056
 BYTE   W04
 BYTE   W02
 BYTE   Fs4  v096
 BYTE   W02
 BYTE   W04
 BYTE   Ds4  v068
 BYTE   W04
 BYTE   W02
 BYTE   Bn3  v084
 BYTE   W02
 BYTE   W04
 BYTE   An3  v072
 BYTE   W04
 BYTE   W02
 BYTE   Gs3  v076
 BYTE   W02
 BYTE   W04
 BYTE   Ds3  v084
 BYTE   W06
 BYTE   Gs3
 BYTE   W06
//  #10 //021   ----------------------------------------
 BYTE   Gs4  v080
 BYTE   W04
 BYTE   W02
 BYTE   Fs4  v076
 BYTE   W02
 BYTE   W04
 BYTE   En4  v064
 BYTE   W04
 BYTE   W02
 BYTE   Cs4  v076
 BYTE   W02
 BYTE   W04
 BYTE   Gs3
 BYTE   W04
 BYTE   W02
 BYTE   Fs3  v072
 BYTE   W02
 BYTE   W04
 BYTE   En3  v064
 BYTE   W04
 BYTE   W02
 BYTE   Cs3  v088
 BYTE   W02
 BYTE   W04
 BYTE   Gs2  v092
 BYTE   W04
 BYTE   W02
 BYTE   Cs3  v064
 BYTE   W02
 BYTE   W04
 BYTE   En3  v056
 BYTE   W04
 BYTE   W02
 BYTE   Fs3  v072
 BYTE   W02
 BYTE   W04
 BYTE   Gs3
 BYTE   W04
 BYTE   W02
 BYTE   Cs4  v080
 BYTE   W02
 BYTE   W04
 BYTE   En4  v064
 BYTE   W04
 BYTE   W02
 BYTE   Fs4  v076
 BYTE   W02
 BYTE   W04
//  #10 //022   ----------------------------------------
 BYTE   An4  v072
 BYTE   W04
 BYTE   W02
 BYTE   Cs3  v060
 BYTE   W02
 BYTE   W04
 BYTE   Fs3  v092
 BYTE   W04
 BYTE   W02
 BYTE   An3  v072
 BYTE   W02
 BYTE   W04
 BYTE   Cs4  v060
 BYTE   W04
 BYTE   W02
 BYTE   Fs3  v088
 BYTE   W02
 BYTE   W04
 BYTE   An3  v060
 BYTE   W04
 BYTE   W02
 BYTE   Cs4  v068
 BYTE   W02
 BYTE   W04
 BYTE   Fs4
 BYTE   W04
 BYTE   W02
 BYTE   Cs4  v088
 BYTE   W02
 BYTE   W04
 BYTE   An3  v072
 BYTE   W04
 BYTE   W02
 BYTE   Fs3  v084
 BYTE   W02
 BYTE   W04
 BYTE   Cs3  v072
 BYTE   W04
 BYTE   W02
 BYTE   An3  v080
 BYTE   W02
 BYTE   W04
 BYTE   Cs4  v076
 BYTE   W04
 BYTE   W02
 BYTE   Fs4  v096
 BYTE   W02
 BYTE   W04
//  #10 //023   ----------------------------------------
 BYTE   En4  v092
 BYTE   W04
 BYTE   W02
 BYTE   Cn3  v068
 BYTE   W02
 BYTE   W04
 BYTE   En3  v096
 BYTE   W04
 BYTE   W02
 BYTE   Gn3  v100
 BYTE   W02
 BYTE   W04
 BYTE   Bn3  v072
 BYTE   W04
 BYTE   W02
 BYTE   En3  v080
 BYTE   W02
 BYTE   W04
 BYTE   Gn3  v084
 BYTE   W04
 BYTE   W02
 BYTE   Bn3  v072
 BYTE   W02
 BYTE   W04
 BYTE   En4  v076
 BYTE   W04
 BYTE   W02
 BYTE   Bn3  v056
 BYTE   W02
 BYTE   W04
 BYTE   Gn3  v088
 BYTE   W04
 BYTE   W02
 BYTE   En3  v068
 BYTE   W02
 BYTE   W04
 BYTE   Cn3  v072
 BYTE   W06
 BYTE   Gn3  v084
 BYTE   W06
 BYTE   Bn3  v056
 BYTE   W04
 BYTE   W02
 BYTE   En4  v060
 BYTE   W06
//  #10 //024   ----------------------------------------
 BYTE   Fn4  v084
 BYTE   W06
 BYTE   Cn3  v080
 BYTE   W02
 BYTE   W04
 BYTE   Fn3  v072
 BYTE   W04
 BYTE   W02
 BYTE   An3
 BYTE   W06
 BYTE   Cn4  v088
 BYTE   W06
 BYTE   Fn3  v068
 BYTE   W02
 BYTE   W04
 BYTE   An3  v080
 BYTE   W04
 BYTE   W02
 BYTE   Cn4
 BYTE   W06
 BYTE   Fn4  v056
 BYTE   W06
 BYTE   Cn4  v080
 BYTE   W02
 BYTE   W04
 BYTE   An3  v076
 BYTE   W04
 BYTE   W02
 BYTE   Fn3  v056
 BYTE   W06
 BYTE   Cn3  v068
 BYTE   W06
 BYTE   An3  v084
 BYTE   W02
 BYTE   W04
 BYTE   Cn4  v096
 BYTE   W04
 BYTE   W02
 BYTE   Fn4  v080
 BYTE   W06
//  #10 //025   ----------------------------------------
 BYTE   Fs4  v076
 BYTE   W06
 BYTE   Ds4  v084
 BYTE   W02
 BYTE   W04
 BYTE   Bn3  v076
 BYTE   W04
 BYTE   W02
 BYTE   An3  v072
 BYTE   W06
 BYTE   Fs3
 BYTE   W04
 BYTE   W02
 BYTE   Ds3  v084
 BYTE   W02
 BYTE   W04
 BYTE   Bn2  v076
 BYTE   W04
 BYTE   W02
 BYTE   An2  v084
 BYTE   W02
 BYTE   W04
 BYTE   N02  Fs2  v088
 BYTE   W03
 BYTE   An2  v072
 BYTE   W01
 BYTE   W02
 BYTE   Bn2  v092
 BYTE   W02
 BYTE   W01
 BYTE   Ds3  v096
 BYTE   W03
 BYTE   Fs3  v068
 BYTE   W03
 BYTE   An3  v084
 BYTE   W01
 BYTE   W02
 BYTE   Bn3  v076
 BYTE   W02
 BYTE   W01
 BYTE   Ds4  v100
 BYTE   W03
 BYTE   Fs2  v104
 BYTE   W03
 BYTE   An2  v084
 BYTE   W01
 BYTE   W02
 BYTE   Ds3  v076
 BYTE   W02
 BYTE   W01
 BYTE   An3  v084
 BYTE   W03
 BYTE   Ds3
 BYTE   W03
 BYTE   Bn3  v096
 BYTE   W01
 BYTE   W02
 BYTE   Fs4  v092
 BYTE   W02
 BYTE   W01
 BYTE   Bn4  v116
 BYTE   W03
//  #10 //026   ----------------------------------------
 BYTE   W96
//  #10 //027   ----------------------------------------
 BYTE   W96
//  #10 //028   ----------------------------------------
 BYTE   W96
//  #10 //029   ----------------------------------------
 BYTE   W96
//  #10 //030   ----------------------------------------
 BYTE   W96
//  #10 //031   ----------------------------------------
 BYTE   W96
//  #10 //032   ----------------------------------------
 BYTE   W96
//  #10 //033   ----------------------------------------
 BYTE   W96
//  #10 //034   ----------------------------------------
 BYTE   W96
//  #10 //035   ----------------------------------------
 BYTE   W96
//  #10 //036   ----------------------------------------
 BYTE   W96
//  #10 //037   ----------------------------------------
 BYTE   W96
//  #10 //038   ----------------------------------------
 BYTE   W96
//  #10 //039   ----------------------------------------
 BYTE   W96
//  #10 //040   ----------------------------------------
 BYTE   W96
//  #10 //041   ----------------------------------------
 BYTE   W96
//  #10 //042   ----------------------------------------
 BYTE   W96
//  #10 //043   ----------------------------------------
 BYTE   W96
//  #10 //044   ----------------------------------------
 BYTE   W96
//  #10 //045   ----------------------------------------
 BYTE   W96
//  #10 //046   ----------------------------------------
 BYTE   W96
//  #10 //047   ----------------------------------------
 BYTE   W96
//  #10 //048   ----------------------------------------
 BYTE   GoTo
  POIN2 Label_012E02E6
//  #10 //049   ----------------------------------------
 BYTE   W02
 BYTE   FINE

//**************** Track 11 (Midi-Chn.10) ****************//

song0D_011:
//  #11 //000   ----------------------------------------
 BYTE   KEYSH   song0D_key+0
 BYTE   VOICE   34
 BYTE   VOL   35*song0D_mvl/mxv
 BYTE   PAN   c_v+0
 BYTE   N08  Cs2  v112
 BYTE   W12
 BYTE   N03  Cs2  v092
 BYTE   W12
 BYTE   Cs2  v080
 BYTE   W12
 BYTE   N08  Cs2  v112
 BYTE   W12
 BYTE   N04  Cs2  v084
 BYTE   W12
 BYTE   N03  Cs2  v080
 BYTE   W12
 BYTE   N04  Cs2  v092
 BYTE   W12
 BYTE   Cs2  v088
 BYTE   W12
//  #11 //001   ----------------------------------------
 BYTE   N08  Cs2  v112
 BYTE   W12
 BYTE   N05  Cs2  v084
 BYTE   W12
 BYTE   N03  Cs2  v076
 BYTE   W12
 BYTE   N05  Cs2  v112
 BYTE   W12
 BYTE   N04  Cs2  v076
 BYTE   W12
 BYTE   N05  Cs2  v072
 BYTE   W12
 BYTE   Cs2  v112
 BYTE   W12
 BYTE   N03  Gs1  v104
 BYTE   W12
//  #11 //002   ----------------------------------------
Label_012E9935:
 BYTE   N08  Cs2  v112
 BYTE   W12
 BYTE   N03  Cs2  v092
 BYTE   W12
 BYTE   Cs2  v080
 BYTE   W12
 BYTE   N08  Cs2  v112
 BYTE   W12
 BYTE   N04  Cs2  v084
 BYTE   W12
 BYTE   N03  Cs2  v080
 BYTE   W12
 BYTE   N04  Cs2  v092
 BYTE   W12
 BYTE   Cs2  v088
 BYTE   W12
 BYTE   PEND 
//  #11 //003   ----------------------------------------
Label_012E9954:
 BYTE   N08  Cs2  v112
 BYTE   W12
 BYTE   N05  Cs2  v084
 BYTE   W12
 BYTE   N03  Cs2  v076
 BYTE   W12
 BYTE   N05  Cs2  v112
 BYTE   W12
 BYTE   N04  Cs2  v076
 BYTE   W12
 BYTE   N05  Cs2  v072
 BYTE   W12
 BYTE   Cs2  v112
 BYTE   W12
 BYTE   N03  Cs2  v104
 BYTE   W12
 BYTE   PEND 
//  #11 //004   ----------------------------------------
 BYTE   N09  Cs2  v112
 BYTE   W12
 BYTE   N05  Cs2  v076
 BYTE   W12
 BYTE   N04  Cs2  v072
 BYTE   W12
 BYTE   N07  Cs2  v112
 BYTE   W12
 BYTE   N04  Cs2  v088
 BYTE   W12
 BYTE   N03  Cs2  v072
 BYTE   W12
 BYTE   N03
 BYTE   W12
 BYTE   N04  Cs2  v092
 BYTE   W12
//  #11 //005   ----------------------------------------
Label_012E9992:
 BYTE   N06  Bn1  v112
 BYTE   W12
 BYTE   N04  Bn1  v084
 BYTE   W12
 BYTE   N03  Bn1  v068
 BYTE   W12
 BYTE   N07  Bn1  v112
 BYTE   W12
 BYTE   N03  Bn1  v080
 BYTE   W12
 BYTE   Bn1  v072
 BYTE   W12
 BYTE   N04  Bn1  v112
 BYTE   W12
 BYTE   N04
 BYTE   W12
 BYTE   PEND 
//  #11 //006   ----------------------------------------
 BYTE   N08  An1
 BYTE   W12
 BYTE   N04  An1  v080
 BYTE   W12
 BYTE   N03  An1  v072
 BYTE   W12
 BYTE   N07  An1  v112
 BYTE   W12
 BYTE   N03  An1  v076
 BYTE   W12
 BYTE   N02  An1  v072
 BYTE   W12
 BYTE   An1  v084
 BYTE   W12
 BYTE   N03  An1  v108
 BYTE   W12
//  #11 //007   ----------------------------------------
 BYTE   N08  Gs1  v112
 BYTE   W12
 BYTE   N03  Gs1  v072
 BYTE   W12
 BYTE   N02  Gs1  v068
 BYTE   W12
 BYTE   N05  Gs1  v112
 BYTE   W12
 BYTE   N03  Gs1  v076
 BYTE   W12
 BYTE   N02  Gs1  v064
 BYTE   W12
 BYTE   N05  Gs1  v112
 BYTE   W12
 BYTE   N03  Gs1  v084
 BYTE   W12
//  #11 //008   ----------------------------------------
 BYTE   N05  An1  v112
 BYTE   W12
 BYTE   N04  An1  v076
 BYTE   W12
 BYTE   N03  An1  v072
 BYTE   W12
 BYTE   N05  An1  v112
 BYTE   W12
 BYTE   N03  An1  v088
 BYTE   W12
 BYTE   An1  v080
 BYTE   W12
 BYTE   An1  v076
 BYTE   W12
 BYTE   N04  An1  v084
 BYTE   W12
//  #11 //009   ----------------------------------------
Label_012E9A0C:
 BYTE   N04  Bn1  v112
 BYTE   W12
 BYTE   N03  Bn1  v084
 BYTE   W12
 BYTE   Bn1  v080
 BYTE   W12
 BYTE   N05  Bn1  v112
 BYTE   W12
 BYTE   N02  Bn1  v076
 BYTE   W12
 BYTE   N04  Bn1  v068
 BYTE   W12
 BYTE   Bn1  v112
 BYTE   W12
 BYTE   Bn1  v068
 BYTE   W12
 BYTE   PEND 
//  #11 //010   ----------------------------------------
 BYTE   PATT
  POIN2 Label_012E9935
//  #11 //011   ----------------------------------------
 BYTE   PATT
  POIN2 Label_012E9954
//  #11 //012   ----------------------------------------
 BYTE   N09  An1  v112
 BYTE   W12
 BYTE   N05  An1  v076
 BYTE   W12
 BYTE   N04  An1  v072
 BYTE   W12
 BYTE   N07  An1  v112
 BYTE   W12
 BYTE   N04  An1  v088
 BYTE   W12
 BYTE   N03  An1  v072
 BYTE   W12
 BYTE   N03
 BYTE   W12
 BYTE   N04  An1  v092
 BYTE   W12
//  #11 //013   ----------------------------------------
 BYTE   PATT
  POIN2 Label_012E9992
//  #11 //014   ----------------------------------------
 BYTE   N08  Cs2  v112
 BYTE   W12
 BYTE   N04  Cs2  v080
 BYTE   W12
 BYTE   N03  Cs2  v072
 BYTE   W12
 BYTE   N07  Cs2  v112
 BYTE   W12
 BYTE   N03  Cs2  v076
 BYTE   W12
 BYTE   N02  Cs2  v072
 BYTE   W12
 BYTE   Cs2  v084
 BYTE   W12
 BYTE   N03  Cs2  v108
 BYTE   W12
//  #11 //015   ----------------------------------------
 BYTE   N08  Cs2  v112
 BYTE   W12
 BYTE   N03  Cs2  v072
 BYTE   W12
 BYTE   N02  Cs2  v068
 BYTE   W12
 BYTE   N05  Cs2  v112
 BYTE   W12
 BYTE   N03  Cs2  v076
 BYTE   W12
 BYTE   N02  Cs2  v064
 BYTE   W12
 BYTE   N05  Cs2  v112
 BYTE   W12
 BYTE   N03  Cs2  v084
 BYTE   W12
//  #11 //016   ----------------------------------------
 BYTE   N05  Cs2  v112
 BYTE   W12
 BYTE   N04  Cs2  v076
 BYTE   W12
 BYTE   N03  Cs2  v072
 BYTE   W12
 BYTE   N05  Cs2  v112
 BYTE   W12
 BYTE   N03  Cs2  v088
 BYTE   W12
 BYTE   Cs2  v080
 BYTE   W12
 BYTE   Cs2  v076
 BYTE   W12
 BYTE   N04  Cs2  v084
 BYTE   W12
//  #11 //017   ----------------------------------------
 BYTE   PATT
  POIN2 Label_012E9A0C
//  #11 //018   ----------------------------------------
 BYTE   TIE  An1  v104
 BYTE   W96
//  #11 //019   ----------------------------------------
 BYTE   N90  Bn1  v108
 BYTE   W01
 BYTE   EOT
 BYTE   An1
 BYTE   W92
 BYTE   W03
//  #11 //020   ----------------------------------------
 BYTE   N90
 BYTE   W96
//  #11 //021   ----------------------------------------
 BYTE   Gs1
 BYTE   W96
//  #11 //022   ----------------------------------------
 BYTE   Fs1
 BYTE   W96
//  #11 //023   ----------------------------------------
 BYTE   En1
 BYTE   W96
//  #11 //024   ----------------------------------------
 BYTE   An1
 BYTE   W96
//  #11 //025   ----------------------------------------
 BYTE   N28  Bn1
 BYTE   W30
 BYTE   N04  Bn1  v112
 BYTE   W12
 BYTE   N04
 BYTE   W06
 BYTE   N04
 BYTE   W06
 BYTE   N04
 BYTE   W12
 BYTE   N04
 BYTE   W06
 BYTE   N05  Bn1  v108
 BYTE   W06
 BYTE   An1
 BYTE   W06
 BYTE   Gn1
 BYTE   W06
 BYTE   Fn1
 BYTE   W06
//  #11 //026   ----------------------------------------
Label_012E9AE8:
 BYTE   N04  En1  v124
 BYTE   W12
 BYTE   N03  En1  v108
 BYTE   W12
 BYTE   En1  v076
 BYTE   W12
 BYTE   N04  En1  v127
 BYTE   W12
 BYTE   N03  En1  v080
 BYTE   W12
 BYTE   En1  v100
 BYTE   W12
 BYTE   N04  En1  v127
 BYTE   W06
 BYTE   N04
 BYTE   W12
 BYTE   N03  En1  v100
 BYTE   W06
 BYTE   PEND 
//  #11 //027   ----------------------------------------
 BYTE   N04  En1  v127
 BYTE   W12
 BYTE   N03  En1  v100
 BYTE   W12
 BYTE   En1  v096
 BYTE   W12
 BYTE   N04  En1  v127
 BYTE   W12
 BYTE   N03  En1  v100
 BYTE   W12
 BYTE   En1  v096
 BYTE   W12
 BYTE   N04  En2  v127
 BYTE   W06
 BYTE   Fs2
 BYTE   W06
 BYTE   N03  En2  v120
 BYTE   W06
 BYTE   Dn2
 BYTE   W06
//  #11 //028   ----------------------------------------
Label_012E9B2B:
 BYTE   N05  Cn2  v127
 BYTE   W12
 BYTE   N02  Cn2  v076
 BYTE   W12
 BYTE   N03  Cn2  v100
 BYTE   W12
 BYTE   N04  Cn2  v127
 BYTE   W12
 BYTE   Cn2  v100
 BYTE   W12
 BYTE   N03  Cn2  v080
 BYTE   W12
 BYTE   N04  Cn2  v127
 BYTE   W06
 BYTE   N04
 BYTE   W12
 BYTE   N03  Cn2  v108
 BYTE   W06
 BYTE   PEND 
//  #11 //029   ----------------------------------------
 BYTE   N05  Dn2  v127
 BYTE   W12
 BYTE   N04  Dn2  v100
 BYTE   W12
 BYTE   N03  Dn2  v092
 BYTE   W12
 BYTE   N04  Dn2  v127
 BYTE   W12
 BYTE   Dn2  v112
 BYTE   W06
 BYTE   An1  v124
 BYTE   W06
 BYTE   N02  An1  v096
 BYTE   W06
 BYTE   Dn2
 BYTE   W06
 BYTE   N04  Dn2  v127
 BYTE   W06
 BYTE   An1
 BYTE   W06
 BYTE   Fs1
 BYTE   W06
 BYTE   Dn1
 BYTE   W06
//  #11 //030   ----------------------------------------
 BYTE   PATT
  POIN2 Label_012E9AE8
//  #11 //031   ----------------------------------------
 BYTE   N04  En1  v127
 BYTE   W12
 BYTE   N03  En1  v100
 BYTE   W12
 BYTE   En1  v096
 BYTE   W12
 BYTE   N04  En1  v127
 BYTE   W12
 BYTE   N03  En1  v100
 BYTE   W12
 BYTE   En1  v096
 BYTE   W12
 BYTE   N04  Fs1  v127
 BYTE   W06
 BYTE   Gn1
 BYTE   W06
 BYTE   N03  An1  v120
 BYTE   W06
 BYTE   Bn1
 BYTE   W06
//  #11 //032   ----------------------------------------
 BYTE   PATT
  POIN2 Label_012E9B2B
//  #11 //033   ----------------------------------------
 BYTE   N05  Dn2  v127
 BYTE   W12
 BYTE   N04  Dn2  v100
 BYTE   W12
 BYTE   N03  Dn2  v092
 BYTE   W06
 BYTE   N04  Dn2  v127
 BYTE   W12
 BYTE   N04
 BYTE   W06
 BYTE   N05  Cs2  v112
 BYTE   W06
 BYTE   Dn2
 BYTE   W06
 BYTE   Cs2
 BYTE   W06
 BYTE   An1
 BYTE   W06
 BYTE   Gs1
 BYTE   W06
 BYTE   An1
 BYTE   W06
 BYTE   Gs1
 BYTE   W06
 BYTE   Fs1
 BYTE   W06
//  #11 //034   ----------------------------------------
Label_012E9BC3:
 BYTE   N04  Fn1  v120
 BYTE   W12
 BYTE   N03  Fn1  v100
 BYTE   W12
 BYTE   Fn1  v072
 BYTE   W12
 BYTE   N04  Fn1  v127
 BYTE   W12
 BYTE   N03  Fn1  v076
 BYTE   W12
 BYTE   Fn1  v096
 BYTE   W12
 BYTE   N04  Fn1  v127
 BYTE   W06
 BYTE   N04
 BYTE   W12
 BYTE   N03  Fn1  v096
 BYTE   W06
 BYTE   PEND 
//  #11 //035   ----------------------------------------
 BYTE   N04  Fn1  v127
 BYTE   W12
 BYTE   N03  Fn1  v096
 BYTE   W12
 BYTE   Fn1  v092
 BYTE   W12
 BYTE   N04  Fn1  v127
 BYTE   W18
 BYTE   N05  Fn1  v116
 BYTE   W06
 BYTE   Gn1  v124
 BYTE   W06
 BYTE   Gs1  v120
 BYTE   W06
 BYTE   As1  v116
 BYTE   W06
 BYTE   Gs1  v120
 BYTE   W06
 BYTE   As1  v116
 BYTE   W06
 BYTE   Cn2  v124
 BYTE   W06
//  #11 //036   ----------------------------------------
 BYTE   Cs2  v127
 BYTE   W12
 BYTE   N02  Cs2  v072
 BYTE   W12
 BYTE   N03  Cs2  v096
 BYTE   W12
 BYTE   N04  Cs2  v127
 BYTE   W12
 BYTE   Cs2  v092
 BYTE   W12
 BYTE   N03  Cs2  v076
 BYTE   W12
 BYTE   N04  Cs2  v127
 BYTE   W06
 BYTE   Gs1
 BYTE   W12
 BYTE   N03  Cs2  v100
 BYTE   W06
//  #11 //037   ----------------------------------------
 BYTE   N05  Ds2  v127
 BYTE   W06
 BYTE   N04  As1  v096
 BYTE   W12
 BYTE   N04
 BYTE   W06
 BYTE   N03  Ds2  v088
 BYTE   W12
 BYTE   N04  As1  v127
 BYTE   W06
 BYTE   N03  Ds2  v096
 BYTE   W06
 BYTE   N04  Ds2  v108
 BYTE   W06
 BYTE   N03  Fn2  v096
 BYTE   W06
 BYTE   N04  Ds2  v108
 BYTE   W06
 BYTE   Cs2
 BYTE   W06
 BYTE   Cn2
 BYTE   W06
 BYTE   Cs2
 BYTE   W06
 BYTE   Ds2  v120
 BYTE   W06
 BYTE   Fs1  v108
 BYTE   W06
//  #11 //038   ----------------------------------------
 BYTE   PATT
  POIN2 Label_012E9BC3
//  #11 //039   ----------------------------------------
 BYTE   N04  Fn1  v127
 BYTE   W12
 BYTE   N03  Fn1  v096
 BYTE   W12
 BYTE   Fn1  v092
 BYTE   W12
 BYTE   N04  Fn1  v127
 BYTE   W12
 BYTE   N03  Fn1  v096
 BYTE   W12
 BYTE   Fn1  v116
 BYTE   W06
 BYTE   N03
 BYTE   W06
 BYTE   N04  As1  v127
 BYTE   W06
 BYTE   Gs1
 BYTE   W06
 BYTE   As1
 BYTE   W06
 BYTE   Cn2
 BYTE   W06
//  #11 //040   ----------------------------------------
 BYTE   N05  Cs2
 BYTE   W12
 BYTE   N02  Cs2  v072
 BYTE   W12
 BYTE   N03  Cs2  v096
 BYTE   W12
 BYTE   N04  Cs2  v127
 BYTE   W12
 BYTE   Cs2  v092
 BYTE   W12
 BYTE   N03  Cs2  v076
 BYTE   W12
 BYTE   N04  Cs2  v127
 BYTE   W06
 BYTE   N04
 BYTE   W12
 BYTE   N03  Cs2  v100
 BYTE   W06
//  #11 //041   ----------------------------------------
 BYTE   N05  Ds2  v127
 BYTE   W12
 BYTE   N04  Ds2  v096
 BYTE   W12
 BYTE   N03  Ds2  v088
 BYTE   W12
 BYTE   N04  Ds2  v127
 BYTE   W12
 BYTE   Ds2  v108
 BYTE   W12
 BYTE   N02  Ds2  v092
 BYTE   W12
 BYTE   N04  Ds2  v120
 BYTE   W06
 BYTE   As1
 BYTE   W06
 BYTE   Gs1  v116
 BYTE   W06
 BYTE   Ds2  v112
 BYTE   W06
//  #11 //042   ----------------------------------------
 BYTE   Cs2  v100
 BYTE   W12
 BYTE   N03  Cs2  v084
 BYTE   W12
 BYTE   Cs2  v052
 BYTE   W12
 BYTE   N04  Cs2  v108
 BYTE   W12
 BYTE   N03  Cs2  v056
 BYTE   W12
 BYTE   Cs2  v076
 BYTE   W12
 BYTE   N04  Cs2  v108
 BYTE   W06
 BYTE   N04
 BYTE   W12
 BYTE   N03  Cs2  v076
 BYTE   W06
//  #11 //043   ----------------------------------------
 BYTE   N04  Cs2  v108
 BYTE   W12
 BYTE   N03  Cs2  v076
 BYTE   W12
 BYTE   Cs2  v072
 BYTE   W12
 BYTE   N04  Cs2  v108
 BYTE   W12
 BYTE   N03  Cs2  v076
 BYTE   W12
 BYTE   Cs2  v072
 BYTE   W12
 BYTE   N04  Cs2  v108
 BYTE   W06
 BYTE   N04
 BYTE   W06
 BYTE   N03  Cs2  v096
 BYTE   W06
 BYTE   N03
 BYTE   W06
//  #11 //044   ----------------------------------------
 BYTE   N05  Ds2  v108
 BYTE   W12
 BYTE   N02  Ds2  v052
 BYTE   W12
 BYTE   N03  Ds2  v076
 BYTE   W12
 BYTE   N04  Ds2  v108
 BYTE   W12
 BYTE   Ds2  v076
 BYTE   W12
 BYTE   N03  Ds2  v056
 BYTE   W12
 BYTE   N04  Ds2  v108
 BYTE   W06
 BYTE   N04
 BYTE   W12
 BYTE   N03  Ds2  v084
 BYTE   W06
//  #11 //045   ----------------------------------------
 BYTE   N05  Ds2  v108
 BYTE   W12
 BYTE   N04  Ds2  v076
 BYTE   W12
 BYTE   N03  Ds2  v068
 BYTE   W12
 BYTE   N04  Ds2  v108
 BYTE   W12
 BYTE   Ds2  v088
 BYTE   W12
 BYTE   N02  Ds2  v072
 BYTE   W12
 BYTE   N04  Ds2  v108
 BYTE   W12
 BYTE   Ds2  v100
 BYTE   W12
//  #11 //046   ----------------------------------------
 BYTE   N05  Cs2  v108
 BYTE   W12
 BYTE   N02  Cs2  v052
 BYTE   W12
 BYTE   N03  Cs2  v076
 BYTE   W12
 BYTE   N04  Cs2  v108
 BYTE   W12
 BYTE   Cs2  v076
 BYTE   W12
 BYTE   N03  Cs2  v056
 BYTE   W12
 BYTE   N04  Cs2  v108
 BYTE   W12
 BYTE   N04
 BYTE   W12
//  #11 //047   ----------------------------------------
 BYTE   N05
 BYTE   W12
 BYTE   N04  Cs2  v076
 BYTE   W12
 BYTE   N03  Cs2  v068
 BYTE   W12
 BYTE   N04  Cs2  v108
 BYTE   W12
 BYTE   Cs2  v088
 BYTE   W12
 BYTE   N02  Cs2  v072
 BYTE   W12
 BYTE   N04  Cs2  v108
 BYTE   W12
 BYTE   Cs2  v100
 BYTE   W12
//  #11 //048   ----------------------------------------
 BYTE   GoTo
  POIN2 Label_012E9935
//  #11 //049   ----------------------------------------
 BYTE   W02
 BYTE   FINE

//**************** Track 12 (Midi-Chn.11) ****************//

song0D_012:
//  #12 //000   ----------------------------------------
 BYTE   KEYSH   song0D_key+0
 BYTE   VOICE   47
 BYTE   VOL   35*song0D_mvl/mxv
 BYTE   W96
//  #12 //001   ----------------------------------------
 BYTE   W96
//  #12 //002   ----------------------------------------
Label_012E9D8C:
 BYTE   W96
//  #12 //003   ----------------------------------------
 BYTE   W96
//  #12 //004   ----------------------------------------
 BYTE   W96
//  #12 //005   ----------------------------------------
 BYTE   W96
//  #12 //006   ----------------------------------------
 BYTE   W96
//  #12 //007   ----------------------------------------
 BYTE   W96
//  #12 //008   ----------------------------------------
 BYTE   W96
//  #12 //009   ----------------------------------------
 BYTE   W96
//  #12 //010   ----------------------------------------
 BYTE   W96
//  #12 //011   ----------------------------------------
 BYTE   W96
//  #12 //012   ----------------------------------------
 BYTE   W96
//  #12 //013   ----------------------------------------
 BYTE   W96
//  #12 //014   ----------------------------------------
 BYTE   W96
//  #12 //015   ----------------------------------------
 BYTE   W96
//  #12 //016   ----------------------------------------
 BYTE   W96
//  #12 //017   ----------------------------------------
 BYTE   W96
//  #12 //018   ----------------------------------------
 BYTE   W96
//  #12 //019   ----------------------------------------
 BYTE   W96
//  #12 //020   ----------------------------------------
 BYTE   W96
//  #12 //021   ----------------------------------------
 BYTE   W96
//  #12 //022   ----------------------------------------
 BYTE   W96
//  #12 //023   ----------------------------------------
 BYTE   W96
//  #12 //024   ----------------------------------------
 BYTE   W96
//  #12 //025   ----------------------------------------
 BYTE   N92  Bn1  v127
 BYTE   W13
 BYTE   W03
 BYTE   W03
 BYTE   W03
 BYTE   W03
 BYTE   W03
 BYTE   W03
 BYTE   W03
 BYTE   W03
 BYTE   W03
 BYTE   W03
 BYTE   W03
 BYTE   W03
 BYTE   W03
 BYTE   W03
 BYTE   W03
 BYTE   W03
 BYTE   W03
 BYTE   W03
 BYTE   W03
 BYTE   W03
 BYTE   W03
 BYTE   W03
 BYTE   W03
 BYTE   W03
 BYTE   W03
 BYTE   W02
 BYTE   W06
//  #12 //026   ----------------------------------------
 BYTE   N20  En1
 BYTE   W24
 BYTE   N05  Bn1  v096
 BYTE   W06
 BYTE   Bn1  v072
 BYTE   W06
 BYTE   N11  En1  v124
 BYTE   W12
 BYTE   Bn1  v104
 BYTE   W12
 BYTE   En1  v096
 BYTE   W12
 BYTE   N05  En1  v127
 BYTE   W06
 BYTE   N17
 BYTE   W18
//  #12 //027   ----------------------------------------
 BYTE   W12
 BYTE   N11
 BYTE   W12
 BYTE   N11
 BYTE   W12
 BYTE   N17
 BYTE   W18
 BYTE   N05  En1  v108
 BYTE   W06
 BYTE   N11  En1  v127
 BYTE   W12
 BYTE   N23  Bn1
 BYTE   W24
//  #12 //028   ----------------------------------------
 BYTE   N20  Cn2
 BYTE   W24
 BYTE   N05  Gn1  v104
 BYTE   W06
 BYTE   Gn1  v084
 BYTE   W06
 BYTE   N11  Cn2  v127
 BYTE   W12
 BYTE   Gn1  v124
 BYTE   W12
 BYTE   Cn2  v116
 BYTE   W12
 BYTE   N05  Cn2  v104
 BYTE   W06
 BYTE   N20  Cn2  v127
 BYTE   W18
//  #12 //029   ----------------------------------------
 BYTE   W12
 BYTE   N11
 BYTE   W12
 BYTE   Cn2  v104
 BYTE   W12
 BYTE   Cn2  v127
 BYTE   W12
 BYTE   N11
 BYTE   W12
 BYTE   N05  Gn1  v104
 BYTE   W06
 BYTE   Cn2  v092
 BYTE   W06
 BYTE   N21  Gn1  v127
 BYTE   W24
//  #12 //030   ----------------------------------------
 BYTE   N20  En1
 BYTE   W24
 BYTE   N05  Bn1  v104
 BYTE   W06
 BYTE   Bn1  v080
 BYTE   W06
 BYTE   N11  En1  v124
 BYTE   W12
 BYTE   Bn1  v127
 BYTE   W12
 BYTE   En1  v116
 BYTE   W12
 BYTE   N05  En1  v096
 BYTE   W06
 BYTE   N17  En1  v127
 BYTE   W18
//  #12 //031   ----------------------------------------
 BYTE   W12
 BYTE   N56
 BYTE   W60
 BYTE   N05  En1  v096
 BYTE   W06
 BYTE   N11  En1  v127
 BYTE   W12
 BYTE   N05  En1  v108
 BYTE   W06
//  #12 //032   ----------------------------------------
 BYTE   N20  Cn2  v127
 BYTE   W24
 BYTE   N05  Gn1  v116
 BYTE   W06
 BYTE   Gn1  v088
 BYTE   W06
 BYTE   N11  Cn2  v127
 BYTE   W12
 BYTE   Gn1  v124
 BYTE   W12
 BYTE   Cn2  v127
 BYTE   W12
 BYTE   N05  Cn2  v104
 BYTE   W06
 BYTE   Cn2  v080
 BYTE   W06
 BYTE   N32  Cn2  v120
 BYTE   W12
//  #12 //033   ----------------------------------------
 BYTE   W24
 BYTE   N05  Cn2  v116
 BYTE   W06
 BYTE   N11  Cn2  v096
 BYTE   W12
 BYTE   Cn2  v127
 BYTE   W12
 BYTE   N05  Cn2  v112
 BYTE   W06
 BYTE   Cn2  v088
 BYTE   W06
 BYTE   Cn2  v120
 BYTE   W06
 BYTE   N23  Cn2  v127
 BYTE   W24
//  #12 //034   ----------------------------------------
 BYTE   N20  Fn1
 BYTE   W24
 BYTE   N05  Cn2  v104
 BYTE   W06
 BYTE   Cn2  v072
 BYTE   W06
 BYTE   N11  Fn1  v124
 BYTE   W12
 BYTE   Cn2  v127
 BYTE   W12
 BYTE   Fn1
 BYTE   W12
 BYTE   N05  Fn1  v100
 BYTE   W06
 BYTE   N17  Fn1  v127
 BYTE   W18
//  #12 //035   ----------------------------------------
 BYTE   W12
 BYTE   N11
 BYTE   W12
 BYTE   N11
 BYTE   W12
 BYTE   N17
 BYTE   W18
 BYTE   N05  Fn1  v108
 BYTE   W06
 BYTE   N11  Fn1  v127
 BYTE   W12
 BYTE   N23  Cn2
 BYTE   W24
//  #12 //036   ----------------------------------------
 BYTE   N20  Cs2
 BYTE   W24
 BYTE   N05  Gs1  v104
 BYTE   W06
 BYTE   Gs1  v084
 BYTE   W06
 BYTE   N11  Cs2  v127
 BYTE   W12
 BYTE   Gs1  v124
 BYTE   W12
 BYTE   Cs2  v116
 BYTE   W12
 BYTE   N05  Cs2  v104
 BYTE   W06
 BYTE   N20  Cs2  v127
 BYTE   W18
//  #12 //037   ----------------------------------------
 BYTE   W12
 BYTE   N11
 BYTE   W12
 BYTE   Cs2  v104
 BYTE   W12
 BYTE   Cs2  v127
 BYTE   W12
 BYTE   N11
 BYTE   W12
 BYTE   N05  Gs1  v104
 BYTE   W06
 BYTE   Cs2  v092
 BYTE   W06
 BYTE   N21  Gs1  v127
 BYTE   W24
//  #12 //038   ----------------------------------------
 BYTE   N20  Fn1
 BYTE   W24
 BYTE   N05  Cn2  v104
 BYTE   W06
 BYTE   Cn2  v080
 BYTE   W06
 BYTE   N11  Fn1  v124
 BYTE   W12
 BYTE   Cn2  v127
 BYTE   W12
 BYTE   Fn1  v116
 BYTE   W12
 BYTE   N05  Fn1  v096
 BYTE   W06
 BYTE   N17  Fn1  v127
 BYTE   W18
//  #12 //039   ----------------------------------------
 BYTE   W12
 BYTE   N56
 BYTE   W60
 BYTE   N05  Fn1  v096
 BYTE   W06
 BYTE   N11  Fn1  v127
 BYTE   W12
 BYTE   N05  Fn1  v108
 BYTE   W06
//  #12 //040   ----------------------------------------
 BYTE   N20  Cs2  v127
 BYTE   W24
 BYTE   N05  Gs1  v116
 BYTE   W06
 BYTE   Gs1  v088
 BYTE   W06
 BYTE   N11  Cs2  v127
 BYTE   W12
 BYTE   Gs1  v124
 BYTE   W12
 BYTE   Cs2  v127
 BYTE   W12
 BYTE   N05  Cs2  v104
 BYTE   W06
 BYTE   Cs2  v080
 BYTE   W06
 BYTE   N32  Cs2  v120
 BYTE   W12
//  #12 //041   ----------------------------------------
 BYTE   W24
 BYTE   N05  Cs2  v116
 BYTE   W06
 BYTE   N11  Cs2  v096
 BYTE   W12
 BYTE   Cs2  v127
 BYTE   W12
 BYTE   N05  Cs2  v112
 BYTE   W06
 BYTE   Cs2  v088
 BYTE   W06
 BYTE   Cs2  v120
 BYTE   W06
 BYTE   N23  Cs2  v108
 BYTE   W24
//  #12 //042   ----------------------------------------
 BYTE   N32  Cs2  v127
 BYTE   W84
 BYTE   N05  Gs1  v104
 BYTE   W06
 BYTE   Gs1  v076
 BYTE   W06
//  #12 //043   ----------------------------------------
 BYTE   N24  Cs2  v104
 BYTE   W36
 BYTE   N16  Cs2  v112
 BYTE   W24
 BYTE   N32  Gs1  v088
 BYTE   W36
//  #12 //044   ----------------------------------------
 BYTE   N80  Ds2  v100
 BYTE   W84
 BYTE   N03  As1  v092
 BYTE   W06
 BYTE   N05
 BYTE   W06
//  #12 //045   ----------------------------------------
 BYTE   N32  Ds2  v104
 BYTE   W36
 BYTE   N24  Ds2  v092
 BYTE   W36
 BYTE   N23  Ds2  v080
 BYTE   W24
//  #12 //046   ----------------------------------------
 BYTE   W96
//  #12 //047   ----------------------------------------
 BYTE   W96
//  #12 //048   ----------------------------------------
 BYTE   GoTo
  POIN2 Label_012E9D8C
//  #12 //049   ----------------------------------------
 BYTE   W02
 BYTE   FINE

//**************** Track 13 (Midi-Chn.12) ****************//

song0D_013:
//  #13 //000   ----------------------------------------
 BYTE   KEYSH   song0D_key+0
 BYTE   VOICE   124
 BYTE   PAN   c_v+0
 BYTE   VOL   36*song0D_mvl/mxv
 BYTE   N11  Dn1  v096
 BYTE   W12
 BYTE   En1  v064
 BYTE   W12
 BYTE   En1  v076
 BYTE   W12
 BYTE   Dn1  v096
 BYTE   W12
 BYTE   En1  v060
 BYTE   W12
 BYTE   En1  v076
 BYTE   W12
 BYTE   N05  Dn1  v088
 BYTE   W06
 BYTE   En1  v076
 BYTE   W06
 BYTE   Dn1  v072
 BYTE   W06
 BYTE   En1  v076
 BYTE   W06
//  #13 //001   ----------------------------------------
 BYTE   N11  Dn1  v088
 BYTE   W12
 BYTE   En1  v064
 BYTE   W12
 BYTE   En1  v076
 BYTE   W12
 BYTE   Dn1  v088
 BYTE   W12
 BYTE   N05  En1  v072
 BYTE   W06
 BYTE   Dn1  v080
 BYTE   W06
 BYTE   En1  v072
 BYTE   W06
 BYTE   Dn1  v080
 BYTE   W06
 BYTE   En1
 BYTE   W06
 BYTE   Dn1
 BYTE   W06
 BYTE   N11  En1
 BYTE   W12
//  #13 //002   ----------------------------------------
Label_012E9FC9:
 BYTE   N11  Dn1  v096
 BYTE   N56  Cs2  v056
 BYTE   W12
 BYTE   N11  En1
 BYTE   W12
 BYTE   En1  v080
 BYTE   W12
 BYTE   Dn1  v092
 BYTE   W12
 BYTE   En1  v080
 BYTE   W12
 BYTE   En1  v076
 BYTE   W12
 BYTE   N05  Dn1  v092
 BYTE   W06
 BYTE   En1  v076
 BYTE   W06
 BYTE   Dn1  v088
 BYTE   W06
 BYTE   En1  v076
 BYTE   W06
//  #13 //003   ----------------------------------------
Label_012E9FEC:
 BYTE   N11  Dn1  v100
 BYTE   W12
 BYTE   En1  v048
 BYTE   W12
 BYTE   En1  v080
 BYTE   W12
 BYTE   Dn1  v092
 BYTE   W12
 BYTE   En1  v072
 BYTE   W12
 BYTE   Dn1  v088
 BYTE   W12
 BYTE   En1  v064
 BYTE   W12
 BYTE   Dn1  v088
 BYTE   W12
 BYTE   PEND 
//  #13 //004   ----------------------------------------
Label_012EA006:
 BYTE   N11  Dn1  v096
 BYTE   W12
 BYTE   En1  v064
 BYTE   W12
 BYTE   En1  v076
 BYTE   W12
 BYTE   Dn1  v096
 BYTE   W12
 BYTE   En1  v060
 BYTE   W12
 BYTE   En1  v076
 BYTE   W12
 BYTE   N05  Dn1  v088
 BYTE   W06
 BYTE   En1  v076
 BYTE   W06
 BYTE   Dn1  v072
 BYTE   W06
 BYTE   En1  v076
 BYTE   W06
 BYTE   PEND 
//  #13 //005   ----------------------------------------
Label_012EA027:
 BYTE   N11  Dn1  v088
 BYTE   W12
 BYTE   En1  v064
 BYTE   W12
 BYTE   En1  v076
 BYTE   W12
 BYTE   Dn1  v088
 BYTE   W12
 BYTE   N05  En1  v072
 BYTE   W06
 BYTE   Dn1  v080
 BYTE   W06
 BYTE   En1  v072
 BYTE   W06
 BYTE   Dn1  v080
 BYTE   W06
 BYTE   N11  En1
 BYTE   W12
 BYTE   Dn1  v092
 BYTE   W12
 BYTE   PEND 
//  #13 //006   ----------------------------------------
Label_012EA048:
 BYTE   N11  En1  v084
 BYTE   W12
 BYTE   Dn1  v080
 BYTE   W12
 BYTE   En1  v072
 BYTE   W12
 BYTE   En1  v088
 BYTE   W12
 BYTE   Dn1  v092
 BYTE   W12
 BYTE   En1  v084
 BYTE   W12
 BYTE   N05  Dn1  v072
 BYTE   W06
 BYTE   En1  v052
 BYTE   W06
 BYTE   Dn1  v064
 BYTE   W06
 BYTE   En1  v080
 BYTE   W06
 BYTE   PEND 
//  #13 //007   ----------------------------------------
Label_012EA069:
 BYTE   N11  Dn1  v100
 BYTE   W12
 BYTE   En1  v052
 BYTE   W12
 BYTE   En1  v076
 BYTE   W12
 BYTE   Dn1  v096
 BYTE   W12
 BYTE   En1  v072
 BYTE   W12
 BYTE   En1  v084
 BYTE   W12
 BYTE   N05  Dn1
 BYTE   W06
 BYTE   N11  En1  v076
 BYTE   W12
 BYTE   N05  En1  v084
 BYTE   W06
 BYTE   PEND 
//  #13 //008   ----------------------------------------
Label_012EA088:
 BYTE   N11  Dn1  v100
 BYTE   W12
 BYTE   En1  v056
 BYTE   W12
 BYTE   En1  v076
 BYTE   W12
 BYTE   Dn1  v080
 BYTE   W12
 BYTE   En1  v056
 BYTE   W12
 BYTE   En1  v080
 BYTE   W12
 BYTE   Dn1  v084
 BYTE   W12
 BYTE   En1  v064
 BYTE   W12
 BYTE   PEND 
//  #13 //009   ----------------------------------------
Label_012EA0A2:
 BYTE   N11  Dn1  v084
 BYTE   W12
 BYTE   En1  v068
 BYTE   W12
 BYTE   En1  v076
 BYTE   W12
 BYTE   Dn1  v084
 BYTE   W12
 BYTE   En1  v080
 BYTE   W12
 BYTE   En1  v072
 BYTE   W12
 BYTE   Dn1  v088
 BYTE   W12
 BYTE   En1  v060
 BYTE   W12
 BYTE   PEND 
//  #13 //010   ----------------------------------------
 BYTE   Dn1  v096
 BYTE   N56  Cs2  v064
 BYTE   W12
 BYTE   N11  En1  v056
 BYTE   W12
 BYTE   En1  v080
 BYTE   W12
 BYTE   Dn1  v092
 BYTE   W12
 BYTE   En1  v080
 BYTE   W12
 BYTE   En1  v076
 BYTE   W12
 BYTE   N05  Dn1  v092
 BYTE   W06
 BYTE   En1  v076
 BYTE   W06
 BYTE   Dn1  v088
 BYTE   W06
 BYTE   En1  v076
 BYTE   W06
//  #13 //011   ----------------------------------------
 BYTE   PATT
  POIN2 Label_012E9FEC
//  #13 //012   ----------------------------------------
 BYTE   PATT
  POIN2 Label_012EA006
//  #13 //013   ----------------------------------------
 BYTE   PATT
  POIN2 Label_012EA027
//  #13 //014   ----------------------------------------
 BYTE   PATT
  POIN2 Label_012EA048
//  #13 //015   ----------------------------------------
 BYTE   PATT
  POIN2 Label_012EA069
//  #13 //016   ----------------------------------------
 BYTE   PATT
  POIN2 Label_012EA088
//  #13 //017   ----------------------------------------
 BYTE   PATT
  POIN2 Label_012EA0A2
//  #13 //018   ----------------------------------------
 BYTE   N11  Dn1  v076
 BYTE   W12
 BYTE   En1  v056
 BYTE   W12
 BYTE   N11
 BYTE   W12
 BYTE   Dn1  v076
 BYTE   W12
 BYTE   En1  v052
 BYTE   W12
 BYTE   En1  v064
 BYTE   W12
 BYTE   Dn1  v076
 BYTE   W12
 BYTE   En1  v056
 BYTE   W12
//  #13 //019   ----------------------------------------
 BYTE   Dn1  v076
 BYTE   W12
 BYTE   En1  v064
 BYTE   W12
 BYTE   N11
 BYTE   W12
 BYTE   Dn1  v080
 BYTE   W12
 BYTE   En1  v060
 BYTE   W12
 BYTE   En1  v064
 BYTE   W12
 BYTE   Dn1  v084
 BYTE   W12
 BYTE   En1  v056
 BYTE   W12
//  #13 //020   ----------------------------------------
 BYTE   Dn1  v076
 BYTE   W12
 BYTE   En1  v044
 BYTE   W12
 BYTE   En1  v064
 BYTE   W12
 BYTE   Dn1  v080
 BYTE   W12
 BYTE   Dn1  v044
 BYTE   W12
 BYTE   En1  v012
 BYTE   W12
 BYTE   En1  v064
 BYTE   W12
 BYTE   Dn1  v052
 BYTE   W12
//  #13 //021   ----------------------------------------
 BYTE   En1  v076
 BYTE   W12
 BYTE   N05  Dn1
 BYTE   W06
 BYTE   En1  v052
 BYTE   W06
 BYTE   N11  Dn1  v076
 BYTE   W12
 BYTE   En1  v064
 BYTE   W12
 BYTE   Dn1  v040
 BYTE   W12
 BYTE   En1
 BYTE   W12
 BYTE   En1  v064
 BYTE   W12
 BYTE   N11
 BYTE   W12
//  #13 //022   ----------------------------------------
 BYTE   Dn1  v088
 BYTE   W12
 BYTE   En1  v028
 BYTE   W12
 BYTE   En1  v060
 BYTE   W12
 BYTE   Dn1  v088
 BYTE   W12
 BYTE   En1  v052
 BYTE   W12
 BYTE   En1  v060
 BYTE   W12
 BYTE   Dn1  v088
 BYTE   W12
 BYTE   En1  v056
 BYTE   W12
//  #13 //023   ----------------------------------------
 BYTE   Dn1  v096
 BYTE   W12
 BYTE   En1  v016
 BYTE   W12
 BYTE   En1  v068
 BYTE   W12
 BYTE   Dn1  v080
 BYTE   W12
 BYTE   En1  v056
 BYTE   W12
 BYTE   Dn1  v052
 BYTE   W12
 BYTE   En1  v064
 BYTE   W12
 BYTE   Dn1
 BYTE   W12
//  #13 //024   ----------------------------------------
 BYTE   Dn1  v072
 BYTE   W12
 BYTE   En1  v056
 BYTE   W12
 BYTE   Dn1  v088
 BYTE   W12
 BYTE   N12  En1  v068
 BYTE   W24
 BYTE   N11  En1  v084
 BYTE   W12
 BYTE   En1  v068
 BYTE   W12
 BYTE   En1  v084
 BYTE   W12
//  #13 //025   ----------------------------------------
 BYTE   Dn1  v104
 BYTE   W12
 BYTE   En1  v052
 BYTE   W12
 BYTE   En1  v088
 BYTE   W12
 BYTE   Dn1  v124
 BYTE   W12
 BYTE   N28  En1  v100
 BYTE   W30
 BYTE   N05  Dn1  v084
 BYTE   W06
 BYTE   En1
 BYTE   W06
 BYTE   Dn1  v088
 BYTE   W06
//  #13 //026   ----------------------------------------
 BYTE   N11  Dn1  v108
 BYTE   N56  Cs2  v064
 BYTE   W12
 BYTE   N11  En1  v076
 BYTE   W12
 BYTE   N05  Dn1  v100
 BYTE   W06
 BYTE   En1  v092
 BYTE   W06
 BYTE   N23  En1  v112
 BYTE   W24
 BYTE   N11  En1  v104
 BYTE   W12
 BYTE   N05  Dn1  v120
 BYTE   W06
 BYTE   N11  En1  v108
 BYTE   W06
 BYTE   N05  Fs2  v028
 BYTE   W06
 BYTE   En1  v092
 BYTE   N05  Fs2  v040
 BYTE   W06
//  #13 //027   ----------------------------------------
Label_012EA1EE:
 BYTE   N11  Dn1  v108
 BYTE   N23  Fs2  v044
 BYTE   W12
 BYTE   N11  En1  v100
 BYTE   W12
 BYTE   En1  v096
 BYTE   N11  Fs2  v044
 BYTE   W12
 BYTE   N23  En1  v100
 BYTE   N23  Fs2  v044
 BYTE   W24
 BYTE   N11  Dn1  v104
 BYTE   N11  Fs2  v044
 BYTE   W12
 BYTE   N05  En1  v084
 BYTE   N05  Fs2  v044
 BYTE   W06
 BYTE   Dn1  v100
 BYTE   N05  Fs2  v056
 BYTE   W06
 BYTE   Dn1  v100
 BYTE   W06
 BYTE   En1
 BYTE   N05  Fs2  v028
 BYTE   W06
 BYTE   PEND 
//  #13 //028   ----------------------------------------
Label_012EA223:
 BYTE   N11  Dn1  v108
 BYTE   W06
 BYTE   N05  Fs2  v016
 BYTE   W06
 BYTE   N11  En1  v076
 BYTE   W12
 BYTE   N05  Dn1  v100
 BYTE   W06
 BYTE   En1  v092
 BYTE   W06
 BYTE   N11  En1  v116
 BYTE   W12
 BYTE   N05  Dn1  v100
 BYTE   W06
 BYTE   En1  v088
 BYTE   W06
 BYTE   N11  En1  v104
 BYTE   W12
 BYTE   N05  Dn1  v120
 BYTE   W06
 BYTE   N11  En1  v108
 BYTE   W12
 BYTE   N05  En1  v092
 BYTE   W06
 BYTE   PEND 
//  #13 //029   ----------------------------------------
Label_012EA252:
 BYTE   N11  Dn1  v104
 BYTE   W12
 BYTE   En1  v080
 BYTE   W12
 BYTE   En1  v092
 BYTE   W12
 BYTE   En1  v104
 BYTE   W12
 BYTE   N05  En1  v088
 BYTE   W06
 BYTE   Dn1  v096
 BYTE   W06
 BYTE   En1  v092
 BYTE   W06
 BYTE   Dn1  v096
 BYTE   W06
 BYTE   En1
 BYTE   W06
 BYTE   Dn1  v104
 BYTE   W06
 BYTE   En1  v100
 BYTE   W06
 BYTE   Dn1  v108
 BYTE   W06
 BYTE   PEND 
//  #13 //030   ----------------------------------------
Label_012EA278:
 BYTE   N11  Dn1  v108
 BYTE   N56  Cs2  v064
 BYTE   W12
 BYTE   N11  En1  v076
 BYTE   W12
 BYTE   N05  Dn1  v100
 BYTE   W06
 BYTE   En1  v092
 BYTE   W06
 BYTE   N23  En1  v112
 BYTE   W24
 BYTE   N11  En1  v104
 BYTE   W12
 BYTE   N05  Dn1  v120
 BYTE   W06
 BYTE   N11  En1  v108
 BYTE   W06
 BYTE   N05  Fs2  v028
 BYTE   W06
 BYTE   En1  v092
 BYTE   N05  Fs2  v040
 BYTE   W06
 BYTE   PEND 
//  #13 //031   ----------------------------------------
 BYTE   PATT
  POIN2 Label_012EA1EE
//  #13 //032   ----------------------------------------
 BYTE   PATT
  POIN2 Label_012EA223
//  #13 //033   ----------------------------------------
Label_012EA2AF:
 BYTE   N11  Dn1  v104
 BYTE   W12
 BYTE   En1  v080
 BYTE   W12
 BYTE   N05  En1  v092
 BYTE   W06
 BYTE   N11  Dn1
 BYTE   W12
 BYTE   En1  v104
 BYTE   W12
 BYTE   N05  Dn1  v096
 BYTE   W06
 BYTE   En1  v092
 BYTE   W06
 BYTE   Dn1  v096
 BYTE   W06
 BYTE   N23  En1  v116
 BYTE   W24
 BYTE   PEND 
//  #13 //034   ----------------------------------------
 BYTE   N11  Dn1  v108
 BYTE   N32  Cs2  v064
 BYTE   W12
 BYTE   N11  En1  v076
 BYTE   W12
 BYTE   N05  Dn1  v100
 BYTE   W06
 BYTE   En1  v092
 BYTE   W06
 BYTE   N23  En1  v112
 BYTE   W24
 BYTE   N11  En1  v104
 BYTE   W12
 BYTE   N05  Dn1  v120
 BYTE   W06
 BYTE   N11  En1  v108
 BYTE   W06
 BYTE   N05  Fs2  v028
 BYTE   W06
 BYTE   En1  v092
 BYTE   N05  Fs2  v040
 BYTE   W06
//  #13 //035   ----------------------------------------
 BYTE   N11  Dn1  v108
 BYTE   N23  Fs2  v044
 BYTE   W12
 BYTE   N11  En1  v100
 BYTE   W12
 BYTE   En1  v096
 BYTE   N11  Fs2  v044
 BYTE   W12
 BYTE   En1  v100
 BYTE   N23  Fs2  v044
 BYTE   W12
 BYTE   N05  Dn1  v100
 BYTE   W06
 BYTE   En1
 BYTE   W06
 BYTE   N05
 BYTE   N11  Fs2  v044
 BYTE   W06
 BYTE   N05  Dn1  v104
 BYTE   W06
 BYTE   En1  v084
 BYTE   N05  Fs2  v044
 BYTE   W06
 BYTE   Dn1  v100
 BYTE   N05  Fs2  v056
 BYTE   W06
 BYTE   Dn1  v100
 BYTE   W06
 BYTE   En1
 BYTE   N05  Fs2  v028
 BYTE   W06
//  #13 //036   ----------------------------------------
 BYTE   PATT
  POIN2 Label_012EA223
//  #13 //037   ----------------------------------------
 BYTE   PATT
  POIN2 Label_012EA252
//  #13 //038   ----------------------------------------
 BYTE   PATT
  POIN2 Label_012EA278
//  #13 //039   ----------------------------------------
 BYTE   PATT
  POIN2 Label_012EA1EE
//  #13 //040   ----------------------------------------
 BYTE   PATT
  POIN2 Label_012EA223
//  #13 //041   ----------------------------------------
 BYTE   PATT
  POIN2 Label_012EA2AF
//  #13 //042   ----------------------------------------
 BYTE   N11  Dn1  v096
 BYTE   N56  Cs2  v064
 BYTE   W12
 BYTE   N11  En1
 BYTE   W12
 BYTE   En1  v080
 BYTE   W12
 BYTE   Dn1  v092
 BYTE   W12
 BYTE   En1  v080
 BYTE   W12
 BYTE   N11
 BYTE   W12
 BYTE   N05  Dn1  v092
 BYTE   W06
 BYTE   En1  v080
 BYTE   W06
 BYTE   Dn1  v088
 BYTE   W06
 BYTE   En1  v080
 BYTE   W06
//  #13 //043   ----------------------------------------
 BYTE   N11  Dn1  v096
 BYTE   W12
 BYTE   En1  v056
 BYTE   W12
 BYTE   En1  v080
 BYTE   W12
 BYTE   Dn1  v092
 BYTE   W12
 BYTE   En1  v076
 BYTE   W12
 BYTE   Dn1  v088
 BYTE   W12
 BYTE   N05  En1  v072
 BYTE   W12
 BYTE   Dn1  v088
 BYTE   W12
//  #13 //044   ----------------------------------------
 BYTE   Dn1  v096
 BYTE   W12
 BYTE   N11  En1  v068
 BYTE   W12
 BYTE   En1  v080
 BYTE   W12
 BYTE   Dn1  v096
 BYTE   W12
 BYTE   En1  v068
 BYTE   W12
 BYTE   En1  v080
 BYTE   W12
 BYTE   N05  Dn1  v088
 BYTE   W06
 BYTE   En1  v080
 BYTE   W06
 BYTE   Dn1  v076
 BYTE   W06
 BYTE   En1  v080
 BYTE   W06
//  #13 //045   ----------------------------------------
 BYTE   N11  Dn1  v088
 BYTE   W12
 BYTE   En1  v068
 BYTE   W12
 BYTE   En1  v080
 BYTE   W12
 BYTE   N05  Dn1  v088
 BYTE   W06
 BYTE   En1
 BYTE   W06
 BYTE   N11  Dn1
 BYTE   W12
 BYTE   N05  En1  v076
 BYTE   W06
 BYTE   Dn1  v084
 BYTE   W06
 BYTE   N23  En1  v080
 BYTE   W24
//  #13 //046   ----------------------------------------
 BYTE   N11  Dn1  v096
 BYTE   N56  Cs2  v064
 BYTE   W12
 BYTE   N11  En1
 BYTE   W12
 BYTE   En1  v076
 BYTE   W12
 BYTE   Dn1  v096
 BYTE   W12
 BYTE   En1  v060
 BYTE   W12
 BYTE   En1  v076
 BYTE   W12
 BYTE   N05  Dn1  v088
 BYTE   W06
 BYTE   En1  v076
 BYTE   W06
 BYTE   Dn1  v072
 BYTE   W06
 BYTE   En1  v076
 BYTE   W06
//  #13 //047   ----------------------------------------
 BYTE   N11  Dn1  v088
 BYTE   W12
 BYTE   En1  v064
 BYTE   W12
 BYTE   En1  v076
 BYTE   W12
 BYTE   Dn1  v088
 BYTE   W12
 BYTE   N05  En1  v072
 BYTE   W06
 BYTE   Dn1  v080
 BYTE   W06
 BYTE   En1  v072
 BYTE   W06
 BYTE   Dn1  v080
 BYTE   W06
 BYTE   N23  En1
 BYTE   W24
//  #13 //048   ----------------------------------------
 BYTE   GoTo
  POIN2 Label_012E9FC9
//  #13 //049   ----------------------------------------
 BYTE   W02
 BYTE   FINE

//******************************************************//
	ALIGN 4

song0D:
	BYTE	13	// NumTrks
	BYTE	0	// NumBlks
	BYTE	song0D_pri	// Priority
	BYTE	song0D_rev	// Reverb.
    
	POIN2	song0D_grp
    
	POIN2	song0D_001
	POIN2	song0D_002
	POIN2	song0D_003
	POIN2	song0D_004
	POIN2	song0D_005
	POIN2	song0D_006
	POIN2	song0D_007
	POIN2	song0D_008
	POIN2	song0D_009
	POIN2	song0D_010
	POIN2	song0D_011
	POIN2	song0D_012
	POIN2	song0D_013

	
