//Event file generated from Sappy .s format.
	#include "MPlayDef.event"

	#define	Engage_grp  voicegroup000
	#define	Engage_pri  0
	#define	Engage_rev  0
	#define	Engage_mvl  127
	#define	Engage_key  0
	#define	Engage_tbs  1
	#define	Engage_exg  0
	#define	Engage_cmp  1

	// .rodata
	//	Engage
	ALIGN 4


//**************** Track 1 (Midi-Chn.0) ****************//

Engage_001:
//  #01 //000   ----------------------------------------
 BYTE   KEYSH   Engage_key+0
 BYTE   TEMPO   182*Engage_tbs/2
 BYTE   VOICE   40
 BYTE   VOL   66*Engage_mvl/mxv
 BYTE   PAN   c_v-1
 BYTE   W96
//  #01 //001   ----------------------------------------
Label_0104A3A3:
 BYTE   N24  En3  v127
 BYTE   W24
 BYTE   N12  Dn3
 BYTE   W12
 BYTE   N12
 BYTE   W12
 BYTE   En3
 BYTE   W12
 BYTE   N24  Fs3
 BYTE   W24
 BYTE   En3
 BYTE   W12
//  #01 //002   ----------------------------------------
Label_0104A3B3:
 BYTE   W12
 BYTE   N24  Dn3  v127
 BYTE   W24
 BYTE   TIE  Bn2
 BYTE   W60
 BYTE   PEND 
//  #01 //003   ----------------------------------------
 BYTE   W96
//  #01 //004   ----------------------------------------
 BYTE   EOT
 BYTE   W96
//  #01 //005   ----------------------------------------
 BYTE   N24  En3
 BYTE   W24
 BYTE   Dn3
 BYTE   W24
 BYTE   N12  En3
 BYTE   W12
 BYTE   N24  Fs3
 BYTE   W24
 BYTE   En3
 BYTE   W12
//  #01 //006   ----------------------------------------
 BYTE   PATT
  POIN2 Label_0104A3B3
//  #01 //007   ----------------------------------------
 BYTE   W96
//  #01 //008   ----------------------------------------
 BYTE   EOT
 BYTE   Bn2
 BYTE   W96
//  #01 //009   ----------------------------------------
 BYTE   W96
//  #01 //010   ----------------------------------------
 BYTE   W96
//  #01 //011   ----------------------------------------
 BYTE   W72
 BYTE   N12  En3  v127
 BYTE   W12
 BYTE   Fs3
 BYTE   W12
//  #01 //012   ----------------------------------------
 BYTE   N24  Gs3
 BYTE   W24
 BYTE   Fs3
 BYTE   W24
 BYTE   Gs3
 BYTE   W24
 BYTE   N12  An3
 BYTE   W12
 BYTE   N24  Gs3
 BYTE   W12
//  #01 //013   ----------------------------------------
 BYTE   W12
 BYTE   Fs3  v124
 BYTE   W24
 BYTE   N36  Cs3  v112
 BYTE   W48
 BYTE   N12  Fs3  v127
 BYTE   W12
//  #01 //014   ----------------------------------------
 BYTE   N24  Gs3
 BYTE   W24
 BYTE   Fs3
 BYTE   W24
 BYTE   N12  Gs3
 BYTE   W12
 BYTE   N24  An3
 BYTE   W24
 BYTE   Gs3
 BYTE   W12
//  #01 //015   ----------------------------------------
 BYTE   W12
 BYTE   Fs3  v124
 BYTE   W24
 BYTE   N60  Cs3  v112
 BYTE   W60
//  #01 //016   ----------------------------------------
 BYTE   N36  Cs3  v096
 BYTE   N36  Fs3
 BYTE   W36
 BYTE   N12  Bn2
 BYTE   N12  En3
 BYTE   W12
 BYTE   N36  Cs3
 BYTE   N36  Fs3
 BYTE   W36
 BYTE   N12  Bn2
 BYTE   N12  En3
 BYTE   W12
//  #01 //017   ----------------------------------------
 BYTE   Cs3
 BYTE   N12  Fs3
 BYTE   W12
 BYTE   N24  En3
 BYTE   N24  Gs3
 BYTE   W24
 BYTE   N84  Bn2
 BYTE   N84  En3
 BYTE   W60
//  #01 //018   ----------------------------------------
 BYTE   W96
//  #01 //019   ----------------------------------------
 BYTE   W72
 BYTE   N12
 BYTE   W12
 BYTE   Fs3
 BYTE   W12
//  #01 //020   ----------------------------------------
 BYTE   N24  En3
 BYTE   N24  Gs3
 BYTE   W24
 BYTE   Cs3
 BYTE   N24  Fs3
 BYTE   W24
 BYTE   En3
 BYTE   N24  Gs3
 BYTE   W24
 BYTE   N12  Fs3
 BYTE   N12  An3
 BYTE   W12
 BYTE   N24  En3
 BYTE   N24  Gs3
 BYTE   W12
//  #01 //021   ----------------------------------------
 BYTE   W12
 BYTE   Cs3
 BYTE   N24  Fs3
 BYTE   W24
 BYTE   N36  An2
 BYTE   N36  Cs3
 BYTE   W48
 BYTE   N12
 BYTE   N12  Fs3
 BYTE   W12
//  #01 //022   ----------------------------------------
 BYTE   N24  En3
 BYTE   N24  Gs3
 BYTE   W24
 BYTE   Bn2
 BYTE   N24  Fs3
 BYTE   W24
 BYTE   N12  En3
 BYTE   N12  Gs3
 BYTE   W12
 BYTE   N24  Fs3
 BYTE   N24  An3
 BYTE   W24
 BYTE   En3
 BYTE   N24  Gs3
 BYTE   W12
//  #01 //023   ----------------------------------------
 BYTE   W12
 BYTE   Dn3
 BYTE   N24  Fs3
 BYTE   W24
 BYTE   N36  Cs3
 BYTE   N36  En3
 BYTE   W36
 BYTE   N24
 BYTE   N24  Bn3
 BYTE   W24
//  #01 //024   ----------------------------------------
 BYTE   N48  Fs3
 BYTE   N48  An3
 BYTE   W48
 BYTE   N24  En3
 BYTE   N24  Gs3
 BYTE   W24
 BYTE   N12  Fs3
 BYTE   N12  An3
 BYTE   W12
 BYTE   N24  Gs3
 BYTE   N24  Bn3
 BYTE   W12
//  #01 //025   ----------------------------------------
 BYTE   W12
 BYTE   Fs3
 BYTE   N24  An3
 BYTE   W24
 BYTE   N36  En3
 BYTE   N36  Gs3
 BYTE   W36
 BYTE   N24  Cs3
 BYTE   N24  En3
 BYTE   W24
//  #01 //026   ----------------------------------------
 BYTE   N36  Cs3
 BYTE   N36  En3
 BYTE   W36
 BYTE   N12  Ds3
 BYTE   N12  Fs3
 BYTE   W12
 BYTE   TIE  Ds3
 BYTE   TIE  Fs3
 BYTE   W48
//  #01 //027   ----------------------------------------
 BYTE   W72
 BYTE   EOT
 BYTE   Ds3  v066
 BYTE   W24
//  #01 //028   ----------------------------------------
 BYTE   N24  An2
 BYTE   N24  Cs3
 BYTE   W24
 BYTE   N12  An2
 BYTE   N12  Cs3
 BYTE   W12
 BYTE   Gs2
 BYTE   N12  Bn2
 BYTE   W12
 BYTE   An2
 BYTE   N12  Cs3
 BYTE   W12
 BYTE   N12
 BYTE   N12  Fs3
 BYTE   W12
 BYTE   N24  An2
 BYTE   N24  Cs3
 BYTE   W24
//  #01 //029   ----------------------------------------
 BYTE   N12  An2
 BYTE   N12  Cs3
 BYTE   W12
 BYTE   Gs2
 BYTE   N12  Bn2
 BYTE   W12
 BYTE   An2
 BYTE   N12  Cs3
 BYTE   W12
 BYTE   N12
 BYTE   N12  Fs3
 BYTE   W12
 BYTE   N24  An2
 BYTE   N24  Cs3
 BYTE   W24
 BYTE   N12  An2
 BYTE   N12  Cs3
 BYTE   W12
 BYTE   Gs2
 BYTE   N12  Bn2
 BYTE   W12
//  #01 //030   ----------------------------------------
 BYTE   Gs2
 BYTE   N12  Cs3
 BYTE   W12
 BYTE   N12
 BYTE   N12  Fs3
 BYTE   W12
 BYTE   N24  Gs2
 BYTE   N24  Cs3
 BYTE   W24
 BYTE   N12  Gs2
 BYTE   N12  Cs3
 BYTE   W12
 BYTE   N12
 BYTE   N12  Fs3
 BYTE   W12
 BYTE   En3
 BYTE   N12  Gs3
 BYTE   W12
 BYTE   Fs3
 BYTE   N12  An3
 BYTE   W12
//  #01 //031   ----------------------------------------
 BYTE   En3
 BYTE   N12  Gs3
 BYTE   W12
 BYTE   Cs3
 BYTE   N12  En3
 BYTE   W12
 BYTE   N24  Gs2
 BYTE   N24  Bn2
 BYTE   W36
 BYTE   N12  An2
 BYTE   N12  Cs3
 BYTE   W12
 BYTE   Gs2
 BYTE   N12  Bn2
 BYTE   W12
 BYTE   En2
 BYTE   N12  An2
 BYTE   W12
//  #01 //032   ----------------------------------------
 BYTE   Fs2
 BYTE   N12  Gs2
 BYTE   W12
 BYTE   N24  Fs2
 BYTE   N24  An2
 BYTE   W24
 BYTE   TIE
 BYTE   TIE  En3
 BYTE   W60
//  #01 //033   ----------------------------------------
 BYTE   W72
 BYTE   EOT
 BYTE   An2  v064
 BYTE   W24
//  #01 //034   ----------------------------------------
 BYTE   W96
//  #01 //035   ----------------------------------------
 BYTE   W96
//  #01 //036   ----------------------------------------
 BYTE   N24  An2
 BYTE   N24  Dn3
 BYTE   W24
 BYTE   N12  An2
 BYTE   N12  Dn3
 BYTE   W12
 BYTE   Gn2
 BYTE   N12  Cn3
 BYTE   W12
 BYTE   An2
 BYTE   N12  Dn3
 BYTE   W12
 BYTE   N12
 BYTE   N12  Gn3
 BYTE   W12
 BYTE   N24  An2
 BYTE   N24  Dn3
 BYTE   W24
//  #01 //037   ----------------------------------------
 BYTE   N12  An2
 BYTE   N12  Dn3
 BYTE   W12
 BYTE   Gn2
 BYTE   N12  Cn3
 BYTE   W12
 BYTE   An2
 BYTE   N12  Dn3
 BYTE   W12
 BYTE   N12
 BYTE   N12  Gn3
 BYTE   W12
 BYTE   N24  An2
 BYTE   N24  Dn3
 BYTE   W24
 BYTE   N12  An2
 BYTE   N12  Dn3
 BYTE   W12
 BYTE   Gn2
 BYTE   N12  Cn3
 BYTE   W12
//  #01 //038   ----------------------------------------
 BYTE   As2
 BYTE   N12  Dn3
 BYTE   W12
 BYTE   N12
 BYTE   N12  Gn3
 BYTE   W12
 BYTE   N24  As2
 BYTE   N24  Dn3
 BYTE   W24
 BYTE   N12  As2
 BYTE   N12  Dn3
 BYTE   W12
 BYTE   N12
 BYTE   N12  Gn3
 BYTE   W12
 BYTE   Fn3
 BYTE   N12  An3
 BYTE   W12
 BYTE   Gn3
 BYTE   N12  As3
 BYTE   W12
//  #01 //039   ----------------------------------------
 BYTE   An3
 BYTE   N12  Cn4
 BYTE   W12
 BYTE   Fn3
 BYTE   N12  An3
 BYTE   W12
 BYTE   N24  Cn3
 BYTE   N24  Fn3
 BYTE   W24
 BYTE   N12  Cn3
 BYTE   N12  Fn3
 BYTE   W12
 BYTE   N24  As2
 BYTE   N24  Dn3
 BYTE   W24
 BYTE   TIE  Cn3
 BYTE   TIE  Gn3
 BYTE   W12
//  #01 //040   ----------------------------------------
 BYTE   W96
//  #01 //041   ----------------------------------------
 BYTE   W72
 BYTE   EOT
 BYTE   Cn3  v067
 BYTE   W24
//  #01 //042   ----------------------------------------
 BYTE   W96
//  #01 //043   ----------------------------------------
 BYTE   W48
 BYTE   N24  Bn2  v108
 BYTE   W24
 BYTE   Bn3
 BYTE   W24
//  #01 //044   ----------------------------------------
Label_0104A5BE:
 BYTE   N72  Dn3  v108
 BYTE   N72  Fs3
 BYTE   W72
 BYTE   N24  Bn2
 BYTE   N24  En3
 BYTE   W24
 BYTE   PEND 
//  #01 //045   ----------------------------------------
Label_0104A5CA:
 BYTE   N24  Dn3  v108
 BYTE   N24  Fs3
 BYTE   W24
 BYTE   En3
 BYTE   N24  Gn3
 BYTE   W24
 BYTE   Gn2
 BYTE   N24  Bn2
 BYTE   W24
 BYTE   En3
 BYTE   N24  Bn3
 BYTE   W24
 BYTE   PEND 
//  #01 //046   ----------------------------------------
Label_0104A5DD:
 BYTE   N72  Dn3  v108
 BYTE   N72  Fs3
 BYTE   W72
 BYTE   N24  Cn3
 BYTE   N24  En3
 BYTE   W24
 BYTE   PEND 
//  #01 //047   ----------------------------------------
Label_0104A5E9:
 BYTE   N24  Cn3  v108
 BYTE   N24  Fs3
 BYTE   W24
 BYTE   Bn2
 BYTE   N24  Gn3
 BYTE   W48
 BYTE   N12  Dn3
 BYTE   N12  Gn3
 BYTE   W12
 BYTE   Fs3
 BYTE   N12  Bn3
 BYTE   W12
 BYTE   PEND 
//  #01 //048   ----------------------------------------
Label_0104A5FD:
 BYTE   N36  En3  v108
 BYTE   N36  An3
 BYTE   W36
 BYTE   N12  Dn3
 BYTE   N12  Gn3
 BYTE   W12
 BYTE   N24  En3
 BYTE   N24  An3
 BYTE   W24
 BYTE   N12  Fs3
 BYTE   N12  Bn3
 BYTE   W12
 BYTE   N24  En3
 BYTE   N24  An3
 BYTE   W12
 BYTE   PEND 
//  #01 //049   ----------------------------------------
 BYTE   W12
 BYTE   N11  Dn3
 BYTE   N11  Gn3
 BYTE   W12
 BYTE   N24  Bn2
 BYTE   N24  En3
 BYTE   W48
 BYTE   N12  Bn2
 BYTE   N12  En3
 BYTE   W12
 BYTE   Dn3
 BYTE   N12  Gn3
 BYTE   W12
//  #01 //050   ----------------------------------------
 BYTE   PATT
  POIN2 Label_0104A5FD
//  #01 //051   ----------------------------------------
 BYTE   W12
 BYTE   N36  Dn3  v108
 BYTE   N36  Gn3
 BYTE   W36
 BYTE   N24  Bn2
 BYTE   W24
 BYTE   Dn3
 BYTE   N24  Bn3
 BYTE   W24
//  #01 //052   ----------------------------------------
 BYTE   PATT
  POIN2 Label_0104A5BE
//  #01 //053   ----------------------------------------
 BYTE   PATT
  POIN2 Label_0104A5CA
//  #01 //054   ----------------------------------------
 BYTE   PATT
  POIN2 Label_0104A5DD
//  #01 //055   ----------------------------------------
 BYTE   PATT
  POIN2 Label_0104A5E9
//  #01 //056   ----------------------------------------
 BYTE   PATT
  POIN2 Label_0104A5FD
//  #01 //057   ----------------------------------------
 BYTE   W12
 BYTE   N11  Dn3  v108
 BYTE   N11  Gn3
 BYTE   W12
 BYTE   N24  Bn2
 BYTE   N24  En3
 BYTE   W60
 BYTE   N12
 BYTE   N12  Gn3
 BYTE   W12
//  #01 //058   ----------------------------------------
 BYTE   N36  En3
 BYTE   N36  An3
 BYTE   W36
 BYTE   N12  En3
 BYTE   N12  Gn3
 BYTE   W12
 BYTE   N24  En3
 BYTE   N24  An3
 BYTE   W24
 BYTE   N12  En3
 BYTE   N12  Bn3
 BYTE   W12
 BYTE   N24  En3
 BYTE   N24  An3
 BYTE   W12
//  #01 //059   ----------------------------------------
 BYTE   W12
 BYTE   N12  En3
 BYTE   N12  Gn3
 BYTE   W12
 BYTE   N72  Bn2
 BYTE   TIE  En3
 BYTE   W72
//  #01 //060   ----------------------------------------
 BYTE   An2
 BYTE   W96
//  #01 //061   ----------------------------------------
 BYTE   W40
 BYTE   EOT
 BYTE   W12
 BYTE   EOT
 BYTE   En3
 BYTE   W44
//  #01 //062   ----------------------------------------
 BYTE   W96
//  #01 //063   ----------------------------------------
 BYTE   W96
//  #01 //064   ----------------------------------------
 BYTE   W96
//  #01 //065   ----------------------------------------
 BYTE   W96
//  #01 //066   ----------------------------------------
 BYTE   W96
//  #01 //067   ----------------------------------------
 BYTE   TEMPO   182*Engage_tbs/2
 BYTE   W72
 BYTE   W72
//  #01 //068   ----------------------------------------
 BYTE   W72
 BYTE   W72
//  #01 //069   ----------------------------------------
 BYTE   W72
 BYTE   W24
//  #01 //070   ----------------------------------------
 BYTE   GoTo
  POIN2 Label_0104A3A3
 BYTE   FINE

//**************** Track 2 (Midi-Chn.1) ****************//

Engage_002:
//  #02 //000   ----------------------------------------
 BYTE   KEYSH   Engage_key+0
 BYTE   VOICE   48
 BYTE   VOL   45*Engage_mvl/mxv
 BYTE   PAN   c_v-1
 BYTE   PAN   c_v-1
 BYTE   W96
//  #02 //001   ----------------------------------------
Label_01049EAE:
 BYTE   N24  Bn2  v124
 BYTE   W24
 BYTE   N06  An2  v108
 BYTE   W12
 BYTE   An2  v112
 BYTE   W12
 BYTE   Bn2  v116
 BYTE   W12
 BYTE   N24  Cs3  v124
 BYTE   W24
 BYTE   Bn2
 BYTE   W12
//  #02 //002   ----------------------------------------
 BYTE   W12
 BYTE   An2
 BYTE   W24
 BYTE   TIE  Fs2  v096
 BYTE   W60
//  #02 //003   ----------------------------------------
 BYTE   W84
 BYTE   EOT
 BYTE   W12
//  #02 //004   ----------------------------------------
 BYTE   W92
 BYTE   W01
 BYTE   N04  An2  v124
 BYTE   W03
//  #02 //005   ----------------------------------------
 BYTE   W01
 BYTE   N22  Bn2
 BYTE   W24
 BYTE   N24  An2
 BYTE   W24
 BYTE   N06  Bn2
 BYTE   W11
 BYTE   N24  Cs3
 BYTE   W24
 BYTE   W01
 BYTE   Bn2
 BYTE   W11
//  #02 //006   ----------------------------------------
 BYTE   W13
 BYTE   An2
 BYTE   W24
 BYTE   TIE  Fs2  v120
 BYTE   W56
 BYTE   W03
//  #02 //007   ----------------------------------------
 BYTE   W96
//  #02 //008   ----------------------------------------
 BYTE   W01
 BYTE   EOT
 BYTE   TIE  Fs2  v072
 BYTE   W92
 BYTE   W03
//  #02 //009   ----------------------------------------
 BYTE   W96
//  #02 //010   ----------------------------------------
 BYTE   W96
//  #02 //011   ----------------------------------------
 BYTE   W48
 BYTE   W01
 BYTE   EOT
 BYTE   W44
 BYTE   W03
//  #02 //012   ----------------------------------------
Label_01049EF9:
 BYTE   N06  An2  v120
 BYTE   N06  Cs3
 BYTE   W36
 BYTE   An2  v096
 BYTE   N06  Cs3
 BYTE   W24
 BYTE   N06
 BYTE   W12
 BYTE   An2
 BYTE   N06  Cs3
 BYTE   W24
 BYTE   PEND 
//  #02 //013   ----------------------------------------
 BYTE   PATT
  POIN2 Label_01049EF9
//  #02 //014   ----------------------------------------
 BYTE   N06  Gs2  v120
 BYTE   N06  Bn2
 BYTE   W36
 BYTE   Gs2  v096
 BYTE   N06  Bn2
 BYTE   W24
 BYTE   N06
 BYTE   W12
 BYTE   Gs2
 BYTE   N06  Bn2
 BYTE   W24
//  #02 //015   ----------------------------------------
 BYTE   Gs2  v120
 BYTE   N06  En3  v124
 BYTE   W36
 BYTE   Gs2  v096
 BYTE   N06  En3  v100
 BYTE   W24
 BYTE   En3  v096
 BYTE   W12
 BYTE   Gs2
 BYTE   N06  En3
 BYTE   W24
//  #02 //016   ----------------------------------------
 BYTE   Cs3  v124
 BYTE   N06  Fs3
 BYTE   W36
 BYTE   Cs3  v096
 BYTE   N06  Fs3
 BYTE   W24
 BYTE   N06
 BYTE   W12
 BYTE   Cs3
 BYTE   N06  Fs3
 BYTE   W24
//  #02 //017   ----------------------------------------
 BYTE   Bn2  v120
 BYTE   N06  En3
 BYTE   W36
 BYTE   Bn2  v096
 BYTE   N06  En3
 BYTE   W24
 BYTE   N06
 BYTE   W12
 BYTE   Bn2
 BYTE   N06  En3
 BYTE   W24
//  #02 //018   ----------------------------------------
 BYTE   Bn2  v120
 BYTE   N06  Fs3  v124
 BYTE   W36
 BYTE   Bn2  v096
 BYTE   N06  Fs3
 BYTE   W24
 BYTE   N06
 BYTE   W12
 BYTE   Bn2
 BYTE   N06  Fs3
 BYTE   W24
//  #02 //019   ----------------------------------------
 BYTE   W48
 BYTE   Gs2  v120
 BYTE   N06  Fn3  v124
 BYTE   W12
 BYTE   Gs2  v116
 BYTE   N06  Fn3  v120
 BYTE   W36
//  #02 //020   ----------------------------------------
 BYTE   An2  v124
 BYTE   N06  Cs3  v116
 BYTE   W12
 BYTE   An2  v096
 BYTE   N06  Cs3  v092
 BYTE   W24
 BYTE   An2  v096
 BYTE   N06  Cs3  v092
 BYTE   W12
 BYTE   An2  v120
 BYTE   N06  Cs3
 BYTE   W12
 BYTE   An2  v096
 BYTE   N06  Cs3
 BYTE   W24
 BYTE   An2
 BYTE   N06  Cs3
 BYTE   W12
//  #02 //021   ----------------------------------------
 BYTE   An2  v120
 BYTE   N06  Cs3
 BYTE   W12
 BYTE   An2  v096
 BYTE   N06  Cs3
 BYTE   W24
 BYTE   An2
 BYTE   N06  Cs3
 BYTE   W12
 BYTE   An2  v120
 BYTE   N06  Cs3
 BYTE   W12
 BYTE   An2  v096
 BYTE   N06  Cs3
 BYTE   W24
 BYTE   An2
 BYTE   N06  Cs3
 BYTE   W12
//  #02 //022   ----------------------------------------
 BYTE   Bn2  v124
 BYTE   N06  En3
 BYTE   W12
 BYTE   Bn2  v096
 BYTE   N06  En3  v100
 BYTE   W24
 BYTE   Bn2  v096
 BYTE   N06  En3
 BYTE   W12
 BYTE   Bn2  v120
 BYTE   N06  En3
 BYTE   W12
 BYTE   Bn2  v096
 BYTE   N06  En3
 BYTE   W24
 BYTE   Bn2
 BYTE   N06  En3
 BYTE   W12
//  #02 //023   ----------------------------------------
 BYTE   Bn2  v124
 BYTE   N06  En3
 BYTE   W12
 BYTE   Bn2  v096
 BYTE   N06  En3
 BYTE   W24
 BYTE   Bn2
 BYTE   N06  En3
 BYTE   W12
 BYTE   Bn2  v120
 BYTE   N06  En3
 BYTE   W12
 BYTE   Bn2  v096
 BYTE   N06  En3
 BYTE   W24
 BYTE   Bn2
 BYTE   N06  En3
 BYTE   W12
//  #02 //024   ----------------------------------------
 BYTE   Cs3  v124
 BYTE   N06  Fs3
 BYTE   W12
 BYTE   Cs3  v096
 BYTE   N06  Fs3
 BYTE   W12
 BYTE   Cs3
 BYTE   N06  Fs3
 BYTE   W12
 BYTE   Cs3
 BYTE   N06  Fs3
 BYTE   W12
 BYTE   Cs3  v120
 BYTE   N06  Fs3
 BYTE   W12
 BYTE   Cs3  v096
 BYTE   N06  Fs3
 BYTE   W12
 BYTE   Cs3
 BYTE   N06  Fs3
 BYTE   W12
 BYTE   Cs3
 BYTE   N06  Fs3
 BYTE   W12
//  #02 //025   ----------------------------------------
 BYTE   Bn2  v120
 BYTE   N06  Gs3  v124
 BYTE   W12
 BYTE   Bn2  v096
 BYTE   N06  Gs3  v100
 BYTE   W12
 BYTE   Bn2  v096
 BYTE   N06  Gs3  v100
 BYTE   W12
 BYTE   Bn2  v096
 BYTE   N06  Gs3
 BYTE   W12
 BYTE   Bn2  v120
 BYTE   N06  Gs3
 BYTE   W12
 BYTE   Bn2  v096
 BYTE   N06  Gs3
 BYTE   W12
 BYTE   Bn2
 BYTE   N06  Gs3
 BYTE   W12
 BYTE   Bn2
 BYTE   N06  Gs3
 BYTE   W12
//  #02 //026   ----------------------------------------
 BYTE   Fs2  v116
 BYTE   N06  Bn2  v108
 BYTE   W12
 BYTE   Fs2  v092
 BYTE   N06  Bn2  v088
 BYTE   W12
 BYTE   Fs2  v092
 BYTE   N06  Bn2  v088
 BYTE   W12
 BYTE   Fs2  v092
 BYTE   N06  Bn2  v088
 BYTE   W12
 BYTE   Fs2  v116
 BYTE   N06  Bn2  v112
 BYTE   W12
 BYTE   Fs2  v092
 BYTE   N06  Bn2
 BYTE   W12
 BYTE   Fs2  v096
 BYTE   N06  Bn2  v092
 BYTE   W12
 BYTE   Fs2  v096
 BYTE   N06  Bn2  v092
 BYTE   W12
//  #02 //027   ----------------------------------------
 BYTE   Fs2  v120
 BYTE   N06  Bn2
 BYTE   W12
 BYTE   Fs2  v096
 BYTE   N06  Bn2
 BYTE   W12
 BYTE   Fs2
 BYTE   N06  Bn2
 BYTE   W12
 BYTE   Fs2
 BYTE   N06  Bn2
 BYTE   W12
 BYTE   Fs2  v120
 BYTE   N06  Bn2
 BYTE   W12
 BYTE   Fs2  v116
 BYTE   N06  Bn2
 BYTE   W36
//  #02 //028   ----------------------------------------
 BYTE   TIE  Cs3  v080
 BYTE   TIE  Fs3
 BYTE   W96
//  #02 //029   ----------------------------------------
 BYTE   W96
//  #02 //030   ----------------------------------------
 BYTE   EOT
 BYTE   Cs3  v066
 BYTE   TIE  Gs2  v088
 BYTE   TIE  En3
 BYTE   W96
//  #02 //031   ----------------------------------------
 BYTE   W96
//  #02 //032   ----------------------------------------
 BYTE   EOT
 BYTE   Gs2  v064
 BYTE   TIE  En3  v072
 BYTE   TIE  Fs3
 BYTE   W96
//  #02 //033   ----------------------------------------
 BYTE   W96
//  #02 //034   ----------------------------------------
 BYTE   EOT
 BYTE   En3  v066
 BYTE   TIE  Cs3
 BYTE   TIE  Gs3
 BYTE   W96
//  #02 //035   ----------------------------------------
 BYTE   N90  Fs3  v088
 BYTE   W01
 BYTE   EOT
 BYTE   Gs3
 BYTE   W92
 BYTE   W03
//  #02 //036   ----------------------------------------
 BYTE   Cs3
Label_0104A0AC:
 BYTE   N06  Fn2  v120
 BYTE   W12
 BYTE   Fn2  v096
 BYTE   W12
 BYTE   N06
 BYTE   W12
 BYTE   N06
 BYTE   W12
 BYTE   Fn2  v120
 BYTE   W12
 BYTE   Fn2  v096
 BYTE   W12
 BYTE   N06
 BYTE   W12
 BYTE   N06
 BYTE   W12
 BYTE   PEND 
//  #02 //037   ----------------------------------------
 BYTE   PATT
  POIN2 Label_0104A0AC
//  #02 //038   ----------------------------------------
 BYTE   N06  Gn2  v124
 BYTE   W12
 BYTE   Gn2  v100
 BYTE   W12
 BYTE   N06
 BYTE   W12
 BYTE   Gn2  v096
 BYTE   W12
 BYTE   Gn2  v120
 BYTE   W12
 BYTE   Gn2  v096
 BYTE   W12
 BYTE   N06
 BYTE   W12
 BYTE   N06
 BYTE   W12
//  #02 //039   ----------------------------------------
 BYTE   Gn2  v124
 BYTE   W12
 BYTE   Gn2  v096
 BYTE   W12
 BYTE   N06
 BYTE   W12
 BYTE   N06
 BYTE   W12
 BYTE   Gn2  v120
 BYTE   W12
 BYTE   Gn2  v096
 BYTE   W12
 BYTE   N06
 BYTE   W12
 BYTE   N06
 BYTE   W12
//  #02 //040   ----------------------------------------
 BYTE   N36  Cn3  v124
 BYTE   N12  Gn3  v108
 BYTE   W12
 BYTE   Ds3  v084
 BYTE   W12
 BYTE   N11  Fn3
 BYTE   W12
 BYTE   N36  As2  v116
 BYTE   N12  Gn3  v112
 BYTE   W12
 BYTE   Cn4
 BYTE   W12
 BYTE   N11  Dn4
 BYTE   W12
 BYTE   TIE  Gs2
 BYTE   N36  Ds4  v124
 BYTE   W24
//  #02 //041   ----------------------------------------
 BYTE   W12
 BYTE   N24  Dn4  v108
 BYTE   W24
 BYTE   N11  As3  v100
 BYTE   W12
 BYTE   N24  Cn4  v108
 BYTE   W24
 BYTE   BEND   c_v+61
 BYTE   W01
 BYTE   BEND   c_v+58
 BYTE   W01
 BYTE   BEND   c_v+56
 BYTE   W01
 BYTE   BEND   c_v+53
 BYTE   W01
 BYTE   BEND   c_v+50
 BYTE   W01
 BYTE   BEND   c_v+48
 BYTE   W01
 BYTE   BEND   c_v+45
 BYTE   W01
 BYTE   BEND   c_v+42
 BYTE   W01
 BYTE   BEND   c_v+40
 BYTE   W01
 BYTE   BEND   c_v+37
 BYTE   W01
 BYTE   BEND   c_v+34
 BYTE   W01
 BYTE   BEND   c_v+32
 BYTE   W01
 BYTE   BEND   c_v+29
 BYTE   W01
 BYTE   BEND   c_v+26
 BYTE   W01
 BYTE   BEND   c_v+24
 BYTE   W01
 BYTE   BEND   c_v+21
 BYTE   W01
 BYTE   BEND   c_v+18
 BYTE   W01
 BYTE   BEND   c_v+16
 BYTE   W01
 BYTE   BEND   c_v+13
 BYTE   W01
 BYTE   BEND   c_v+10
 BYTE   W01
 BYTE   BEND   c_v+8
 BYTE   W01
 BYTE   BEND   c_v+5
 BYTE   W01
 BYTE   BEND   c_v+2
 BYTE   W01
 BYTE   BEND   c_v+0
 BYTE   W01
//  #02 //042   ----------------------------------------
 BYTE   EOT
 BYTE   Gs2
 BYTE   N84  As2  v088
 BYTE   W84
 BYTE   N60  Dn3  v108
 BYTE   W12
//  #02 //043   ----------------------------------------
 BYTE   W48
 BYTE   N48  Ds3
 BYTE   W48
//  #02 //044   ----------------------------------------
 BYTE   N06  Bn2  v084
 BYTE   N72  Bn3  v092
 BYTE   W12
 BYTE   N06  Bn2  v080
 BYTE   W24
 BYTE   N06
 BYTE   W12
 BYTE   Bn2  v084
 BYTE   W12
 BYTE   N06
 BYTE   W12
 BYTE   TIE  Gn3  v080
 BYTE   W12
 BYTE   N06  Bn2  v084
 BYTE   W12
//  #02 //045   ----------------------------------------
 BYTE   Gn2
 BYTE   W12
 BYTE   Gn2  v080
 BYTE   W24
 BYTE   N06
 BYTE   W12
 BYTE   Gn2  v084
 BYTE   W12
 BYTE   N06
 BYTE   W24
 BYTE   N06
 BYTE   W12
//  #02 //046   ----------------------------------------
 BYTE   EOT
 BYTE   Gn3
 BYTE   N06  Fs2  v088
 BYTE   N48  An3
 BYTE   W12
 BYTE   N06  Fs2  v084
 BYTE   W24
 BYTE   N06
 BYTE   W12
 BYTE   N06
 BYTE   N24  Fs3
 BYTE   W12
 BYTE   N06  Fs2
 BYTE   W12
 BYTE   N22  Dn3  v080
 BYTE   W12
 BYTE   N06  Fs2  v084
 BYTE   W12
//  #02 //047   ----------------------------------------
 BYTE   An2  v092
 BYTE   N24  Fs3
 BYTE   W12
 BYTE   N06  An2  v084
 BYTE   W12
 BYTE   N72  Gn3
 BYTE   W12
 BYTE   N06  An2
 BYTE   W12
 BYTE   Bn2  v088
 BYTE   W12
 BYTE   Bn2  v084
 BYTE   W24
 BYTE   N06
 BYTE   W12
//  #02 //048   ----------------------------------------
 BYTE   Gn2
 BYTE   N96  Cn3
 BYTE   W12
 BYTE   N06  Gn2  v080
 BYTE   W24
 BYTE   N06
 BYTE   W12
 BYTE   Gn2  v084
 BYTE   W12
 BYTE   N06
 BYTE   W24
 BYTE   N06
 BYTE   W12
//  #02 //049   ----------------------------------------
 BYTE   Fs2  v088
 BYTE   N72  Bn2
 BYTE   W12
 BYTE   N06  Fs2  v084
 BYTE   W24
 BYTE   N06
 BYTE   W12
 BYTE   N06
 BYTE   W12
 BYTE   N06
 BYTE   W12
 BYTE   N24  Dn3
 BYTE   W12
 BYTE   N06  Fs2
 BYTE   W12
//  #02 //050   ----------------------------------------
 BYTE   Gn2  v088
 BYTE   N48  En3  v092
 BYTE   W12
 BYTE   N06  Gn2  v084
 BYTE   W24
 BYTE   N06
 BYTE   W12
 BYTE   Gn2  v088
 BYTE   N48  An3  v092
 BYTE   W12
 BYTE   N06  Gn2  v084
 BYTE   W24
 BYTE   N24  Gn2  v092
 BYTE   W12
//  #02 //051   ----------------------------------------
 BYTE   N48  Bn3
 BYTE   W12
 BYTE   N06  Gn2  v084
 BYTE   W24
 BYTE   N06
 BYTE   W12
 BYTE   Fs2  v092
 BYTE   N12  Fs3  v076
 BYTE   W12
 BYTE   N06  Fs2  v084
 BYTE   N11  Bn3  v080
 BYTE   W12
 BYTE   N12  Dn3  v084
 BYTE   W12
 BYTE   N06  Fs2
 BYTE   N11  Fs3  v092
 BYTE   W12
//  #02 //052   ----------------------------------------
 BYTE   N06  Bn2
 BYTE   N84  An3
 BYTE   W12
 BYTE   N06  Bn2  v088
 BYTE   W24
 BYTE   Bn2  v084
 BYTE   W12
 BYTE   Bn2  v088
 BYTE   W12
 BYTE   Bn2  v084
 BYTE   W24
 BYTE   N06
 BYTE   N12  Gn3  v092
 BYTE   W12
//  #02 //053   ----------------------------------------
 BYTE   N06  Gn2  v084
 BYTE   N24  Fs3  v092
 BYTE   W12
 BYTE   N06  Gn2  v080
 BYTE   W12
 BYTE   N22  En3
 BYTE   W12
 BYTE   N06  Gn2
 BYTE   W12
 BYTE   Gn2  v084
 BYTE   N24  Dn3  v080
 BYTE   W12
 BYTE   N06  Gn2  v084
 BYTE   W12
 BYTE   N22  Cn3  v076
 BYTE   W12
 BYTE   N06  Gn2  v084
 BYTE   W12
//  #02 //054   ----------------------------------------
 BYTE   Fs2  v088
 BYTE   N48  Fs3  v092
 BYTE   W12
 BYTE   N06  Fs2  v084
 BYTE   W24
 BYTE   N06
 BYTE   W12
 BYTE   N06
 BYTE   N48  Dn3
 BYTE   W12
 BYTE   N06  Fs2
 BYTE   W24
 BYTE   N06
 BYTE   W12
//  #02 //055   ----------------------------------------
 BYTE   Dn3  v092
 BYTE   N24  Cn4  v084
 BYTE   W12
 BYTE   N06  Dn3  v088
 BYTE   W12
 BYTE   N22  Bn3  v080
 BYTE   W12
 BYTE   N06  Dn3  v088
 BYTE   W12
 BYTE   Dn3  v092
 BYTE   N24  Cn4  v084
 BYTE   W12
 BYTE   N06  Dn3
 BYTE   W12
 BYTE   N22  Dn4
 BYTE   W12
 BYTE   N06  Dn3
 BYTE   W12
//  #02 //056   ----------------------------------------
 BYTE   Bn2  v088
 BYTE   N96  En3  v092
 BYTE   W12
 BYTE   N06  Bn2  v080
 BYTE   W24
 BYTE   Bn2  v084
 BYTE   W12
 BYTE   N06
 BYTE   W12
 BYTE   N06
 BYTE   W24
 BYTE   N06
 BYTE   W12
//  #02 //057   ----------------------------------------
 BYTE   Gn2
 BYTE   N48  Bn3  v092
 BYTE   W12
 BYTE   N06  Gn2  v080
 BYTE   W24
 BYTE   N06
 BYTE   W12
 BYTE   Gn2  v084
 BYTE   N48  An3
 BYTE   W12
 BYTE   N06  Gn2  v080
 BYTE   W24
 BYTE   Gn2  v084
 BYTE   W12
//  #02 //058   ----------------------------------------
 BYTE   Gn2  v088
 BYTE   N48  Gn3  v084
 BYTE   W12
 BYTE   N06  Gn2
 BYTE   W24
 BYTE   N06
 BYTE   W12
 BYTE   N06
 BYTE   N48  Fs3
 BYTE   W12
 BYTE   N06  Gn2
 BYTE   W24
 BYTE   N06
 BYTE   W12
//  #02 //059   ----------------------------------------
 BYTE   An2  v092
 BYTE   TIE  En3  v084
 BYTE   W12
 BYTE   N06  An2  v072
 BYTE   W24
 BYTE   N06
 BYTE   W12
 BYTE   An2  v076
 BYTE   W12
 BYTE   An2  v072
 BYTE   W24
 BYTE   An2  v076
 BYTE   W12
//  #02 //060   ----------------------------------------
 BYTE   An2  v080
 BYTE   W12
 BYTE   An2  v076
 BYTE   W24
 BYTE   N06
 BYTE   W12
 BYTE   EOT
 BYTE   En3
 BYTE   N06  An2  v080
 BYTE   N24  Fn3
 BYTE   W12
 BYTE   N06  An2
 BYTE   W12
 BYTE   N22  Gn3
 BYTE   W12
 BYTE   N06  An2
 BYTE   W12
//  #02 //061   ----------------------------------------
 BYTE   An2  v084
 BYTE   N24  An3  v088
 BYTE   W12
 BYTE   N06  An2  v080
 BYTE   W12
 BYTE   N22  Bn3  v084
 BYTE   W12
 BYTE   N06  An2
 BYTE   W12
 BYTE   An2  v092
 BYTE   N06  Cn4
 BYTE   W12
 BYTE   An2
 BYTE   N06  Cn4
 BYTE   W36
//  #02 //062   ----------------------------------------
 BYTE   TIE  En2
 BYTE   TIE  Bn2
 BYTE   W96
//  #02 //063   ----------------------------------------
 BYTE   W96
//  #02 //064   ----------------------------------------
 BYTE   W96
//  #02 //065   ----------------------------------------
 BYTE   W96
//  #02 //066   ----------------------------------------
 BYTE   W96
//  #02 //067   ----------------------------------------
 BYTE   W72
 BYTE   EOT
 BYTE   En2  v059
 BYTE   W72
//  #02 //068   ----------------------------------------
 BYTE   W72
 BYTE   W72
//  #02 //069   ----------------------------------------
 BYTE   W72
 BYTE   W24
//  #02 //070   ----------------------------------------
 BYTE   GoTo
  POIN2 Label_01049EAE
 BYTE   FINE

//**************** Track 3 (Midi-Chn.2) ****************//

Engage_003:
//  #03 //000   ----------------------------------------
 BYTE   KEYSH   Engage_key+0
 BYTE   VOICE   110
 BYTE   VOL   37*Engage_mvl/mxv
 BYTE   PAN   c_v-1
 BYTE   W96
//  #03 //001   ----------------------------------------
Label_0104B2C1:
 BYTE   W96
//  #03 //002   ----------------------------------------
 BYTE   W96
//  #03 //003   ----------------------------------------
 BYTE   N48  Fs3  v104
 BYTE   W48
 BYTE   N24  Bn3  v112
 BYTE   W24
 BYTE   N22  Fs4  v120
 BYTE   W24
//  #03 //004   ----------------------------------------
 BYTE   N48  Fs4  v127
 BYTE   W48
 BYTE   Cs4  v116
 BYTE   W48
//  #03 //005   ----------------------------------------
 BYTE   W96
//  #03 //006   ----------------------------------------
 BYTE   W96
//  #03 //007   ----------------------------------------
 BYTE   Bn2  v068
 BYTE   N48  Bn3  v100
 BYTE   W48
 BYTE   N01  Bn3  v064
 BYTE   N24  Dn4  v112
 BYTE   W24
 BYTE   N22  Fs4
 BYTE   W24
//  #03 //008   ----------------------------------------
 BYTE   N48  Bn3  v068
 BYTE   N24  An4  v127
 BYTE   W24
 BYTE   N22  Fs4  v112
 BYTE   W24
 BYTE   TIE  Cn4  v064
 BYTE   TIE  Bn4  v127
 BYTE   W48
//  #03 //009   ----------------------------------------
 BYTE   W96
//  #03 //010   ----------------------------------------
 BYTE   EOT
 BYTE   TIE  Bn4  v092
 BYTE   W96
//  #03 //011   ----------------------------------------
 BYTE   W48
 BYTE   EOT
 BYTE   Cn4
 BYTE   W48
//  #03 //012   ----------------------------------------
 BYTE   Bn4
 BYTE   N06  Fs3  v127
 BYTE   W12
 BYTE   Fs3  v100
 BYTE   W12
 BYTE   N06
 BYTE   W12
 BYTE   Fs3  v120
 BYTE   W24
 BYTE   Fs3  v100
 BYTE   W12
 BYTE   N06
 BYTE   W12
 BYTE   N06
 BYTE   W12
//  #03 //013   ----------------------------------------
 BYTE   Gs3  v127
 BYTE   W12
 BYTE   Gs3  v100
 BYTE   W12
 BYTE   N06
 BYTE   W12
 BYTE   An3  v120
 BYTE   W24
 BYTE   An3  v100
 BYTE   W12
 BYTE   N06
 BYTE   W12
 BYTE   N06
 BYTE   W12
//  #03 //014   ----------------------------------------
 BYTE   Gs3  v124
 BYTE   W12
 BYTE   Gs3  v100
 BYTE   W12
 BYTE   N06
 BYTE   W12
 BYTE   Gs3  v120
 BYTE   W24
 BYTE   Gs3  v100
 BYTE   W12
 BYTE   N06
 BYTE   W12
 BYTE   N06
 BYTE   W12
//  #03 //015   ----------------------------------------
Label_0104B33C:
 BYTE   N06  Bn3  v127
 BYTE   W12
 BYTE   Bn3  v100
 BYTE   W12
 BYTE   N06
 BYTE   W12
 BYTE   Bn3  v120
 BYTE   W24
 BYTE   Bn3  v100
 BYTE   W12
 BYTE   N06
 BYTE   W12
 BYTE   N06
 BYTE   W12
 BYTE   PEND 
//  #03 //016   ----------------------------------------
 BYTE   An3  v124
 BYTE   W12
 BYTE   An3  v096
 BYTE   W12
 BYTE   N06
 BYTE   W12
 BYTE   An3  v116
 BYTE   W24
 BYTE   An3  v100
 BYTE   W12
 BYTE   N06
 BYTE   W12
 BYTE   N06
 BYTE   W12
//  #03 //017   ----------------------------------------
 BYTE   Gs3  v124
 BYTE   W12
 BYTE   Gs3  v100
 BYTE   W12
 BYTE   N06
 BYTE   W12
 BYTE   Gs3  v116
 BYTE   W24
 BYTE   Gs3  v100
 BYTE   W12
 BYTE   N06
 BYTE   W12
 BYTE   N06
 BYTE   W12
//  #03 //018   ----------------------------------------
 BYTE   PATT
  POIN2 Label_0104B33C
//  #03 //019   ----------------------------------------
 BYTE   W96
//  #03 //020   ----------------------------------------
 BYTE   N06  An3  v116
 BYTE   W12
 BYTE   An3  v092
 BYTE   W12
 BYTE   Fs3
 BYTE   W12
 BYTE   N06
 BYTE   W12
 BYTE   An3  v120
 BYTE   W12
 BYTE   An3  v096
 BYTE   W12
 BYTE   Fs3
 BYTE   W12
 BYTE   N06
 BYTE   W12
//  #03 //021   ----------------------------------------
 BYTE   An3  v127
 BYTE   W12
 BYTE   An3  v100
 BYTE   W12
 BYTE   Fs3  v096
 BYTE   W12
 BYTE   N06
 BYTE   W12
 BYTE   An3  v124
 BYTE   W12
 BYTE   An3  v100
 BYTE   W12
 BYTE   Fs3  v096
 BYTE   W12
 BYTE   N06
 BYTE   W12
//  #03 //022   ----------------------------------------
 BYTE   Bn3  v127
 BYTE   W12
 BYTE   Bn3  v104
 BYTE   W12
 BYTE   Gs3  v100
 BYTE   W12
 BYTE   N06
 BYTE   W12
 BYTE   Bn3  v127
 BYTE   W12
 BYTE   Bn3  v104
 BYTE   W12
 BYTE   Gs3  v096
 BYTE   W12
 BYTE   N06
 BYTE   W12
//  #03 //023   ----------------------------------------
 BYTE   Bn3  v127
 BYTE   W12
 BYTE   Bn3  v100
 BYTE   W12
 BYTE   Gs3  v096
 BYTE   W12
 BYTE   N06
 BYTE   W12
 BYTE   Bn3  v127
 BYTE   W12
 BYTE   Bn3  v100
 BYTE   W12
 BYTE   Gs3  v096
 BYTE   W12
 BYTE   N06
 BYTE   W12
//  #03 //024   ----------------------------------------
 BYTE   An3  v124
 BYTE   W12
 BYTE   An3  v100
 BYTE   W24
 BYTE   N06
 BYTE   W12
 BYTE   An3  v124
 BYTE   W12
 BYTE   An3  v100
 BYTE   W12
 BYTE   N06
 BYTE   W12
 BYTE   Bn3
 BYTE   W12
//  #03 //025   ----------------------------------------
 BYTE   Bn3  v127
 BYTE   W12
 BYTE   Bn3  v100
 BYTE   W12
 BYTE   Bn3  v120
 BYTE   W24
 BYTE   Bn3  v124
 BYTE   W12
 BYTE   Bn3  v100
 BYTE   W12
 BYTE   N06
 BYTE   W12
 BYTE   N06
 BYTE   W12
//  #03 //026   ----------------------------------------
 BYTE   N36  Cs4  v108
 BYTE   W36
 BYTE   N44  Ds4  v104
 BYTE   W48
 BYTE   N24  En4
 BYTE   W12
//  #03 //027   ----------------------------------------
 BYTE   W12
 BYTE   N12  Ds4  v100
 BYTE   W12
 BYTE   N11  Cs4  v096
 BYTE   W12
 BYTE   N24  Ds4  v100
 BYTE   W24
 BYTE   N12  Bn3  v092
 BYTE   W12
 BYTE   Fs3  v076
 BYTE   W12
 BYTE   N11  Gs3  v072
 BYTE   W12
//  #03 //028   ----------------------------------------
 BYTE   TIE  An3
 BYTE   W96
//  #03 //029   ----------------------------------------
 BYTE   W96
//  #03 //030   ----------------------------------------
 BYTE   EOT
 BYTE   TIE  Bn3  v092
 BYTE   W96
//  #03 //031   ----------------------------------------
 BYTE   W96
//  #03 //032   ----------------------------------------
 BYTE   EOT
 BYTE   TIE  Bn3  v076
 BYTE   W96
//  #03 //033   ----------------------------------------
 BYTE   W96
//  #03 //034   ----------------------------------------
 BYTE   EOT
 BYTE   W96
//  #03 //035   ----------------------------------------
 BYTE   W96
//  #03 //036   ----------------------------------------
 BYTE   W96
//  #03 //037   ----------------------------------------
 BYTE   W96
//  #03 //038   ----------------------------------------
 BYTE   W96
//  #03 //039   ----------------------------------------
 BYTE   W60
 BYTE   N36  As4  v127
 BYTE   W36
//  #03 //040   ----------------------------------------
 BYTE   W96
//  #03 //041   ----------------------------------------
 BYTE   W72
 BYTE   W03
 BYTE   TIE  Fn4  v108
 BYTE   W21
//  #03 //042   ----------------------------------------
 BYTE   W84
 BYTE   W01
 BYTE   EOT
 BYTE   N60  Gn4  v120
 BYTE   W11
//  #03 //043   ----------------------------------------
 BYTE   W48
 BYTE   N48  Fs4  v104
 BYTE   W48
//  #03 //044   ----------------------------------------
 BYTE   N72  Fs4  v120
 BYTE   W72
 BYTE   TIE  En4  v112
 BYTE   W24
//  #03 //045   ----------------------------------------
 BYTE   W96
//  #03 //046   ----------------------------------------
 BYTE   EOT
 BYTE   N48  Dn4  v120
 BYTE   W48
 BYTE   N24  An3  v116
 BYTE   W24
 BYTE   N22  Cn4
 BYTE   W24
//  #03 //047   ----------------------------------------
 BYTE   N24  Cn4  v124
 BYTE   W24
 BYTE   N72  Bn3  v112
 BYTE   W72
//  #03 //048   ----------------------------------------
 BYTE   N96  En3
 BYTE   W96
//  #03 //049   ----------------------------------------
 BYTE   N72  Dn3  v120
 BYTE   W72
 BYTE   N12  Gn3  v116
 BYTE   W12
 BYTE   N11  En3  v112
 BYTE   W12
//  #03 //050   ----------------------------------------
 BYTE   N48  An3  v127
 BYTE   W48
 BYTE   En4
 BYTE   W48
//  #03 //051   ----------------------------------------
 BYTE   Fs4
 BYTE   W48
 BYTE   N12  Dn3  v108
 BYTE   W12
 BYTE   N11  Fs3
 BYTE   W12
 BYTE   N12  Bn3  v124
 BYTE   W12
 BYTE   N11  Dn4  v127
 BYTE   W12
//  #03 //052   ----------------------------------------
 BYTE   N72  En4
 BYTE   W72
 BYTE   N24  Dn4  v120
 BYTE   W24
//  #03 //053   ----------------------------------------
 BYTE   N48  Bn3
 BYTE   W48
 BYTE   N24  An3  v116
 BYTE   W24
 BYTE   N22  Bn3
 BYTE   W24
//  #03 //054   ----------------------------------------
 BYTE   N72  An3
 BYTE   W72
 BYTE   N24  Fs3  v112
 BYTE   W24
//  #03 //055   ----------------------------------------
 BYTE   Fs3  v120
 BYTE   W24
 BYTE   N72  Gn3  v116
 BYTE   W72
//  #03 //056   ----------------------------------------
 BYTE   N96  Gn3  v120
 BYTE   W96
//  #03 //057   ----------------------------------------
 BYTE   N72  En4  v124
 BYTE   W72
 BYTE   N03  Dn4  v112
 BYTE   W03
 BYTE   N04  Cn4
 BYTE   W04
 BYTE   Bn3
 BYTE   W05
 BYTE   N03  An3
 BYTE   W03
 BYTE   N04  Gn3
 BYTE   W04
 BYTE   N03  Fs3
 BYTE   W05
//  #03 //058   ----------------------------------------
 BYTE   N48  En3  v116
 BYTE   W48
 BYTE   N96  Bn3  v124
 BYTE   W48
//  #03 //059   ----------------------------------------
 BYTE   W48
 BYTE   N48  Cn4  v104
 BYTE   W48
//  #03 //060   ----------------------------------------
 BYTE   En4  v112
 BYTE   W48
 BYTE   N24  Fn4
 BYTE   W24
 BYTE   N22  Gn4
 BYTE   W24
//  #03 //061   ----------------------------------------
 BYTE   N24  An4  v124
 BYTE   W24
 BYTE   N22  Bn4  v120
 BYTE   W24
 BYTE   N06  Cn5  v127
 BYTE   W12
 BYTE   N06
 BYTE   W36
//  #03 //062   ----------------------------------------
 BYTE   TIE  En3
 BYTE   W96
//  #03 //063   ----------------------------------------
 BYTE   W96
//  #03 //064   ----------------------------------------
 BYTE   W96
//  #03 //065   ----------------------------------------
 BYTE   W96
//  #03 //066   ----------------------------------------
 BYTE   W96
//  #03 //067   ----------------------------------------
 BYTE   W72
 BYTE   EOT
 BYTE   W72
//  #03 //068   ----------------------------------------
 BYTE   W72
 BYTE   W72
//  #03 //069   ----------------------------------------
 BYTE   W72
 BYTE   W24
//  #03 //070   ----------------------------------------
 BYTE   GoTo
  POIN2 Label_0104B2C1
 BYTE   FINE

//**************** Track 4 (Midi-Chn.3) ****************//

Engage_004:
//  #04 //000   ----------------------------------------
 BYTE   KEYSH   Engage_key+0
 BYTE   VOICE   68
 BYTE   VOL   39*Engage_mvl/mxv
 BYTE   PAN   c_v-1
 BYTE   PAN   c_v+0
 BYTE   W96
//  #04 //001   ----------------------------------------
Label_0104AF32:
 BYTE   W96
//  #04 //002   ----------------------------------------
 BYTE   W96
//  #04 //003   ----------------------------------------
 BYTE   W96
//  #04 //004   ----------------------------------------
 BYTE   W96
//  #04 //005   ----------------------------------------
 BYTE   W96
//  #04 //006   ----------------------------------------
 BYTE   W96
//  #04 //007   ----------------------------------------
 BYTE   W96
//  #04 //008   ----------------------------------------
 BYTE   W96
//  #04 //009   ----------------------------------------
 BYTE   W96
//  #04 //010   ----------------------------------------
 BYTE   W96
//  #04 //011   ----------------------------------------
 BYTE   W96
//  #04 //012   ----------------------------------------
 BYTE   W96
//  #04 //013   ----------------------------------------
 BYTE   W96
//  #04 //014   ----------------------------------------
 BYTE   W96
//  #04 //015   ----------------------------------------
 BYTE   W96
//  #04 //016   ----------------------------------------
 BYTE   W96
//  #04 //017   ----------------------------------------
 BYTE   W84
 BYTE   N06  Ds4  v100
 BYTE   W06
 BYTE   En4
 BYTE   W06
//  #04 //018   ----------------------------------------
 BYTE   N48  Ds4  v104
 BYTE   W48
 BYTE   Bn3  v084
 BYTE   W48
//  #04 //019   ----------------------------------------
 BYTE   N05  Cs4  v104
 BYTE   W96
//  #04 //020   ----------------------------------------
 BYTE   W96
//  #04 //021   ----------------------------------------
 BYTE   W96
//  #04 //022   ----------------------------------------
 BYTE   W96
//  #04 //023   ----------------------------------------
 BYTE   W96
//  #04 //024   ----------------------------------------
 BYTE   W96
//  #04 //025   ----------------------------------------
 BYTE   W96
//  #04 //026   ----------------------------------------
 BYTE   W96
//  #04 //027   ----------------------------------------
 BYTE   W96
//  #04 //028   ----------------------------------------
 BYTE   W96
//  #04 //029   ----------------------------------------
 BYTE   W96
//  #04 //030   ----------------------------------------
 BYTE   W96
//  #04 //031   ----------------------------------------
 BYTE   W96
//  #04 //032   ----------------------------------------
 BYTE   W96
//  #04 //033   ----------------------------------------
 BYTE   W96
//  #04 //034   ----------------------------------------
 BYTE   W96
//  #04 //035   ----------------------------------------
 BYTE   W96
//  #04 //036   ----------------------------------------
 BYTE   W96
//  #04 //037   ----------------------------------------
 BYTE   W96
//  #04 //038   ----------------------------------------
 BYTE   W96
//  #04 //039   ----------------------------------------
 BYTE   W96
//  #04 //040   ----------------------------------------
 BYTE   W96
//  #04 //041   ----------------------------------------
 BYTE   W96
//  #04 //042   ----------------------------------------
 BYTE   W24
 BYTE   N06  Gn3  v100
 BYTE   W06
 BYTE   An3
 BYTE   W06
 BYTE   As3
 BYTE   W06
 BYTE   Cn4
 BYTE   W06
 BYTE   N32  Dn4  v108
 BYTE   W36
 BYTE   N60  Dn4  v120
 BYTE   W12
//  #04 //043   ----------------------------------------
 BYTE   W48
 BYTE   N44  Ds4  v092
 BYTE   W48
//  #04 //044   ----------------------------------------
 BYTE   W36
 BYTE   N06  Gn3  v108
 BYTE   W12
 BYTE   Gn3  v116
 BYTE   W12
 BYTE   Gn3  v112
 BYTE   W24
 BYTE   N06
 BYTE   W12
//  #04 //045   ----------------------------------------
 BYTE   Gn3  v120
 BYTE   W12
 BYTE   Gn3  v112
 BYTE   W12
 BYTE   N12  Gn3  v116
 BYTE   W12
 BYTE   N06  Gn3  v112
 BYTE   W24
 BYTE   Gn3  v116
 BYTE   W24
 BYTE   N06
 BYTE   W12
//  #04 //046   ----------------------------------------
Label_0104AFA2:
 BYTE   N06  Fs3  v120
 BYTE   W12
 BYTE   Fs3  v112
 BYTE   W24
 BYTE   N06
 BYTE   W12
 BYTE   Fs3  v120
 BYTE   W12
 BYTE   Fs3  v116
 BYTE   W24
 BYTE   N06
 BYTE   W12
 BYTE   PEND 
//  #04 //047   ----------------------------------------
 BYTE   An3  v124
 BYTE   W12
 BYTE   An3  v116
 BYTE   W24
 BYTE   N06
 BYTE   W12
 BYTE   Bn3  v124
 BYTE   W12
 BYTE   Bn3  v116
 BYTE   W36
//  #04 //048   ----------------------------------------
 BYTE   Gn3  v120
 BYTE   W12
 BYTE   Gn3  v112
 BYTE   W24
 BYTE   Gn3  v120
 BYTE   W24
 BYTE   Gn3  v112
 BYTE   W24
 BYTE   N06
 BYTE   W12
//  #04 //049   ----------------------------------------
 BYTE   PATT
  POIN2 Label_0104AFA2
//  #04 //050   ----------------------------------------
 BYTE   N06  En3  v127
 BYTE   W12
 BYTE   En3  v112
 BYTE   W36
 BYTE   En3  v127
 BYTE   W12
 BYTE   En3  v112
 BYTE   W36
//  #04 //051   ----------------------------------------
 BYTE   W36
 BYTE   En3  v116
 BYTE   W12
 BYTE   Fs3  v120
 BYTE   W12
 BYTE   Fs3  v116
 BYTE   W36
//  #04 //052   ----------------------------------------
 BYTE   W96
//  #04 //053   ----------------------------------------
 BYTE   W96
//  #04 //054   ----------------------------------------
 BYTE   W96
//  #04 //055   ----------------------------------------
 BYTE   W96
//  #04 //056   ----------------------------------------
 BYTE   W96
//  #04 //057   ----------------------------------------
 BYTE   W96
//  #04 //058   ----------------------------------------
 BYTE   W96
//  #04 //059   ----------------------------------------
 BYTE   W96
//  #04 //060   ----------------------------------------
 BYTE   W96
//  #04 //061   ----------------------------------------
 BYTE   W96
//  #04 //062   ----------------------------------------
 BYTE   W96
//  #04 //063   ----------------------------------------
 BYTE   W96
//  #04 //064   ----------------------------------------
 BYTE   W96
//  #04 //065   ----------------------------------------
 BYTE   W96
//  #04 //066   ----------------------------------------
 BYTE   W96
//  #04 //067   ----------------------------------------
 BYTE   W72
 BYTE   W72
//  #04 //068   ----------------------------------------
 BYTE   W72
 BYTE   W72
//  #04 //069   ----------------------------------------
 BYTE   W72
 BYTE   W24
//  #04 //070   ----------------------------------------
 BYTE   GoTo
  POIN2 Label_0104AF32
 BYTE   FINE

//**************** Track 5 (Midi-Chn.4) ****************//

Engage_005:
//  #05 //000   ----------------------------------------
 BYTE   KEYSH   Engage_key+0
 BYTE   VOICE   73
 BYTE   VOL   37*Engage_mvl/mxv
 BYTE   PAN   c_v+0
 BYTE   Ds3  v063
 BYTE   PAN   c_v+0
 BYTE   W96
//  #05 //001   ----------------------------------------
Label_0104AD50:
 BYTE   W96
//  #05 //002   ----------------------------------------
 BYTE   W88
 BYTE   W01
 BYTE   N06  Dn5  v116
 BYTE   W03
 BYTE   N03  En5
 BYTE   W04
//  #05 //003   ----------------------------------------
 BYTE   Fs5  v120
 BYTE   W03
 BYTE   N04  En5  v116
 BYTE   W04
 BYTE   Dn5
 BYTE   W05
 BYTE   N03  Bn4
 BYTE   W03
 BYTE   N04  Fs4
 BYTE   W04
 BYTE   N03  Dn4
 BYTE   W28
 BYTE   W01
 BYTE   N48  Bn3  v124
 BYTE   W48
//  #05 //004   ----------------------------------------
 BYTE   N05
 BYTE   W06
 BYTE   Cn4  v112
 BYTE   W06
 BYTE   N04  Bn3  v104
 BYTE   W06
 BYTE   Cn4  v100
 BYTE   W06
 BYTE   Bn3  v096
 BYTE   W06
 BYTE   Cn4  v092
 BYTE   W05
 BYTE   Bn3  v088
 BYTE   W05
 BYTE   Cn4  v084
 BYTE   W06
 BYTE   Bn3  v080
 BYTE   W06
 BYTE   Cn4  v076
 BYTE   W06
 BYTE   Bn3  v072
 BYTE   W06
 BYTE   Cn4  v068
 BYTE   W07
 BYTE   N01  Bn3  v064
 BYTE   W24
 BYTE   W01
//  #05 //005   ----------------------------------------
 BYTE   N06  Bn3  v092
 BYTE   W06
 BYTE   Cs4
 BYTE   W06
 BYTE   En4  v100
 BYTE   W06
 BYTE   Fs4  v108
 BYTE   W06
 BYTE   An4  v116
 BYTE   W06
 BYTE   Bn4  v124
 BYTE   W06
 BYTE   An4  v112
 BYTE   W06
 BYTE   Fs4  v104
 BYTE   W06
 BYTE   En4  v096
 BYTE   W06
 BYTE   Cs4  v084
 BYTE   W06
 BYTE   N11  Bn3  v076
 BYTE   W36
//  #05 //006   ----------------------------------------
 BYTE   W96
//  #05 //007   ----------------------------------------
 BYTE   W96
//  #05 //008   ----------------------------------------
 BYTE   W96
//  #05 //009   ----------------------------------------
 BYTE   W96
//  #05 //010   ----------------------------------------
 BYTE   W96
//  #05 //011   ----------------------------------------
 BYTE   W96
//  #05 //012   ----------------------------------------
 BYTE   W96
//  #05 //013   ----------------------------------------
 BYTE   W96
//  #05 //014   ----------------------------------------
 BYTE   W96
//  #05 //015   ----------------------------------------
 BYTE   W96
//  #05 //016   ----------------------------------------
 BYTE   W96
//  #05 //017   ----------------------------------------
 BYTE   W96
//  #05 //018   ----------------------------------------
 BYTE   W96
//  #05 //019   ----------------------------------------
 BYTE   W24
 BYTE   N06  Cs4  v100
 BYTE   W06
 BYTE   Fn4  v104
 BYTE   W06
 BYTE   Gs4  v108
 BYTE   W06
 BYTE   N05  Bn4
 BYTE   W06
 BYTE   N06  Cs5  v124
 BYTE   W12
 BYTE   Cs5  v120
 BYTE   W36
//  #05 //020   ----------------------------------------
 BYTE   W96
//  #05 //021   ----------------------------------------
 BYTE   W96
//  #05 //022   ----------------------------------------
 BYTE   W96
//  #05 //023   ----------------------------------------
 BYTE   W96
//  #05 //024   ----------------------------------------
 BYTE   W96
//  #05 //025   ----------------------------------------
 BYTE   W96
//  #05 //026   ----------------------------------------
 BYTE   W72
 BYTE   Fs4  v100
 BYTE   W06
 BYTE   Gs4  v104
 BYTE   W06
 BYTE   An4  v108
 BYTE   W06
 BYTE   As4  v112
 BYTE   W06
//  #05 //027   ----------------------------------------
 BYTE   Bn4  v124
 BYTE   W06
 BYTE   An4  v112
 BYTE   W06
 BYTE   Gs4  v108
 BYTE   W06
 BYTE   Fs4  v104
 BYTE   W06
 BYTE   En4  v100
 BYTE   W06
 BYTE   Ds4  v096
 BYTE   W06
 BYTE   Cs4  v092
 BYTE   W06
 BYTE   N28  Bn3  v088
 BYTE   W54
//  #05 //028   ----------------------------------------
 BYTE   W96
//  #05 //029   ----------------------------------------
 BYTE   W96
//  #05 //030   ----------------------------------------
 BYTE   W96
//  #05 //031   ----------------------------------------
 BYTE   W96
//  #05 //032   ----------------------------------------
 BYTE   W96
//  #05 //033   ----------------------------------------
 BYTE   W96
//  #05 //034   ----------------------------------------
 BYTE   W12
 BYTE   N24  An4  v100
 BYTE   W24
 BYTE   TIE  En5  v104
 BYTE   W60
//  #05 //035   ----------------------------------------
 BYTE   N90  Fs3  v072
 BYTE   W72
 BYTE   EOT
 BYTE   En5
 BYTE   W24
//  #05 //036   ----------------------------------------
 BYTE   W96
//  #05 //037   ----------------------------------------
 BYTE   W96
//  #05 //038   ----------------------------------------
 BYTE   W96
//  #05 //039   ----------------------------------------
 BYTE   W96
//  #05 //040   ----------------------------------------
 BYTE   W48
 BYTE   N03  Gs4  v104
 BYTE   W03
 BYTE   N04  As4  v100
 BYTE   W04
 BYTE   Cn5  v104
 BYTE   W05
 BYTE   N03  Dn5  v108
 BYTE   W03
 BYTE   N04  Ds5
 BYTE   W04
 BYTE   Fn5  v112
 BYTE   W05
 BYTE   N03  Gn5  v116
 BYTE   W03
 BYTE   N04  Fn5  v112
 BYTE   W04
 BYTE   Ds5
 BYTE   W05
 BYTE   N03  Dn5  v108
 BYTE   W03
 BYTE   N04  Cn5  v104
 BYTE   W04
 BYTE   As4
 BYTE   W05
//  #05 //041   ----------------------------------------
 BYTE   N05  Gs4  v108
 BYTE   W06
 BYTE   As4  v096
 BYTE   W06
 BYTE   N04  Gs4  v092
 BYTE   W06
 BYTE   As4
 BYTE   W06
 BYTE   Gs4  v088
 BYTE   W05
 BYTE   As4  v084
 BYTE   W06
 BYTE   Gs4
 BYTE   W05
 BYTE   As4  v080
 BYTE   W06
 BYTE   Gs4  v076
 BYTE   W06
 BYTE   As4  v072
 BYTE   W06
 BYTE   Gs4
 BYTE   W06
 BYTE   N03  As4  v068
 BYTE   W32
//  #05 //042   ----------------------------------------
 BYTE   W24
 BYTE   N06  Dn4  v100
 BYTE   W06
 BYTE   Fn4
 BYTE   W06
 BYTE   Gn4  v104
 BYTE   W06
 BYTE   An4
 BYTE   W06
 BYTE   N32  As4  v108
 BYTE   W36
 BYTE   N60  Bn4  v124
 BYTE   W12
//  #05 //043   ----------------------------------------
 BYTE   W48
 BYTE   N44  Ds5  v092
 BYTE   W48
//  #05 //044   ----------------------------------------
 BYTE   W96
//  #05 //045   ----------------------------------------
 BYTE   W96
//  #05 //046   ----------------------------------------
 BYTE   W96
//  #05 //047   ----------------------------------------
 BYTE   W96
//  #05 //048   ----------------------------------------
 BYTE   W96
//  #05 //049   ----------------------------------------
 BYTE   W96
//  #05 //050   ----------------------------------------
 BYTE   W96
//  #05 //051   ----------------------------------------
 BYTE   W24
 BYTE   N03  Gn4  v100
 BYTE   W03
 BYTE   N04  An4
 BYTE   W04
 BYTE   Bn4  v104
 BYTE   W05
 BYTE   N03  Cn5  v108
 BYTE   W03
 BYTE   N04  Dn5
 BYTE   W04
 BYTE   En5  v112
 BYTE   W05
 BYTE   N03  Fs5  v120
 BYTE   W03
 BYTE   N04  En5  v112
 BYTE   W04
 BYTE   Dn5
 BYTE   W05
 BYTE   N03  Cn5  v108
 BYTE   W03
 BYTE   N04  Bn4  v104
 BYTE   W04
 BYTE   N03  An4
 BYTE   W28
 BYTE   W01
//  #05 //052   ----------------------------------------
 BYTE   W96
//  #05 //053   ----------------------------------------
 BYTE   W96
//  #05 //054   ----------------------------------------
 BYTE   W96
//  #05 //055   ----------------------------------------
 BYTE   W24
 BYTE   N24  Gn3  v116
 BYTE   N03  Gn4  v100
 BYTE   W03
 BYTE   An4  v108
 BYTE   W03
 BYTE   Bn4  v112
 BYTE   W04
 BYTE   Cn5  v116
 BYTE   W03
 BYTE   Dn5  v120
 BYTE   W04
 BYTE   En5  v124
 BYTE   W03
 BYTE   Fs5  v127
 BYTE   W04
 BYTE   Gn5
 BYTE   W03
 BYTE   Fs5  v124
 BYTE   W03
 BYTE   En5
 BYTE   W04
 BYTE   Dn5  v120
 BYTE   W03
 BYTE   Cn5  v112
 BYTE   W04
 BYTE   Bn4  v108
 BYTE   W03
 BYTE   An4  v104
 BYTE   W28
//  #05 //056   ----------------------------------------
 BYTE   W96
//  #05 //057   ----------------------------------------
 BYTE   W96
//  #05 //058   ----------------------------------------
 BYTE   W96
//  #05 //059   ----------------------------------------
 BYTE   W96
//  #05 //060   ----------------------------------------
 BYTE   W96
//  #05 //061   ----------------------------------------
 BYTE   W96
//  #05 //062   ----------------------------------------
 BYTE   W96
//  #05 //063   ----------------------------------------
 BYTE   W96
//  #05 //064   ----------------------------------------
 BYTE   W96
//  #05 //065   ----------------------------------------
 BYTE   W96
//  #05 //066   ----------------------------------------
 BYTE   W96
//  #05 //067   ----------------------------------------
 BYTE   W72
 BYTE   W72
//  #05 //068   ----------------------------------------
 BYTE   W72
 BYTE   W72
//  #05 //069   ----------------------------------------
 BYTE   W72
 BYTE   W24
//  #05 //070   ----------------------------------------
 BYTE   GoTo
  POIN2 Label_0104AD50
 BYTE   FINE

//**************** Track 6 (Midi-Chn.5) ****************//

Engage_006:
//  #06 //000   ----------------------------------------
 BYTE   KEYSH   Engage_key+0
 BYTE   VOICE   57
 BYTE   VOL   30*Engage_mvl/mxv
 BYTE   PAN   c_v-1
 BYTE   PAN   c_v-1
 BYTE   W96
//  #06 //001   ----------------------------------------
Label_0104B506:
 BYTE   W96
//  #06 //002   ----------------------------------------
 BYTE   W96
//  #06 //003   ----------------------------------------
 BYTE   W96
//  #06 //004   ----------------------------------------
 BYTE   W96
//  #06 //005   ----------------------------------------
 BYTE   W96
//  #06 //006   ----------------------------------------
 BYTE   W96
//  #06 //007   ----------------------------------------
 BYTE   W96
//  #06 //008   ----------------------------------------
 BYTE   W48
 BYTE   TIE  En3  v076
 BYTE   W48
//  #06 //009   ----------------------------------------
 BYTE   Cn3
 BYTE   W96
//  #06 //010   ----------------------------------------
 BYTE   W96
//  #06 //011   ----------------------------------------
 BYTE   W48
 BYTE   EOT
 BYTE   EOT
 BYTE   En3
 BYTE   W48
//  #06 //012   ----------------------------------------
 BYTE   W96
//  #06 //013   ----------------------------------------
 BYTE   W96
//  #06 //014   ----------------------------------------
 BYTE   W96
//  #06 //015   ----------------------------------------
 BYTE   W96
//  #06 //016   ----------------------------------------
 BYTE   TIE  Fs2  v060
 BYTE   TIE  An2
 BYTE   W96
//  #06 //017   ----------------------------------------
 BYTE   N90  En2  v088
 BYTE   N90  Gs2
 BYTE   W01
 BYTE   EOT
 BYTE   Fs2  v057
 BYTE   W92
 BYTE   W03
//  #06 //018   ----------------------------------------
 BYTE   TIE  Fs2  v068
 BYTE   TIE  Bn2
 BYTE   W96
//  #06 //019   ----------------------------------------
 BYTE   N05  Gs2  v092
 BYTE   N05  Cs3
 BYTE   W01
 BYTE   EOT
 BYTE   Fs2  v059
 BYTE   W44
 BYTE   W03
 BYTE   N06  Cs3  v124
 BYTE   N06  Gs3
 BYTE   W12
 BYTE   Cs3  v120
 BYTE   N06  Gs3
 BYTE   W36
//  #06 //020   ----------------------------------------
 BYTE   Fs2  v104
 BYTE   N06  An2
 BYTE   W12
 BYTE   Fs2  v100
 BYTE   N06  An2
 BYTE   W24
 BYTE   Fs2
 BYTE   N06  An2
 BYTE   W12
 BYTE   Fs2  v104
 BYTE   N06  An2
 BYTE   W12
 BYTE   Fs2  v100
 BYTE   N06  An2
 BYTE   W24
 BYTE   Fs2
 BYTE   N06  An2
 BYTE   W12
//  #06 //021   ----------------------------------------
 BYTE   Fs2  v104
 BYTE   N06  An2
 BYTE   W12
 BYTE   Fs2  v100
 BYTE   N06  An2
 BYTE   W24
 BYTE   Fs2
 BYTE   N36  An2  v088
 BYTE   W12
 BYTE   N06  Fs2  v104
 BYTE   W12
 BYTE   Fs2  v100
 BYTE   W24
 BYTE   N06
 BYTE   N06  An2
 BYTE   W12
//  #06 //022   ----------------------------------------
 BYTE   En2  v104
 BYTE   N06  Gs2
 BYTE   W12
 BYTE   En2  v100
 BYTE   N06  Gs2
 BYTE   W12
 BYTE   N24  Bn2  v092
 BYTE   W12
 BYTE   N06  En2  v100
 BYTE   N06  Gs2
 BYTE   W12
 BYTE   En2  v104
 BYTE   N06  Gs2
 BYTE   W12
 BYTE   En2  v100
 BYTE   N06  Gs2
 BYTE   W24
 BYTE   En2
 BYTE   N06  Gs2
 BYTE   W12
//  #06 //023   ----------------------------------------
 BYTE   Gs2  v108
 BYTE   N06  Bn2
 BYTE   W12
 BYTE   Gs2  v100
 BYTE   N06  Bn2
 BYTE   W24
 BYTE   Gs2
 BYTE   N06  Bn2
 BYTE   W12
 BYTE   Gs2  v104
 BYTE   N06  Bn2
 BYTE   W12
 BYTE   Gs2  v100
 BYTE   N06  Bn2
 BYTE   W24
 BYTE   Gs2
 BYTE   N06  Bn2
 BYTE   W12
//  #06 //024   ----------------------------------------
 BYTE   An2  v108
 BYTE   N06  Cs3
 BYTE   W12
 BYTE   An2  v100
 BYTE   N06  Cs3
 BYTE   W24
 BYTE   An2
 BYTE   N06  Cs3
 BYTE   W12
 BYTE   An2  v104
 BYTE   N06  Cs3
 BYTE   W12
 BYTE   An2  v100
 BYTE   N06  Cs3
 BYTE   W24
 BYTE   An2
 BYTE   N06  Cs3
 BYTE   W12
//  #06 //025   ----------------------------------------
 BYTE   Gs2  v104
 BYTE   N06  Bn2
 BYTE   W12
 BYTE   Gs2  v096
 BYTE   N06  Bn2
 BYTE   W24
 BYTE   Gs2  v100
 BYTE   N06  Bn2
 BYTE   W12
 BYTE   Gs2  v104
 BYTE   N06  Bn2
 BYTE   W12
 BYTE   Gs2  v100
 BYTE   N06  Bn2
 BYTE   W24
 BYTE   Gs2
 BYTE   N06  Bn2
 BYTE   W12
//  #06 //026   ----------------------------------------
 BYTE   Fs2  v104
 BYTE   N06  Bn2
 BYTE   W12
 BYTE   Fs2  v100
 BYTE   N06  Bn2
 BYTE   W24
 BYTE   Fs2
 BYTE   N06  Bn2
 BYTE   W12
 BYTE   Fs2  v104
 BYTE   N06  Bn2
 BYTE   W12
 BYTE   Fs2  v100
 BYTE   N06  Bn2
 BYTE   W24
 BYTE   Fs2
 BYTE   N06  Bn2
 BYTE   W12
//  #06 //027   ----------------------------------------
 BYTE   N72  Fs2  v116
 BYTE   N72  Bn2
 BYTE   N24  En3  v108
 BYTE   W24
 BYTE   Ds3  v100
 BYTE   W24
 BYTE   Cs3
 BYTE   W24
 BYTE   Bn2  v080
 BYTE   W24
//  #06 //028   ----------------------------------------
 BYTE   W96
//  #06 //029   ----------------------------------------
 BYTE   W96
//  #06 //030   ----------------------------------------
 BYTE   W96
//  #06 //031   ----------------------------------------
 BYTE   W96
//  #06 //032   ----------------------------------------
 BYTE   W96
//  #06 //033   ----------------------------------------
 BYTE   W96
//  #06 //034   ----------------------------------------
 BYTE   W96
//  #06 //035   ----------------------------------------
 BYTE   N68  Fs3  v088
 BYTE   W96
//  #06 //036   ----------------------------------------
 BYTE   TIE  An2
 BYTE   W96
//  #06 //037   ----------------------------------------
 BYTE   N48  Dn3  v092
 BYTE   W01
 BYTE   EOT
 BYTE   An2
 BYTE   W44
 BYTE   W03
 BYTE   N48  An2  v064
 BYTE   N48  Fn3  v092
 BYTE   W48
//  #06 //038   ----------------------------------------
 BYTE   TIE  As2
 BYTE   TIE  Fn3
 BYTE   W96
//  #06 //039   ----------------------------------------
 BYTE   N48  An2  v064
 BYTE   N48  Dn3
 BYTE   W01
 BYTE   EOT
 BYTE   As2  v065
 BYTE   W44
 BYTE   W03
 BYTE   N44  As2  v080
 BYTE   W48
//  #06 //040   ----------------------------------------
 BYTE   N36  Cn3  v127
 BYTE   N36  Ds3
 BYTE   W36
 BYTE   Dn3  v124
 BYTE   N36  Fn3
 BYTE   W36
 BYTE   N96  Ds3  v112
 BYTE   N96  Gn3  v116
 BYTE   W24
//  #06 //041   ----------------------------------------
 BYTE   W96
//  #06 //042   ----------------------------------------
 BYTE   N84  Dn3  v104
 BYTE   N84  Fn3
 BYTE   W84
 BYTE   N60  Dn3  v120
 BYTE   N60  Gn3
 BYTE   W12
//  #06 //043   ----------------------------------------
 BYTE   W48
 BYTE   BEND   c_v-62
 BYTE   W01
 BYTE   BEND   c_v-59
 BYTE   N44  Bn3  v127
 BYTE   W01
 BYTE   BEND   c_v-57
 BYTE   W01
 BYTE   BEND   c_v-54
 BYTE   W01
 BYTE   BEND   c_v-51
 BYTE   W01
 BYTE   BEND   c_v-49
 BYTE   W01
 BYTE   BEND   c_v-46
 BYTE   W01
 BYTE   BEND   c_v-43
 BYTE   W01
 BYTE   BEND   c_v-41
 BYTE   W01
 BYTE   BEND   c_v-38
 BYTE   W01
 BYTE   BEND   c_v-35
 BYTE   W01
 BYTE   BEND   c_v-33
 BYTE   W01
 BYTE   BEND   c_v-30
 BYTE   W01
 BYTE   BEND   c_v-27
 BYTE   W01
 BYTE   BEND   c_v-25
 BYTE   W01
 BYTE   BEND   c_v-22
 BYTE   W01
 BYTE   BEND   c_v-19
 BYTE   W01
 BYTE   BEND   c_v-17
 BYTE   W01
 BYTE   BEND   c_v-14
 BYTE   W01
 BYTE   BEND   c_v-11
 BYTE   W01
 BYTE   BEND   c_v-9
 BYTE   W01
 BYTE   BEND   c_v-6
 BYTE   W01
 BYTE   BEND   c_v-3
 BYTE   W01
 BYTE   BEND   c_v-1
 BYTE   W01
 BYTE   BEND   c_v+0
 BYTE   W24
//  #06 //044   ----------------------------------------
 BYTE   W96
//  #06 //045   ----------------------------------------
 BYTE   W96
//  #06 //046   ----------------------------------------
 BYTE   W96
//  #06 //047   ----------------------------------------
 BYTE   W96
//  #06 //048   ----------------------------------------
 BYTE   W96
//  #06 //049   ----------------------------------------
 BYTE   W96
//  #06 //050   ----------------------------------------
 BYTE   W96
//  #06 //051   ----------------------------------------
 BYTE   W48
 BYTE   BEND   c_v-62
 BYTE   W01
 BYTE   BEND   c_v-59
 BYTE   W01
 BYTE   BEND   c_v-57
 BYTE   W01
 BYTE   BEND   c_v-54
 BYTE   W01
 BYTE   BEND   c_v-51
 BYTE   W01
 BYTE   BEND   c_v-49
 BYTE   W01
 BYTE   BEND   c_v-46
 BYTE   W01
 BYTE   BEND   c_v-43
 BYTE   W01
 BYTE   BEND   c_v-41
 BYTE   W01
 BYTE   BEND   c_v-38
 BYTE   W01
 BYTE   BEND   c_v-35
 BYTE   W01
 BYTE   BEND   c_v-33
 BYTE   W01
 BYTE   BEND   c_v-30
 BYTE   W01
 BYTE   BEND   c_v-27
 BYTE   W01
 BYTE   BEND   c_v-25
 BYTE   W01
 BYTE   BEND   c_v-22
 BYTE   W01
 BYTE   BEND   c_v-19
 BYTE   W01
 BYTE   BEND   c_v-17
 BYTE   W01
 BYTE   BEND   c_v-14
 BYTE   W01
 BYTE   BEND   c_v-11
 BYTE   W01
 BYTE   BEND   c_v-9
 BYTE   W01
 BYTE   BEND   c_v-6
 BYTE   W01
 BYTE   BEND   c_v-3
 BYTE   W01
 BYTE   BEND   c_v-1
 BYTE   W01
 BYTE   BEND   c_v+0
 BYTE   W24
//  #06 //052   ----------------------------------------
 BYTE   W96
//  #06 //053   ----------------------------------------
 BYTE   W96
//  #06 //054   ----------------------------------------
 BYTE   W96
//  #06 //055   ----------------------------------------
 BYTE   W96
//  #06 //056   ----------------------------------------
 BYTE   W96
//  #06 //057   ----------------------------------------
 BYTE   W96
//  #06 //058   ----------------------------------------
 BYTE   W96
//  #06 //059   ----------------------------------------
 BYTE   W96
//  #06 //060   ----------------------------------------
 BYTE   TIE  An2  v120
 BYTE   N48  Fn3  v127
 BYTE   W48
 BYTE   An3
 BYTE   W48
//  #06 //061   ----------------------------------------
 BYTE   Bn3
 BYTE   W40
 BYTE   EOT
 BYTE   An2
 BYTE   W08
 BYTE   N06  Cn3
 BYTE   N06  Cn4
 BYTE   W12
 BYTE   Cn3
 BYTE   N06  Cn4
 BYTE   W36
//  #06 //062   ----------------------------------------
 BYTE   W96
//  #06 //063   ----------------------------------------
 BYTE   W96
//  #06 //064   ----------------------------------------
 BYTE   W96
//  #06 //065   ----------------------------------------
 BYTE   W96
//  #06 //066   ----------------------------------------
 BYTE   W96
//  #06 //067   ----------------------------------------
 BYTE   W72
 BYTE   W72
//  #06 //068   ----------------------------------------
 BYTE   W72
 BYTE   W72
//  #06 //069   ----------------------------------------
 BYTE   W72
 BYTE   W24
//  #06 //070   ----------------------------------------
 BYTE   GoTo
  POIN2 Label_0104B506
 BYTE   FINE

//**************** Track 7 (Midi-Chn.6) ****************//

Engage_007:
//  #07 //000   ----------------------------------------
 BYTE   KEYSH   Engage_key+0
 BYTE   VOICE   61
 BYTE   VOL   37*Engage_mvl/mxv
 BYTE   PAN   c_v-1
 BYTE   W96
//  #07 //001   ----------------------------------------
Label_0104A6B1:
 BYTE   W96
//  #07 //002   ----------------------------------------
 BYTE   W96
//  #07 //003   ----------------------------------------
 BYTE   N48  Fs2  v120
 BYTE   W48
 BYTE   N24  Bn2  v124
 BYTE   W24
 BYTE   Fs3
 BYTE   W24
//  #07 //004   ----------------------------------------
 BYTE   N48  Dn3  v084
 BYTE   N48  Fs3  v127
 BYTE   W48
 BYTE   N44  Fs2  v076
 BYTE   N44  Cs3  v116
 BYTE   W48
//  #07 //005   ----------------------------------------
 BYTE   W96
//  #07 //006   ----------------------------------------
 BYTE   W96
//  #07 //007   ----------------------------------------
 BYTE   W96
//  #07 //008   ----------------------------------------
 BYTE   W96
//  #07 //009   ----------------------------------------
 BYTE   N42  An1  v124
 BYTE   N42  An2
 BYTE   W42
 BYTE   W01
 BYTE   N04  Cn2  v108
 BYTE   N04  Cn3
 BYTE   W05
 BYTE   N06  Cn2  v112
 BYTE   N06  Cn3
 BYTE   W24
 BYTE   N36  Fn2  v127
 BYTE   N36  Fn3
 BYTE   W24
//  #07 //010   ----------------------------------------
 BYTE   W12
 BYTE   N12  Cn2  v116
 BYTE   N12  Cn3
 BYTE   W12
 BYTE   N72  An2  v127
 BYTE   N72  An3
 BYTE   W72
//  #07 //011   ----------------------------------------
 BYTE   N44  Gn2  v092
 BYTE   N44  Gn3
 BYTE   W96
//  #07 //012   ----------------------------------------
 BYTE   W96
//  #07 //013   ----------------------------------------
 BYTE   W96
//  #07 //014   ----------------------------------------
 BYTE   W96
//  #07 //015   ----------------------------------------
 BYTE   W96
//  #07 //016   ----------------------------------------
 BYTE   W96
//  #07 //017   ----------------------------------------
 BYTE   W96
//  #07 //018   ----------------------------------------
 BYTE   W96
//  #07 //019   ----------------------------------------
 BYTE   W96
//  #07 //020   ----------------------------------------
 BYTE   W96
//  #07 //021   ----------------------------------------
 BYTE   W96
//  #07 //022   ----------------------------------------
 BYTE   W96
//  #07 //023   ----------------------------------------
 BYTE   W96
//  #07 //024   ----------------------------------------
 BYTE   W96
//  #07 //025   ----------------------------------------
 BYTE   W96
//  #07 //026   ----------------------------------------
 BYTE   W96
//  #07 //027   ----------------------------------------
 BYTE   W96
//  #07 //028   ----------------------------------------
 BYTE   W96
//  #07 //029   ----------------------------------------
 BYTE   W96
//  #07 //030   ----------------------------------------
 BYTE   W96
//  #07 //031   ----------------------------------------
 BYTE   W96
//  #07 //032   ----------------------------------------
 BYTE   W96
//  #07 //033   ----------------------------------------
 BYTE   W96
//  #07 //034   ----------------------------------------
 BYTE   N84  Bn2  v076
 BYTE   W84
 BYTE   N06  Cs3  v096
 BYTE   W06
 BYTE   Dn3
 BYTE   W06
//  #07 //035   ----------------------------------------
 BYTE   N68  Cs3  v104
 BYTE   W96
//  #07 //036   ----------------------------------------
 BYTE   W96
//  #07 //037   ----------------------------------------
 BYTE   W96
//  #07 //038   ----------------------------------------
 BYTE   W96
//  #07 //039   ----------------------------------------
 BYTE   W96
//  #07 //040   ----------------------------------------
 BYTE   W96
//  #07 //041   ----------------------------------------
 BYTE   W96
//  #07 //042   ----------------------------------------
 BYTE   W40
 BYTE   W01
 BYTE   N03  As2  v084
 BYTE   N03  Dn3
 BYTE   W03
 BYTE   As2
 BYTE   N03  Dn3
 BYTE   W04
 BYTE   N36  As2  v088
 BYTE   N36  Dn3
 BYTE   W36
 BYTE   Bn2  v108
 BYTE   N36  Dn3
 BYTE   W12
//  #07 //043   ----------------------------------------
 BYTE   W96
//  #07 //044   ----------------------------------------
 BYTE   W96
//  #07 //045   ----------------------------------------
 BYTE   W96
//  #07 //046   ----------------------------------------
 BYTE   W96
//  #07 //047   ----------------------------------------
 BYTE   W96
//  #07 //048   ----------------------------------------
 BYTE   W96
//  #07 //049   ----------------------------------------
 BYTE   W96
//  #07 //050   ----------------------------------------
 BYTE   W96
//  #07 //051   ----------------------------------------
 BYTE   W96
//  #07 //052   ----------------------------------------
 BYTE   W96
//  #07 //053   ----------------------------------------
 BYTE   W96
//  #07 //054   ----------------------------------------
 BYTE   W96
//  #07 //055   ----------------------------------------
 BYTE   W96
//  #07 //056   ----------------------------------------
 BYTE   W96
//  #07 //057   ----------------------------------------
 BYTE   W96
//  #07 //058   ----------------------------------------
 BYTE   W96
//  #07 //059   ----------------------------------------
 BYTE   W96
//  #07 //060   ----------------------------------------
 BYTE   W96
//  #07 //061   ----------------------------------------
 BYTE   W96
//  #07 //062   ----------------------------------------
 BYTE   W96
//  #07 //063   ----------------------------------------
 BYTE   W96
//  #07 //064   ----------------------------------------
 BYTE   W96
//  #07 //065   ----------------------------------------
 BYTE   W96
//  #07 //066   ----------------------------------------
 BYTE   W96
//  #07 //067   ----------------------------------------
 BYTE   W72
 BYTE   W72
//  #07 //068   ----------------------------------------
 BYTE   W72
 BYTE   W72
//  #07 //069   ----------------------------------------
 BYTE   W72
 BYTE   W24
//  #07 //070   ----------------------------------------
 BYTE   GoTo
  POIN2 Label_0104A6B1
 BYTE   FINE

//**************** Track 8 (Midi-Chn.7) ****************//

Engage_008:
//  #08 //000   ----------------------------------------
 BYTE   KEYSH   Engage_key+0
 BYTE   VOICE   46
 BYTE   VOL   12*Engage_mvl/mxv
 BYTE   PAN   c_v-1
 BYTE   PAN   c_v-1
 BYTE   W96
//  #08 //001   ----------------------------------------
Label_0104B722:
 BYTE   W96
//  #08 //002   ----------------------------------------
 BYTE   W96
//  #08 //003   ----------------------------------------
 BYTE   W96
//  #08 //004   ----------------------------------------
 BYTE   W96
//  #08 //005   ----------------------------------------
 BYTE   N02  Bn2  v104
 BYTE   W02
 BYTE   Cn3  v100
 BYTE   W03
 BYTE   Dn3
 BYTE   W02
 BYTE   En3  v104
 BYTE   W03
 BYTE   Fn3
 BYTE   W03
 BYTE   Gn3
 BYTE   W02
 BYTE   An3
 BYTE   W03
 BYTE   Bn3  v108
 BYTE   W02
 BYTE   Cn4
 BYTE   W03
 BYTE   Dn4
 BYTE   W03
 BYTE   En4  v112
 BYTE   W02
 BYTE   Fn4
 BYTE   W03
 BYTE   Gn4
 BYTE   W03
 BYTE   An4
 BYTE   W02
 BYTE   Bn4  v116
 BYTE   W02
 BYTE   An4  v112
 BYTE   W03
 BYTE   Gn4
 BYTE   W02
 BYTE   Fn4
 BYTE   W03
 BYTE   En4
 BYTE   W03
 BYTE   Dn4  v108
 BYTE   W02
 BYTE   Cn4
 BYTE   W03
 BYTE   Bn3
 BYTE   W02
 BYTE   An3
 BYTE   W03
 BYTE   Gn3  v104
 BYTE   W03
 BYTE   Fn3
 BYTE   W02
 BYTE   En3
 BYTE   W03
 BYTE   Dn3  v100
 BYTE   W03
 BYTE   Cn3
 BYTE   W02
 BYTE   N22  Bn2
 BYTE   W24
//  #08 //006   ----------------------------------------
 BYTE   W96
//  #08 //007   ----------------------------------------
 BYTE   W96
//  #08 //008   ----------------------------------------
 BYTE   W96
//  #08 //009   ----------------------------------------
 BYTE   W96
//  #08 //010   ----------------------------------------
Label_0104B770:
 BYTE   N24  Fn1  v104
 BYTE   W24
 BYTE   Cn3  v124
 BYTE   W24
 BYTE   Cn2  v100
 BYTE   W24
 BYTE   Cn4  v127
 BYTE   W24
 BYTE   PEND 
//  #08 //011   ----------------------------------------
 BYTE   N48  Cn3  v108
 BYTE   W48
 BYTE   N11  Bn4  v127
 BYTE   W48
//  #08 //012   ----------------------------------------
 BYTE   W96
//  #08 //013   ----------------------------------------
 BYTE   W96
//  #08 //014   ----------------------------------------
 BYTE   W96
//  #08 //015   ----------------------------------------
 BYTE   W96
//  #08 //016   ----------------------------------------
 BYTE   W96
//  #08 //017   ----------------------------------------
 BYTE   W96
//  #08 //018   ----------------------------------------
 BYTE   W96
//  #08 //019   ----------------------------------------
 BYTE   W48
 BYTE   N06  Cs3  v124
 BYTE   N06  Cs4
 BYTE   W12
 BYTE   Cs3  v120
 BYTE   N06  Cs4
 BYTE   W36
//  #08 //020   ----------------------------------------
 BYTE   N12  Fs0  v104
 BYTE   W12
 BYTE   Cs1
 BYTE   W12
 BYTE   Fs1  v112
 BYTE   W12
 BYTE   An1
 BYTE   W12
 BYTE   Cs2  v100
 BYTE   W12
 BYTE   Fs2
 BYTE   W12
 BYTE   An2  v104
 BYTE   W12
 BYTE   Cs3  v112
 BYTE   W12
//  #08 //021   ----------------------------------------
 BYTE   Dn1  v104
 BYTE   W12
 BYTE   Fs1
 BYTE   W12
 BYTE   An1  v112
 BYTE   W12
 BYTE   Cs2
 BYTE   W12
 BYTE   Fs2  v100
 BYTE   W12
 BYTE   An2  v104
 BYTE   W12
 BYTE   Cs3  v112
 BYTE   W12
 BYTE   Fs3
 BYTE   W12
//  #08 //022   ----------------------------------------
 BYTE   En0  v096
 BYTE   W12
 BYTE   Bn0
 BYTE   W12
 BYTE   En1  v108
 BYTE   W12
 BYTE   Gs1  v112
 BYTE   W12
 BYTE   Bn1  v088
 BYTE   W12
 BYTE   En2  v092
 BYTE   W12
 BYTE   Gs2  v104
 BYTE   W12
 BYTE   Bn2  v112
 BYTE   W12
//  #08 //023   ----------------------------------------
 BYTE   Cs1  v104
 BYTE   W12
 BYTE   En1
 BYTE   W12
 BYTE   Gs1  v112
 BYTE   W12
 BYTE   Bn1
 BYTE   W12
 BYTE   En2  v100
 BYTE   W12
 BYTE   Gs2  v104
 BYTE   W12
 BYTE   Bn2  v108
 BYTE   W12
 BYTE   En3  v112
 BYTE   W12
//  #08 //024   ----------------------------------------
 BYTE   Dn1  v100
 BYTE   W12
 BYTE   Fs1
 BYTE   W12
 BYTE   An1  v108
 BYTE   W12
 BYTE   Cs2  v112
 BYTE   W12
 BYTE   Fs2  v096
 BYTE   W12
 BYTE   An2  v100
 BYTE   W12
 BYTE   Cs3  v108
 BYTE   W12
 BYTE   Fs3  v112
 BYTE   W12
//  #08 //025   ----------------------------------------
 BYTE   En1  v100
 BYTE   W12
 BYTE   Gs1
 BYTE   W12
 BYTE   Bn1  v108
 BYTE   W12
 BYTE   En2  v112
 BYTE   W12
 BYTE   Gs2  v096
 BYTE   W12
 BYTE   Bn2  v100
 BYTE   W12
 BYTE   N24  En3  v112
 BYTE   W24
//  #08 //026   ----------------------------------------
 BYTE   W96
//  #08 //027   ----------------------------------------
 BYTE   W48
 BYTE   N02  Bn4  v120
 BYTE   W02
 BYTE   An4
 BYTE   W02
 BYTE   Gn4  v112
 BYTE   W03
 BYTE   Fn4
 BYTE   W02
 BYTE   En4
 BYTE   W02
 BYTE   Dn4
 BYTE   W03
 BYTE   Cn4
 BYTE   W02
 BYTE   Bn3  v108
 BYTE   W02
 BYTE   An3
 BYTE   W03
 BYTE   Gn3
 BYTE   W02
 BYTE   Fn3
 BYTE   W03
 BYTE   En3
 BYTE   W02
 BYTE   Dn3
 BYTE   W02
 BYTE   Cn3  v104
 BYTE   W03
 BYTE   Bn2
 BYTE   W02
 BYTE   An2
 BYTE   W02
 BYTE   Gn2
 BYTE   W03
 BYTE   Fn2
 BYTE   W02
 BYTE   En2  v100
 BYTE   W03
 BYTE   Dn2
 BYTE   W02
 BYTE   Cn2
 BYTE   W01
//  #08 //028   ----------------------------------------
 BYTE   W96
//  #08 //029   ----------------------------------------
 BYTE   W96
//  #08 //030   ----------------------------------------
 BYTE   W96
//  #08 //031   ----------------------------------------
 BYTE   W96
//  #08 //032   ----------------------------------------
 BYTE   W96
//  #08 //033   ----------------------------------------
 BYTE   W96
//  #08 //034   ----------------------------------------
 BYTE   N12  Gs2  v104
 BYTE   N12  Gs3
 BYTE   W12
 BYTE   N24  An2  v100
 BYTE   N24  An3
 BYTE   W24
 BYTE   TIE  En3  v108
 BYTE   W05
 BYTE   Cs4
 BYTE   W06
 BYTE   En4
 BYTE   W48
 BYTE   W01
//  #08 //035   ----------------------------------------
 BYTE   W68
 BYTE   W03
 BYTE   EOT
 BYTE   Cs4  v076
 BYTE   W01
 BYTE   En3
 BYTE   W24
//  #08 //036   ----------------------------------------
 BYTE   N24  An2  v104
 BYTE   N24  Dn3
 BYTE   W24
 BYTE   N12  An2  v100
 BYTE   N12  Dn3
 BYTE   W12
 BYTE   Gn2  v096
 BYTE   N12  Cn3
 BYTE   W12
 BYTE   An2  v104
 BYTE   N12  Dn3
 BYTE   W12
 BYTE   N01  Dn3  v112
 BYTE   N12  Gn3
 BYTE   W12
 BYTE   N22  An2  v096
 BYTE   N01  Dn3
 BYTE   W24
//  #08 //037   ----------------------------------------
 BYTE   N12  An2  v104
 BYTE   N12  Dn3
 BYTE   W12
 BYTE   Gn2  v092
 BYTE   N12  Cn3
 BYTE   W12
 BYTE   An2  v100
 BYTE   N12  Dn3
 BYTE   W12
 BYTE   N01  Dn3  v112
 BYTE   N12  Gn3
 BYTE   W12
 BYTE   N22  An2  v100
 BYTE   N01  Dn3
 BYTE   W24
 BYTE   N12  An2  v096
 BYTE   N12  Dn3
 BYTE   W12
 BYTE   Gn2  v088
 BYTE   N12  Cn3
 BYTE   W12
//  #08 //038   ----------------------------------------
 BYTE   As2  v108
 BYTE   N12  Dn3  v104
 BYTE   W12
 BYTE   N01  Dn3  v112
 BYTE   N12  Gn3
 BYTE   W12
 BYTE   N22  As2  v100
 BYTE   N01  Dn3  v096
 BYTE   W24
 BYTE   N12  As2  v104
 BYTE   N12  Dn3  v100
 BYTE   W12
 BYTE   N01  Dn3  v112
 BYTE   N12  Gn3
 BYTE   W12
 BYTE   Fn3
 BYTE   N12  An3
 BYTE   W12
 BYTE   Gn3
 BYTE   N12  As3
 BYTE   W12
//  #08 //039   ----------------------------------------
 BYTE   An3  v120
 BYTE   N12  Cn4
 BYTE   W12
 BYTE   Fn3  v108
 BYTE   N01  An3
 BYTE   W12
 BYTE   N22  Cn3  v088
 BYTE   N01  Fn3
 BYTE   W24
 BYTE   N02  Fn4  v127
 BYTE   W02
 BYTE   En4
 BYTE   W03
 BYTE   Dn4  v112
 BYTE   W03
 BYTE   Cn4
 BYTE   W03
 BYTE   Bn3
 BYTE   W03
 BYTE   An3
 BYTE   W03
 BYTE   Gn3  v108
 BYTE   W03
 BYTE   Fn3
 BYTE   W02
 BYTE   En3
 BYTE   W03
 BYTE   Dn3
 BYTE   W03
 BYTE   Cn3  v104
 BYTE   W03
 BYTE   Bn2
 BYTE   W03
 BYTE   An2
 BYTE   W03
 BYTE   Gn2
 BYTE   W03
 BYTE   Fn2  v100
 BYTE   W03
 BYTE   En2
 BYTE   W03
 BYTE   Dn2
 BYTE   W02
//  #08 //040   ----------------------------------------
 BYTE   N44  Cn2  v088
 BYTE   W48
 BYTE   N24  As2  v104
 BYTE   N02  Bn2
 BYTE   W02
 BYTE   Cn3  v100
 BYTE   W02
 BYTE   Dn3
 BYTE   W02
 BYTE   En3  v104
 BYTE   W02
 BYTE   Fn3
 BYTE   W03
 BYTE   Gn3  v108
 BYTE   W02
 BYTE   An3
 BYTE   W02
 BYTE   Bn3
 BYTE   W02
 BYTE   Cn4  v112
 BYTE   W02
 BYTE   Dn4
 BYTE   W03
 BYTE   En4
 BYTE   W02
 BYTE   N01  Fn4  v127
 BYTE   W01
 BYTE   En4  v112
 BYTE   W02
 BYTE   Dn4
 BYTE   W02
 BYTE   Cn4
 BYTE   W02
 BYTE   Bn3  v108
 BYTE   W02
 BYTE   An3
 BYTE   W02
 BYTE   Gn3
 BYTE   W02
 BYTE   Fn3
 BYTE   W02
 BYTE   En3  v104
 BYTE   W01
 BYTE   Dn3
 BYTE   W02
 BYTE   Cn3
 BYTE   W02
 BYTE   Bn2  v100
 BYTE   W02
 BYTE   An2
 BYTE   W02
//  #08 //041   ----------------------------------------
 BYTE   N90  Gs2  v104
 BYTE   W96
//  #08 //042   ----------------------------------------
 BYTE   W96
//  #08 //043   ----------------------------------------
 BYTE   W48
 BYTE   N02  Bn4  v120
 BYTE   W02
 BYTE   An4
 BYTE   W03
 BYTE   Gn4  v112
 BYTE   W03
 BYTE   Fn4
 BYTE   W02
 BYTE   En4
 BYTE   W03
 BYTE   Dn4
 BYTE   W03
 BYTE   Cn4  v108
 BYTE   W03
 BYTE   Bn3
 BYTE   W02
 BYTE   An3
 BYTE   W03
 BYTE   Gn3
 BYTE   W03
 BYTE   Fn3
 BYTE   W02
 BYTE   En3  v104
 BYTE   W03
 BYTE   Dn3
 BYTE   W03
 BYTE   Cn3
 BYTE   W03
 BYTE   Bn2
 BYTE   W02
 BYTE   An2
 BYTE   W03
 BYTE   Gn2  v100
 BYTE   W03
 BYTE   Fn2
 BYTE   W02
//  #08 //044   ----------------------------------------
 BYTE   N90  En2  v104
 BYTE   W96
//  #08 //045   ----------------------------------------
 BYTE   W96
//  #08 //046   ----------------------------------------
 BYTE   W96
//  #08 //047   ----------------------------------------
 BYTE   W96
//  #08 //048   ----------------------------------------
 BYTE   W96
//  #08 //049   ----------------------------------------
 BYTE   W96
//  #08 //050   ----------------------------------------
 BYTE   W96
//  #08 //051   ----------------------------------------
 BYTE   W24
 BYTE   N01  Bn2  v100
 BYTE   W01
 BYTE   Cn3
 BYTE   W03
 BYTE   Dn3
 BYTE   W02
 BYTE   En3  v104
 BYTE   W02
 BYTE   Fn3
 BYTE   W02
 BYTE   Gn3
 BYTE   W02
 BYTE   An3  v108
 BYTE   W02
 BYTE   Bn3
 BYTE   W02
 BYTE   Cn4
 BYTE   W02
 BYTE   Dn4  v112
 BYTE   W02
 BYTE   En4
 BYTE   W02
 BYTE   Fn4
 BYTE   W02
 BYTE   Fn4  v120
 BYTE   N24  Fs4
 BYTE   W02
 BYTE   N02  En4  v112
 BYTE   W02
 BYTE   Dn4
 BYTE   W02
 BYTE   Cn4
 BYTE   W02
 BYTE   Bn3  v108
 BYTE   W03
 BYTE   An3
 BYTE   W02
 BYTE   Gn3
 BYTE   W02
 BYTE   Fn3  v104
 BYTE   W02
 BYTE   En3
 BYTE   W02
 BYTE   Dn3  v100
 BYTE   W03
 BYTE   Cn3
 BYTE   W02
 BYTE   N22  Bn2  v092
 BYTE   W24
//  #08 //052   ----------------------------------------
 BYTE   N72  Fs3  v120
 BYTE   N72  Fs4  v127
 BYTE   W72
 BYTE   N24  En3  v112
 BYTE   N24  En4  v116
 BYTE   W24
//  #08 //053   ----------------------------------------
 BYTE   Fs3  v124
 BYTE   N24  Fs4
 BYTE   W24
 BYTE   Gn3  v116
 BYTE   N24  Gn4  v120
 BYTE   W24
 BYTE   Bn2  v104
 BYTE   N24  Bn3  v108
 BYTE   W24
 BYTE   Bn3  v127
 BYTE   N24  Bn4
 BYTE   W24
//  #08 //054   ----------------------------------------
 BYTE   N72  Fs3  v120
 BYTE   N72  Fs4
 BYTE   W72
 BYTE   N24  En3  v112
 BYTE   N24  En4
 BYTE   W24
//  #08 //055   ----------------------------------------
 BYTE   Fs3  v124
 BYTE   N24  Fs4
 BYTE   W24
 BYTE   N01  Gn3  v100
 BYTE   N12  Gn4  v116
 BYTE   W01
 BYTE   N01  An3  v100
 BYTE   W02
 BYTE   Bn3
 BYTE   W02
 BYTE   Cn4  v104
 BYTE   W01
 BYTE   Dn4
 BYTE   W02
 BYTE   En4
 BYTE   W02
 BYTE   Fn4
 BYTE   W02
 BYTE   Gn4  v108
 BYTE   W01
 BYTE   An4
 BYTE   W02
 BYTE   Bn4
 BYTE   W02
 BYTE   Cn5  v112
 BYTE   W02
 BYTE   Dn5
 BYTE   W01
 BYTE   En5
 BYTE   W02
 BYTE   Fn5
 BYTE   W02
 BYTE   Gn5  v127
 BYTE   W01
 BYTE   Fn5  v112
 BYTE   W02
 BYTE   En5
 BYTE   W02
 BYTE   Dn5
 BYTE   W01
 BYTE   Cn5
 BYTE   W02
 BYTE   Bn4  v108
 BYTE   W02
 BYTE   An4
 BYTE   W02
 BYTE   Gn4
 BYTE   W01
 BYTE   Fn4  v104
 BYTE   W02
 BYTE   En4
 BYTE   W02
 BYTE   Dn4
 BYTE   W02
 BYTE   Cn4
 BYTE   W01
 BYTE   Bn3  v100
 BYTE   W02
 BYTE   An3
 BYTE   W02
 BYTE   N11  Gn3
 BYTE   W24
//  #08 //056   ----------------------------------------
 BYTE   W96
//  #08 //057   ----------------------------------------
 BYTE   W96
//  #08 //058   ----------------------------------------
 BYTE   W96
//  #08 //059   ----------------------------------------
 BYTE   W96
//  #08 //060   ----------------------------------------
 BYTE   PATT
  POIN2 Label_0104B770
//  #08 //061   ----------------------------------------
 BYTE   N48  Fn3  v112
 BYTE   W48
 BYTE   N05  Cn5  v127
 BYTE   W48
//  #08 //062   ----------------------------------------
 BYTE   N12  Dn3  v088
 BYTE   W12
 BYTE   Dn2  v076
 BYTE   W12
 BYTE   Fs2  v080
 BYTE   W12
 BYTE   An2  v088
 BYTE   W12
 BYTE   Dn3  v100
 BYTE   W12
 BYTE   Cs3  v092
 BYTE   W12
 BYTE   Dn2  v072
 BYTE   W12
 BYTE   Dn3  v096
 BYTE   W12
//  #08 //063   ----------------------------------------
 BYTE   Cs3  v100
 BYTE   W12
 BYTE   En2  v072
 BYTE   W12
 BYTE   Fs3  v096
 BYTE   W12
 BYTE   En3
 BYTE   W12
 BYTE   Dn3
 BYTE   W12
 BYTE   Cs3  v088
 BYTE   W12
 BYTE   Bn1  v072
 BYTE   W12
 BYTE   Cs2
 BYTE   W12
//  #08 //064   ----------------------------------------
 BYTE   Cs3  v100
 BYTE   W12
 BYTE   Bn2  v088
 BYTE   W12
 BYTE   Fs3  v092
 BYTE   W12
 BYTE   En3
 BYTE   W12
 BYTE   An2  v072
 BYTE   W12
 BYTE   Gs2  v068
 BYTE   W12
 BYTE   Dn3  v092
 BYTE   W12
 BYTE   Fs2  v068
 BYTE   W12
//  #08 //065   ----------------------------------------
 BYTE   En2  v072
 BYTE   W12
 BYTE   Fs2  v068
 BYTE   W12
 BYTE   Dn3  v092
 BYTE   W12
 BYTE   Cs3  v088
 BYTE   W12
 BYTE   Dn2  v068
 BYTE   W12
 BYTE   Dn3  v088
 BYTE   W12
 BYTE   Cs3
 BYTE   W12
 BYTE   Fs2  v064
 BYTE   W12
//  #08 //066   ----------------------------------------
 BYTE   Fs3  v092
 BYTE   W12
 BYTE   An2  v072
 BYTE   W12
 BYTE   Dn3  v088
 BYTE   W12
 BYTE   Cs3  v084
 BYTE   W12
 BYTE   Fs3  v092
 BYTE   W12
 BYTE   En3  v088
 BYTE   W12
 BYTE   An2  v064
 BYTE   W12
 BYTE   Fs2
 BYTE   W12
//  #08 //067   ----------------------------------------
 BYTE   An3  v092
 BYTE   W12
 BYTE   Fs3  v088
 BYTE   W12
 BYTE   En3  v084
 BYTE   W12
 BYTE   Dn3  v072
 BYTE   W12
 BYTE   Fs3  v084
 BYTE   W12
 BYTE   En3  v076
 BYTE   W12
 BYTE   W72
//  #08 //068   ----------------------------------------
 BYTE   W72
 BYTE   W72
//  #08 //069   ----------------------------------------
 BYTE   W72
 BYTE   W24
//  #08 //070   ----------------------------------------
 BYTE   GoTo
  POIN2 Label_0104B722
 BYTE   FINE

//**************** Track 9 (Midi-Chn.8) ****************//

Engage_009:
//  #09 //000   ----------------------------------------
 BYTE   KEYSH   Engage_key+0
 BYTE   VOICE   10
 BYTE   VOL   37*Engage_mvl/mxv
 BYTE   PAN   c_v-1
 BYTE   W96
//  #09 //001   ----------------------------------------
Label_0104A769:
 BYTE   W96
//  #09 //002   ----------------------------------------
 BYTE   W96
//  #09 //003   ----------------------------------------
 BYTE   W96
//  #09 //004   ----------------------------------------
 BYTE   W96
//  #09 //005   ----------------------------------------
 BYTE   W96
//  #09 //006   ----------------------------------------
 BYTE   W96
//  #09 //007   ----------------------------------------
 BYTE   W96
//  #09 //008   ----------------------------------------
 BYTE   W96
//  #09 //009   ----------------------------------------
 BYTE   W96
//  #09 //010   ----------------------------------------
 BYTE   W96
//  #09 //011   ----------------------------------------
 BYTE   W96
//  #09 //012   ----------------------------------------
 BYTE   W96
//  #09 //013   ----------------------------------------
 BYTE   W96
//  #09 //014   ----------------------------------------
 BYTE   W96
//  #09 //015   ----------------------------------------
 BYTE   W96
//  #09 //016   ----------------------------------------
 BYTE   W96
//  #09 //017   ----------------------------------------
 BYTE   W96
//  #09 //018   ----------------------------------------
 BYTE   W96
//  #09 //019   ----------------------------------------
 BYTE   W96
//  #09 //020   ----------------------------------------
 BYTE   W96
//  #09 //021   ----------------------------------------
 BYTE   W96
//  #09 //022   ----------------------------------------
 BYTE   W96
//  #09 //023   ----------------------------------------
 BYTE   W96
//  #09 //024   ----------------------------------------
 BYTE   W96
//  #09 //025   ----------------------------------------
 BYTE   W96
//  #09 //026   ----------------------------------------
 BYTE   W96
//  #09 //027   ----------------------------------------
 BYTE   W96
//  #09 //028   ----------------------------------------
 BYTE   W96
//  #09 //029   ----------------------------------------
 BYTE   W96
//  #09 //030   ----------------------------------------
 BYTE   W96
//  #09 //031   ----------------------------------------
 BYTE   W96
//  #09 //032   ----------------------------------------
 BYTE   W96
//  #09 //033   ----------------------------------------
 BYTE   W96
//  #09 //034   ----------------------------------------
 BYTE   N12  Gs4  v092
 BYTE   W12
 BYTE   N24  An4  v084
 BYTE   W24
 BYTE   TIE  En5  v092
 BYTE   W60
//  #09 //035   ----------------------------------------
 BYTE   W64
 BYTE   W01
 BYTE   EOT
 BYTE   W30
 BYTE   W01
//  #09 //036   ----------------------------------------
 BYTE   W96
//  #09 //037   ----------------------------------------
 BYTE   W96
//  #09 //038   ----------------------------------------
 BYTE   W96
//  #09 //039   ----------------------------------------
 BYTE   W96
//  #09 //040   ----------------------------------------
 BYTE   W96
//  #09 //041   ----------------------------------------
 BYTE   W96
//  #09 //042   ----------------------------------------
 BYTE   W96
//  #09 //043   ----------------------------------------
 BYTE   W96
//  #09 //044   ----------------------------------------
 BYTE   W96
//  #09 //045   ----------------------------------------
 BYTE   W96
//  #09 //046   ----------------------------------------
 BYTE   W96
//  #09 //047   ----------------------------------------
 BYTE   W96
//  #09 //048   ----------------------------------------
 BYTE   W96
//  #09 //049   ----------------------------------------
 BYTE   W96
//  #09 //050   ----------------------------------------
 BYTE   W96
//  #09 //051   ----------------------------------------
 BYTE   W96
//  #09 //052   ----------------------------------------
 BYTE   W96
//  #09 //053   ----------------------------------------
 BYTE   W96
//  #09 //054   ----------------------------------------
 BYTE   W96
//  #09 //055   ----------------------------------------
 BYTE   W96
//  #09 //056   ----------------------------------------
 BYTE   W96
//  #09 //057   ----------------------------------------
 BYTE   W96
//  #09 //058   ----------------------------------------
 BYTE   W96
//  #09 //059   ----------------------------------------
 BYTE   W96
//  #09 //060   ----------------------------------------
 BYTE   W96
//  #09 //061   ----------------------------------------
 BYTE   W96
//  #09 //062   ----------------------------------------
 BYTE   W96
//  #09 //063   ----------------------------------------
 BYTE   W96
//  #09 //064   ----------------------------------------
 BYTE   W96
//  #09 //065   ----------------------------------------
 BYTE   W96
//  #09 //066   ----------------------------------------
 BYTE   W96
//  #09 //067   ----------------------------------------
 BYTE   W72
 BYTE   W72
//  #09 //068   ----------------------------------------
 BYTE   W72
 BYTE   W72
//  #09 //069   ----------------------------------------
 BYTE   W72
 BYTE   W24
//  #09 //070   ----------------------------------------
 BYTE   GoTo
  POIN2 Label_0104A769
 BYTE   FINE

//**************** Track 10 (Midi-Chn.9) ****************//

Engage_010:
//  #10 //000   ----------------------------------------
 BYTE   KEYSH   Engage_key+0
 BYTE   VOICE   124
 BYTE   VOL   47*Engage_mvl/mxv
 BYTE   PAN   c_v+0
 BYTE   Ds3  v063
 BYTE   Ds3  v063
 BYTE   Ds3  v063
 BYTE   W48
 BYTE   N02  Cn1  v064
 BYTE   W03
 BYTE   N02
 BYTE   W03
 BYTE   Cn1  v068
 BYTE   W03
 BYTE   Cn1  v072
 BYTE   W03
 BYTE   Cn1  v076
 BYTE   W03
 BYTE   Cn1  v080
 BYTE   W03
 BYTE   Cn1  v084
 BYTE   W03
 BYTE   N02
 BYTE   W03
 BYTE   Cn1  v088
 BYTE   W03
 BYTE   Cn1  v092
 BYTE   W03
 BYTE   Cn1  v096
 BYTE   W03
 BYTE   Cn1  v100
 BYTE   W03
 BYTE   Cn1  v104
 BYTE   W03
 BYTE   Cn1  v108
 BYTE   W02
 BYTE   N03  Dn1  v068
 BYTE   W01
 BYTE   N02  Cn1  v108
 BYTE   W02
 BYTE   N03  Dn1  v100
 BYTE   W01
 BYTE   N02  Cn1  v112
 BYTE   W03
//  #10 //001   ----------------------------------------
Label_012F27F4:
 BYTE   N24  Cn1  v127
 BYTE   N24  Dn1
 BYTE   N24  Cs2
 BYTE   W36
 BYTE   N12  Dn1  v112
 BYTE   W40
 BYTE   W01
 BYTE   N03  Dn1  v068
 BYTE   W03
 BYTE   Dn1  v100
 BYTE   W04
 BYTE   N12  Cn1  v112
 BYTE   N12  Dn1  v127
 BYTE   W12
//  #10 //002   ----------------------------------------
 BYTE   W18
 BYTE   N02  Fs1  v060
 BYTE   W02
 BYTE   N03  Fs1  v088
 BYTE   W04
 BYTE   N12  Fs1  v120
 BYTE   W12
 BYTE   Cn1  v116
 BYTE   N12  Dn1  v127
 BYTE   W24
 BYTE   Dn1  v112
 BYTE   W36
//  #10 //003   ----------------------------------------
 BYTE   W17
 BYTE   N03  Dn1  v068
 BYTE   W03
 BYTE   Dn1  v100
 BYTE   W04
 BYTE   N24  Cn1  v112
 BYTE   N24  Dn1  v127
 BYTE   W18
 BYTE   N02  Fs1  v060
 BYTE   W02
 BYTE   N03  Fs1  v088
 BYTE   W04
 BYTE   N06  Fs1  v120
 BYTE   W06
 BYTE   Fs1  v108
 BYTE   W06
 BYTE   Fs1  v100
 BYTE   W06
 BYTE   Fs1  v096
 BYTE   W18
 BYTE   N12  Cn1  v112
 BYTE   N12  Dn1  v127
 BYTE   W12
//  #10 //004   ----------------------------------------
 BYTE   W28
 BYTE   W01
 BYTE   N03  Dn1  v068
 BYTE   W03
 BYTE   Dn1  v100
 BYTE   W04
 BYTE   N24  Cn1  v116
 BYTE   N12  Dn1  v127
 BYTE   W24
 BYTE   N06  Cn1  v116
 BYTE   N06  Dn1  v112
 BYTE   W06
 BYTE   Cn1
 BYTE   N06  Dn1  v116
 BYTE   N02  Fs1  v060
 BYTE   W02
 BYTE   N03  Fs1  v088
 BYTE   W04
 BYTE   N24  Cn1  v120
 BYTE   N02  Dn1  v112
 BYTE   N12  Fs1  v116
 BYTE   W03
 BYTE   N02  Dn1  v112
 BYTE   W03
 BYTE   Dn1  v116
 BYTE   W03
 BYTE   N02
 BYTE   W03
 BYTE   N02
 BYTE   N12  Fs1  v112
 BYTE   W03
 BYTE   N02  Dn1  v116
 BYTE   W03
 BYTE   N02
 BYTE   W03
 BYTE   N02
 BYTE   W03
//  #10 //005   ----------------------------------------
 BYTE   Dn1  v120
 BYTE   W03
 BYTE   N02
 BYTE   W03
 BYTE   N02
 BYTE   W03
 BYTE   N02
 BYTE   W03
 BYTE   N02
 BYTE   W03
 BYTE   N02
 BYTE   W03
 BYTE   N02
 BYTE   W03
 BYTE   Dn1  v124
 BYTE   W03
 BYTE   N02
 BYTE   W03
 BYTE   N02
 BYTE   W03
 BYTE   N02
 BYTE   W03
 BYTE   N02
 BYTE   W03
 BYTE   N02
 BYTE   W03
 BYTE   N02
 BYTE   W03
 BYTE   N02
 BYTE   W03
 BYTE   Dn1  v127
 BYTE   W03
 BYTE   N06  Cn1
 BYTE   W05
 BYTE   N03  Dn1  v068
 BYTE   W01
 BYTE   N06  Cn1  v116
 BYTE   W02
 BYTE   N03  Dn1  v100
 BYTE   W04
 BYTE   N12  Cn1  v112
 BYTE   N12  Dn1  v127
 BYTE   N06  Cs2  v092
 BYTE   N06  Gn2  v127
 BYTE   W24
 BYTE   N12  Cn1  v112
 BYTE   N12  Dn1  v127
 BYTE   N12  Cs2
 BYTE   W12
//  #10 //006   ----------------------------------------
 BYTE   W44
 BYTE   N03  Dn1  v100
 BYTE   W04
 BYTE   N15  Cn1  v127
 BYTE   N15  Dn1  v108
 BYTE   N15  As1
 BYTE   W15
 BYTE   N16  Cn1  v127
 BYTE   N16  Dn1  v104
 BYTE   N16  As1
 BYTE   W16
 BYTE   Cn1  v127
 BYTE   N16  Dn1  v104
 BYTE   N16  As1
 BYTE   W17
//  #10 //007   ----------------------------------------
 BYTE   N24  Cn1  v127
 BYTE   N24  Dn1
 BYTE   N24  Cs2
 BYTE   W52
 BYTE   W01
 BYTE   N03  Dn1  v060
 BYTE   W03
 BYTE   Dn1  v088
 BYTE   W04
 BYTE   N12  Cn1  v116
 BYTE   N12  Dn1  v120
 BYTE   W24
 BYTE   Cn1  v112
 BYTE   N12  Dn1
 BYTE   W12
//  #10 //008   ----------------------------------------
 BYTE   W96
//  #10 //009   ----------------------------------------
 BYTE   N72  Cn1  v127
 BYTE   N02  Dn1  v072
 BYTE   W03
 BYTE   N02
 BYTE   W03
 BYTE   Dn1  v064
 BYTE   W03
 BYTE   N02
 BYTE   W03
 BYTE   N02
 BYTE   W03
 BYTE   N02
 BYTE   W03
 BYTE   N02
 BYTE   W03
 BYTE   Dn1  v068
 BYTE   W03
 BYTE   N02
 BYTE   W03
 BYTE   N02
 BYTE   W03
 BYTE   N02
 BYTE   W03
 BYTE   N02
 BYTE   W03
 BYTE   N02
 BYTE   W03
 BYTE   Dn1  v072
 BYTE   W03
 BYTE   N02
 BYTE   W03
 BYTE   N02
 BYTE   W03
 BYTE   N02
 BYTE   W03
 BYTE   N02
 BYTE   W03
 BYTE   N02
 BYTE   W03
 BYTE   Dn1  v076
 BYTE   W03
 BYTE   N02
 BYTE   W03
 BYTE   N02
 BYTE   W03
 BYTE   N02
 BYTE   W03
 BYTE   N02
 BYTE   W03
 BYTE   N24  Cn1  v120
 BYTE   N02  Dn1  v076
 BYTE   W03
 BYTE   Dn1  v080
 BYTE   W03
 BYTE   N02
 BYTE   W03
 BYTE   N02
 BYTE   W03
 BYTE   N02
 BYTE   W03
 BYTE   N02
 BYTE   W03
 BYTE   N02
 BYTE   W03
 BYTE   Dn1  v084
 BYTE   W03
//  #10 //010   ----------------------------------------
 BYTE   N02
 BYTE   N02  Cs2  v064
 BYTE   W03
 BYTE   Dn1  v084
 BYTE   N02  Cs2  v064
 BYTE   W03
 BYTE   Dn1  v084
 BYTE   N02  Cs2  v064
 BYTE   W03
 BYTE   Dn1  v084
 BYTE   N02  Cs2  v064
 BYTE   W03
 BYTE   N12  Cn1  v116
 BYTE   N02  Dn1  v084
 BYTE   N02  Cs2  v068
 BYTE   W03
 BYTE   Dn1  v088
 BYTE   N02  Cs2  v068
 BYTE   W03
 BYTE   Dn1  v088
 BYTE   N02  Cs2  v068
 BYTE   W03
 BYTE   Dn1  v088
 BYTE   N02  Cs2  v068
 BYTE   W03
 BYTE   Dn1  v088
 BYTE   N02  Cs2  v072
 BYTE   W03
 BYTE   Dn1  v088
 BYTE   N02  Cs2  v072
 BYTE   W03
 BYTE   Dn1  v088
 BYTE   N02  Cs2  v072
 BYTE   W03
 BYTE   Dn1  v092
 BYTE   N02  Cs2  v076
 BYTE   W03
 BYTE   N06  Cn1  v112
 BYTE   N02  Dn1  v092
 BYTE   N02  Cs2  v076
 BYTE   W03
 BYTE   Dn1  v092
 BYTE   N02  Cs2  v076
 BYTE   W03
 BYTE   N06  Cn1  v112
 BYTE   N02  Dn1  v092
 BYTE   N02  Cs2  v076
 BYTE   W03
 BYTE   Dn1  v092
 BYTE   N02  Cs2  v080
 BYTE   W03
 BYTE   N42  Cn1  v124
 BYTE   N02  Dn1  v092
 BYTE   N02  Cs2  v080
 BYTE   W03
 BYTE   Dn1  v096
 BYTE   N02  Cs2  v080
 BYTE   W03
 BYTE   Dn1  v096
 BYTE   N02  Cs2  v080
 BYTE   W03
 BYTE   Dn1  v096
 BYTE   N02  Cs2  v084
 BYTE   W03
 BYTE   Dn1  v096
 BYTE   N02  Cs2  v084
 BYTE   W03
 BYTE   Dn1  v096
 BYTE   N02  Cs2  v084
 BYTE   W03
 BYTE   Dn1  v096
 BYTE   N02  Cs2  v088
 BYTE   W03
 BYTE   Dn1  v096
 BYTE   N02  Cs2  v088
 BYTE   W03
 BYTE   Dn1  v100
 BYTE   N02  Cs2  v088
 BYTE   W03
 BYTE   Dn1  v100
 BYTE   N02  Cs2  v088
 BYTE   W03
 BYTE   Dn1  v100
 BYTE   N02  Cs2  v092
 BYTE   W03
 BYTE   Dn1  v100
 BYTE   N02  Cs2  v092
 BYTE   W03
 BYTE   Dn1  v100
 BYTE   N02  Cs2  v092
 BYTE   W03
 BYTE   Dn1  v100
 BYTE   N02  Cs2  v096
 BYTE   W03
 BYTE   N03  Cn1  v060
 BYTE   N02  Dn1  v104
 BYTE   N02  Cs2  v096
 BYTE   W03
 BYTE   Cn1  v088
 BYTE   N02  Dn1  v104
 BYTE   N02  Cs2  v096
 BYTE   W03
//  #10 //011   ----------------------------------------
 BYTE   N48  Cn1  v127
 BYTE   N02  Dn1  v104
 BYTE   N02  Cs2  v096
 BYTE   W03
 BYTE   Dn1  v104
 BYTE   N02  Cs2  v100
 BYTE   W03
 BYTE   Dn1  v104
 BYTE   N02  Cs2  v100
 BYTE   W03
 BYTE   Dn1  v104
 BYTE   N02  Cs2  v100
 BYTE   W03
 BYTE   Dn1  v108
 BYTE   N02  Cs2  v100
 BYTE   W03
 BYTE   Dn1  v108
 BYTE   N02  Cs2  v104
 BYTE   W03
 BYTE   Dn1  v108
 BYTE   N02  Cs2  v104
 BYTE   W03
 BYTE   Dn1  v108
 BYTE   N02  Cs2  v104
 BYTE   W03
 BYTE   Dn1  v108
 BYTE   N02  Cs2
 BYTE   W03
 BYTE   Dn1
 BYTE   N02  Cs2
 BYTE   W03
 BYTE   Dn1  v112
 BYTE   N02  Cs2  v108
 BYTE   W03
 BYTE   Dn1  v112
 BYTE   N02  Cs2  v108
 BYTE   W03
 BYTE   Dn1  v112
 BYTE   N02  Cs2
 BYTE   W03
 BYTE   Dn1
 BYTE   N02  Cs2
 BYTE   W03
 BYTE   Dn1
 BYTE   N02  Cs2
 BYTE   W03
 BYTE   Dn1
 BYTE   N02  Cs2
 BYTE   W48
 BYTE   W03
//  #10 //012   ----------------------------------------
 BYTE   N36  Cn1  v127
 BYTE   N12  Dn1
 BYTE   N24  Cs2
 BYTE   W12
 BYTE   N06  Dn1  v084
 BYTE   W06
 BYTE   Dn1  v068
 BYTE   W06
 BYTE   N12  Dn1  v072
 BYTE   W12
 BYTE   Cn1  v116
 BYTE   N12  Dn1  v120
 BYTE   W12
 BYTE   N06  Dn1  v092
 BYTE   W06
 BYTE   Dn1  v080
 BYTE   W06
 BYTE   N12  Dn1  v068
 BYTE   W12
 BYTE   N24  Dn1  v116
 BYTE   N24  Fs1
 BYTE   W12
 BYTE   N12  Cn1  v112
 BYTE   W12
//  #10 //013   ----------------------------------------
 BYTE   N36  Cn1  v120
 BYTE   N12  Dn1  v127
 BYTE   W12
 BYTE   N06  Dn1  v072
 BYTE   W06
 BYTE   Dn1  v080
 BYTE   W06
 BYTE   Dn1  v092
 BYTE   W06
 BYTE   N06
 BYTE   W06
 BYTE   N12  Cn1  v116
 BYTE   N02  Dn1  v120
 BYTE   N12  Fs1
 BYTE   W03
 BYTE   N02  Dn1
 BYTE   W03
 BYTE   N02
 BYTE   W03
 BYTE   N02
 BYTE   W03
 BYTE   N02
 BYTE   W03
 BYTE   N02
 BYTE   W03
 BYTE   N02
 BYTE   W03
 BYTE   N02
 BYTE   W03
 BYTE   N12  Dn1  v084
 BYTE   W12
 BYTE   N06  Dn1  v124
 BYTE   W06
 BYTE   Dn1  v084
 BYTE   W06
 BYTE   N12  Dn1  v072
 BYTE   W12
//  #10 //014   ----------------------------------------
 BYTE   N36  Cn1  v124
 BYTE   N12  Dn1  v127
 BYTE   W12
 BYTE   N06  Dn1  v084
 BYTE   W06
 BYTE   Dn1  v076
 BYTE   W06
 BYTE   N12
 BYTE   W12
 BYTE   Cn1  v112
 BYTE   N12  Dn1  v116
 BYTE   W12
 BYTE   N06  Dn1  v088
 BYTE   W06
 BYTE   Dn1  v080
 BYTE   W06
 BYTE   N12  Dn1  v072
 BYTE   W12
 BYTE   Dn1  v116
 BYTE   N12  Fs1
 BYTE   W12
 BYTE   Cn1
 BYTE   N06  Dn1  v076
 BYTE   N06  Fs1  v116
 BYTE   W06
 BYTE   Dn1  v088
 BYTE   N06  Fs1  v116
 BYTE   W06
//  #10 //015   ----------------------------------------
 BYTE   N36  Cn1  v124
 BYTE   N12  Dn1  v127
 BYTE   N24  Fs1
 BYTE   W12
 BYTE   N06  Dn1  v072
 BYTE   W06
 BYTE   Dn1  v080
 BYTE   W06
 BYTE   Dn1  v092
 BYTE   W06
 BYTE   Dn1  v096
 BYTE   W06
 BYTE   N12  Cn1  v116
 BYTE   N02  Dn1
 BYTE   W03
 BYTE   N02
 BYTE   W03
 BYTE   N02
 BYTE   W03
 BYTE   N02
 BYTE   W03
 BYTE   N02
 BYTE   N24  As1
 BYTE   W03
 BYTE   N02  Dn1
 BYTE   W03
 BYTE   N02
 BYTE   W03
 BYTE   N02
 BYTE   W03
 BYTE   N12  Dn1  v088
 BYTE   W12
 BYTE   N06  Dn1  v120
 BYTE   W06
 BYTE   Dn1  v084
 BYTE   W06
 BYTE   N12  Dn1  v072
 BYTE   W12
//  #10 //016   ----------------------------------------
 BYTE   N36  Cn1  v127
 BYTE   N12  Dn1
 BYTE   W12
 BYTE   N06  Dn1  v088
 BYTE   W06
 BYTE   Dn1  v084
 BYTE   W06
 BYTE   N12  Dn1  v072
 BYTE   W12
 BYTE   Cn1  v112
 BYTE   N12  Dn1  v124
 BYTE   W12
 BYTE   N06  Dn1  v092
 BYTE   W06
 BYTE   Dn1  v080
 BYTE   W06
 BYTE   N12  Dn1  v072
 BYTE   W12
 BYTE   N24  Dn1  v116
 BYTE   N24  Fs1
 BYTE   W12
 BYTE   N12  Cn1  v112
 BYTE   W12
//  #10 //017   ----------------------------------------
 BYTE   N36  Cn1  v127
 BYTE   N12  Dn1
 BYTE   W12
 BYTE   N06  Dn1  v076
 BYTE   W06
 BYTE   Dn1  v080
 BYTE   W06
 BYTE   Dn1  v088
 BYTE   W06
 BYTE   Dn1  v096
 BYTE   W06
 BYTE   N12  Cn1  v112
 BYTE   N02  Dn1  v116
 BYTE   W03
 BYTE   N02
 BYTE   W03
 BYTE   N02
 BYTE   W03
 BYTE   N02
 BYTE   W03
 BYTE   N02
 BYTE   W03
 BYTE   N02
 BYTE   W03
 BYTE   N02
 BYTE   W03
 BYTE   N02
 BYTE   W03
 BYTE   N12  Dn1  v088
 BYTE   W12
 BYTE   N06  Dn1  v120
 BYTE   W06
 BYTE   Dn1  v080
 BYTE   W06
 BYTE   N12  Dn1  v072
 BYTE   W12
//  #10 //018   ----------------------------------------
 BYTE   N36  Cn1  v127
 BYTE   N12  Dn1
 BYTE   W12
 BYTE   N06  Dn1  v088
 BYTE   W06
 BYTE   Dn1  v072
 BYTE   W06
 BYTE   N12  Dn1  v076
 BYTE   W12
 BYTE   Cn1  v116
 BYTE   N12  Dn1  v124
 BYTE   W12
 BYTE   N06  Dn1  v088
 BYTE   W06
 BYTE   Dn1  v084
 BYTE   W06
 BYTE   N12  Dn1  v072
 BYTE   W12
 BYTE   N24  Dn1  v116
 BYTE   N24  Fs1
 BYTE   W12
 BYTE   N12  Cn1
 BYTE   W12
//  #10 //019   ----------------------------------------
 BYTE   N48  Cn1  v127
 BYTE   N12  Dn1
 BYTE   W12
 BYTE   Dn1  v116
 BYTE   W12
 BYTE   N06  Dn1  v112
 BYTE   W06
 BYTE   N18
 BYTE   W18
 BYTE   N06  Dn1  v127
 BYTE   N06  Fs1
 BYTE   N06  Cs2  v108
 BYTE   W12
 BYTE   Dn1  v127
 BYTE   N06  Fs1
 BYTE   N06  Cs2  v100
 BYTE   W24
 BYTE   N12  Cn1  v112
 BYTE   W12
//  #10 //020   ----------------------------------------
 BYTE   N48  Cn1  v127
 BYTE   N06  Dn1
 BYTE   N24  Cs2  v112
 BYTE   W06
 BYTE   N06  Dn1  v076
 BYTE   W06
 BYTE   Dn1  v080
 BYTE   W06
 BYTE   Dn1  v088
 BYTE   W06
 BYTE   N24  Dn1  v104
 BYTE   N24  Ds2
 BYTE   W24
 BYTE   N12  Cn1  v124
 BYTE   N24  Ds2  v104
 BYTE   W12
 BYTE   N12  Cn1  v116
 BYTE   N12  Dn1  v084
 BYTE   W12
 BYTE   Dn1  v100
 BYTE   N12  Ds2
 BYTE   W12
 BYTE   Cn1  v116
 BYTE   N06  Dn1  v084
 BYTE   N12  Ds2  v096
 BYTE   W06
 BYTE   N06  Dn1  v068
 BYTE   W06
//  #10 //021   ----------------------------------------
 BYTE   N36  Cn1  v127
 BYTE   N12  Dn1
 BYTE   N24  Ds2  v116
 BYTE   W12
 BYTE   N06  Dn1  v072
 BYTE   W06
 BYTE   Dn1  v080
 BYTE   W06
 BYTE   N24  Dn1  v100
 BYTE   N24  Ds2
 BYTE   W12
 BYTE   Cn1  v116
 BYTE   W12
 BYTE   N12  Dn1  v127
 BYTE   N24  Ds2  v108
 BYTE   W12
 BYTE   N12  Cn1  v116
 BYTE   N12  Dn1  v088
 BYTE   W12
 BYTE   Dn1  v104
 BYTE   N12  Ds2
 BYTE   W12
 BYTE   Dn1  v072
 BYTE   N06  Ds2  v100
 BYTE   W06
 BYTE   N06
 BYTE   W06
//  #10 //022   ----------------------------------------
 BYTE   N48  Cn1  v127
 BYTE   N06  Dn1
 BYTE   N24  Ds2  v108
 BYTE   W06
 BYTE   N06  Dn1  v072
 BYTE   W06
 BYTE   Dn1  v076
 BYTE   W06
 BYTE   Dn1  v092
 BYTE   W06
 BYTE   N24  Dn1  v104
 BYTE   N24  Ds2
 BYTE   W24
 BYTE   N12  Cn1  v120
 BYTE   N24  Ds2  v104
 BYTE   W12
 BYTE   N12  Cn1  v116
 BYTE   N12  Dn1  v080
 BYTE   W12
 BYTE   N24  Dn1  v104
 BYTE   N24  Ds2
 BYTE   W12
 BYTE   N12  Cn1  v116
 BYTE   W12
//  #10 //023   ----------------------------------------
 BYTE   N36  Cn1  v124
 BYTE   N12  Dn1  v127
 BYTE   N12  Ds2  v108
 BYTE   W12
 BYTE   N06  Dn1  v072
 BYTE   N12  Ds2  v100
 BYTE   W06
 BYTE   N06  Dn1  v084
 BYTE   W06
 BYTE   N24  Dn1  v100
 BYTE   N24  Ds2
 BYTE   W12
 BYTE   Cn1  v116
 BYTE   W12
 BYTE   N12  Dn1  v127
 BYTE   N24  Ds2  v108
 BYTE   W12
 BYTE   N12  Cn1  v112
 BYTE   N12  Dn1  v084
 BYTE   W12
 BYTE   N24  Dn1  v104
 BYTE   N24  Ds2
 BYTE   W24
//  #10 //024   ----------------------------------------
 BYTE   N48  Cn1  v127
 BYTE   N06  Dn1
 BYTE   N12  Ds2  v112
 BYTE   W06
 BYTE   N06  Dn1  v072
 BYTE   W06
 BYTE   Dn1  v084
 BYTE   N12  Ds2  v100
 BYTE   W06
 BYTE   N06  Dn1  v092
 BYTE   W06
 BYTE   N12  Dn1  v100
 BYTE   N12  Ds2
 BYTE   W12
 BYTE   Dn1  v096
 BYTE   N06  Ds2
 BYTE   W06
 BYTE   Ds2  v104
 BYTE   W06
 BYTE   N12  Cn1  v124
 BYTE   N24  Ds2  v100
 BYTE   W12
 BYTE   N12  Cn1  v124
 BYTE   N12  Dn1  v084
 BYTE   W12
 BYTE   N24  Dn1  v100
 BYTE   N24  Ds2
 BYTE   W12
 BYTE   N12  Cn1  v112
 BYTE   W12
//  #10 //025   ----------------------------------------
 BYTE   N48  Cn1  v124
 BYTE   N12  Dn1  v127
 BYTE   N12  Ds2  v108
 BYTE   W12
 BYTE   N06  Dn1  v072
 BYTE   N12  Ds2  v096
 BYTE   W06
 BYTE   N06  Dn1  v088
 BYTE   W06
 BYTE   N18  Dn1  v100
 BYTE   N18  Ds2
 BYTE   W18
 BYTE   N06  Dn1  v084
 BYTE   N06  Ds2  v100
 BYTE   W06
 BYTE   N12  Dn1  v127
 BYTE   N24  Ds2  v104
 BYTE   W12
 BYTE   N12  Cn1  v112
 BYTE   N12  Dn1  v084
 BYTE   W12
 BYTE   N24  Dn1  v104
 BYTE   N24  Ds2
 BYTE   W24
//  #10 //026   ----------------------------------------
 BYTE   Cn1  v127
 BYTE   N02  Ds2  v112
 BYTE   W02
 BYTE   N03  Dn1  v076
 BYTE   W04
 BYTE   N18  Dn1  v096
 BYTE   W18
 BYTE   N12  Cn1  v116
 BYTE   N24  Dn1  v104
 BYTE   N24  Ds2
 BYTE   W12
 BYTE   N12  Cn1  v112
 BYTE   W12
 BYTE   Fs1
 BYTE   W12
 BYTE   Cn1
 BYTE   N12  Dn1  v088
 BYTE   N12  Fs1  v096
 BYTE   W12
 BYTE   N06  Dn1  v116
 BYTE   N06  As1  v092
 BYTE   W06
 BYTE   Dn1
 BYTE   W06
 BYTE   N12  Cn1  v120
 BYTE   N06  Dn1  v080
 BYTE   N06  Cn2  v104
 BYTE   W06
 BYTE   Dn1  v068
 BYTE   N06  Cn2  v096
 BYTE   W06
//  #10 //027   ----------------------------------------
 BYTE   N12  Dn1  v127
 BYTE   N12  Fs1  v116
 BYTE   N12  Cn2
 BYTE   W12
 BYTE   Cn1  v112
 BYTE   N06  Dn1  v072
 BYTE   N06  Fs1  v096
 BYTE   N06  Bn1
 BYTE   W06
 BYTE   Dn1  v084
 BYTE   N06  Bn1  v096
 BYTE   W06
 BYTE   N12  Cn1  v120
 BYTE   N12  Dn1
 BYTE   N12  Fs1  v104
 BYTE   N12  Bn1
 BYTE   W12
 BYTE   Cn1  v112
 BYTE   N06  Dn1  v072
 BYTE   N06  Fs1  v096
 BYTE   N06  An1
 BYTE   W06
 BYTE   Dn1  v088
 BYTE   N06  An1  v096
 BYTE   W06
 BYTE   N12  Cn1  v127
 BYTE   N06  Dn1  v096
 BYTE   N06  As1
 BYTE   N02  Cs2  v112
 BYTE   W03
 BYTE   N02
 BYTE   W03
 BYTE   Cs2  v100
 BYTE   W03
 BYTE   N02
 BYTE   W03
 BYTE   N12  Cn1  v127
 BYTE   N06  Dn1  v092
 BYTE   N06  As1
 BYTE   N02  Cs2  v104
 BYTE   W03
 BYTE   N02
 BYTE   W03
 BYTE   N02
 BYTE   W03
 BYTE   N02
 BYTE   W03
 BYTE   Cs2  v108
 BYTE   W03
 BYTE   N02
 BYTE   W03
 BYTE   N02
 BYTE   W03
 BYTE   N02
 BYTE   W03
 BYTE   Cs2  v112
 BYTE   W03
 BYTE   N02
 BYTE   W03
 BYTE   N02
 BYTE   W03
 BYTE   N02
 BYTE   W03
//  #10 //028   ----------------------------------------
 BYTE   N24  Cn1  v127
 BYTE   W24
 BYTE   Cn1  v112
 BYTE   W24
 BYTE   Cn1  v127
 BYTE   W24
 BYTE   Cn1  v116
 BYTE   W24
//  #10 //029   ----------------------------------------
 BYTE   Cn1  v127
 BYTE   W24
 BYTE   Cn1  v120
 BYTE   W24
 BYTE   N24
 BYTE   W24
 BYTE   Cn1  v116
 BYTE   W24
//  #10 //030   ----------------------------------------
 BYTE   Cn1  v127
 BYTE   W24
 BYTE   Cn1  v116
 BYTE   W24
 BYTE   Cn1  v120
 BYTE   W24
 BYTE   Cn1  v112
 BYTE   W24
//  #10 //031   ----------------------------------------
 BYTE   Cn1  v127
 BYTE   W24
 BYTE   Cn1  v116
 BYTE   W24
 BYTE   Cn1  v127
 BYTE   N02  Cs2  v044
 BYTE   W03
 BYTE   N02
 BYTE   W03
 BYTE   N02
 BYTE   W03
 BYTE   Cs2  v048
 BYTE   W03
 BYTE   N02
 BYTE   W03
 BYTE   Cs2  v052
 BYTE   W03
 BYTE   N02
 BYTE   W03
 BYTE   Cs2  v056
 BYTE   W03
 BYTE   N24  Cn1  v120
 BYTE   N02  Cs2  v056
 BYTE   W03
 BYTE   Cs2  v060
 BYTE   W03
 BYTE   N02
 BYTE   W03
 BYTE   Cs2  v064
 BYTE   W03
 BYTE   N06  Dn1  v084
 BYTE   N02  Cs2  v064
 BYTE   W03
 BYTE   Cs2  v068
 BYTE   W03
 BYTE   N06  Dn1  v072
 BYTE   N02  Cs2  v068
 BYTE   W03
 BYTE   Cs2  v072
 BYTE   W03
//  #10 //032   ----------------------------------------
 BYTE   N24  Cn1  v124
 BYTE   N12  Dn1  v112
 BYTE   W12
 BYTE   Dn1  v076
 BYTE   W12
 BYTE   N24  Cn1  v116
 BYTE   W12
 BYTE   N06  Dn1  v060
 BYTE   W06
 BYTE   Dn1  v076
 BYTE   W06
 BYTE   N24  Cn1  v120
 BYTE   N06  Dn1  v108
 BYTE   W06
 BYTE   Dn1  v072
 BYTE   W06
 BYTE   N12  Dn1  v064
 BYTE   W12
 BYTE   N24  Cn1  v120
 BYTE   W08
 BYTE   N03  Dn1  v056
 BYTE   W04
 BYTE   N12  Dn1  v076
 BYTE   W12
//  #10 //033   ----------------------------------------
 BYTE   N24  Cn1  v127
 BYTE   N12  Dn1  v116
 BYTE   W12
 BYTE   Dn1  v076
 BYTE   W12
 BYTE   N24  Cn1  v116
 BYTE   W12
 BYTE   N12  Dn1  v072
 BYTE   W12
 BYTE   N24  Cn1  v124
 BYTE   N06  Dn1  v116
 BYTE   W06
 BYTE   Dn1  v076
 BYTE   W06
 BYTE   Dn1  v072
 BYTE   W06
 BYTE   Dn1  v064
 BYTE   W06
 BYTE   N24  Cn1  v116
 BYTE   N20  Dn1  v076
 BYTE   W20
 BYTE   N03  Dn1  v080
 BYTE   W04
//  #10 //034   ----------------------------------------
 BYTE   N24  Cn1  v127
 BYTE   N12  Dn1  v116
 BYTE   W12
 BYTE   Dn1  v072
 BYTE   W12
 BYTE   N24  Cn1  v112
 BYTE   W17
 BYTE   N03  Dn1  v052
 BYTE   W03
 BYTE   Dn1  v076
 BYTE   W04
 BYTE   N24  Cn1  v124
 BYTE   N24  Dn1  v104
 BYTE   W24
 BYTE   Cn1  v112
 BYTE   N12  Dn1  v100
 BYTE   W12
 BYTE   Dn1  v104
 BYTE   W12
//  #10 //035   ----------------------------------------
 BYTE   N36  Cn1  v127
 BYTE   N12  Dn1  v112
 BYTE   W12
 BYTE   Dn1  v104
 BYTE   W12
 BYTE   Dn1  v100
 BYTE   W12
 BYTE   Cn1  v108
 BYTE   N12  Dn1  v068
 BYTE   W12
 BYTE   N06  Dn1  v108
 BYTE   W06
 BYTE   Dn1  v100
 BYTE   W06
 BYTE   N12  Cn1  v116
 BYTE   N06  Dn1  v072
 BYTE   W06
 BYTE   Dn1  v064
 BYTE   W06
 BYTE   N24  Dn1  v100
 BYTE   W12
 BYTE   N06  Cn1  v116
 BYTE   W06
 BYTE   Cn1  v112
 BYTE   W06
//  #10 //036   ----------------------------------------
 BYTE   N36  Cn1  v124
 BYTE   N06  Dn1  v127
 BYTE   N96  Cs2  v096
 BYTE   N24  Ds2  v112
 BYTE   W06
 BYTE   N06  Dn1  v068
 BYTE   W06
 BYTE   Dn1  v080
 BYTE   W06
 BYTE   Dn1  v092
 BYTE   W06
 BYTE   N12  Dn1  v124
 BYTE   N24  Ds2  v104
 BYTE   W12
 BYTE   N12  Cn1  v120
 BYTE   N12  Dn1  v096
 BYTE   W12
 BYTE   N24  Dn1  v108
 BYTE   N24  Ds2
 BYTE   W24
 BYTE   Cn1  v116
 BYTE   N06  Dn1  v124
 BYTE   N24  Ds2  v100
 BYTE   W06
 BYTE   N06  Dn1  v092
 BYTE   W06
 BYTE   Dn1  v084
 BYTE   W06
 BYTE   Dn1  v076
 BYTE   W06
//  #10 //037   ----------------------------------------
 BYTE   N12  Dn1  v127
 BYTE   N24  Ds2  v108
 BYTE   N24  Gn2
 BYTE   W12
 BYTE   N12  Cn1  v120
 BYTE   N06  Dn1  v072
 BYTE   W06
 BYTE   Dn1  v084
 BYTE   W06
 BYTE   N12  Dn1  v120
 BYTE   N24  Ds2  v104
 BYTE   W12
 BYTE   N12  Cn1  v112
 BYTE   N06  Dn1  v076
 BYTE   W06
 BYTE   Dn1  v084
 BYTE   W06
 BYTE   N24  Dn1  v108
 BYTE   N24  Ds2
 BYTE   W12
 BYTE   N12  Cn1  v116
 BYTE   W12
 BYTE   N06  Dn1  v120
 BYTE   N24  Ds2  v104
 BYTE   W06
 BYTE   N06  Dn1  v084
 BYTE   W06
 BYTE   N12  Dn1  v072
 BYTE   W12
//  #10 //038   ----------------------------------------
 BYTE   N24  Cn1  v124
 BYTE   N06  Dn1  v127
 BYTE   N24  Ds2  v112
 BYTE   W06
 BYTE   N06  Dn1  v072
 BYTE   W06
 BYTE   Dn1  v080
 BYTE   W06
 BYTE   Dn1  v092
 BYTE   W06
 BYTE   N24  Cn1  v112
 BYTE   N12  Dn1  v124
 BYTE   N24  Ds2  v104
 BYTE   W12
 BYTE   N12  Dn1  v100
 BYTE   W12
 BYTE   N24  Cn1  v124
 BYTE   N24  Ds2  v108
 BYTE   W12
 BYTE   N12  Dn1  v088
 BYTE   W12
 BYTE   Cn1  v116
 BYTE   N06  Dn1  v120
 BYTE   N24  Ds2  v104
 BYTE   W06
 BYTE   N06  Dn1  v088
 BYTE   W06
 BYTE   N12  Cn1  v116
 BYTE   N06  Dn1  v076
 BYTE   W06
 BYTE   Dn1  v072
 BYTE   W06
//  #10 //039   ----------------------------------------
 BYTE   N24  Cn1  v127
 BYTE   N06  Dn1  v112
 BYTE   N06  Ds2
 BYTE   W06
 BYTE   Dn1  v096
 BYTE   W06
 BYTE   Dn1  v100
 BYTE   W06
 BYTE   N06
 BYTE   W06
 BYTE   N24  Cn1  v120
 BYTE   N12  Dn1  v100
 BYTE   N12  Ds2
 BYTE   W12
 BYTE   N06  Dn1  v072
 BYTE   N12  Ds2  v096
 BYTE   W06
 BYTE   N06  Dn1  v088
 BYTE   W06
 BYTE   N24  Cn1  v120
 BYTE   N12  Dn1  v127
 BYTE   N02  Cs2  v064
 BYTE   N12  Ds2  v104
 BYTE   W03
 BYTE   N02  Cs2  v064
 BYTE   W03
 BYTE   Cs2  v068
 BYTE   W03
 BYTE   N02
 BYTE   W03
 BYTE   N12  Dn1  v084
 BYTE   N02  Cs2  v072
 BYTE   N12  Ds2  v100
 BYTE   W03
 BYTE   N02  Cs2  v076
 BYTE   W03
 BYTE   N02
 BYTE   W03
 BYTE   Cs2  v080
 BYTE   W03
 BYTE   N12  Cn1  v120
 BYTE   N12  Dn1  v104
 BYTE   N02  Cs2  v080
 BYTE   W03
 BYTE   Cs2  v084
 BYTE   W03
 BYTE   Cs2  v088
 BYTE   W03
 BYTE   N02
 BYTE   W03
 BYTE   N06  Cn1  v116
 BYTE   N06  Dn1  v096
 BYTE   N02  Cs2  v092
 BYTE   W03
 BYTE   N02
 BYTE   W03
 BYTE   N06  Cn1  v112
 BYTE   N06  Dn1  v104
 BYTE   N02  Cs2  v096
 BYTE   W03
 BYTE   Cs2  v100
 BYTE   W03
//  #10 //040   ----------------------------------------
 BYTE   N36  Cn1  v127
 BYTE   N02  Dn1
 BYTE   N06  Cs2
 BYTE   W03
 BYTE   N02  Dn1
 BYTE   W03
 BYTE   N02
 BYTE   W03
 BYTE   N02
 BYTE   W03
 BYTE   N02
 BYTE   N12  Bn1  v104
 BYTE   N12  Cn2
 BYTE   W03
 BYTE   N02  Dn1  v127
 BYTE   W03
 BYTE   N02
 BYTE   W03
 BYTE   N02
 BYTE   W03
 BYTE   N12  An1  v104
 BYTE   N12  Bn1
 BYTE   W12
 BYTE   N24  Cn1  v127
 BYTE   N02  Dn1  v116
 BYTE   N06  Gn2  v120
 BYTE   W03
 BYTE   N02  Dn1  v116
 BYTE   W03
 BYTE   N02
 BYTE   W03
 BYTE   N02
 BYTE   W03
 BYTE   N02
 BYTE   N12  An1  v104
 BYTE   N12  Bn1
 BYTE   W03
 BYTE   N02  Dn1  v116
 BYTE   W03
 BYTE   N02
 BYTE   W03
 BYTE   N02
 BYTE   W03
 BYTE   N06  Cn1  v112
 BYTE   N06  An1  v096
 BYTE   N06  Bn1
 BYTE   W06
 BYTE   Cn1  v112
 BYTE   N06  Gn1  v096
 BYTE   N06  An1
 BYTE   W02
 BYTE   N03  Dn1  v088
 BYTE   W04
 BYTE   N12  Cn1  v127
 BYTE   N24  Dn1  v120
 BYTE   N12  Cs2
 BYTE   W12
 BYTE   Cn1  v112
 BYTE   N12  Gn1  v100
 BYTE   N12  An1
 BYTE   W12
//  #10 //041   ----------------------------------------
 BYTE   W12
 BYTE   Dn1  v088
 BYTE   N24  Cn2  v104
 BYTE   W12
 BYTE   N12  Dn1  v124
 BYTE   W12
 BYTE   N06  Cn1  v112
 BYTE   N12  Dn1  v084
 BYTE   N06  Gn1  v100
 BYTE   W06
 BYTE   Cn1  v112
 BYTE   N06  Gn1  v100
 BYTE   W06
 BYTE   N12  Cn1  v124
 BYTE   N06  Dn1  v108
 BYTE   N24  Gn1
 BYTE   W06
 BYTE   N06  Dn1  v068
 BYTE   W06
 BYTE   N12  Cn1  v112
 BYTE   N06  Dn1  v084
 BYTE   W06
 BYTE   Dn1  v088
 BYTE   W06
 BYTE   N12  Cn1  v116
 BYTE   N24  Dn1  v120
 BYTE   N12  Cn2  v104
 BYTE   W12
 BYTE   Cn1  v116
 BYTE   N12  Gn1  v100
 BYTE   W12
//  #10 //042   ----------------------------------------
 BYTE   N24  Cn1  v096
 BYTE   N02  Dn1  v092
 BYTE   N24  Cs2  v080
 BYTE   W03
 BYTE   N02  Dn1  v092
 BYTE   W03
 BYTE   N02
 BYTE   W03
 BYTE   N02
 BYTE   W03
 BYTE   Dn1  v076
 BYTE   W03
 BYTE   N02
 BYTE   W03
 BYTE   N02
 BYTE   W03
 BYTE   N02
 BYTE   W03
 BYTE   N02
 BYTE   N02  Cs2  v052
 BYTE   W03
 BYTE   Dn1  v076
 BYTE   N02  Cs2  v052
 BYTE   W03
 BYTE   Dn1  v076
 BYTE   N02  Cs2  v052
 BYTE   W03
 BYTE   Dn1  v076
 BYTE   N02  Cs2  v052
 BYTE   W03
 BYTE   Dn1  v076
 BYTE   N02  Cs2  v052
 BYTE   W03
 BYTE   Dn1  v076
 BYTE   N02  Cs2  v052
 BYTE   W03
 BYTE   Dn1  v076
 BYTE   N02  Cs2  v052
 BYTE   W03
 BYTE   Dn1  v076
 BYTE   N02  Cs2  v052
 BYTE   W03
 BYTE   N24  Cn1  v092
 BYTE   N02  Dn1  v076
 BYTE   N02  Cs2  v056
 BYTE   W03
 BYTE   Dn1  v076
 BYTE   N02  Cs2  v056
 BYTE   W03
 BYTE   Dn1  v076
 BYTE   N02  Cs2  v056
 BYTE   W03
 BYTE   Dn1  v080
 BYTE   N02  Cs2  v056
 BYTE   W03
 BYTE   Dn1  v080
 BYTE   N02  Cs2  v056
 BYTE   W03
 BYTE   Dn1  v080
 BYTE   N02  Cs2  v056
 BYTE   W03
 BYTE   Dn1  v080
 BYTE   N02  Cs2  v056
 BYTE   W03
 BYTE   Dn1  v080
 BYTE   N02  Cs2  v060
 BYTE   W03
 BYTE   N12  Cn1  v088
 BYTE   N02  Dn1  v080
 BYTE   N02  Cs2  v060
 BYTE   W03
 BYTE   Dn1  v080
 BYTE   N02  Cs2  v060
 BYTE   W03
 BYTE   Dn1  v080
 BYTE   N02  Cs2  v060
 BYTE   W03
 BYTE   Dn1  v080
 BYTE   N02  Cs2  v060
 BYTE   W03
 BYTE   N12  Cn1  v096
 BYTE   N02  Dn1  v080
 BYTE   N12  Fs1  v072
 BYTE   N02  Cs2  v060
 BYTE   W03
 BYTE   Dn1  v080
 BYTE   N02  Cs2  v060
 BYTE   W03
 BYTE   Dn1  v080
 BYTE   N02  Cs2  v060
 BYTE   W03
 BYTE   Dn1  v080
 BYTE   N02  Cs2  v060
 BYTE   W03
//  #10 //043   ----------------------------------------
 BYTE   Dn1  v080
 BYTE   N12  As1  v076
 BYTE   N02  Cs2  v060
 BYTE   W03
 BYTE   Dn1  v080
 BYTE   N02  Cs2  v064
 BYTE   W03
 BYTE   Dn1  v080
 BYTE   N02  Cs2  v064
 BYTE   W03
 BYTE   Dn1  v080
 BYTE   N02  Cs2  v064
 BYTE   W03
 BYTE   Dn1  v080
 BYTE   N12  Fs1  v072
 BYTE   N02  Cs2  v064
 BYTE   W03
 BYTE   Dn1  v080
 BYTE   N02  Cs2  v064
 BYTE   W03
 BYTE   Dn1  v084
 BYTE   N02  Cs2  v064
 BYTE   W03
 BYTE   Dn1  v084
 BYTE   N02  Cs2  v064
 BYTE   W03
 BYTE   Dn1  v084
 BYTE   N12  Fs1  v076
 BYTE   N02  Cs2  v068
 BYTE   W03
 BYTE   Dn1  v084
 BYTE   N02  Cs2  v068
 BYTE   W03
 BYTE   Dn1  v084
 BYTE   N02  Cs2  v068
 BYTE   W03
 BYTE   Dn1  v084
 BYTE   N02  Cs2  v068
 BYTE   W03
 BYTE   Dn1  v084
 BYTE   N12  Fs1  v072
 BYTE   N02  Cs2  v068
 BYTE   W03
 BYTE   Dn1  v084
 BYTE   N02  Cs2  v068
 BYTE   W03
 BYTE   Dn1  v084
 BYTE   N02  Cs2  v068
 BYTE   W03
 BYTE   Dn1  v084
 BYTE   N02  Cs2  v068
 BYTE   W03
 BYTE   N36  Cn1  v096
 BYTE   N02  Dn1  v084
 BYTE   N02  Cs2  v072
 BYTE   W03
 BYTE   Dn1  v084
 BYTE   N02  Cs2  v072
 BYTE   W03
 BYTE   Dn1  v084
 BYTE   N02  Cs2  v072
 BYTE   W03
 BYTE   Dn1  v084
 BYTE   N02  Cs2  v072
 BYTE   W03
 BYTE   N03  Dn1
 BYTE   N02  Cs2
 BYTE   W03
 BYTE   N03  Dn1  v068
 BYTE   N02  Cs2  v072
 BYTE   W03
 BYTE   N03  Dn1  v076
 BYTE   N02  Cs2  v072
 BYTE   W03
 BYTE   N03  Dn1
 BYTE   N02  Cs2
 BYTE   W03
 BYTE   N18  Dn1
 BYTE   W12
 BYTE   N12  Cn1  v088
 BYTE   W06
 BYTE   N06  Dn1  v068
 BYTE   W06
//  #10 //044   ----------------------------------------
 BYTE   N24  Cn1  v127
 BYTE   N06  Fs1  v092
 BYTE   N24  An2  v076
 BYTE   W06
 BYTE   N06  Fs1  v092
 BYTE   W06
 BYTE   N06
 BYTE   W06
 BYTE   N06
 BYTE   W06
 BYTE   N24  Dn1  v127
 BYTE   N06  Fs1  v092
 BYTE   N24  An2  v076
 BYTE   W06
 BYTE   N06  Fs1  v092
 BYTE   W06
 BYTE   N06
 BYTE   W06
 BYTE   N06
 BYTE   W06
 BYTE   N12  Cn1  v127
 BYTE   N06  Fs1  v092
 BYTE   N24  An2  v076
 BYTE   W06
 BYTE   N06  Fs1  v092
 BYTE   W06
 BYTE   N12  Cn1  v127
 BYTE   N06  Fs1  v092
 BYTE   W06
 BYTE   N06
 BYTE   W06
 BYTE   N12  Dn1  v127
 BYTE   N06  Fs1  v092
 BYTE   N24  An2  v076
 BYTE   W06
 BYTE   N06  Fs1  v092
 BYTE   W06
 BYTE   Cn1  v127
 BYTE   N06  Fs1  v092
 BYTE   W06
 BYTE   N06
 BYTE   W06
//  #10 //045   ----------------------------------------
Label_012F32BE:
 BYTE   N24  Cn1  v127
 BYTE   N06  Fs1  v092
 BYTE   N24  An2  v076
 BYTE   W06
 BYTE   N06  Fs1  v092
 BYTE   W06
 BYTE   N06
 BYTE   W06
 BYTE   N06
 BYTE   W06
 BYTE   N24  Dn1  v127
 BYTE   N06  Fs1  v092
 BYTE   N24  An2  v076
 BYTE   W06
 BYTE   N06  Fs1  v092
 BYTE   W06
 BYTE   N06
 BYTE   W06
 BYTE   N06
 BYTE   W06
 BYTE   N12  Cn1  v127
 BYTE   N06  Fs1  v092
 BYTE   N24  An2  v076
 BYTE   W06
 BYTE   N06  Fs1  v092
 BYTE   W06
 BYTE   N12  Cn1  v127
 BYTE   N06  Fs1  v092
 BYTE   W06
 BYTE   N06
 BYTE   W06
 BYTE   N12  Dn1  v127
 BYTE   N06  Fs1  v092
 BYTE   N24  An2  v076
 BYTE   W06
 BYTE   N06  Fs1  v092
 BYTE   W06
 BYTE   Cn1  v127
 BYTE   N06  Fs1  v092
 BYTE   W06
 BYTE   N06
 BYTE   W06
 BYTE   PEND 
//  #10 //046   ----------------------------------------
 BYTE   PATT
  POIN2 Label_012F32BE
//  #10 //047   ----------------------------------------
 BYTE   PATT
  POIN2 Label_012F32BE
//  #10 //048   ----------------------------------------
 BYTE   PATT
  POIN2 Label_012F32BE
//  #10 //049   ----------------------------------------
 BYTE   PATT
  POIN2 Label_012F32BE
//  #10 //050   ----------------------------------------
 BYTE   PATT
  POIN2 Label_012F32BE
//  #10 //051   ----------------------------------------
 BYTE   N06  Dn1  v127
 BYTE   W06
 BYTE   N06
 BYTE   W06
 BYTE   Cn1
 BYTE   N06  Dn1
 BYTE   W06
 BYTE   Cn1
 BYTE   N06  Dn1
 BYTE   W06
 BYTE   N12
 BYTE   N12  As1
 BYTE   W12
 BYTE   Cn1
 BYTE   N06  Dn1
 BYTE   W06
 BYTE   N06
 BYTE   W06
 BYTE   N18  Cn1
 BYTE   N12  Dn1
 BYTE   N12  As1
 BYTE   W12
 BYTE   N06  Dn1
 BYTE   W06
 BYTE   Cn1
 BYTE   N02  Dn1
 BYTE   W03
 BYTE   N02
 BYTE   W03
 BYTE   N12
 BYTE   W12
 BYTE   N12
 BYTE   W12
//  #10 //052   ----------------------------------------
 BYTE   PATT
  POIN2 Label_012F32BE
//  #10 //053   ----------------------------------------
 BYTE   PATT
  POIN2 Label_012F32BE
//  #10 //054   ----------------------------------------
 BYTE   PATT
  POIN2 Label_012F32BE
//  #10 //055   ----------------------------------------
 BYTE   PATT
  POIN2 Label_012F32BE
//  #10 //056   ----------------------------------------
 BYTE   PATT
  POIN2 Label_012F32BE
//  #10 //057   ----------------------------------------
 BYTE   PATT
  POIN2 Label_012F32BE
//  #10 //058   ----------------------------------------
 BYTE   N36  Cn1  v127
 BYTE   N06  Dn1
 BYTE   N24  Ds2
 BYTE   W06
 BYTE   N06  Dn1
 BYTE   W06
 BYTE   N06
 BYTE   W06
 BYTE   N06
 BYTE   W06
 BYTE   N24
 BYTE   N24  Ds2
 BYTE   W12
 BYTE   N12  Cn1
 BYTE   W12
 BYTE   Dn1
 BYTE   N12  Ds2
 BYTE   W12
 BYTE   Dn1
 BYTE   W12
 BYTE   N12
 BYTE   W12
 BYTE   N12
 BYTE   N12  An2  v076
 BYTE   W12
//  #10 //059   ----------------------------------------
 BYTE   N06  Dn1  v127
 BYTE   W06
 BYTE   N06
 BYTE   W06
 BYTE   N12  Cn1
 BYTE   N06  Dn1
 BYTE   W06
 BYTE   N06
 BYTE   W06
 BYTE   N24
 BYTE   N24  Fs1  v092
 BYTE   W12
 BYTE   N12  Cn1  v127
 BYTE   W12
 BYTE   N12
 BYTE   N06  An2  v076
 BYTE   W06
 BYTE   N12  Dn1  v127
 BYTE   W06
 BYTE   Cn1
 BYTE   W06
 BYTE   N06  Dn1
 BYTE   W06
 BYTE   N18
 BYTE   W12
 BYTE   N12  Cn1
 BYTE   W06
 BYTE   N06  Dn1
 BYTE   W06
//  #10 //060   ----------------------------------------
 BYTE   N24  Cn1
 BYTE   N06  Dn1
 BYTE   N06  Fs1  v092
 BYTE   W06
 BYTE   Dn1  v127
 BYTE   W06
 BYTE   N06
 BYTE   W06
 BYTE   N06
 BYTE   W06
 BYTE   N24  Cn1
 BYTE   N06  Dn1
 BYTE   W06
 BYTE   N06
 BYTE   W06
 BYTE   N06
 BYTE   W06
 BYTE   N06
 BYTE   W06
 BYTE   N24  Cn1
 BYTE   N06  Dn1
 BYTE   W06
 BYTE   N02
 BYTE   N06  Cn2
 BYTE   W03
 BYTE   N02  Dn1
 BYTE   W03
 BYTE   N06
 BYTE   N06  An2
 BYTE   W06
 BYTE   Dn1
 BYTE   W06
 BYTE   N24  Cn1
 BYTE   N06  Dn1
 BYTE   W06
 BYTE   N02
 BYTE   N06  Bn1
 BYTE   W03
 BYTE   N02  Dn1
 BYTE   W03
 BYTE   N06
 BYTE   W06
 BYTE   N06
 BYTE   W06
//  #10 //061   ----------------------------------------
 BYTE   N24  Cn1
 BYTE   N06  Dn1
 BYTE   W06
 BYTE   N02
 BYTE   N06  An1
 BYTE   W03
 BYTE   N02  Dn1
 BYTE   W03
 BYTE   N06
 BYTE   N06  An2  v076
 BYTE   W06
 BYTE   Dn1  v127
 BYTE   W06
 BYTE   N24  Cn1
 BYTE   N02  Dn1
 BYTE   N06  Gn1
 BYTE   W03
 BYTE   N02  Dn1
 BYTE   W03
 BYTE   N06
 BYTE   W06
 BYTE   N06
 BYTE   W06
 BYTE   N06
 BYTE   W06
 BYTE   N12  Cn1
 BYTE   N12  Dn1
 BYTE   N12  An2  v076
 BYTE   W12
 BYTE   Cn1  v127
 BYTE   N12  Dn1
 BYTE   N12  An2  v076
 BYTE   W36
//  #10 //062   ----------------------------------------
 BYTE   N96  Cn1  v127
 BYTE   N96  An2  v076
 BYTE   W96
//  #10 //063   ----------------------------------------
 BYTE   W96
//  #10 //064   ----------------------------------------
 BYTE   W96
//  #10 //065   ----------------------------------------
 BYTE   W96
//  #10 //066   ----------------------------------------
 BYTE   W96
//  #10 //067   ----------------------------------------
 BYTE   W72
 BYTE   W72
//  #10 //068   ----------------------------------------
 BYTE   W72
 BYTE   W72
//  #10 //069   ----------------------------------------
 BYTE   W72
 BYTE   W24
//  #10 //070   ----------------------------------------
 BYTE   GoTo
  POIN2 Label_012F27F4
 BYTE   FINE

//**************** Track 11 (Midi-Chn.10) ****************//

Engage_011:
//  #11 //000   ----------------------------------------
 BYTE   KEYSH   Engage_key+0
 BYTE   VOICE   13
 BYTE   VOL   22*Engage_mvl/mxv
 BYTE   PAN   c_v-1
 BYTE   W96
//  #11 //001   ----------------------------------------
Label_0104BB01:
 BYTE   N12  Fs4  v104
 BYTE   W12
 BYTE   Bn3  v092
 BYTE   W12
 BYTE   Cs4  v096
 BYTE   W12
 BYTE   Dn4  v100
 BYTE   W12
 BYTE   An4  v120
 BYTE   W12
 BYTE   Gs4  v112
 BYTE   W12
 BYTE   Bn3  v084
 BYTE   W12
 BYTE   Bn4  v112
 BYTE   W12
//  #11 //002   ----------------------------------------
 BYTE   An4  v120
 BYTE   W12
 BYTE   Cs4  v084
 BYTE   W12
 BYTE   Dn5  v112
 BYTE   W12
 BYTE   Cs5
 BYTE   W12
 BYTE   Fs4  v096
 BYTE   W12
 BYTE   En4  v084
 BYTE   W12
 BYTE   Gs3
 BYTE   W12
 BYTE   An3
 BYTE   W12
//  #11 //003   ----------------------------------------
 BYTE   En4  v104
 BYTE   W12
 BYTE   Dn4  v092
 BYTE   W12
 BYTE   Bn4  v112
 BYTE   W12
 BYTE   An4
 BYTE   W12
 BYTE   Cs4  v088
 BYTE   W12
 BYTE   Bn3  v084
 BYTE   W12
 BYTE   Fs4  v112
 BYTE   W12
 BYTE   Bn3  v084
 BYTE   W12
//  #11 //004   ----------------------------------------
Label_0104BB46:
 BYTE   N12  Cs4  v096
 BYTE   W12
 BYTE   Dn4
 BYTE   W12
 BYTE   An4  v112
 BYTE   W12
 BYTE   Gs4
 BYTE   W12
 BYTE   Bn3  v088
 BYTE   W12
 BYTE   Bn4  v112
 BYTE   W12
 BYTE   An4
 BYTE   W12
 BYTE   Cs4  v084
 BYTE   W12
 BYTE   PEND 
//  #11 //005   ----------------------------------------
 BYTE   N06  Bn3  v088
 BYTE   W06
 BYTE   Cs4
 BYTE   W06
 BYTE   En4  v104
 BYTE   W06
 BYTE   Fs4  v116
 BYTE   W06
 BYTE   An4  v127
 BYTE   W06
 BYTE   Bn4
 BYTE   W06
 BYTE   An4  v124
 BYTE   W06
 BYTE   Fs4  v112
 BYTE   W06
 BYTE   En4  v104
 BYTE   W06
 BYTE   Cs4  v088
 BYTE   W06
 BYTE   N12  Bn3  v084
 BYTE   W12
 BYTE   Fs4  v108
 BYTE   W12
 BYTE   Bn3  v084
 BYTE   W12
//  #11 //006   ----------------------------------------
 BYTE   PATT
  POIN2 Label_0104BB46
//  #11 //007   ----------------------------------------
 BYTE   N12  Dn5  v120
 BYTE   W12
 BYTE   Cs5  v112
 BYTE   W12
 BYTE   Fs4  v092
 BYTE   W12
 BYTE   En4  v088
 BYTE   W12
 BYTE   Gs3
 BYTE   W12
 BYTE   An3  v084
 BYTE   W12
 BYTE   En4  v100
 BYTE   W12
 BYTE   Dn4  v092
 BYTE   W12
//  #11 //008   ----------------------------------------
 BYTE   Bn4  v120
 BYTE   W12
 BYTE   An4  v112
 BYTE   W12
 BYTE   Cn4  v084
 BYTE   W12
 BYTE   Bn3
 BYTE   W12
 BYTE   Fn4  v112
 BYTE   W12
 BYTE   Bn3  v084
 BYTE   W12
 BYTE   Cn4  v088
 BYTE   W12
 BYTE   Dn4  v096
 BYTE   W12
//  #11 //009   ----------------------------------------
 BYTE   An4  v120
 BYTE   W12
 BYTE   Gn4  v112
 BYTE   W12
 BYTE   Bn3  v084
 BYTE   W12
 BYTE   Bn4  v112
 BYTE   W12
 BYTE   An4  v120
 BYTE   W12
 BYTE   Cn4  v084
 BYTE   W12
 BYTE   Bn3
 BYTE   W12
 BYTE   An3
 BYTE   W12
//  #11 //010   ----------------------------------------
 BYTE   N06  Fn3  v088
 BYTE   W06
 BYTE   Cn3  v084
 BYTE   W06
 BYTE   En3
 BYTE   W06
 BYTE   Fn3
 BYTE   W06
 BYTE   An3  v088
 BYTE   W06
 BYTE   En3
 BYTE   W06
 BYTE   Gn3
 BYTE   W06
 BYTE   An3  v096
 BYTE   W06
 BYTE   Cn4  v112
 BYTE   W06
 BYTE   Fn3  v088
 BYTE   W06
 BYTE   Bn3  v108
 BYTE   W06
 BYTE   Cn4  v112
 BYTE   W06
 BYTE   En4  v120
 BYTE   W06
 BYTE   Bn3  v108
 BYTE   W06
 BYTE   Cn4  v112
 BYTE   W06
 BYTE   En4  v124
 BYTE   W06
//  #11 //011   ----------------------------------------
 BYTE   Fn4  v127
 BYTE   W06
 BYTE   Cn4  v112
 BYTE   W06
 BYTE   En4  v124
 BYTE   W06
 BYTE   Fn4
 BYTE   W06
 BYTE   An4  v127
 BYTE   W06
 BYTE   En4  v124
 BYTE   W06
 BYTE   Fn4
 BYTE   W06
 BYTE   Bn4  v127
 BYTE   W54
//  #11 //012   ----------------------------------------
 BYTE   W96
//  #11 //013   ----------------------------------------
 BYTE   W96
//  #11 //014   ----------------------------------------
 BYTE   W96
//  #11 //015   ----------------------------------------
 BYTE   W96
//  #11 //016   ----------------------------------------
 BYTE   W96
//  #11 //017   ----------------------------------------
 BYTE   W96
//  #11 //018   ----------------------------------------
 BYTE   W96
//  #11 //019   ----------------------------------------
 BYTE   W96
//  #11 //020   ----------------------------------------
 BYTE   W96
//  #11 //021   ----------------------------------------
 BYTE   W96
//  #11 //022   ----------------------------------------
 BYTE   W96
//  #11 //023   ----------------------------------------
 BYTE   W96
//  #11 //024   ----------------------------------------
 BYTE   W96
//  #11 //025   ----------------------------------------
 BYTE   W96
//  #11 //026   ----------------------------------------
 BYTE   W96
//  #11 //027   ----------------------------------------
 BYTE   W96
//  #11 //028   ----------------------------------------
 BYTE   W96
//  #11 //029   ----------------------------------------
 BYTE   W96
//  #11 //030   ----------------------------------------
 BYTE   W96
//  #11 //031   ----------------------------------------
 BYTE   W96
//  #11 //032   ----------------------------------------
 BYTE   W96
//  #11 //033   ----------------------------------------
 BYTE   W96
//  #11 //034   ----------------------------------------
 BYTE   W96
//  #11 //035   ----------------------------------------
 BYTE   W96
//  #11 //036   ----------------------------------------
 BYTE   W96
//  #11 //037   ----------------------------------------
 BYTE   W96
//  #11 //038   ----------------------------------------
 BYTE   W96
//  #11 //039   ----------------------------------------
 BYTE   W96
//  #11 //040   ----------------------------------------
 BYTE   W96
//  #11 //041   ----------------------------------------
 BYTE   W96
//  #11 //042   ----------------------------------------
 BYTE   W96
//  #11 //043   ----------------------------------------
 BYTE   W96
//  #11 //044   ----------------------------------------
 BYTE   W96
//  #11 //045   ----------------------------------------
 BYTE   W96
//  #11 //046   ----------------------------------------
 BYTE   W96
//  #11 //047   ----------------------------------------
 BYTE   W96
//  #11 //048   ----------------------------------------
 BYTE   W96
//  #11 //049   ----------------------------------------
 BYTE   W96
//  #11 //050   ----------------------------------------
 BYTE   W96
//  #11 //051   ----------------------------------------
 BYTE   W96
//  #11 //052   ----------------------------------------
 BYTE   W96
//  #11 //053   ----------------------------------------
 BYTE   W96
//  #11 //054   ----------------------------------------
 BYTE   W96
//  #11 //055   ----------------------------------------
 BYTE   W96
//  #11 //056   ----------------------------------------
 BYTE   W96
//  #11 //057   ----------------------------------------
 BYTE   W96
//  #11 //058   ----------------------------------------
 BYTE   W96
//  #11 //059   ----------------------------------------
 BYTE   W96
//  #11 //060   ----------------------------------------
 BYTE   W96
//  #11 //061   ----------------------------------------
 BYTE   W96
//  #11 //062   ----------------------------------------
 BYTE   N12  Fs4  v092
 BYTE   W12
 BYTE   Bn3  v080
 BYTE   W12
 BYTE   Cs4  v084
 BYTE   W12
 BYTE   Dn4
 BYTE   W12
 BYTE   An4  v100
 BYTE   W12
 BYTE   Gs4  v096
 BYTE   W12
 BYTE   Bn3  v072
 BYTE   W12
 BYTE   Bn4  v096
 BYTE   W12
//  #11 //063   ----------------------------------------
 BYTE   An4  v100
 BYTE   W12
 BYTE   Cs4  v072
 BYTE   W12
 BYTE   Dn5  v096
 BYTE   W12
 BYTE   Cs5
 BYTE   W12
 BYTE   Fs4  v080
 BYTE   W12
 BYTE   En4  v072
 BYTE   W12
 BYTE   Gs3
 BYTE   W12
 BYTE   An3
 BYTE   W12
//  #11 //064   ----------------------------------------
 BYTE   En4  v088
 BYTE   W12
 BYTE   Dn4  v072
 BYTE   W12
 BYTE   Bn4  v092
 BYTE   W12
 BYTE   An4
 BYTE   W12
 BYTE   Cs4  v072
 BYTE   W12
 BYTE   Bn3  v068
 BYTE   W12
 BYTE   Fs4  v088
 BYTE   W12
 BYTE   Bn3  v068
 BYTE   W12
//  #11 //065   ----------------------------------------
 BYTE   Cs4  v076
 BYTE   W12
 BYTE   Dn4
 BYTE   W12
 BYTE   An4  v092
 BYTE   W12
 BYTE   Gs4  v088
 BYTE   W12
 BYTE   Bn3  v068
 BYTE   W12
 BYTE   Bn4  v088
 BYTE   W12
 BYTE   An4
 BYTE   W12
 BYTE   Cs4  v064
 BYTE   W12
//  #11 //066   ----------------------------------------
 BYTE   Dn5  v092
 BYTE   W12
 BYTE   Cs5  v088
 BYTE   W12
 BYTE   Fs4  v072
 BYTE   W12
 BYTE   En4  v068
 BYTE   W12
 BYTE   En5  v092
 BYTE   W12
 BYTE   Dn5  v088
 BYTE   W12
 BYTE   En4  v064
 BYTE   W12
 BYTE   Dn4
 BYTE   W12
//  #11 //067   ----------------------------------------
 BYTE   Fs5  v092
 BYTE   W12
 BYTE   En5  v088
 BYTE   W12
 BYTE   Gn4  v064
 BYTE   W12
 BYTE   Fs4
 BYTE   W12
 BYTE   Dn5  v084
 BYTE   W12
 BYTE   Cs5
 BYTE   W12
 BYTE   Fs4  v092
 BYTE   W12
 BYTE   Bn3  v080
 BYTE   W12
//  #11 //068   ----------------------------------------
 BYTE   Cs4  v084
 BYTE   W12
 BYTE   Dn4
 BYTE   W12
 BYTE   An4  v100
 BYTE   W12
 BYTE   Gs4  v096
 BYTE   W12
 BYTE   Bn3  v072
 BYTE   W12
 BYTE   Bn4  v096
 BYTE   W12
 BYTE   An4  v100
 BYTE   W12
 BYTE   Cs4  v072
 BYTE   W12
//  #11 //069   ----------------------------------------
 BYTE   Dn5  v096
 BYTE   W12
 BYTE   Cs5
 BYTE   W12
 BYTE   Fs4  v080
 BYTE   W12
 BYTE   En4  v072
 BYTE   W12
 BYTE   Gs3
 BYTE   W12
 BYTE   An3
 BYTE   W12
 BYTE   En4  v088
 BYTE   W12
 BYTE   Dn4  v072
 BYTE   W12
//  #11 //070   ----------------------------------------
 BYTE   Bn4  v092
 BYTE   W12
 BYTE   An4
 BYTE   W12
 BYTE   Cs4  v072
 BYTE   W12
 BYTE   Bn3  v068
 BYTE   W12
 BYTE   Gs3  v072
 BYTE   W12
 BYTE   An3
 BYTE   W12
 BYTE   En4  v088
 BYTE   W12
 BYTE   Dn4  v072
 BYTE   W12
//  #11 //071   ----------------------------------------
 BYTE   GoTo
  POIN2 Label_0104BB01
 BYTE   FINE

//**************** Track 12 (Midi-Chn.11) ****************//

Engage_012:
//  #12 //000   ----------------------------------------
 BYTE   VOL   70*Engage_mvl/mxv
 BYTE   KEYSH   Engage_key+0
 BYTE   VOICE   31
 BYTE   W96
//  #12 //001   ----------------------------------------
Label_0104A32F:
 BYTE   W96
//  #12 //002   ----------------------------------------
 BYTE   W96
//  #12 //003   ----------------------------------------
 BYTE   W96
//  #12 //004   ----------------------------------------
 BYTE   W96
//  #12 //005   ----------------------------------------
 BYTE   W96
//  #12 //006   ----------------------------------------
 BYTE   W96
//  #12 //007   ----------------------------------------
 BYTE   W96
//  #12 //008   ----------------------------------------
 BYTE   W96
//  #12 //009   ----------------------------------------
 BYTE   W96
//  #12 //010   ----------------------------------------
 BYTE   W96
//  #12 //011   ----------------------------------------
 BYTE   W96
//  #12 //012   ----------------------------------------
 BYTE   W96
//  #12 //013   ----------------------------------------
 BYTE   W96
//  #12 //014   ----------------------------------------
 BYTE   W96
//  #12 //015   ----------------------------------------
 BYTE   W96
//  #12 //016   ----------------------------------------
 BYTE   W96
//  #12 //017   ----------------------------------------
 BYTE   W96
//  #12 //018   ----------------------------------------
 BYTE   W96
//  #12 //019   ----------------------------------------
 BYTE   W96
//  #12 //020   ----------------------------------------
 BYTE   W96
//  #12 //021   ----------------------------------------
 BYTE   W96
//  #12 //022   ----------------------------------------
 BYTE   W96
//  #12 //023   ----------------------------------------
 BYTE   W96
//  #12 //024   ----------------------------------------
 BYTE   W96
//  #12 //025   ----------------------------------------
 BYTE   W96
//  #12 //026   ----------------------------------------
 BYTE   W96
//  #12 //027   ----------------------------------------
 BYTE   W96
//  #12 //028   ----------------------------------------
 BYTE   W96
//  #12 //029   ----------------------------------------
 BYTE   W96
//  #12 //030   ----------------------------------------
 BYTE   W96
//  #12 //031   ----------------------------------------
 BYTE   W96
//  #12 //032   ----------------------------------------
 BYTE   W96
//  #12 //033   ----------------------------------------
 BYTE   W96
//  #12 //034   ----------------------------------------
 BYTE   TIE  Cn3  v127
 BYTE   W96
//  #12 //035   ----------------------------------------
 BYTE   W96
//  #12 //036   ----------------------------------------
 BYTE   EOT
 BYTE   W96
//  #12 //037   ----------------------------------------
 BYTE   W96
//  #12 //038   ----------------------------------------
 BYTE   W96
//  #12 //039   ----------------------------------------
 BYTE   W96
//  #12 //040   ----------------------------------------
 BYTE   W96
//  #12 //041   ----------------------------------------
 BYTE   W96
//  #12 //042   ----------------------------------------
 BYTE   W96
//  #12 //043   ----------------------------------------
 BYTE   W96
//  #12 //044   ----------------------------------------
 BYTE   W96
//  #12 //045   ----------------------------------------
 BYTE   W96
//  #12 //046   ----------------------------------------
 BYTE   W96
//  #12 //047   ----------------------------------------
 BYTE   W96
//  #12 //048   ----------------------------------------
 BYTE   W96
//  #12 //049   ----------------------------------------
 BYTE   W96
//  #12 //050   ----------------------------------------
 BYTE   W96
//  #12 //051   ----------------------------------------
 BYTE   W96
//  #12 //052   ----------------------------------------
 BYTE   W96
//  #12 //053   ----------------------------------------
 BYTE   W96
//  #12 //054   ----------------------------------------
 BYTE   W96
//  #12 //055   ----------------------------------------
 BYTE   W96
//  #12 //056   ----------------------------------------
 BYTE   W96
//  #12 //057   ----------------------------------------
 BYTE   W96
//  #12 //058   ----------------------------------------
 BYTE   W96
//  #12 //059   ----------------------------------------
 BYTE   W96
//  #12 //060   ----------------------------------------
 BYTE   W96
//  #12 //061   ----------------------------------------
 BYTE   W96
//  #12 //062   ----------------------------------------
 BYTE   W96
//  #12 //063   ----------------------------------------
 BYTE   W96
//  #12 //064   ----------------------------------------
 BYTE   W96
//  #12 //065   ----------------------------------------
 BYTE   W96
//  #12 //066   ----------------------------------------
 BYTE   W96
//  #12 //067   ----------------------------------------
 BYTE   W72
 BYTE   W72
//  #12 //068   ----------------------------------------
 BYTE   W72
 BYTE   W72
//  #12 //069   ----------------------------------------
 BYTE   W72
 BYTE   W24
//  #12 //070   ----------------------------------------
 BYTE   GoTo
  POIN2 Label_0104A32F
 BYTE   FINE

//**************** Track 13 (Midi-Chn.12) ****************//

Engage_013:
//  #13 //000   ----------------------------------------
 BYTE   KEYSH   Engage_key+0
 BYTE   VOICE   47
 BYTE   VOL   37*Engage_mvl/mxv
 BYTE   PAN   c_v-1
 BYTE   W48
 BYTE   N02  Gn1  v064
 BYTE   W03
 BYTE   N02
 BYTE   W03
 BYTE   Gn1  v068
 BYTE   W03
 BYTE   Gn1  v072
 BYTE   W03
 BYTE   Gn1  v076
 BYTE   W03
 BYTE   Gn1  v080
 BYTE   W03
 BYTE   Gn1  v084
 BYTE   W03
 BYTE   N02
 BYTE   W03
 BYTE   Gn1  v088
 BYTE   W03
 BYTE   Gn1  v092
 BYTE   W03
 BYTE   Gn1  v096
 BYTE   W03
 BYTE   Gn1  v100
 BYTE   W03
 BYTE   Gn1  v104
 BYTE   W03
 BYTE   Gn1  v108
 BYTE   W03
 BYTE   N02
 BYTE   W03
 BYTE   Gn1  v112
 BYTE   W03
//  #13 //001   ----------------------------------------
Label_012F3483:
 BYTE   N72  Gn1  v127
 BYTE   W84
 BYTE   TIE  Bn1
 BYTE   W12
//  #13 //002   ----------------------------------------
 BYTE   W96
//  #13 //003   ----------------------------------------
 BYTE   EOT
 BYTE   W24
 BYTE   N60  En1
 BYTE   W60
 BYTE   N36  Gn1
 BYTE   W12
//  #13 //004   ----------------------------------------
 BYTE   W36
 BYTE   N12  En1
 BYTE   W24
 BYTE   N02  En1  v064
 BYTE   W03
 BYTE   N02
 BYTE   W03
 BYTE   N02
 BYTE   W03
 BYTE   En1  v068
 BYTE   W03
 BYTE   N02
 BYTE   W03
 BYTE   En1  v072
 BYTE   W03
 BYTE   N02
 BYTE   W03
 BYTE   En1  v076
 BYTE   W03
 BYTE   N02
 BYTE   W03
 BYTE   En1  v080
 BYTE   W03
 BYTE   N02
 BYTE   W03
 BYTE   En1  v084
 BYTE   W03
//  #13 //005   ----------------------------------------
 BYTE   N02
 BYTE   W03
 BYTE   En1  v088
 BYTE   W03
 BYTE   N02
 BYTE   W03
 BYTE   En1  v092
 BYTE   W03
 BYTE   N02
 BYTE   W03
 BYTE   En1  v096
 BYTE   W03
 BYTE   N02
 BYTE   W03
 BYTE   N02
 BYTE   W03
 BYTE   En1  v100
 BYTE   W03
 BYTE   N02
 BYTE   W03
 BYTE   En1  v104
 BYTE   W03
 BYTE   N02
 BYTE   W03
 BYTE   En1  v108
 BYTE   W03
 BYTE   N02
 BYTE   W03
 BYTE   En1  v112
 BYTE   W03
 BYTE   N02
 BYTE   W15
 BYTE   N06  Bn1  v127
 BYTE   W24
 BYTE   N60  En1
 BYTE   W12
//  #13 //006   ----------------------------------------
 BYTE   W48
 BYTE   N03  Dn2
 BYTE   W15
 BYTE   N04
 BYTE   W16
 BYTE   N03
 BYTE   W17
//  #13 //007   ----------------------------------------
 BYTE   N48  Gn1
 BYTE   W60
 BYTE   BEND   c_v+61
 BYTE   W01
 BYTE   BEND   c_v+58
 BYTE   N03  Fn1  v116
 BYTE   W01
 BYTE   BEND   c_v+56
 BYTE   W01
 BYTE   BEND   c_v+53
 BYTE   W01
 BYTE   BEND   c_v+50
 BYTE   N03
 BYTE   W01
 BYTE   BEND   c_v+48
 BYTE   W01
 BYTE   BEND   c_v+45
 BYTE   W01
 BYTE   BEND   c_v+42
 BYTE   N03
 BYTE   W01
 BYTE   BEND   c_v+40
 BYTE   W01
 BYTE   BEND   c_v+37
 BYTE   W01
 BYTE   BEND   c_v+34
 BYTE   N03
 BYTE   W01
 BYTE   BEND   c_v+32
 BYTE   W01
 BYTE   BEND   c_v+29
 BYTE   W01
 BYTE   BEND   c_v+26
 BYTE   N03
 BYTE   W01
 BYTE   BEND   c_v+24
 BYTE   W01
 BYTE   BEND   c_v+21
 BYTE   W01
 BYTE   BEND   c_v+18
 BYTE   N03
 BYTE   W01
 BYTE   BEND   c_v+16
 BYTE   W01
 BYTE   BEND   c_v+13
 BYTE   W01
 BYTE   BEND   c_v+10
 BYTE   N03
 BYTE   W01
 BYTE   BEND   c_v+8
 BYTE   W01
 BYTE   BEND   c_v+5
 BYTE   W01
 BYTE   BEND   c_v+2
 BYTE   N03
 BYTE   W01
 BYTE   BEND   c_v+0
 BYTE   W02
 BYTE   N01  Fn1  v092
 BYTE   W03
 BYTE   N01
 BYTE   W03
 BYTE   N01
 BYTE   W03
 BYTE   Fn1  v088
 BYTE   W02
//  #13 //008   ----------------------------------------
 BYTE   W01
 BYTE   Fn1  v084
 BYTE   W03
 BYTE   Fn1  v080
 BYTE   W03
 BYTE   Fn1  v072
 BYTE   W03
 BYTE   Fn1  v068
 BYTE   W03
 BYTE   Fn1  v064
 BYTE   W03
 BYTE   Fn1  v116
 BYTE   W03
 BYTE   N01
 BYTE   W03
 BYTE   N01
 BYTE   W03
 BYTE   N01
 BYTE   W03
 BYTE   N01
 BYTE   W03
 BYTE   N01
 BYTE   W03
 BYTE   N01
 BYTE   W03
 BYTE   N01
 BYTE   W03
 BYTE   N01
 BYTE   W03
 BYTE   N01
 BYTE   W03
 BYTE   N01
 BYTE   W03
 BYTE   N01
 BYTE   W03
 BYTE   N01
 BYTE   W03
 BYTE   N01
 BYTE   W03
 BYTE   N01
 BYTE   W03
 BYTE   N01
 BYTE   W03
 BYTE   N01
 BYTE   W03
 BYTE   N01
 BYTE   W03
 BYTE   N01
 BYTE   W03
 BYTE   N01
 BYTE   W03
 BYTE   N01
 BYTE   W03
 BYTE   N01
 BYTE   W03
 BYTE   N01
 BYTE   W03
 BYTE   N01
 BYTE   W03
 BYTE   N01
 BYTE   W03
 BYTE   N01
 BYTE   W03
 BYTE   Fn1  v120
 BYTE   W02
//  #13 //009   ----------------------------------------
 BYTE   W01
 BYTE   N01
 BYTE   W03
 BYTE   N01
 BYTE   W03
 BYTE   N01
 BYTE   W03
 BYTE   N01
 BYTE   W03
 BYTE   N01
 BYTE   W03
 BYTE   N01
 BYTE   W03
 BYTE   N01
 BYTE   W03
 BYTE   N01
 BYTE   W03
 BYTE   N01
 BYTE   W03
 BYTE   N01
 BYTE   W03
 BYTE   N01
 BYTE   W03
 BYTE   N01
 BYTE   W03
 BYTE   N01
 BYTE   W03
 BYTE   N01
 BYTE   W03
 BYTE   N01
 BYTE   W03
 BYTE   N01
 BYTE   W03
 BYTE   N01
 BYTE   W03
 BYTE   N01
 BYTE   W03
 BYTE   N01
 BYTE   W03
 BYTE   N01
 BYTE   W03
 BYTE   N01
 BYTE   W03
 BYTE   N01
 BYTE   W03
 BYTE   N01
 BYTE   W03
 BYTE   N01
 BYTE   W03
 BYTE   N01
 BYTE   W03
 BYTE   N01
 BYTE   W03
 BYTE   N01
 BYTE   W03
 BYTE   N01
 BYTE   W03
 BYTE   N01
 BYTE   W03
 BYTE   N01
 BYTE   W03
 BYTE   N01
 BYTE   W03
 BYTE   N01
 BYTE   W02
//  #13 //010   ----------------------------------------
 BYTE   W01
 BYTE   N01
 BYTE   W03
 BYTE   N01
 BYTE   W03
 BYTE   N01
 BYTE   W03
 BYTE   Fn1  v124
 BYTE   W03
 BYTE   N01
 BYTE   W03
 BYTE   N01
 BYTE   W03
 BYTE   N01
 BYTE   W03
 BYTE   N01
 BYTE   W03
 BYTE   N01
 BYTE   W03
 BYTE   N01
 BYTE   W03
 BYTE   N01
 BYTE   W03
 BYTE   N01
 BYTE   W03
 BYTE   N01
 BYTE   W03
 BYTE   N01
 BYTE   W03
 BYTE   N01
 BYTE   W03
 BYTE   N01
 BYTE   W03
 BYTE   N01
 BYTE   W03
 BYTE   N01
 BYTE   W03
 BYTE   N01
 BYTE   W03
 BYTE   N01
 BYTE   W03
 BYTE   N01
 BYTE   W03
 BYTE   N01
 BYTE   W03
 BYTE   N01
 BYTE   W03
 BYTE   N01
 BYTE   W03
 BYTE   N01
 BYTE   W03
 BYTE   N01
 BYTE   W03
 BYTE   N01
 BYTE   W03
 BYTE   N01
 BYTE   W03
 BYTE   N01
 BYTE   W03
 BYTE   N01
 BYTE   W03
 BYTE   N01
 BYTE   W03
 BYTE   N01
 BYTE   W02
//  #13 //011   ----------------------------------------
 BYTE   W01
 BYTE   N01
 BYTE   W03
 BYTE   N01
 BYTE   W03
 BYTE   N01
 BYTE   W03
 BYTE   N01
 BYTE   W03
 BYTE   N01
 BYTE   W03
 BYTE   N01
 BYTE   W03
 BYTE   N01
 BYTE   W03
 BYTE   Fn1  v127
 BYTE   W72
 BYTE   W02
//  #13 //012   ----------------------------------------
 BYTE   W96
//  #13 //013   ----------------------------------------
 BYTE   W96
//  #13 //014   ----------------------------------------
 BYTE   W96
//  #13 //015   ----------------------------------------
 BYTE   W96
//  #13 //016   ----------------------------------------
 BYTE   W96
//  #13 //017   ----------------------------------------
 BYTE   W96
//  #13 //018   ----------------------------------------
 BYTE   W96
//  #13 //019   ----------------------------------------
 BYTE   W84
 BYTE   N06  Fs1  v084
 BYTE   W06
 BYTE   Fs1  v092
 BYTE   W06
//  #13 //020   ----------------------------------------
 BYTE   N96  Fs1  v104
 BYTE   W96
//  #13 //021   ----------------------------------------
 BYTE   W96
//  #13 //022   ----------------------------------------
 BYTE   W96
//  #13 //023   ----------------------------------------
 BYTE   W96
//  #13 //024   ----------------------------------------
 BYTE   W96
//  #13 //025   ----------------------------------------
 BYTE   W96
//  #13 //026   ----------------------------------------
 BYTE   W96
//  #13 //027   ----------------------------------------
 BYTE   W48
 BYTE   N06  Bn1  v124
 BYTE   W12
 BYTE   Bn1  v120
 BYTE   W36
//  #13 //028   ----------------------------------------
 BYTE   W96
//  #13 //029   ----------------------------------------
 BYTE   W96
//  #13 //030   ----------------------------------------
 BYTE   W96
//  #13 //031   ----------------------------------------
 BYTE   W84
 BYTE   Fs1  v072
 BYTE   W06
 BYTE   N06
 BYTE   W06
//  #13 //032   ----------------------------------------
 BYTE   N96  Fs1  v076
 BYTE   W96
//  #13 //033   ----------------------------------------
 BYTE   W96
//  #13 //034   ----------------------------------------
 BYTE   W96
//  #13 //035   ----------------------------------------
 BYTE   N03  Fs1  v068
 BYTE   W03
 BYTE   N03
 BYTE   W03
 BYTE   Fs1  v064
 BYTE   W03
 BYTE   N03
 BYTE   W03
 BYTE   N03
 BYTE   W03
 BYTE   N03
 BYTE   W03
 BYTE   Fs1  v068
 BYTE   W03
 BYTE   N03
 BYTE   W03
 BYTE   N03
 BYTE   W03
 BYTE   N03
 BYTE   W03
 BYTE   N03
 BYTE   W03
 BYTE   N03
 BYTE   W03
 BYTE   Fs1  v072
 BYTE   W03
 BYTE   N03
 BYTE   W03
 BYTE   N03
 BYTE   W03
 BYTE   N03
 BYTE   W03
 BYTE   N03
 BYTE   W03
 BYTE   N03
 BYTE   W03
 BYTE   Fs1  v076
 BYTE   W03
 BYTE   N03
 BYTE   W03
 BYTE   N03
 BYTE   W03
 BYTE   N03
 BYTE   W03
 BYTE   N03
 BYTE   W03
 BYTE   Fs1  v080
 BYTE   W03
 BYTE   BEND   c_v+61
 BYTE   W01
 BYTE   BEND   c_v+58
 BYTE   TIE  Fn1
 BYTE   W01
 BYTE   BEND   c_v+56
 BYTE   W01
 BYTE   BEND   c_v+53
 BYTE   W01
 BYTE   BEND   c_v+50
 BYTE   W01
 BYTE   BEND   c_v+48
 BYTE   W01
 BYTE   BEND   c_v+45
 BYTE   W01
 BYTE   BEND   c_v+42
 BYTE   W01
 BYTE   BEND   c_v+40
 BYTE   W01
 BYTE   BEND   c_v+37
 BYTE   W01
 BYTE   BEND   c_v+34
 BYTE   W01
 BYTE   BEND   c_v+32
 BYTE   W01
 BYTE   BEND   c_v+29
 BYTE   W01
 BYTE   BEND   c_v+26
 BYTE   W01
 BYTE   BEND   c_v+24
 BYTE   W01
 BYTE   BEND   c_v+21
 BYTE   W01
 BYTE   BEND   c_v+18
 BYTE   W01
 BYTE   BEND   c_v+16
 BYTE   W01
 BYTE   BEND   c_v+13
 BYTE   W01
 BYTE   BEND   c_v+10
 BYTE   W01
 BYTE   BEND   c_v+8
 BYTE   W01
 BYTE   BEND   c_v+5
 BYTE   W01
 BYTE   BEND   c_v+2
 BYTE   W01
 BYTE   BEND   c_v+0
 BYTE   W01
//  #13 //036   ----------------------------------------
 BYTE   W92
 BYTE   W03
 BYTE   EOT
 BYTE   W01
//  #13 //037   ----------------------------------------
 BYTE   W96
//  #13 //038   ----------------------------------------
 BYTE   W96
//  #13 //039   ----------------------------------------
 BYTE   N02  Ds1  v068
 BYTE   W03
 BYTE   Ds1  v064
 BYTE   W03
 BYTE   N02
 BYTE   W03
 BYTE   N02
 BYTE   W03
 BYTE   Ds1  v068
 BYTE   W03
 BYTE   N02
 BYTE   W03
 BYTE   N02
 BYTE   W03
 BYTE   Ds1  v072
 BYTE   W03
 BYTE   N02
 BYTE   W03
 BYTE   N02
 BYTE   W03
 BYTE   N02
 BYTE   W03
 BYTE   Ds1  v076
 BYTE   W03
 BYTE   N02
 BYTE   W03
 BYTE   N02
 BYTE   W03
 BYTE   Ds1  v080
 BYTE   W03
 BYTE   N02
 BYTE   W03
 BYTE   N02
 BYTE   W03
 BYTE   N02
 BYTE   W03
 BYTE   Ds1  v084
 BYTE   W03
 BYTE   N02
 BYTE   W03
 BYTE   N02
 BYTE   W03
 BYTE   Ds1  v088
 BYTE   W03
 BYTE   N02
 BYTE   W03
 BYTE   N02
 BYTE   W03
 BYTE   N02
 BYTE   W03
 BYTE   Ds1  v092
 BYTE   W03
 BYTE   N02
 BYTE   W03
 BYTE   N02
 BYTE   W03
 BYTE   Ds1  v096
 BYTE   W03
 BYTE   N02
 BYTE   W03
 BYTE   N02
 BYTE   W03
 BYTE   N02
 BYTE   W03
//  #13 //040   ----------------------------------------
 BYTE   N36  Cn2  v124
 BYTE   W36
 BYTE   Cn2  v120
 BYTE   W36
 BYTE   N02  Gs1  v108
 BYTE   W03
 BYTE   N02
 BYTE   W03
 BYTE   Gs1  v100
 BYTE   W03
 BYTE   N02
 BYTE   W03
 BYTE   N02
 BYTE   W03
 BYTE   Gs1  v104
 BYTE   W03
 BYTE   N02
 BYTE   W03
 BYTE   N02
 BYTE   W03
//  #13 //041   ----------------------------------------
 BYTE   N02
 BYTE   W03
 BYTE   N02
 BYTE   W03
 BYTE   N02
 BYTE   W03
 BYTE   N02
 BYTE   W03
 BYTE   Gs1  v108
 BYTE   W03
 BYTE   N02
 BYTE   W03
 BYTE   N02
 BYTE   W03
 BYTE   N02
 BYTE   W03
 BYTE   N02
 BYTE   W03
 BYTE   N02
 BYTE   W03
 BYTE   Gs1  v112
 BYTE   W03
 BYTE   N02
 BYTE   W03
 BYTE   N02
 BYTE   W03
 BYTE   N02
 BYTE   W03
 BYTE   N02
 BYTE   W03
 BYTE   N02
 BYTE   W03
 BYTE   Gs1  v100
 BYTE   W03
 BYTE   N02
 BYTE   W03
 BYTE   N02
 BYTE   W03
 BYTE   Gs1  v096
 BYTE   W03
 BYTE   N02
 BYTE   W03
 BYTE   N02
 BYTE   W03
 BYTE   N02
 BYTE   W03
 BYTE   N02
 BYTE   W03
 BYTE   Gs1  v092
 BYTE   W03
 BYTE   N02
 BYTE   W03
 BYTE   N02
 BYTE   W03
 BYTE   N02
 BYTE   W03
 BYTE   N02
 BYTE   W03
 BYTE   Gs1  v088
 BYTE   W03
 BYTE   N02
 BYTE   W03
 BYTE   N02
 BYTE   W03
//  #13 //042   ----------------------------------------
 BYTE   W84
 BYTE   Bn1  v108
 BYTE   W03
 BYTE   N02
 BYTE   W03
 BYTE   N02
 BYTE   W03
 BYTE   Bn1  v088
 BYTE   W03
//  #13 //043   ----------------------------------------
 BYTE   Bn1  v076
 BYTE   W03
 BYTE   Bn1  v088
 BYTE   W03
 BYTE   N02
 BYTE   W03
 BYTE   N02
 BYTE   W03
 BYTE   N02
 BYTE   W03
 BYTE   N02
 BYTE   W03
 BYTE   N02
 BYTE   W03
 BYTE   Bn1  v092
 BYTE   W03
 BYTE   N02
 BYTE   W03
 BYTE   N02
 BYTE   W03
 BYTE   N02
 BYTE   W03
 BYTE   N02
 BYTE   W03
 BYTE   N02
 BYTE   W03
 BYTE   N02
 BYTE   W03
 BYTE   N02
 BYTE   W03
 BYTE   N02
 BYTE   W03
 BYTE   Bn1  v096
 BYTE   W03
 BYTE   N02
 BYTE   W03
 BYTE   N02
 BYTE   W03
 BYTE   N02
 BYTE   W03
 BYTE   N02
 BYTE   W03
 BYTE   N02
 BYTE   W03
 BYTE   N02
 BYTE   W03
 BYTE   N02
 BYTE   W24
 BYTE   W03
//  #13 //044   ----------------------------------------
 BYTE   N72  En1  v124
 BYTE   W84
 BYTE   N12  En1  v108
 BYTE   W12
//  #13 //045   ----------------------------------------
 BYTE   N72  Cn2  v116
 BYTE   W84
 BYTE   N12  Cn2  v108
 BYTE   W12
//  #13 //046   ----------------------------------------
 BYTE   N72  Dn2  v112
 BYTE   W84
 BYTE   N12  Dn2  v108
 BYTE   W12
//  #13 //047   ----------------------------------------
 BYTE   N96  Gn1  v104
 BYTE   W96
//  #13 //048   ----------------------------------------
 BYTE   Cn2
 BYTE   W96
//  #13 //049   ----------------------------------------
 BYTE   Dn2
 BYTE   W96
//  #13 //050   ----------------------------------------
 BYTE   N84  Gn1
 BYTE   W84
 BYTE   N60  Cn2  v120
 BYTE   W12
//  #13 //051   ----------------------------------------
 BYTE   W48
 BYTE   N02  Dn2  v116
 BYTE   W03
 BYTE   N02
 BYTE   W03
 BYTE   Dn2  v100
 BYTE   W03
 BYTE   N02
 BYTE   W03
 BYTE   Dn2  v104
 BYTE   W03
 BYTE   N02
 BYTE   W03
 BYTE   N02
 BYTE   W03
 BYTE   N02
 BYTE   W03
 BYTE   Dn2  v108
 BYTE   W03
 BYTE   N02
 BYTE   W03
 BYTE   N02
 BYTE   W03
 BYTE   N02
 BYTE   W03
 BYTE   Dn2  v112
 BYTE   W03
 BYTE   N02
 BYTE   W03
 BYTE   N02
 BYTE   W03
 BYTE   N02
 BYTE   W03
//  #13 //052   ----------------------------------------
 BYTE   N72  En1  v127
 BYTE   W84
 BYTE   N12  En1  v124
 BYTE   W12
//  #13 //053   ----------------------------------------
 BYTE   N72  Cn2  v127
 BYTE   W84
 BYTE   N12  Cn2  v124
 BYTE   W12
//  #13 //054   ----------------------------------------
 BYTE   N72  Dn2  v127
 BYTE   W84
 BYTE   N12  Dn2  v124
 BYTE   W12
//  #13 //055   ----------------------------------------
 BYTE   N36  Gn1  v120
 BYTE   W36
 BYTE   N60  Gn1  v127
 BYTE   W60
//  #13 //056   ----------------------------------------
 BYTE   N96  En1  v120
 BYTE   W96
//  #13 //057   ----------------------------------------
 BYTE   N72  Cn2  v124
 BYTE   W84
 BYTE   N12
 BYTE   W12
//  #13 //058   ----------------------------------------
 BYTE   N36
 BYTE   W36
 BYTE   N24  Cn2  v116
 BYTE   W24
 BYTE   N24
 BYTE   W24
 BYTE   N06
 BYTE   W06
 BYTE   N06
 BYTE   W06
//  #13 //059   ----------------------------------------
 BYTE   N96  Fn1  v112
 BYTE   W96
//  #13 //060   ----------------------------------------
 BYTE   N02  Fn1  v064
 BYTE   W03
 BYTE   N02
 BYTE   W03
 BYTE   N02
 BYTE   W03
 BYTE   N02
 BYTE   W03
 BYTE   Fn1  v068
 BYTE   W03
 BYTE   N02
 BYTE   W03
 BYTE   N02
 BYTE   W03
 BYTE   N02
 BYTE   W03
 BYTE   Fn1  v072
 BYTE   W03
 BYTE   N02
 BYTE   W03
 BYTE   N02
 BYTE   W03
 BYTE   Fn1  v076
 BYTE   W03
 BYTE   N02
 BYTE   W03
 BYTE   N02
 BYTE   W03
 BYTE   N02
 BYTE   W03
 BYTE   Fn1  v080
 BYTE   W03
 BYTE   N02
 BYTE   W03
 BYTE   N02
 BYTE   W03
 BYTE   N02
 BYTE   W03
 BYTE   Fn1  v084
 BYTE   W03
 BYTE   N02
 BYTE   W03
 BYTE   N02
 BYTE   W03
 BYTE   Fn1  v088
 BYTE   W03
 BYTE   N02
 BYTE   W03
 BYTE   N02
 BYTE   W03
 BYTE   N02
 BYTE   W03
 BYTE   Fn1  v092
 BYTE   W03
 BYTE   N02
 BYTE   W03
 BYTE   N02
 BYTE   W03
 BYTE   Fn1  v096
 BYTE   W03
 BYTE   N02
 BYTE   W03
 BYTE   N02
 BYTE   W03
//  #13 //061   ----------------------------------------
 BYTE   N02
 BYTE   W03
 BYTE   Fn1  v100
 BYTE   W03
 BYTE   N02
 BYTE   W03
 BYTE   N02
 BYTE   W03
 BYTE   N02
 BYTE   W03
 BYTE   Fn1  v104
 BYTE   W03
 BYTE   N02
 BYTE   W03
 BYTE   N02
 BYTE   W03
 BYTE   Fn1  v108
 BYTE   W03
 BYTE   N02
 BYTE   W03
 BYTE   N02
 BYTE   W03
 BYTE   N02
 BYTE   W03
 BYTE   Fn1  v112
 BYTE   W03
 BYTE   N02
 BYTE   W03
 BYTE   N02
 BYTE   W03
 BYTE   N02
 BYTE   W03
 BYTE   N06  Fn1  v127
 BYTE   W12
 BYTE   N06
 BYTE   W36
//  #13 //062   ----------------------------------------
 BYTE   W96
//  #13 //063   ----------------------------------------
 BYTE   W96
//  #13 //064   ----------------------------------------
 BYTE   W96
//  #13 //065   ----------------------------------------
 BYTE   W96
//  #13 //066   ----------------------------------------
 BYTE   W96
//  #13 //067   ----------------------------------------
 BYTE   W72
 BYTE   W72
//  #13 //068   ----------------------------------------
 BYTE   W72
 BYTE   W48
//  #13 //069   ----------------------------------------
 BYTE   VOL   37*Engage_mvl/mxv
 BYTE   PAN   c_v-1
 BYTE   VOL   37*Engage_mvl/mxv
 BYTE   PAN   c_v-1
 BYTE   W24
 BYTE   W48
 BYTE   N02  Gn1  v064
 BYTE   W03
 BYTE   N02
 BYTE   W03
 BYTE   Gn1  v068
 BYTE   W03
 BYTE   Gn1  v072
 BYTE   W03
 BYTE   Gn1  v076
 BYTE   W03
 BYTE   Gn1  v080
 BYTE   W03
 BYTE   Gn1  v084
 BYTE   W03
 BYTE   N02
 BYTE   W03
//  #13 //070   ----------------------------------------
 BYTE   Gn1  v088
 BYTE   W03
 BYTE   Gn1  v092
 BYTE   W03
 BYTE   Gn1  v096
 BYTE   W03
 BYTE   Gn1  v100
 BYTE   W03
 BYTE   Gn1  v104
 BYTE   W03
 BYTE   Gn1  v108
 BYTE   W03
 BYTE   N02
 BYTE   W03
 BYTE   Gn1  v112
 BYTE   W03
 BYTE   GoTo
  POIN2 Label_012F3483
 BYTE   FINE

//**************** Track 14 (Midi-Chn.13) ****************//

Engage_014:
//  #14 //000   ----------------------------------------
 BYTE   KEYSH   Engage_key+0
 BYTE   VOICE   34
 BYTE   VOL   37*Engage_mvl/mxv
 BYTE   PAN   c_v-1
 BYTE   W96
//  #14 //001   ----------------------------------------
Label_012F38F5:
 BYTE   N72  Gn1  v127
 BYTE   W84
 BYTE   TIE  Bn1
 BYTE   W12
//  #14 //002   ----------------------------------------
 BYTE   W96
//  #14 //003   ----------------------------------------
 BYTE   EOT
 BYTE   W24
 BYTE   N60  En1
 BYTE   W60
 BYTE   N36  Cn2
 BYTE   W12
//  #14 //004   ----------------------------------------
 BYTE   W36
 BYTE   N12  An1
 BYTE   W24
 BYTE   N36
 BYTE   W36
//  #14 //005   ----------------------------------------
 BYTE   W60
 BYTE   N06  Bn1
 BYTE   W24
 BYTE   N60  An1
 BYTE   W12
//  #14 //006   ----------------------------------------
 BYTE   W48
 BYTE   N03  Dn2
 BYTE   W15
 BYTE   N04  Cs2
 BYTE   W16
 BYTE   N03  Cn2
 BYTE   W17
//  #14 //007   ----------------------------------------
 BYTE   N48  Gn1  v120
 BYTE   W60
 BYTE   N06  Gn1  v124
 BYTE   W24
 BYTE   TIE  Fn1  v112
 BYTE   W12
//  #14 //008   ----------------------------------------
 BYTE   W96
//  #14 //009   ----------------------------------------
 BYTE   W96
//  #14 //010   ----------------------------------------
 BYTE   EOT
 BYTE   N96  Fn1  v080
 BYTE   W96
//  #14 //011   ----------------------------------------
 BYTE   N48
 BYTE   W96
//  #14 //012   ----------------------------------------
 BYTE   N06  Fs2  v124
 BYTE   W48
 BYTE   Fs2  v104
 BYTE   W24
 BYTE   Fs2  v100
 BYTE   W24
//  #14 //013   ----------------------------------------
 BYTE   Dn2  v124
 BYTE   W72
 BYTE   Dn2  v100
 BYTE   W24
//  #14 //014   ----------------------------------------
 BYTE   En2  v127
 BYTE   W48
 BYTE   En2  v104
 BYTE   W24
 BYTE   En2  v100
 BYTE   W24
//  #14 //015   ----------------------------------------
 BYTE   Cs2  v124
 BYTE   W96
//  #14 //016   ----------------------------------------
 BYTE   N96  Dn2  v092
 BYTE   W96
//  #14 //017   ----------------------------------------
 BYTE   En2  v104
 BYTE   W96
//  #14 //018   ----------------------------------------
 BYTE   Bn1  v088
 BYTE   W96
//  #14 //019   ----------------------------------------
 BYTE   N06  Cs2  v104
 BYTE   W48
 BYTE   Cs2  v124
 BYTE   W12
 BYTE   Cs2  v120
 BYTE   W12
 BYTE   BEND   c_v+61
 BYTE   W01
 BYTE   BEND   c_v+58
 BYTE   N28  Fs1  v100
 BYTE   W01
 BYTE   BEND   c_v+56
 BYTE   W01
 BYTE   BEND   c_v+53
 BYTE   W01
 BYTE   BEND   c_v+50
 BYTE   W01
 BYTE   BEND   c_v+48
 BYTE   W01
 BYTE   BEND   c_v+45
 BYTE   W01
 BYTE   BEND   c_v+42
 BYTE   W01
 BYTE   BEND   c_v+40
 BYTE   W01
 BYTE   BEND   c_v+37
 BYTE   W01
 BYTE   BEND   c_v+34
 BYTE   W01
 BYTE   BEND   c_v+32
 BYTE   W01
 BYTE   BEND   c_v+29
 BYTE   W01
 BYTE   BEND   c_v+26
 BYTE   W01
 BYTE   BEND   c_v+24
 BYTE   W01
 BYTE   BEND   c_v+21
 BYTE   W01
 BYTE   BEND   c_v+18
 BYTE   W01
 BYTE   BEND   c_v+16
 BYTE   W01
 BYTE   BEND   c_v+13
 BYTE   W01
 BYTE   BEND   c_v+10
 BYTE   W01
 BYTE   BEND   c_v+8
 BYTE   W01
 BYTE   BEND   c_v+5
 BYTE   W01
 BYTE   BEND   c_v+2
 BYTE   W01
 BYTE   BEND   c_v+0
 BYTE   W01
//  #14 //020   ----------------------------------------
 BYTE   W24
 BYTE   N06
 BYTE   W24
 BYTE   Fs1  v104
 BYTE   W24
 BYTE   Fs1  v100
 BYTE   W24
//  #14 //021   ----------------------------------------
 BYTE   Dn2  v108
 BYTE   W24
 BYTE   Dn2  v100
 BYTE   W24
 BYTE   Dn2  v104
 BYTE   W24
 BYTE   Dn2  v100
 BYTE   W24
//  #14 //022   ----------------------------------------
 BYTE   En2  v108
 BYTE   W24
 BYTE   En2  v100
 BYTE   W24
 BYTE   En2  v104
 BYTE   W24
 BYTE   En2  v100
 BYTE   W24
//  #14 //023   ----------------------------------------
 BYTE   Cs2  v104
 BYTE   W24
 BYTE   Cs2  v100
 BYTE   W24
 BYTE   Cs2  v104
 BYTE   W24
 BYTE   Cs2  v100
 BYTE   W24
//  #14 //024   ----------------------------------------
 BYTE   Dn2  v104
 BYTE   W24
 BYTE   Dn2  v100
 BYTE   W24
 BYTE   Dn2  v104
 BYTE   W24
 BYTE   Dn2  v100
 BYTE   W24
//  #14 //025   ----------------------------------------
 BYTE   En2  v104
 BYTE   W24
 BYTE   En2  v100
 BYTE   W24
 BYTE   En2  v104
 BYTE   W24
 BYTE   En2  v100
 BYTE   W24
//  #14 //026   ----------------------------------------
 BYTE   N96  Bn1  v104
 BYTE   W96
//  #14 //027   ----------------------------------------
 BYTE   N24  Bn2  v108
 BYTE   W24
 BYTE   Fs2  v100
 BYTE   W24
 BYTE   N12  Ds2
 BYTE   W12
 BYTE   N11  Cs2  v096
 BYTE   W12
 BYTE   N12  Bn1  v092
 BYTE   W12
 BYTE   N11  Cs2  v084
 BYTE   W12
//  #14 //028   ----------------------------------------
 BYTE   TIE  Dn2  v076
 BYTE   W96
//  #14 //029   ----------------------------------------
 BYTE   W96
//  #14 //030   ----------------------------------------
 BYTE   EOT
 BYTE   TIE  En2  v092
 BYTE   W96
//  #14 //031   ----------------------------------------
 BYTE   W96
//  #14 //032   ----------------------------------------
 BYTE   EOT
 BYTE   N06  Fs1  v076
 BYTE   W24
 BYTE   Fs1  v080
 BYTE   W24
 BYTE   Fs1  v088
 BYTE   W24
 BYTE   Fs1  v092
 BYTE   W24
//  #14 //033   ----------------------------------------
 BYTE   Fs1  v104
 BYTE   W24
 BYTE   Fs1  v092
 BYTE   W24
 BYTE   Fs1  v088
 BYTE   W24
 BYTE   Fs1  v080
 BYTE   W24
//  #14 //034   ----------------------------------------
 BYTE   Fs1  v076
 BYTE   W24
 BYTE   N06
 BYTE   W24
 BYTE   Fs1  v080
 BYTE   W24
 BYTE   N06
 BYTE   W24
//  #14 //035   ----------------------------------------
 BYTE   Fs1  v092
 BYTE   W24
 BYTE   Fs1  v088
 BYTE   W24
 BYTE   Fs1  v096
 BYTE   W24
 BYTE   An1
 BYTE   W06
 BYTE   Gs1
 BYTE   W06
 BYTE   Gn1
 BYTE   W06
 BYTE   N05  Fs1
 BYTE   W06
//  #14 //036   ----------------------------------------
Label_012F3A36:
 BYTE   N06  Fn1  v104
 BYTE   W24
 BYTE   Fn1  v100
 BYTE   W24
 BYTE   Fn1  v104
 BYTE   W24
 BYTE   Fn1  v100
 BYTE   W24
 BYTE   PEND 
//  #14 //037   ----------------------------------------
 BYTE   PATT
  POIN2 Label_012F3A36
//  #14 //038   ----------------------------------------
 BYTE   N06  Ds1  v108
 BYTE   W24
 BYTE   Ds1  v100
 BYTE   W24
 BYTE   Ds1  v104
 BYTE   W24
 BYTE   Ds1  v100
 BYTE   W24
//  #14 //039   ----------------------------------------
 BYTE   Ds1  v104
 BYTE   W24
 BYTE   Ds1  v100
 BYTE   W24
 BYTE   Ds1  v104
 BYTE   W24
 BYTE   Ds1  v100
 BYTE   W24
//  #14 //040   ----------------------------------------
 BYTE   N36  Cn2  v124
 BYTE   W36
 BYTE   As1  v116
 BYTE   W36
 BYTE   TIE  Gs1
 BYTE   W24
//  #14 //041   ----------------------------------------
 BYTE   W96
//  #14 //042   ----------------------------------------
 BYTE   EOT
 BYTE   N84  Gn1  v092
 BYTE   W84
 BYTE   Bn1  v112
 BYTE   W12
//  #14 //043   ----------------------------------------
 BYTE   W96
//  #14 //044   ----------------------------------------
Label_012F3A76:
 BYTE   N06  En1  v120
 BYTE   W24
 BYTE   En1  v112
 BYTE   W24
 BYTE   En1  v120
 BYTE   W24
 BYTE   En1  v116
 BYTE   W24
 BYTE   PEND 
//  #14 //045   ----------------------------------------
Label_012F3A84:
 BYTE   N06  Cn2  v124
 BYTE   W24
 BYTE   Cn2  v116
 BYTE   W24
 BYTE   Cn2  v120
 BYTE   W24
 BYTE   Cn2  v116
 BYTE   W24
 BYTE   PEND 
//  #14 //046   ----------------------------------------
Label_012F3A92:
 BYTE   N06  Dn2  v124
 BYTE   W24
 BYTE   Dn2  v116
 BYTE   W24
 BYTE   Dn2  v120
 BYTE   W24
 BYTE   Dn2  v116
 BYTE   W24
 BYTE   PEND 
//  #14 //047   ----------------------------------------
 BYTE   Gn1  v120
 BYTE   W24
 BYTE   Gn1  v112
 BYTE   W24
 BYTE   Gn1  v116
 BYTE   W24
 BYTE   Gn1  v112
 BYTE   W24
//  #14 //048   ----------------------------------------
 BYTE   PATT
  POIN2 Label_012F3A84
//  #14 //049   ----------------------------------------
 BYTE   PATT
  POIN2 Label_012F3A92
//  #14 //050   ----------------------------------------
 BYTE   N06  Cs2  v120
 BYTE   W24
 BYTE   Cs2  v116
 BYTE   W24
 BYTE   Cs2  v120
 BYTE   W24
 BYTE   Cs2  v116
 BYTE   W12
 BYTE   N24  Cn2  v127
 BYTE   W12
//  #14 //051   ----------------------------------------
 BYTE   W24
 BYTE   N06  Cn2  v116
 BYTE   W24
 BYTE   Dn2  v127
 BYTE   W24
 BYTE   Dn2  v116
 BYTE   W24
//  #14 //052   ----------------------------------------
 BYTE   En2  v124
 BYTE   W24
 BYTE   En2  v116
 BYTE   W24
 BYTE   En2  v120
 BYTE   W24
 BYTE   En2  v116
 BYTE   W24
//  #14 //053   ----------------------------------------
 BYTE   Cn2  v120
 BYTE   W24
 BYTE   Cn2  v112
 BYTE   W24
 BYTE   Cn2  v120
 BYTE   W24
 BYTE   Cn2  v116
 BYTE   W24
//  #14 //054   ----------------------------------------
 BYTE   Dn2  v120
 BYTE   W24
 BYTE   Dn2  v116
 BYTE   W24
 BYTE   Dn2  v120
 BYTE   W24
 BYTE   Dn2  v116
 BYTE   W24
//  #14 //055   ----------------------------------------
 BYTE   Gn1  v120
 BYTE   W24
 BYTE   Gn1  v112
 BYTE   W12
 BYTE   N24  Fn1  v127
 BYTE   W36
 BYTE   N06  Fn1  v112
 BYTE   W24
//  #14 //056   ----------------------------------------
 BYTE   PATT
  POIN2 Label_012F3A76
//  #14 //057   ----------------------------------------
 BYTE   PATT
  POIN2 Label_012F3A84
//  #14 //058   ----------------------------------------
 BYTE   N06  Cn2  v120
 BYTE   W24
 BYTE   Cn2  v116
 BYTE   W24
 BYTE   Cn2  v120
 BYTE   W24
 BYTE   Cn2  v116
 BYTE   W24
//  #14 //059   ----------------------------------------
 BYTE   Fn1  v120
 BYTE   W24
 BYTE   Fn1  v096
 BYTE   W24
 BYTE   Fn1  v104
 BYTE   W24
 BYTE   Fn1  v100
 BYTE   W24
//  #14 //060   ----------------------------------------
 BYTE   Fn1  v112
 BYTE   W24
 BYTE   Fn1  v104
 BYTE   W24
 BYTE   Fn1  v112
 BYTE   W24
 BYTE   Fn1  v108
 BYTE   W24
//  #14 //061   ----------------------------------------
 BYTE   Fn1  v116
 BYTE   W24
 BYTE   Fn1  v112
 BYTE   W24
 BYTE   Fn1  v127
 BYTE   W12
 BYTE   N06
 BYTE   W36
//  #14 //062   ----------------------------------------
 BYTE   TIE  En1
 BYTE   W96
//  #14 //063   ----------------------------------------
 BYTE   W96
//  #14 //064   ----------------------------------------
 BYTE   W96
//  #14 //065   ----------------------------------------
 BYTE   W96
//  #14 //066   ----------------------------------------
 BYTE   W96
//  #14 //067   ----------------------------------------
 BYTE   W72
 BYTE   EOT
 BYTE   W72
//  #14 //068   ----------------------------------------
 BYTE   W72
 BYTE   W72
//  #14 //069   ----------------------------------------
 BYTE   W72
 BYTE   W24
//  #14 //070   ----------------------------------------
 BYTE   GoTo
  POIN2 Label_012F38F5
 BYTE   FINE

//******************************************************//
	ALIGN 4

Engage:
	BYTE	14	// NumTrks
	BYTE	0	// NumBlks
	BYTE	Engage_pri	// Priority
	BYTE	Engage_rev	// Reverb.
    
	POIN2	Engage_grp
    
	POIN2	Engage_001
	POIN2	Engage_002
	POIN2	Engage_003
	POIN2	Engage_004
	POIN2	Engage_005
	POIN2	Engage_006
	POIN2	Engage_007
	POIN2	Engage_008
	POIN2	Engage_009
	POIN2	Engage_010
	POIN2	Engage_011
	POIN2	Engage_012
	POIN2	Engage_013
	POIN2	Engage_014

	
