//Event file generated from Sappy .s format.
	#include "MPlayDef.event"

	#define	song34_grp  voicegroup000
	#define	song34_pri  0
	#define	song34_rev  0
	#define	song34_mvl  127
	#define	song34_key  0
	#define	song34_tbs  1
	#define	song34_exg  0
	#define	song34_cmp  1

	// .rodata
	//	song34
	ALIGN 4


//**************** Track 1 (Midi-Chn.0) ****************//

song34_001:
//  #01 //000   ----------------------------------------
 BYTE   KEYSH   song34_key+0
 BYTE   TEMPO   120*song34_tbs/2
 BYTE   VOICE   48
 BYTE   VOL   55*song34_mvl/mxv
 BYTE   PAN   c_v+0
 BYTE   W12
Label_01273CA3:
 BYTE   TEMPO   106*song34_tbs/2
 BYTE   N11  Gn3  v096
 BYTE   W01
 BYTE   W01
 BYTE   W01
 BYTE   W01
 BYTE   W01
 BYTE   W07
 BYTE   N02  Gn3  v064
 BYTE   W06
 BYTE   N05  Cn3
 BYTE   W18
 BYTE   N11
 BYTE   W42
 BYTE   N02  Fn3
 BYTE   W06
//  #01 //001   ----------------------------------------
 BYTE   Cn3
 BYTE   W12
 BYTE   PEND 
Label_01273CBD:
 BYTE   N11  Gn3  v096
 BYTE   W01
 BYTE   W01
 BYTE   W01
 BYTE   W01
 BYTE   W01
 BYTE   W07
 BYTE   N02  Gn3  v064
 BYTE   W06
 BYTE   N05  Cn3
 BYTE   W18
 BYTE   N11
 BYTE   W42
 BYTE   N02  Fn3
 BYTE   W06
//  #01 //002   ----------------------------------------
 BYTE   Cn3
 BYTE   W12
 BYTE   PEND 
//  #01 //003   ----------------------------------------
 BYTE   PATT
  POIN2 Label_01273CBD
//  #01 //004   ----------------------------------------
Label_01273CDA:
//  #01 //005   ----------------------------------------
 BYTE   PATT
  POIN2 Label_01273CBD
//  #01 //006   ----------------------------------------
Label_01273CDF:
 BYTE   N11  Gn3  v096
 BYTE   W01
 BYTE   W01
 BYTE   W01
 BYTE   W01
 BYTE   W01
 BYTE   W07
 BYTE   N02  Gn3  v064
 BYTE   W06
 BYTE   N05  Cn3
 BYTE   W18
 BYTE   N11
 BYTE   W24
 BYTE   N05  Gn3
 BYTE   W06
 BYTE   N02  Fn3
 BYTE   W12
 BYTE   Cn3
 BYTE   W06
 BYTE   N02
 BYTE   W12
 BYTE   PEND 
//  #01 //007   ----------------------------------------
 BYTE   PATT
  POIN2 Label_01273CDF
//  #01 //008   ----------------------------------------
 BYTE   PATT
  POIN2 Label_01273CDF
//  #01 //009   ----------------------------------------
 BYTE   PATT
  POIN2 Label_01273CDF
//  #01 //010   ----------------------------------------
 BYTE   PATT
  POIN2 Label_01273CDF
//  #01 //011   ----------------------------------------
 BYTE   PATT
  POIN2 Label_01273CDF
//  #01 //012   ----------------------------------------
 BYTE   PATT
  POIN2 Label_01273CDF
//  #01 //013   ----------------------------------------
 BYTE   PATT
  POIN2 Label_01273CDF
//  #01 //014   ----------------------------------------
 BYTE   PATT
  POIN2 Label_01273CDF
//  #01 //015   ----------------------------------------
 BYTE   PATT
  POIN2 Label_01273CDF
//  #01 //016   ----------------------------------------
 BYTE   PATT
  POIN2 Label_01273CDF
//  #01 //017   ----------------------------------------
 BYTE   PATT
  POIN2 Label_01273CDF
//  #01 //018   ----------------------------------------
Label_01273D33:
 BYTE   N05  Cn3  v064
 BYTE   W12
 BYTE   Gn3
 BYTE   W12
 BYTE   Cn3
 BYTE   W12
 BYTE   Gn3
 BYTE   W12
 BYTE   Cn3
 BYTE   W12
 BYTE   Gn3
 BYTE   W12
 BYTE   Cn3
 BYTE   W12
 BYTE   Gn3
 BYTE   W12
 BYTE   PEND 
//  #01 //019   ----------------------------------------
 BYTE   PATT
  POIN2 Label_01273D33
//  #01 //020   ----------------------------------------
Label_01273D4B:
 BYTE   N05  Cn3  v064
 BYTE   W12
 BYTE   Gs3
 BYTE   W12
 BYTE   Cn3
 BYTE   W12
 BYTE   Gs3
 BYTE   W12
 BYTE   Cn3
 BYTE   W12
 BYTE   Gs3
 BYTE   W12
 BYTE   Cn3
 BYTE   W12
 BYTE   Gs3
 BYTE   W12
 BYTE   PEND 
//  #01 //021   ----------------------------------------
 BYTE   PATT
  POIN2 Label_01273D4B
//  #01 //022   ----------------------------------------
Label_01273D63:
 BYTE   N05  As2  v064
 BYTE   W12
 BYTE   Fn3
 BYTE   W12
 BYTE   As2
 BYTE   W12
 BYTE   Fn3
 BYTE   W12
 BYTE   As2
 BYTE   W12
 BYTE   Fn3
 BYTE   W12
 BYTE   As2
 BYTE   W12
 BYTE   Fn3
 BYTE   W12
 BYTE   PEND 
//  #01 //023   ----------------------------------------
 BYTE   PATT
  POIN2 Label_01273D63
//  #01 //024   ----------------------------------------
 BYTE   PATT
  POIN2 Label_01273D4B
//  #01 //025   ----------------------------------------
 BYTE   PATT
  POIN2 Label_01273D63
//  #01 //026   ----------------------------------------
Label_01273D85:
 BYTE   N11  Gn3  v096
 BYTE   W01
 BYTE   W01
 BYTE   W01
 BYTE   W01
 BYTE   W01
 BYTE   W07
 BYTE   N02  Gn3  v064
 BYTE   W06
 BYTE   N05  Cn3
 BYTE   W18
 BYTE   N11
 BYTE   W24
 BYTE   N05  Gn3
 BYTE   W06
 BYTE   N02  Cn4
 BYTE   W30
 BYTE   PEND 
//  #01 //027   ----------------------------------------
 BYTE   PATT
  POIN2 Label_01273D85
//  #01 //028   ----------------------------------------
 BYTE   PATT
  POIN2 Label_01273D85
//  #01 //029   ----------------------------------------
 BYTE   PATT
  POIN2 Label_01273D85
//  #01 //030   ----------------------------------------
 BYTE   PATT
  POIN2 Label_01273D85
//  #01 //031   ----------------------------------------
 BYTE   PATT
  POIN2 Label_01273D85
//  #01 //032   ----------------------------------------
 BYTE   PATT
  POIN2 Label_01273D85
//  #01 //033   ----------------------------------------
 BYTE   PATT
  POIN2 Label_01273D85
//  #01 //034   ----------------------------------------
 BYTE   W96
//  #01 //035   ----------------------------------------
 BYTE   W96
//  #01 //036   ----------------------------------------
 BYTE   W96
//  #01 //037   ----------------------------------------
 BYTE   W96
//  #01 //038   ----------------------------------------
 BYTE   W96
//  #01 //039   ----------------------------------------
 BYTE   W96
//  #01 //040   ----------------------------------------
 BYTE   W96
//  #01 //041   ----------------------------------------
 BYTE   W96
//  #01 //042   ----------------------------------------
Label_01273DC9:
 BYTE   N11  Cn4  v096
 BYTE   W01
 BYTE   W01
 BYTE   W01
 BYTE   W01
 BYTE   W01
 BYTE   W13
 BYTE   N02  Fn3  v064
 BYTE   W12
 BYTE   Gn3
 BYTE   W18
 BYTE   N11  Cn4  v096
 BYTE   W01
 BYTE   W01
 BYTE   W01
 BYTE   W01
 BYTE   W01
 BYTE   W13
 BYTE   N02  Fn3  v064
 BYTE   W12
 BYTE   Gn3
 BYTE   W18
 BYTE   PEND 
//  #01 //043   ----------------------------------------
Label_01273DE8:
 BYTE   N11  Cn4  v096
 BYTE   W01
 BYTE   W01
 BYTE   W01
 BYTE   W01
 BYTE   W01
 BYTE   W13
 BYTE   N02  Fn3  v064
 BYTE   W12
 BYTE   Gn3
 BYTE   W18
 BYTE   N11  Cn4  v096
 BYTE   W01
 BYTE   W01
 BYTE   W16
 BYTE   N02  Fn3  v064
 BYTE   W12
 BYTE   Gn3
 BYTE   W18
 BYTE   PEND 
//  #01 //044   ----------------------------------------
 BYTE   PATT
  POIN2 Label_01273DE8
//  #01 //045   ----------------------------------------
 BYTE   PATT
  POIN2 Label_01273DC9
//  #01 //046   ----------------------------------------
 BYTE   N11  Dn4  v096
 BYTE   W01
 BYTE   W01
 BYTE   W01
 BYTE   W01
 BYTE   W01
 BYTE   W13
 BYTE   N02  Fn3  v064
 BYTE   W12
 BYTE   Gn3
 BYTE   W18
 BYTE   N11  Dn4  v096
 BYTE   W01
 BYTE   W01
 BYTE   W01
 BYTE   W01
 BYTE   W01
 BYTE   W13
 BYTE   N02  Fn3  v064
 BYTE   W12
 BYTE   Gn3
 BYTE   W18
//  #01 //047   ----------------------------------------
 BYTE   N11  Dn4  v096
 BYTE   W01
 BYTE   W01
 BYTE   W01
 BYTE   W01
 BYTE   W01
 BYTE   W13
 BYTE   N02  Fn3  v064
 BYTE   W12
 BYTE   Gn3
 BYTE   W18
 BYTE   N11  Dn4  v096
 BYTE   W01
 BYTE   W01
 BYTE   W16
 BYTE   N02  Fn3  v064
 BYTE   W12
 BYTE   Gn3
 BYTE   W18
//  #01 //048   ----------------------------------------
 BYTE   N11  Ds4  v096
 BYTE   W01
 BYTE   W01
 BYTE   W01
 BYTE   W01
 BYTE   W01
 BYTE   W13
 BYTE   N02  Fn3  v064
 BYTE   W12
 BYTE   Gn3
 BYTE   W18
 BYTE   N11  Ds4  v096
 BYTE   W01
 BYTE   W01
 BYTE   W16
 BYTE   N02  Fn3  v064
 BYTE   W12
 BYTE   Gn3
 BYTE   W18
//  #01 //049   ----------------------------------------
 BYTE   N11  Ds4  v096
 BYTE   W01
 BYTE   W01
 BYTE   W16
 BYTE   N02  Fn3  v064
 BYTE   W12
 BYTE   Gn3
 BYTE   W18
 BYTE   N11  Ds4  v096
 BYTE   W01
 BYTE   W01
 BYTE   W01
 BYTE   W01
 BYTE   W01
 BYTE   W13
 BYTE   N02  Fn3  v064
 BYTE   W12
 BYTE   Gn3
 BYTE   W18
//  #01 //050   ----------------------------------------
 BYTE   W48
 BYTE   N44  Fn2  v052
 BYTE   N44  Fn3
 BYTE   W01
 BYTE   W01
 BYTE   W44
 BYTE   W02
//  #01 //051   ----------------------------------------
 BYTE   Gn2
 BYTE   N44  Gn3
 BYTE   W01
 BYTE   W01
 BYTE   W01
 BYTE   W01
 BYTE   W01
 BYTE   W42
 BYTE   W01
 BYTE   Cn3
 BYTE   N44  Cn4
 BYTE   W01
 BYTE   W01
 BYTE   W44
 BYTE   W02
//  #01 //052   ----------------------------------------
 BYTE   As2
 BYTE   N44  As3
 BYTE   W01
 BYTE   W01
 BYTE   W01
 BYTE   W01
 BYTE   W01
 BYTE   W42
 BYTE   W01
 BYTE   N96  Fs2
 BYTE   N96  Fs3
 BYTE   W01
 BYTE   W01
 BYTE   W44
 BYTE   W02
//  #01 //053   ----------------------------------------
 BYTE   W48
 BYTE   N44  Fs2
 BYTE   N44  Fs3
 BYTE   W01
 BYTE   W01
 BYTE   W01
 BYTE   W01
 BYTE   W01
 BYTE   W42
 BYTE   W01
//  #01 //054   ----------------------------------------
 BYTE   Fs2
 BYTE   N44  Fs3
 BYTE   W01
 BYTE   W01
 BYTE   W01
 BYTE   W01
 BYTE   W01
 BYTE   W42
 BYTE   W01
 BYTE   Dn2
 BYTE   N44  Dn3
 BYTE   W01
 BYTE   W01
 BYTE   W01
 BYTE   W01
 BYTE   W01
 BYTE   W42
 BYTE   W01
//  #01 //055   ----------------------------------------
 BYTE   Fs2
 BYTE   N44  Fs3
 BYTE   W01
 BYTE   W01
 BYTE   W01
 BYTE   W01
 BYTE   W01
 BYTE   W42
 BYTE   W01
 BYTE   An2
 BYTE   N44  An3
 BYTE   W01
 BYTE   W01
 BYTE   W01
 BYTE   W01
 BYTE   W01
 BYTE   W42
 BYTE   W01
//  #01 //056   ----------------------------------------
 BYTE   N96  As2
 BYTE   N96  As3
 BYTE   W01
 BYTE   W01
 BYTE   W01
 BYTE   W01
 BYTE   W01
 BYTE   W90
 BYTE   W01
//  #01 //057   ----------------------------------------
 BYTE   Gn2
 BYTE   N96  Gn3
 BYTE   W01
 BYTE   W01
 BYTE   W01
 BYTE   W01
 BYTE   W01
 BYTE   W90
 BYTE   W01
//  #01 //058   ----------------------------------------
 BYTE   N44  Fs2
 BYTE   N44  Fs3
 BYTE   W01
 BYTE   W01
 BYTE   W01
 BYTE   W01
 BYTE   W01
 BYTE   W42
 BYTE   W01
 BYTE   Dn2
 BYTE   N44  Dn3
 BYTE   W01
 BYTE   W01
 BYTE   W44
 BYTE   W02
//  #01 //059   ----------------------------------------
 BYTE   Fs2
 BYTE   N44  Fs3
 BYTE   W01
 BYTE   W01
 BYTE   W01
 BYTE   W01
 BYTE   W01
 BYTE   W42
 BYTE   W01
 BYTE   An2
 BYTE   N44  An3
 BYTE   W01
 BYTE   W01
 BYTE   W44
 BYTE   W02
//  #01 //060   ----------------------------------------
 BYTE   Gs2
 BYTE   N44  Gs3
 BYTE   W01
 BYTE   W01
 BYTE   W01
 BYTE   W01
 BYTE   W01
 BYTE   W42
 BYTE   W01
 BYTE   Cs3
 BYTE   N44  Cs4
 BYTE   W01
 BYTE   W01
 BYTE   W44
 BYTE   W02
//  #01 //061   ----------------------------------------
 BYTE   Fn3
 BYTE   N44  Fn4
 BYTE   W01
 BYTE   W01
 BYTE   W44
 BYTE   W02
 BYTE   Gs3
 BYTE   N44  Gs4
 BYTE   W01
 BYTE   W01
 BYTE   W01
 BYTE   W01
 BYTE   W01
 BYTE   W42
 BYTE   W01
//  #01 //062   ----------------------------------------
 BYTE   Fs3
 BYTE   N44  Fs4
 BYTE   W01
 BYTE   W01
 BYTE   W01
 BYTE   W01
 BYTE   W01
 BYTE   W42
 BYTE   W01
 BYTE   Dn3
 BYTE   N44  Dn4
 BYTE   W01
 BYTE   W01
 BYTE   W01
 BYTE   W01
 BYTE   W01
 BYTE   W42
 BYTE   W01
//  #01 //063   ----------------------------------------
 BYTE   An2
 BYTE   N44  An3
 BYTE   W01
 BYTE   W01
 BYTE   W01
 BYTE   W01
 BYTE   W01
 BYTE   W42
 BYTE   W01
 BYTE   Fs2
 BYTE   N44  Fs3
 BYTE   W01
 BYTE   W01
 BYTE   W44
 BYTE   W02
//  #01 //064   ----------------------------------------
Label_01273F5D:
 BYTE   N96  Gs2  v052
 BYTE   N96  Gs3
 BYTE   W01
 BYTE   W01
 BYTE   W01
 BYTE   W01
 BYTE   W01
 BYTE   W90
 BYTE   W01
 BYTE   PEND 
//  #01 //065   ----------------------------------------
 BYTE   PATT
  POIN2 Label_01273F5D
//  #01 //066   ----------------------------------------
 BYTE   PATT
  POIN2 Label_01273CA3
//  #01 //067   ----------------------------------------
 BYTE   PATT
  POIN2 Label_01273CBD
//  #01 //068   ----------------------------------------
 BYTE   PATT
  POIN2 Label_01273CBD
//  #01 //069   ----------------------------------------
 BYTE   GoTo
  POIN2 Label_01273CDA
 BYTE   FINE

//**************** Track 2 (Midi-Chn.1) ****************//

song34_002:
//  #02 //000   ----------------------------------------
 BYTE   KEYSH   song34_key+0
 BYTE   VOICE   46
 BYTE   VOL   54*song34_mvl/mxv
 BYTE   PAN   c_v+0
 BYTE   W12
 BYTE   N06  Cn3  v052
 BYTE   W18
 BYTE   N08  Gn3
 BYTE   W18
 BYTE   Cn4
 BYTE   W24
 BYTE   N05
 BYTE   W24
//  #02 //001   ----------------------------------------
 BYTE   N05
 BYTE   W12
Label_0127488A:
 BYTE   N08  Cn3  v052
 BYTE   W18
 BYTE   Gn3
 BYTE   W18
 BYTE   Cn4
 BYTE   W24
 BYTE   N05
 BYTE   W24
//  #02 //002   ----------------------------------------
 BYTE   N05
 BYTE   W12
 BYTE   PEND 
//  #02 //003   ----------------------------------------
 BYTE   PATT
  POIN2 Label_0127488A
//  #02 //004   ----------------------------------------
Label_0127489C:
//  #02 //005   ----------------------------------------
 BYTE   PATT
  POIN2 Label_0127488A
//  #02 //006   ----------------------------------------
 BYTE   PATT
  POIN2 Label_0127488A
//  #02 //007   ----------------------------------------
 BYTE   PATT
  POIN2 Label_0127488A
//  #02 //008   ----------------------------------------
 BYTE   PATT
  POIN2 Label_0127488A
//  #02 //009   ----------------------------------------
 BYTE   PATT
  POIN2 Label_0127488A
//  #02 //010   ----------------------------------------
 BYTE   PATT
  POIN2 Label_0127488A
//  #02 //011   ----------------------------------------
 BYTE   PATT
  POIN2 Label_0127488A
//  #02 //012   ----------------------------------------
 BYTE   PATT
  POIN2 Label_0127488A
//  #02 //013   ----------------------------------------
 BYTE   PATT
  POIN2 Label_0127488A
//  #02 //014   ----------------------------------------
 BYTE   PATT
  POIN2 Label_0127488A
//  #02 //015   ----------------------------------------
 BYTE   PATT
  POIN2 Label_0127488A
//  #02 //016   ----------------------------------------
 BYTE   PATT
  POIN2 Label_0127488A
//  #02 //017   ----------------------------------------
 BYTE   PATT
  POIN2 Label_0127488A
//  #02 //018   ----------------------------------------
Label_012748DD:
 BYTE   N02  Cn3  v052
 BYTE   W12
 BYTE   Gn3
 BYTE   W12
 BYTE   Cn3
 BYTE   W12
 BYTE   Gn3
 BYTE   W12
 BYTE   Cn3
 BYTE   W12
 BYTE   Gn3
 BYTE   W12
 BYTE   Cn3
 BYTE   W12
 BYTE   Gn3
 BYTE   W12
 BYTE   PEND 
//  #02 //019   ----------------------------------------
 BYTE   PATT
  POIN2 Label_012748DD
//  #02 //020   ----------------------------------------
Label_012748F5:
 BYTE   N02  Cn3  v052
 BYTE   W12
 BYTE   Gs3
 BYTE   W12
 BYTE   Cn3
 BYTE   W12
 BYTE   Gs3
 BYTE   W12
 BYTE   Cn3
 BYTE   W12
 BYTE   Gs3
 BYTE   W12
 BYTE   Cn3
 BYTE   W12
 BYTE   Gs3
 BYTE   W12
 BYTE   PEND 
//  #02 //021   ----------------------------------------
 BYTE   PATT
  POIN2 Label_012748F5
//  #02 //022   ----------------------------------------
Label_0127490D:
 BYTE   N02  As2  v052
 BYTE   W12
 BYTE   Fn3
 BYTE   W12
 BYTE   As2
 BYTE   W12
 BYTE   Fn3
 BYTE   W12
 BYTE   As2
 BYTE   W12
 BYTE   Fn3
 BYTE   W12
 BYTE   As2
 BYTE   W12
 BYTE   Fn3
 BYTE   W12
 BYTE   PEND 
//  #02 //023   ----------------------------------------
 BYTE   PATT
  POIN2 Label_0127490D
//  #02 //024   ----------------------------------------
 BYTE   PATT
  POIN2 Label_012748F5
//  #02 //025   ----------------------------------------
 BYTE   PATT
  POIN2 Label_0127490D
//  #02 //026   ----------------------------------------
 BYTE   W96
//  #02 //027   ----------------------------------------
 BYTE   W96
//  #02 //028   ----------------------------------------
 BYTE   W96
//  #02 //029   ----------------------------------------
 BYTE   W96
//  #02 //030   ----------------------------------------
 BYTE   W96
//  #02 //031   ----------------------------------------
 BYTE   W96
//  #02 //032   ----------------------------------------
 BYTE   W96
//  #02 //033   ----------------------------------------
 BYTE   W96
//  #02 //034   ----------------------------------------
 BYTE   W96
//  #02 //035   ----------------------------------------
 BYTE   W96
//  #02 //036   ----------------------------------------
 BYTE   W96
//  #02 //037   ----------------------------------------
 BYTE   W96
//  #02 //038   ----------------------------------------
 BYTE   W96
//  #02 //039   ----------------------------------------
 BYTE   W96
//  #02 //040   ----------------------------------------
 BYTE   W96
//  #02 //041   ----------------------------------------
 BYTE   W96
//  #02 //042   ----------------------------------------
 BYTE   W96
//  #02 //043   ----------------------------------------
 BYTE   W96
//  #02 //044   ----------------------------------------
 BYTE   W96
//  #02 //045   ----------------------------------------
 BYTE   W96
//  #02 //046   ----------------------------------------
 BYTE   W96
//  #02 //047   ----------------------------------------
 BYTE   W96
//  #02 //048   ----------------------------------------
 BYTE   W96
//  #02 //049   ----------------------------------------
 BYTE   W96
//  #02 //050   ----------------------------------------
 BYTE   N11  Gn3  v096
 BYTE   W01
 BYTE   W01
 BYTE   W01
 BYTE   W01
 BYTE   W01
 BYTE   W13
 BYTE   N05  Cn3  v064
 BYTE   W18
 BYTE   Gn3
 BYTE   W12
 BYTE   Cn3
 BYTE   W12
 BYTE   Gn3
 BYTE   W12
 BYTE   Cn3
 BYTE   W12
 BYTE   Gn3
 BYTE   W12
//  #02 //051   ----------------------------------------
 BYTE   Cn3
 BYTE   W12
 BYTE   Gn3
 BYTE   W12
 BYTE   Cn3
 BYTE   W12
 BYTE   Gn3
 BYTE   W12
 BYTE   Cn3
 BYTE   W12
 BYTE   Gn3
 BYTE   W12
 BYTE   Cn3
 BYTE   W12
 BYTE   Gn3
 BYTE   W12
//  #02 //052   ----------------------------------------
Label_0127496E:
 BYTE   N05  As2  v064
 BYTE   W12
 BYTE   Fs3
 BYTE   W12
 BYTE   As2
 BYTE   W12
 BYTE   Fs3
 BYTE   W12
 BYTE   As2
 BYTE   W12
 BYTE   Fs3
 BYTE   W12
 BYTE   As2
 BYTE   W12
 BYTE   Fs3
 BYTE   W12
 BYTE   PEND 
//  #02 //053   ----------------------------------------
 BYTE   PATT
  POIN2 Label_0127496E
//  #02 //054   ----------------------------------------
Label_01274986:
 BYTE   N05  An2  v064
 BYTE   W12
 BYTE   Fs3
 BYTE   W12
 BYTE   An2
 BYTE   W12
 BYTE   Fs3
 BYTE   W12
 BYTE   An2
 BYTE   W12
 BYTE   Fs3
 BYTE   W12
 BYTE   An2
 BYTE   W12
 BYTE   Fs3
 BYTE   W12
 BYTE   PEND 
//  #02 //055   ----------------------------------------
 BYTE   PATT
  POIN2 Label_01274986
//  #02 //056   ----------------------------------------
Label_0127499E:
 BYTE   N05  Cn3  v064
 BYTE   W12
 BYTE   Gn3
 BYTE   W12
 BYTE   Cn3
 BYTE   W12
 BYTE   Gn3
 BYTE   W12
 BYTE   Cn3
 BYTE   W12
 BYTE   Gn3
 BYTE   W12
 BYTE   Cn3
 BYTE   W12
 BYTE   Gn3
 BYTE   W12
 BYTE   PEND 
//  #02 //057   ----------------------------------------
 BYTE   PATT
  POIN2 Label_0127499E
//  #02 //058   ----------------------------------------
Label_012749B6:
 BYTE   N05  Cn3  v064
 BYTE   W12
 BYTE   Fs3
 BYTE   W12
 BYTE   Cn3
 BYTE   W12
 BYTE   Fs3
 BYTE   W12
 BYTE   Cn3
 BYTE   W12
 BYTE   Fs3
 BYTE   W12
 BYTE   Cn3
 BYTE   W12
 BYTE   Fs3
 BYTE   W12
 BYTE   PEND 
//  #02 //059   ----------------------------------------
 BYTE   PATT
  POIN2 Label_012749B6
//  #02 //060   ----------------------------------------
Label_012749CE:
 BYTE   N05  Gs2  v064
 BYTE   W12
 BYTE   Fn3
 BYTE   W12
 BYTE   Gs2
 BYTE   W12
 BYTE   Fn3
 BYTE   W12
 BYTE   Gs2
 BYTE   W12
 BYTE   Fn3
 BYTE   W12
 BYTE   Gs2
 BYTE   W12
 BYTE   Fn3
 BYTE   W12
 BYTE   PEND 
//  #02 //061   ----------------------------------------
 BYTE   PATT
  POIN2 Label_012749CE
//  #02 //062   ----------------------------------------
 BYTE   PATT
  POIN2 Label_01274986
//  #02 //063   ----------------------------------------
 BYTE   PATT
  POIN2 Label_01274986
//  #02 //064   ----------------------------------------
 BYTE   N05  Cs3  v064
 BYTE   W12
 BYTE   Gs3
 BYTE   W12
 BYTE   Cs3
 BYTE   W12
 BYTE   Gs3
 BYTE   W12
 BYTE   Cs3
 BYTE   W12
 BYTE   Gs3
 BYTE   W12
 BYTE   Cs3
 BYTE   W12
 BYTE   Gs3
 BYTE   W12
//  #02 //065   ----------------------------------------
 BYTE   Cs3
 BYTE   W12
 BYTE   Gs3
 BYTE   W12
 BYTE   Cs3
 BYTE   W12
 BYTE   Gs3
 BYTE   W12
 BYTE   Cs3
 BYTE   W30
 BYTE   Gs3
 BYTE   W06
 BYTE   Cs3
 BYTE   W12
//  #02 //066   ----------------------------------------
 BYTE   N08  Cn3  v052
 BYTE   W18
 BYTE   Gn3
 BYTE   W18
 BYTE   Cn4
 BYTE   W24
 BYTE   N05
 BYTE   W24
 BYTE   N05
 BYTE   W12
//  #02 //067   ----------------------------------------
 BYTE   PATT
  POIN2 Label_0127488A
//  #02 //068   ----------------------------------------
 BYTE   PATT
  POIN2 Label_0127488A
//  #02 //069   ----------------------------------------
 BYTE   GoTo
  POIN2 Label_0127489C
 BYTE   FINE

//**************** Track 3 (Midi-Chn.2) ****************//

song34_003:
//  #03 //000   ----------------------------------------
 BYTE   KEYSH   song34_key+0
 BYTE   VOICE   68
 BYTE   VOL   60*song34_mvl/mxv
 BYTE   PAN   c_v+0
 BYTE   W12
 BYTE   W96
//  #03 //001   ----------------------------------------
 BYTE   W96
//  #03 //002   ----------------------------------------
 BYTE   W96
//  #03 //003   ----------------------------------------
Label_01274208:
 BYTE   W96
//  #03 //004   ----------------------------------------
 BYTE   W96
//  #03 //005   ----------------------------------------
 BYTE   W96
//  #03 //006   ----------------------------------------
 BYTE   W96
//  #03 //007   ----------------------------------------
 BYTE   W96
//  #03 //008   ----------------------------------------
 BYTE   W96
//  #03 //009   ----------------------------------------
 BYTE   W96
//  #03 //010   ----------------------------------------
 BYTE   W96
//  #03 //011   ----------------------------------------
 BYTE   W96
//  #03 //012   ----------------------------------------
 BYTE   W96
//  #03 //013   ----------------------------------------
 BYTE   W96
//  #03 //014   ----------------------------------------
 BYTE   W96
//  #03 //015   ----------------------------------------
 BYTE   W96
//  #03 //016   ----------------------------------------
 BYTE   W12
 BYTE   N11  Gn3  v072
 BYTE   W12
 BYTE   N02
 BYTE   W03
 BYTE   An3
 BYTE   W03
 BYTE   N05  Gn3
 BYTE   W06
 BYTE   Fn3
 BYTE   W06
 BYTE   Gn3
 BYTE   W06
 BYTE   N14  As3
 BYTE   W18
 BYTE   N05
 BYTE   W06
 BYTE   An3
 BYTE   W06
 BYTE   Gn3
 BYTE   W06
 BYTE   N11  Fn3
 BYTE   W12
//  #03 //017   ----------------------------------------
 BYTE   W09
 BYTE   N02  An3
 BYTE   W03
 BYTE   N11  Gn3
 BYTE   W12
 BYTE   N02
 BYTE   W03
 BYTE   An3
 BYTE   W03
 BYTE   N05  Gn3
 BYTE   W06
 BYTE   Fn3
 BYTE   W06
 BYTE   Gn3
 BYTE   W06
 BYTE   N14  As3
 BYTE   W18
 BYTE   N05
 BYTE   W06
 BYTE   N02  Dn4
 BYTE   W03
 BYTE   Cn4
 BYTE   W03
 BYTE   N05  As3
 BYTE   W06
 BYTE   An3
 BYTE   W06
 BYTE   N02  As3
 BYTE   W03
 BYTE   An3
 BYTE   W03
//  #03 //018   ----------------------------------------
Label_01274257:
 BYTE   N11  Gn3  v072
 BYTE   W12
 BYTE   Cn4
 BYTE   W12
 BYTE   N02
 BYTE   W03
 BYTE   Dn4
 BYTE   W03
 BYTE   N05  Cn4
 BYTE   W06
 BYTE   As3
 BYTE   W06
 BYTE   Cn4
 BYTE   W06
 BYTE   N14  Ds4
 BYTE   W18
 BYTE   N05
 BYTE   W06
 BYTE   Dn4
 BYTE   W06
 BYTE   Cn4
 BYTE   W06
 BYTE   N11  As3
 BYTE   W12
 BYTE   PEND 
//  #03 //019   ----------------------------------------
Label_01274275:
 BYTE   N05  Gn3  v072
 BYTE   W06
 BYTE   Cn4
 BYTE   W06
 BYTE   N02  Dn4
 BYTE   W03
 BYTE   Cn4
 BYTE   W03
 BYTE   N05  As3
 BYTE   W06
 BYTE   N02  Cn4
 BYTE   W03
 BYTE   Dn4
 BYTE   W03
 BYTE   N05  Cn4
 BYTE   W06
 BYTE   As3
 BYTE   W06
 BYTE   Cn4
 BYTE   W06
 BYTE   N14  Ds4
 BYTE   W18
 BYTE   N05
 BYTE   W06
 BYTE   Fn4
 BYTE   W06
 BYTE   Dn4
 BYTE   W06
 BYTE   N02  Cn4
 BYTE   W03
 BYTE   Dn4
 BYTE   W03
 BYTE   N05  Cn4
 BYTE   W06
 BYTE   PEND 
//  #03 //020   ----------------------------------------
 BYTE   As3
 BYTE   W06
 BYTE   Cn4
 BYTE   W06
 BYTE   N02  Dn4
 BYTE   W03
 BYTE   Cn4
 BYTE   W03
 BYTE   N05  As3
 BYTE   W06
 BYTE   N02  Gn3
 BYTE   W03
 BYTE   An3
 BYTE   W03
 BYTE   N05  Gn3
 BYTE   W06
 BYTE   Fn3
 BYTE   W06
 BYTE   Gn3
 BYTE   W06
 BYTE   N14  As3
 BYTE   W18
 BYTE   N05
 BYTE   W06
 BYTE   An3
 BYTE   W06
 BYTE   Gn3
 BYTE   W06
 BYTE   N11  Fn3
 BYTE   W12
//  #03 //021   ----------------------------------------
 BYTE   W12
 BYTE   N11
 BYTE   W12
 BYTE   N02  Gn3
 BYTE   W03
 BYTE   An3
 BYTE   W03
 BYTE   N05  Gn3
 BYTE   W06
 BYTE   Fn3
 BYTE   W06
 BYTE   Gn3
 BYTE   W06
 BYTE   N14  As3
 BYTE   W18
 BYTE   N05
 BYTE   W06
 BYTE   N02  Dn4
 BYTE   W03
 BYTE   Cn4
 BYTE   W03
 BYTE   N05  As3
 BYTE   W06
 BYTE   An3
 BYTE   W06
 BYTE   N02  As3
 BYTE   W03
 BYTE   An3
 BYTE   W03
//  #03 //022   ----------------------------------------
 BYTE   PATT
  POIN2 Label_01274257
//  #03 //023   ----------------------------------------
 BYTE   PATT
  POIN2 Label_01274275
//  #03 //024   ----------------------------------------
 BYTE   W96
//  #03 //025   ----------------------------------------
 BYTE   W96
//  #03 //026   ----------------------------------------
 BYTE   W96
//  #03 //027   ----------------------------------------
 BYTE   W96
//  #03 //028   ----------------------------------------
 BYTE   W96
//  #03 //029   ----------------------------------------
 BYTE   W96
//  #03 //030   ----------------------------------------
 BYTE   W96
//  #03 //031   ----------------------------------------
 BYTE   W96
//  #03 //032   ----------------------------------------
 BYTE   N05  Ds3  v072
 BYTE   W06
 BYTE   Fn3
 BYTE   W06
 BYTE   N02
 BYTE   W03
 BYTE   Gn3
 BYTE   W03
 BYTE   N05  Fn3
 BYTE   W06
 BYTE   N02  Gn3
 BYTE   W03
 BYTE   An3
 BYTE   W03
 BYTE   N05  Gn3
 BYTE   W06
 BYTE   Fn3
 BYTE   W06
 BYTE   Gn3
 BYTE   W06
 BYTE   N11  As3
 BYTE   W12
 BYTE   N02  Dn4
 BYTE   W03
 BYTE   Cn4
 BYTE   W03
 BYTE   N05  As3
 BYTE   W06
 BYTE   N02  Fn3
 BYTE   W03
 BYTE   Gn3
 BYTE   W03
 BYTE   N05  Fn3
 BYTE   W06
 BYTE   Ds3
 BYTE   W06
 BYTE   Fn3
 BYTE   W06
//  #03 //033   ----------------------------------------
Label_0127432A:
 BYTE   N11  Gn3  v072
 BYTE   W24
 BYTE   N02  Cn4
 BYTE   W03
 BYTE   Dn4
 BYTE   W03
 BYTE   N05  Cn4
 BYTE   W06
 BYTE   N05
 BYTE   W06
 BYTE   Dn4
 BYTE   W06
 BYTE   Ds4
 BYTE   W06
 BYTE   Dn4
 BYTE   W06
 BYTE   N02
 BYTE   W03
 BYTE   Cn4
 BYTE   W03
 BYTE   N05  As3
 BYTE   W06
 BYTE   N02  Dn4
 BYTE   W03
 BYTE   Cn4
 BYTE   W03
 BYTE   N05  As3
 BYTE   W06
 BYTE   Gn3
 BYTE   W06
 BYTE   Fn3
 BYTE   W06
 BYTE   PEND 
//  #03 //034   ----------------------------------------
Label_01274352:
 BYTE   N11  Gn3  v072
 BYTE   W24
 BYTE   N02  Cn4
 BYTE   W03
 BYTE   N08  As3
 BYTE   W09
 BYTE   N05  Gn3
 BYTE   W06
 BYTE   As3
 BYTE   W06
 BYTE   N02  Dn4
 BYTE   W03
 BYTE   Cn4
 BYTE   W03
 BYTE   N05  As3
 BYTE   W06
 BYTE   Gn3
 BYTE   W06
 BYTE   Fn3
 BYTE   W06
 BYTE   N02
 BYTE   W03
 BYTE   Gn3
 BYTE   W03
 BYTE   N05  Fn3
 BYTE   W06
 BYTE   Ds3
 BYTE   W06
 BYTE   Fn3
 BYTE   W06
 BYTE   PEND 
//  #03 //035   ----------------------------------------
Label_01274379:
 BYTE   N05  Gn3  v072
 BYTE   W06
 BYTE   Cn4
 BYTE   W06
 BYTE   N02  Dn4
 BYTE   W03
 BYTE   Cn4
 BYTE   W03
 BYTE   N05  As3
 BYTE   W06
 BYTE   N02  Dn4
 BYTE   W03
 BYTE   N08  Cn4
 BYTE   W09
 BYTE   N05
 BYTE   W06
 BYTE   Dn4
 BYTE   W06
 BYTE   Ds4
 BYTE   W06
 BYTE   Dn4
 BYTE   W06
 BYTE   N02  Gn4
 BYTE   W03
 BYTE   Fn4
 BYTE   W03
 BYTE   N05  Dn4
 BYTE   W06
 BYTE   N02
 BYTE   W03
 BYTE   N19  Cn4
 BYTE   W21
 BYTE   PEND 
//  #03 //036   ----------------------------------------
 BYTE   N02  Fn4
 BYTE   W03
 BYTE   Gn4
 BYTE   W03
 BYTE   N05  Dn4
 BYTE   W06
 BYTE   Cn4
 BYTE   W06
 BYTE   As3
 BYTE   W06
 BYTE   N02  Gn3
 BYTE   W03
 BYTE   An3
 BYTE   W03
 BYTE   N05  Gn3
 BYTE   W06
 BYTE   Fn3
 BYTE   W06
 BYTE   Gn3
 BYTE   W06
 BYTE   N11  As3
 BYTE   W12
 BYTE   N02  Dn4
 BYTE   W03
 BYTE   Cn4
 BYTE   W03
 BYTE   N05  As3
 BYTE   W06
 BYTE   N02  Fn3
 BYTE   W03
 BYTE   Gn3
 BYTE   W03
 BYTE   N05  Fn3
 BYTE   W06
 BYTE   Ds3
 BYTE   W06
 BYTE   Fn3
 BYTE   W06
//  #03 //037   ----------------------------------------
 BYTE   PATT
  POIN2 Label_0127432A
//  #03 //038   ----------------------------------------
 BYTE   PATT
  POIN2 Label_01274352
//  #03 //039   ----------------------------------------
 BYTE   PATT
  POIN2 Label_01274379
//  #03 //040   ----------------------------------------
 BYTE   W96
//  #03 //041   ----------------------------------------
Label_012743E2:
 BYTE   W12
 BYTE   N11  Fn3  v072
 BYTE   W12
 BYTE   Gn3
 BYTE   W36
 BYTE   N02
 BYTE   W03
 BYTE   N08  Fn3
 BYTE   W09
 BYTE   N02  Gn3
 BYTE   W03
 BYTE   An3
 BYTE   W03
 BYTE   N05  Gn3
 BYTE   W06
 BYTE   Fn3
 BYTE   W06
 BYTE   Gn3
 BYTE   W06
 BYTE   PEND 
//  #03 //042   ----------------------------------------
 BYTE   W96
//  #03 //043   ----------------------------------------
 BYTE   PATT
  POIN2 Label_012743E2
//  #03 //044   ----------------------------------------
 BYTE   N22  As3  v072
 BYTE   W96
//  #03 //045   ----------------------------------------
 BYTE   PATT
  POIN2 Label_012743E2
//  #03 //046   ----------------------------------------
 BYTE   N22  Cn3  v072
 BYTE   W96
//  #03 //047   ----------------------------------------
 BYTE   N02  Gn3
 BYTE   W03
 BYTE   An3
 BYTE   W03
 BYTE   N44  Gn3
 BYTE   W90
//  #03 //048   ----------------------------------------
 BYTE   W96
//  #03 //049   ----------------------------------------
 BYTE   W96
//  #03 //050   ----------------------------------------
 BYTE   W96
//  #03 //051   ----------------------------------------
 BYTE   W96
//  #03 //052   ----------------------------------------
 BYTE   W96
//  #03 //053   ----------------------------------------
 BYTE   W96
//  #03 //054   ----------------------------------------
 BYTE   W96
//  #03 //055   ----------------------------------------
 BYTE   W96
//  #03 //056   ----------------------------------------
 BYTE   W96
//  #03 //057   ----------------------------------------
 BYTE   W96
//  #03 //058   ----------------------------------------
 BYTE   W96
//  #03 //059   ----------------------------------------
 BYTE   W96
//  #03 //060   ----------------------------------------
 BYTE   W96
//  #03 //061   ----------------------------------------
 BYTE   W96
//  #03 //062   ----------------------------------------
 BYTE   W96
//  #03 //063   ----------------------------------------
 BYTE   W96
//  #03 //064   ----------------------------------------
 BYTE   W96
//  #03 //065   ----------------------------------------
 BYTE   W96
//  #03 //066   ----------------------------------------
 BYTE   W96
//  #03 //067   ----------------------------------------
 BYTE   GoTo
  POIN2 Label_01274208
 BYTE   FINE

//**************** Track 4 (Midi-Chn.3) ****************//

song34_004:
//  #04 //000   ----------------------------------------
 BYTE   KEYSH   song34_key+0
 BYTE   VOICE   52
 BYTE   VOL   35*song34_mvl/mxv
 BYTE   PAN   c_v+0
 BYTE   W12
 BYTE   W96
//  #04 //001   ----------------------------------------
 BYTE   W96
//  #04 //002   ----------------------------------------
 BYTE   W96
//  #04 //003   ----------------------------------------
Label_01274440:
 BYTE   W96
//  #04 //004   ----------------------------------------
 BYTE   W96
//  #04 //005   ----------------------------------------
 BYTE   W96
//  #04 //006   ----------------------------------------
 BYTE   W96
//  #04 //007   ----------------------------------------
 BYTE   W96
//  #04 //008   ----------------------------------------
 BYTE   W96
//  #04 //009   ----------------------------------------
 BYTE   W96
//  #04 //010   ----------------------------------------
 BYTE   W96
//  #04 //011   ----------------------------------------
 BYTE   W96
//  #04 //012   ----------------------------------------
 BYTE   W96
//  #04 //013   ----------------------------------------
 BYTE   W96
//  #04 //014   ----------------------------------------
 BYTE   W96
//  #04 //015   ----------------------------------------
 BYTE   W96
//  #04 //016   ----------------------------------------
 BYTE   N44  As2  v064
 BYTE   N44  Fn3
 BYTE   W03
 BYTE   W03
 BYTE   W03
 BYTE   W03
 BYTE   W03
 BYTE   W03
 BYTE   W03
 BYTE   W03
 BYTE   W03
 BYTE   W04
 BYTE   W03
 BYTE   W03
 BYTE   W03
 BYTE   W03
 BYTE   W03
 BYTE   W02
 BYTE   As2
 BYTE   N44  Fn3
 BYTE   W01
 BYTE   W03
 BYTE   W03
 BYTE   W03
 BYTE   W03
 BYTE   W04
 BYTE   W03
 BYTE   W03
 BYTE   W03
 BYTE   W03
 BYTE   W03
 BYTE   W03
 BYTE   W03
 BYTE   W03
 BYTE   W03
 BYTE   W04
//  #04 //017   ----------------------------------------
 BYTE   As2
 BYTE   N44  Fn3
 BYTE   W03
 BYTE   W03
 BYTE   W03
 BYTE   W03
 BYTE   W03
 BYTE   W03
 BYTE   W03
 BYTE   W03
 BYTE   W03
 BYTE   W04
 BYTE   W03
 BYTE   W03
 BYTE   W03
 BYTE   W03
 BYTE   W03
 BYTE   W02
 BYTE   As2
 BYTE   N44  Fn3
 BYTE   W01
 BYTE   W03
 BYTE   W03
 BYTE   W03
 BYTE   W03
 BYTE   W04
 BYTE   W03
 BYTE   W03
 BYTE   W03
 BYTE   W03
 BYTE   W03
 BYTE   W03
 BYTE   W03
 BYTE   W03
 BYTE   W03
 BYTE   W04
//  #04 //018   ----------------------------------------
Label_0127449B:
 BYTE   N44  As2  v064
 BYTE   N44  Fn3
 BYTE   W03
 BYTE   W04
 BYTE   W03
 BYTE   W04
 BYTE   W03
 BYTE   W04
 BYTE   W03
 BYTE   W04
 BYTE   W04
 BYTE   W03
 BYTE   W04
 BYTE   W03
 BYTE   W04
 BYTE   W02
 BYTE   As2
 BYTE   N44  Fn3
 BYTE   W01
 BYTE   W04
 BYTE   W03
 BYTE   W04
 BYTE   W04
 BYTE   W03
 BYTE   W04
 BYTE   W03
 BYTE   W04
 BYTE   W03
 BYTE   W04
 BYTE   W03
 BYTE   W04
 BYTE   W04
 BYTE   PEND 
//  #04 //019   ----------------------------------------
Label_012744C0:
 BYTE   N44  As2  v064
 BYTE   N44  Fn3
 BYTE   W03
 BYTE   W04
 BYTE   W03
 BYTE   W04
 BYTE   W03
 BYTE   W04
 BYTE   W03
 BYTE   W04
 BYTE   W04
 BYTE   W03
 BYTE   W04
 BYTE   W03
 BYTE   W04
 BYTE   W02
 BYTE   As2
 BYTE   N44  Fn3
 BYTE   W01
 BYTE   W04
 BYTE   W03
 BYTE   W04
 BYTE   W04
 BYTE   W03
 BYTE   W04
 BYTE   W03
 BYTE   W04
 BYTE   W03
 BYTE   W04
 BYTE   W03
 BYTE   W04
 BYTE   W04
 BYTE   PEND 
//  #04 //020   ----------------------------------------
 BYTE   PATT
  POIN2 Label_0127449B
//  #04 //021   ----------------------------------------
 BYTE   PATT
  POIN2 Label_012744C0
//  #04 //022   ----------------------------------------
 BYTE   PATT
  POIN2 Label_0127449B
//  #04 //023   ----------------------------------------
 BYTE   PATT
  POIN2 Label_012744C0
//  #04 //024   ----------------------------------------
Label_012744F9:
 BYTE   N92  As2  v064
 BYTE   N92  Fn3
 BYTE   W03
 BYTE   W04
 BYTE   W03
 BYTE   W04
 BYTE   W03
 BYTE   W04
 BYTE   W03
 BYTE   W04
 BYTE   W04
 BYTE   W03
 BYTE   W04
 BYTE   W03
 BYTE   W04
 BYTE   W03
 BYTE   W04
 BYTE   W03
 BYTE   W04
 BYTE   W04
 BYTE   W03
 BYTE   W04
 BYTE   W03
 BYTE   W04
 BYTE   W03
 BYTE   W04
 BYTE   W03
 BYTE   W04
 BYTE   W04
 BYTE   PEND 
//  #04 //025   ----------------------------------------
Label_0127451A:
 BYTE   N92  As2  v064
 BYTE   N92  Fn3
 BYTE   W03
 BYTE   W04
 BYTE   W03
 BYTE   W04
 BYTE   W03
 BYTE   W04
 BYTE   W03
 BYTE   W04
 BYTE   W04
 BYTE   W03
 BYTE   W04
 BYTE   W03
 BYTE   W04
 BYTE   W03
 BYTE   W04
 BYTE   W03
 BYTE   W04
 BYTE   W04
 BYTE   W03
 BYTE   W04
 BYTE   W03
 BYTE   W04
 BYTE   W03
 BYTE   W04
 BYTE   W03
 BYTE   W04
 BYTE   W04
 BYTE   PEND 
//  #04 //026   ----------------------------------------
 BYTE   PATT
  POIN2 Label_012744F9
//  #04 //027   ----------------------------------------
 BYTE   PATT
  POIN2 Label_0127451A
//  #04 //028   ----------------------------------------
 BYTE   PATT
  POIN2 Label_012744F9
//  #04 //029   ----------------------------------------
 BYTE   PATT
  POIN2 Label_0127451A
//  #04 //030   ----------------------------------------
 BYTE   PATT
  POIN2 Label_012744F9
//  #04 //031   ----------------------------------------
 BYTE   N92  As2  v064
 BYTE   N92  Fn3
 BYTE   W96
//  #04 //032   ----------------------------------------
 BYTE   Gn2
 BYTE   W24
 BYTE   N72  Cn3
 BYTE   TIE  Fn3
 BYTE   W72
//  #04 //033   ----------------------------------------
Label_01274561:
 BYTE   N17  Cn3  v064
 BYTE   W18
 BYTE   N02
 BYTE   W03
 BYTE   N02
 BYTE   W03
 BYTE   N23
 BYTE   W23
 BYTE   PEND 
 BYTE   EOT
 BYTE   Fn3
 BYTE   W01
 BYTE   N44  Cn3
 BYTE   W48
//  #04 //034   ----------------------------------------
 BYTE   N17  As2
 BYTE   W18
 BYTE   N02
 BYTE   W03
 BYTE   N02
 BYTE   W03
 BYTE   N68
 BYTE   W24
 BYTE   N44  Dn3
 BYTE   TIE  Gn3
 BYTE   W48
//  #04 //035   ----------------------------------------
 BYTE   N92  Fn2
 BYTE   N92  Fn3
 BYTE   W92
 BYTE   W03
 BYTE   EOT
 BYTE   Gn3
 BYTE   W01
//  #04 //036   ----------------------------------------
 BYTE   N92  Gn2
 BYTE   W24
 BYTE   N72  Cn3
 BYTE   TIE  Fn3
 BYTE   W72
//  #04 //037   ----------------------------------------
 BYTE   PATT
  POIN2 Label_01274561
//  #04 //038   ----------------------------------------
 BYTE   EOT
 BYTE   Fn3
 BYTE   W01
 BYTE   N44  Gn3  v064
 BYTE   W48
 BYTE   N17  As2
 BYTE   N44  Gn3
 BYTE   W18
 BYTE   N02  As2
 BYTE   W03
 BYTE   N02
 BYTE   W03
 BYTE   N68
 BYTE   W24
//  #04 //039   ----------------------------------------
 BYTE   N48  Dn3
 BYTE   TIE  Fn3
 BYTE   W48
 BYTE   N17  Dn3
 BYTE   W18
 BYTE   N02
 BYTE   W03
 BYTE   N02
 BYTE   W03
 BYTE   N68
 BYTE   W68
//  #04 //040   ----------------------------------------
 BYTE   W03
 BYTE   EOT
 BYTE   Fn3
 BYTE   W01
 BYTE   W24
 BYTE   TIE  Cn3
 BYTE   W24
 BYTE   Fn2
 BYTE   W48
//  #04 //041   ----------------------------------------
Label_012745C1:
 BYTE   W92
 BYTE   W03
 BYTE   PEND 
 BYTE   EOT
 BYTE   Fn2  v060
 BYTE   W01
//  #04 //042   ----------------------------------------
 BYTE   W12
 BYTE   N11  An2  v064
 BYTE   W12
 BYTE   TIE  As2
 BYTE   W24
 BYTE   Fn2
 BYTE   W48
//  #04 //043   ----------------------------------------
 BYTE   PATT
  POIN2 Label_012745C1
//  #04 //044   ----------------------------------------
 BYTE   EOT
 BYTE   Fn2  v058
 BYTE   W01
 BYTE   W24
 BYTE   TIE  Dn3  v064
 BYTE   W24
 BYTE   Fn2
 BYTE   W48
//  #04 //045   ----------------------------------------
 BYTE   PATT
  POIN2 Label_012745C1
//  #04 //046   ----------------------------------------
 BYTE   EOT
 BYTE   Fn2  v062
 BYTE   W01
 BYTE   W24
 BYTE   TIE  Ds3  v064
 BYTE   W24
 BYTE   Gn2
 BYTE   W48
//  #04 //047   ----------------------------------------
 BYTE   PATT
  POIN2 Label_012745C1
//  #04 //048   ----------------------------------------
 BYTE   EOT
 BYTE   Gn2  v063
 BYTE   W01
 BYTE   W12
 BYTE   N02  Ds3  v064
 BYTE   W03
 BYTE   Dn3
 BYTE   W03
 BYTE   Cn3
 BYTE   W03
 BYTE   N72  Gn2
 BYTE   W72
 BYTE   W03
//  #04 //049   ----------------------------------------
 BYTE   N11  Cn3
 BYTE   W12
 BYTE   N02
 BYTE   W03
 BYTE   N02
 BYTE   W03
 BYTE   N76
 BYTE   W78
//  #04 //050   ----------------------------------------
 BYTE   N11  Cs3
 BYTE   W12
 BYTE   N02  Fn3
 BYTE   W03
 BYTE   Ds3
 BYTE   W03
 BYTE   TIE  Cs3
 BYTE   W78
//  #04 //051   ----------------------------------------
 BYTE   W44
 BYTE   W03
 BYTE   EOT
 BYTE   W01
 BYTE   N11  As2
 BYTE   W12
 BYTE   N02  Fn3
 BYTE   W03
 BYTE   Cs3
 BYTE   W03
 BYTE   N28  As2
 BYTE   W30
//  #04 //052   ----------------------------------------
 BYTE   N11  An2
 BYTE   W12
 BYTE   N02  Fn3
 BYTE   W03
 BYTE   Dn3
 BYTE   W03
 BYTE   N76  An2
 BYTE   W78
//  #04 //053   ----------------------------------------
 BYTE   N11  Dn3
 BYTE   W12
 BYTE   N02
 BYTE   W03
 BYTE   N80
 BYTE   W80
 BYTE   W01
//  #04 //054   ----------------------------------------
 BYTE   N44  Ds3
 BYTE   W48
 BYTE   N11  As2
 BYTE   W12
 BYTE   N02  Fn3
 BYTE   W03
 BYTE   Ds3
 BYTE   W03
 BYTE   N76  As2
 BYTE   W30
//  #04 //055   ----------------------------------------
 BYTE   W48
 BYTE   N11  Gn2
 BYTE   W12
 BYTE   N02  Fn3
 BYTE   W03
 BYTE   Dn3
 BYTE   W03
 BYTE   N28  Gn2
 BYTE   W30
//  #04 //056   ----------------------------------------
 BYTE   N44  Fs2
 BYTE   W48
 BYTE   N11  An2
 BYTE   W12
 BYTE   N02  Fn3
 BYTE   W03
 BYTE   Cs3
 BYTE   W03
 BYTE   An2
 BYTE   W03
 BYTE   N72
 BYTE   W24
 BYTE   W03
//  #04 //057   ----------------------------------------
 BYTE   W48
 BYTE   N44  Dn3
 BYTE   W48
//  #04 //058   ----------------------------------------
 BYTE   Cs3
 BYTE   W48
 BYTE   N92  Gs2
 BYTE   W48
//  #04 //059   ----------------------------------------
 BYTE   W48
 BYTE   N11  Cs3
 BYTE   W12
 BYTE   N02  Gn3
 BYTE   W03
 BYTE   Fn3
 BYTE   W03
 BYTE   N28  Cs3
 BYTE   W30
//  #04 //060   ----------------------------------------
 BYTE   N44  Dn3
 BYTE   W48
 BYTE   N11  An2
 BYTE   W12
 BYTE   N02  Fn3
 BYTE   W03
 BYTE   Dn3
 BYTE   W03
 BYTE   N76  An2
 BYTE   W30
//  #04 //061   ----------------------------------------
 BYTE   W48
 BYTE   N02  Dn3
 BYTE   W03
 BYTE   N44
 BYTE   W44
 BYTE   W01
//  #04 //062   ----------------------------------------
 BYTE   N11  Cs3
 BYTE   W12
 BYTE   N02  Gn3
 BYTE   W03
 BYTE   Fn3
 BYTE   W03
 BYTE   N28  Cs3
 BYTE   W30
 BYTE   N44  Gs2
 BYTE   W48
//  #04 //063   ----------------------------------------
 BYTE   N92  Fn2
 BYTE   W96
//  #04 //064   ----------------------------------------
 BYTE   W96
//  #04 //065   ----------------------------------------
 BYTE   W96
//  #04 //066   ----------------------------------------
 BYTE   W96
//  #04 //067   ----------------------------------------
 BYTE   GoTo
  POIN2 Label_01274440
 BYTE   FINE

//**************** Track 5 (Midi-Chn.4) ****************//

song34_005:
//  #05 //000   ----------------------------------------
 BYTE   KEYSH   song34_key+0
 BYTE   VOICE   61
 BYTE   VOL   35*song34_mvl/mxv
 BYTE   PAN   c_v+0
 BYTE   W12
 BYTE   N92  Cn3  v052
 BYTE   N92  Ds3
 BYTE   W96
//  #05 //001   ----------------------------------------
 BYTE   Cn3
 BYTE   N92  As3
 BYTE   W96
//  #05 //002   ----------------------------------------
 BYTE   Cn3
 BYTE   N92  Gs3
 BYTE   W96
//  #05 //003   ----------------------------------------
Label_012746E3:
 BYTE   N92  Cn3  v052
 BYTE   N92  Ds3
 BYTE   W96
//  #05 //004   ----------------------------------------
 BYTE   Cn3
 BYTE   N92  Dn3
 BYTE   W96
//  #05 //005   ----------------------------------------
 BYTE   Cn3
 BYTE   N92  As3
 BYTE   W96
//  #05 //006   ----------------------------------------
 BYTE   Cn3
 BYTE   N92  As3
 BYTE   W96
//  #05 //007   ----------------------------------------
 BYTE   Cn3
 BYTE   N92  An3
 BYTE   W96
//  #05 //008   ----------------------------------------
 BYTE   Cn3
 BYTE   N92  Ds3
 BYTE   W96
//  #05 //009   ----------------------------------------
 BYTE   Cn3
 BYTE   N92  As3
 BYTE   W96
//  #05 //010   ----------------------------------------
 BYTE   Cn3
 BYTE   N92  Gs3
 BYTE   W96
//  #05 //011   ----------------------------------------
 BYTE   Cn3
 BYTE   N92  Ds3
 BYTE   W96
//  #05 //012   ----------------------------------------
 BYTE   Cn3
 BYTE   N92  Dn3
 BYTE   W96
//  #05 //013   ----------------------------------------
 BYTE   Cn3
 BYTE   N92  As3
 BYTE   W96
//  #05 //014   ----------------------------------------
 BYTE   Cn3
 BYTE   N92  As3
 BYTE   W96
//  #05 //015   ----------------------------------------
 BYTE   Cn3
 BYTE   N92  An3
 BYTE   W06
 BYTE   W06
 BYTE   W06
 BYTE   W06
 BYTE   W06
 BYTE   W06
 BYTE   W06
 BYTE   W06
 BYTE   W06
 BYTE   W06
 BYTE   W06
 BYTE   W06
 BYTE   W06
 BYTE   W06
 BYTE   W06
 BYTE   W06
//  #05 //016   ----------------------------------------
 BYTE   W96
//  #05 //017   ----------------------------------------
 BYTE   W96
//  #05 //018   ----------------------------------------
 BYTE   W96
//  #05 //019   ----------------------------------------
 BYTE   W96
//  #05 //020   ----------------------------------------
 BYTE   W96
//  #05 //021   ----------------------------------------
 BYTE   W96
//  #05 //022   ----------------------------------------
 BYTE   W96
//  #05 //023   ----------------------------------------
 BYTE   W96
//  #05 //024   ----------------------------------------
 BYTE   N90  Cn3
 BYTE   N90  Ds3
 BYTE   W96
//  #05 //025   ----------------------------------------
 BYTE   Cn3
 BYTE   N90  As3
 BYTE   W96
//  #05 //026   ----------------------------------------
 BYTE   Cn3
 BYTE   N90  Gs3
 BYTE   W96
//  #05 //027   ----------------------------------------
 BYTE   Cn3
 BYTE   N90  Ds3
 BYTE   W96
//  #05 //028   ----------------------------------------
 BYTE   Cn3
 BYTE   N90  Dn3
 BYTE   W96
//  #05 //029   ----------------------------------------
 BYTE   Cn3
 BYTE   N90  As3
 BYTE   W96
//  #05 //030   ----------------------------------------
 BYTE   Cn3
 BYTE   N90  As3
 BYTE   W96
//  #05 //031   ----------------------------------------
 BYTE   Cn3
 BYTE   N90  An3
 BYTE   W96
//  #05 //032   ----------------------------------------
Label_01274751:
 BYTE   TIE  Gs2  v036
 BYTE   TIE  Ds3
 BYTE   W96
 BYTE   PEND 
//  #05 //033   ----------------------------------------
 BYTE   W92
 BYTE   W03
 BYTE   EOT
 BYTE   Gs2  v063
 BYTE   W01
//  #05 //034   ----------------------------------------
Label_0127475E:
 BYTE   TIE  As2  v036
 BYTE   TIE  Ds3
 BYTE   W96
 BYTE   PEND 
//  #05 //035   ----------------------------------------
 BYTE   W92
 BYTE   W03
 BYTE   EOT
 BYTE   As2  v063
 BYTE   W01
//  #05 //036   ----------------------------------------
 BYTE   PATT
  POIN2 Label_01274751
//  #05 //037   ----------------------------------------
 BYTE   W92
 BYTE   W03
 BYTE   EOT
 BYTE   Gs2  v063
 BYTE   W01
//  #05 //038   ----------------------------------------
 BYTE   PATT
  POIN2 Label_0127475E
//  #05 //039   ----------------------------------------
 BYTE   W92
 BYTE   W03
 BYTE   EOT
 BYTE   As2  v063
 BYTE   W01
//  #05 //040   ----------------------------------------
 BYTE   TIE  As2  v052
 BYTE   TIE  Ds3
 BYTE   W02
 BYTE   N92  Cn4  v064
 BYTE   W92
 BYTE   W02
//  #05 //041   ----------------------------------------
 BYTE   W92
 BYTE   W03
 BYTE   EOT
 BYTE   As2  v063
 BYTE   W01
//  #05 //042   ----------------------------------------
 BYTE   TIE  As2  v052
 BYTE   N92  Fn3  v064
 BYTE   W02
 BYTE   Cn4
 BYTE   W92
 BYTE   W02
//  #05 //043   ----------------------------------------
 BYTE   W92
 BYTE   W03
 BYTE   EOT
 BYTE   As2
 BYTE   W01
//  #05 //044   ----------------------------------------
 BYTE   TIE  As2  v052
 BYTE   N92  Fn3  v064
 BYTE   W02
 BYTE   Dn4
 BYTE   W92
 BYTE   W02
//  #05 //045   ----------------------------------------
 BYTE   W92
 BYTE   W03
 BYTE   EOT
 BYTE   As2
 BYTE   W01
//  #05 //046   ----------------------------------------
 BYTE   TIE  As2  v052
 BYTE   TIE  Ds3
 BYTE   W02
 BYTE   N92  Ds4  v064
 BYTE   W92
 BYTE   W02
//  #05 //047   ----------------------------------------
 BYTE   W92
 BYTE   W03
 BYTE   EOT
 BYTE   As2  v063
 BYTE   W01
//  #05 //048   ----------------------------------------
 BYTE   TIE  Cn3  v052
 BYTE   TIE  Fn3
 BYTE   W96
//  #05 //049   ----------------------------------------
 BYTE   W92
 BYTE   W03
 BYTE   EOT
 BYTE   Cn3  v065
 BYTE   W01
//  #05 //050   ----------------------------------------
 BYTE   TIE  Cs3
 BYTE   TIE  Fs3
 BYTE   W96
//  #05 //051   ----------------------------------------
 BYTE   W92
 BYTE   W03
 BYTE   EOT
 BYTE   Cs3  v066
 BYTE   W01
//  #05 //052   ----------------------------------------
 BYTE   N44  Dn3
 BYTE   N44  An3
 BYTE   W48
 BYTE   Dn3
 BYTE   N44  Fs3
 BYTE   W48
//  #05 //053   ----------------------------------------
 BYTE   Dn3
 BYTE   N44  An3
 BYTE   W48
 BYTE   Fs3
 BYTE   N44  An3
 BYTE   W48
//  #05 //054   ----------------------------------------
 BYTE   N92  Ds3
 BYTE   N92  Gn3
 BYTE   W96
//  #05 //055   ----------------------------------------
 BYTE   As2
 BYTE   N92  Ds3
 BYTE   W96
//  #05 //056   ----------------------------------------
 BYTE   N44  An2
 BYTE   N44  Dn3
 BYTE   W48
 BYTE   N92  An2
 BYTE   N92  Fs3
 BYTE   W48
//  #05 //057   ----------------------------------------
 BYTE   W48
 BYTE   N44
 BYTE   N44  An3
 BYTE   W48
//  #05 //058   ----------------------------------------
 BYTE   Cs3
 BYTE   N44  Fn3
 BYTE   W48
 BYTE   Cs3
 BYTE   N44  Gs3
 BYTE   W48
//  #05 //059   ----------------------------------------
 BYTE   N44
 BYTE   N44  Cs4
 BYTE   W48
 BYTE   N44
 BYTE   N44  Fn4
 BYTE   W48
//  #05 //060   ----------------------------------------
 BYTE   An3
 BYTE   N44  Dn4
 BYTE   W48
 BYTE   Fs3
 BYTE   N44  An3
 BYTE   W48
//  #05 //061   ----------------------------------------
 BYTE   Dn3
 BYTE   N44  Fs3
 BYTE   W48
 BYTE   An2
 BYTE   N44  Dn3
 BYTE   W48
//  #05 //062   ----------------------------------------
 BYTE   TIE  Cs3
 BYTE   TIE  Fn3
 BYTE   W96
//  #05 //063   ----------------------------------------
 BYTE   W92
 BYTE   W03
 BYTE   EOT
 BYTE   Cs3  v065
 BYTE   W01
//  #05 //064   ----------------------------------------
 BYTE   N92  Cn3
 BYTE   N92  Ds3
 BYTE   W96
//  #05 //065   ----------------------------------------
 BYTE   Cn3
 BYTE   N92  As3
 BYTE   W96
//  #05 //066   ----------------------------------------
 BYTE   Cn3
 BYTE   N92  Gs3
 BYTE   W96
//  #05 //067   ----------------------------------------
 BYTE   GoTo
  POIN2 Label_012746E3
 BYTE   FINE

//**************** Track 6 (Midi-Chn.5) ****************//

song34_006:
//  #06 //000   ----------------------------------------
 BYTE   KEYSH   song34_key+0
 BYTE   VOICE   50
 BYTE   VOL   44*song34_mvl/mxv
 BYTE   PAN   c_v+0
 BYTE   W12
Label_01273FF5:
 BYTE   N11  Cn1  v127
 BYTE   W02
 BYTE   W01
 BYTE   W01
 BYTE   W01
 BYTE   W13
 BYTE   N05  Cn1  v096
 BYTE   W66
//  #06 //001   ----------------------------------------
 BYTE   N11  Gn0  v127
 BYTE   W02
 BYTE   W01
 BYTE   W01
 BYTE   W01
 BYTE   W07
 BYTE   PEND 
//  #06 //002   ----------------------------------------
 BYTE   PATT
  POIN2 Label_01273FF5
//  #06 //003   ----------------------------------------
 BYTE   PATT
  POIN2 Label_01273FF5
//  #06 //004   ----------------------------------------
Label_01274014:
//  #06 //005   ----------------------------------------
 BYTE   PATT
  POIN2 Label_01273FF5
//  #06 //006   ----------------------------------------
 BYTE   PATT
  POIN2 Label_01273FF5
//  #06 //007   ----------------------------------------
 BYTE   PATT
  POIN2 Label_01273FF5
//  #06 //008   ----------------------------------------
 BYTE   PATT
  POIN2 Label_01273FF5
//  #06 //009   ----------------------------------------
 BYTE   PATT
  POIN2 Label_01273FF5
//  #06 //010   ----------------------------------------
Label_0127402D:
 BYTE   N11  Cn1  v127
 BYTE   W02
 BYTE   W01
 BYTE   W01
 BYTE   W01
 BYTE   W13
 BYTE   N02  Cn1  v096
 BYTE   W66
 BYTE   N11  Gn0  v127
 BYTE   W02
 BYTE   W01
 BYTE   W01
 BYTE   W01
 BYTE   W07
 BYTE   PEND 
//  #06 //011   ----------------------------------------
 BYTE   PATT
  POIN2 Label_0127402D
//  #06 //012   ----------------------------------------
 BYTE   PATT
  POIN2 Label_01273FF5
//  #06 //013   ----------------------------------------
 BYTE   PATT
  POIN2 Label_01273FF5
//  #06 //014   ----------------------------------------
 BYTE   PATT
  POIN2 Label_0127402D
//  #06 //015   ----------------------------------------
 BYTE   PATT
  POIN2 Label_0127402D
//  #06 //016   ----------------------------------------
 BYTE   PATT
  POIN2 Label_01273FF5
//  #06 //017   ----------------------------------------
 BYTE   PATT
  POIN2 Label_01273FF5
//  #06 //018   ----------------------------------------
Label_01274065:
 BYTE   N11  Cn1  v127
 BYTE   W02
 BYTE   W01
 BYTE   W01
 BYTE   W01
 BYTE   W13
 BYTE   N05  Cn1  v096
 BYTE   W66
 BYTE   N11  Gn0  v127
 BYTE   W01
 BYTE   W11
 BYTE   PEND 
//  #06 //019   ----------------------------------------
 BYTE   Cn1
 BYTE   W01
 BYTE   W01
 BYTE   W16
 BYTE   N05  Cn1  v096
 BYTE   W66
 BYTE   N11  Gn0  v127
 BYTE   W01
 BYTE   W11
//  #06 //020   ----------------------------------------
 BYTE   PATT
  POIN2 Label_01274065
//  #06 //021   ----------------------------------------
 BYTE   PATT
  POIN2 Label_01274065
//  #06 //022   ----------------------------------------
 BYTE   PATT
  POIN2 Label_01274065
//  #06 //023   ----------------------------------------
 BYTE   PATT
  POIN2 Label_01274065
//  #06 //024   ----------------------------------------
 BYTE   PATT
  POIN2 Label_01274065
//  #06 //025   ----------------------------------------
 BYTE   PATT
  POIN2 Label_01274065
//  #06 //026   ----------------------------------------
 BYTE   PATT
  POIN2 Label_01274065
//  #06 //027   ----------------------------------------
 BYTE   PATT
  POIN2 Label_01274065
//  #06 //028   ----------------------------------------
 BYTE   PATT
  POIN2 Label_01274065
//  #06 //029   ----------------------------------------
 BYTE   PATT
  POIN2 Label_01274065
//  #06 //030   ----------------------------------------
 BYTE   PATT
  POIN2 Label_01274065
//  #06 //031   ----------------------------------------
 BYTE   PATT
  POIN2 Label_01274065
//  #06 //032   ----------------------------------------
 BYTE   PATT
  POIN2 Label_01274065
//  #06 //033   ----------------------------------------
 BYTE   PATT
  POIN2 Label_01274065
//  #06 //034   ----------------------------------------
 BYTE   W96
//  #06 //035   ----------------------------------------
 BYTE   W96
//  #06 //036   ----------------------------------------
 BYTE   W96
//  #06 //037   ----------------------------------------
 BYTE   W96
//  #06 //038   ----------------------------------------
 BYTE   W96
//  #06 //039   ----------------------------------------
 BYTE   W96
//  #06 //040   ----------------------------------------
 BYTE   W96
//  #06 //041   ----------------------------------------
 BYTE   W96
//  #06 //042   ----------------------------------------
 BYTE   N11  Gs0  v127
 BYTE   W02
 BYTE   W01
 BYTE   W01
 BYTE   W01
 BYTE   W42
 BYTE   W01
 BYTE   N11
 BYTE   W02
 BYTE   W01
 BYTE   W01
 BYTE   W01
 BYTE   W42
 BYTE   W01
//  #06 //043   ----------------------------------------
 BYTE   N11
 BYTE   W02
 BYTE   W01
 BYTE   W01
 BYTE   W01
 BYTE   W42
 BYTE   W01
 BYTE   N11
 BYTE   W01
 BYTE   W01
 BYTE   W44
 BYTE   W02
//  #06 //044   ----------------------------------------
 BYTE   As0
 BYTE   W02
 BYTE   W01
 BYTE   W01
 BYTE   W01
 BYTE   W42
 BYTE   W01
 BYTE   N11
 BYTE   W01
 BYTE   W01
 BYTE   W44
 BYTE   W02
//  #06 //045   ----------------------------------------
 BYTE   N11
 BYTE   W02
 BYTE   W01
 BYTE   W01
 BYTE   W01
 BYTE   W42
 BYTE   W01
 BYTE   N11
 BYTE   W02
 BYTE   W01
 BYTE   W01
 BYTE   W01
 BYTE   W42
 BYTE   W01
//  #06 //046   ----------------------------------------
 BYTE   Cn1
 BYTE   W02
 BYTE   W01
 BYTE   W01
 BYTE   W01
 BYTE   W42
 BYTE   W01
 BYTE   N11
 BYTE   W02
 BYTE   W01
 BYTE   W01
 BYTE   W01
 BYTE   W42
 BYTE   W01
//  #06 //047   ----------------------------------------
Label_01274116:
 BYTE   N11  Cn1  v127
 BYTE   W02
 BYTE   W01
 BYTE   W01
 BYTE   W01
 BYTE   W42
 BYTE   W01
 BYTE   N11
 BYTE   W01
 BYTE   W01
 BYTE   W44
 BYTE   W02
 BYTE   PEND 
//  #06 //048   ----------------------------------------
 BYTE   PATT
  POIN2 Label_01274116
//  #06 //049   ----------------------------------------
 BYTE   N11  Cn1  v127
 BYTE   W01
 BYTE   W01
 BYTE   W44
 BYTE   W02
 BYTE   N11
 BYTE   W02
 BYTE   W01
 BYTE   W01
 BYTE   W01
 BYTE   W42
 BYTE   W01
//  #06 //050   ----------------------------------------
 BYTE   N08  Cn1  v096
 BYTE   W18
 BYTE   N05
 BYTE   W66
 BYTE   N11  Cn1  v127
 BYTE   W01
 BYTE   W11
//  #06 //051   ----------------------------------------
Label_01274143:
 BYTE   N08  Cn1  v096
 BYTE   W18
 BYTE   N05
 BYTE   W66
 BYTE   N11  Cn1  v127
 BYTE   W01
 BYTE   W11
 BYTE   PEND 
//  #06 //052   ----------------------------------------
 BYTE   PATT
  POIN2 Label_01274143
//  #06 //053   ----------------------------------------
 BYTE   PATT
  POIN2 Label_01274143
//  #06 //054   ----------------------------------------
 BYTE   PATT
  POIN2 Label_01274143
//  #06 //055   ----------------------------------------
 BYTE   PATT
  POIN2 Label_01274143
//  #06 //056   ----------------------------------------
 BYTE   PATT
  POIN2 Label_01274143
//  #06 //057   ----------------------------------------
 BYTE   PATT
  POIN2 Label_01274143
//  #06 //058   ----------------------------------------
 BYTE   PATT
  POIN2 Label_01274143
//  #06 //059   ----------------------------------------
 BYTE   PATT
  POIN2 Label_01274143
//  #06 //060   ----------------------------------------
 BYTE   PATT
  POIN2 Label_01274143
//  #06 //061   ----------------------------------------
 BYTE   PATT
  POIN2 Label_01274143
//  #06 //062   ----------------------------------------
 BYTE   PATT
  POIN2 Label_01274143
//  #06 //063   ----------------------------------------
 BYTE   PATT
  POIN2 Label_01274143
//  #06 //064   ----------------------------------------
 BYTE   PATT
  POIN2 Label_01274143
//  #06 //065   ----------------------------------------
 BYTE   PATT
  POIN2 Label_01274143
//  #06 //066   ----------------------------------------
 BYTE   PATT
  POIN2 Label_01273FF5
//  #06 //067   ----------------------------------------
 BYTE   PATT
  POIN2 Label_01273FF5
//  #06 //068   ----------------------------------------
 BYTE   PATT
  POIN2 Label_01273FF5
//  #06 //069   ----------------------------------------
 BYTE   GoTo
  POIN2 Label_01274014
 BYTE   FINE

//**************** Track 7 (Midi-Chn.6) ****************//

song34_007:
//  #07 //000   ----------------------------------------
 BYTE   KEYSH   song34_key+0
 BYTE   VOICE   124
 BYTE   VOL   49*song34_mvl/mxv
 BYTE   PAN   c_v+0
 BYTE   W12
Label_01274A51:
 BYTE   N11  Dn1  v076
 BYTE   N92  Cs2  v120
 BYTE   W12
 BYTE   N11  Dn1  v052
 BYTE   W12
 BYTE   N11
 BYTE   W12
 BYTE   Dn1  v076
 BYTE   W12
 BYTE   N05  Dn1  v052
 BYTE   W06
 BYTE   N05
 BYTE   W06
 BYTE   N01
 BYTE   W02
 BYTE   N01
 BYTE   W02
 BYTE   N01
 BYTE   W02
 BYTE   N01
 BYTE   W02
 BYTE   N01
 BYTE   W02
 BYTE   N01
 BYTE   W02
 BYTE   N11  Dn1  v076
 BYTE   W12
//  #07 //001   ----------------------------------------
 BYTE   Dn1  v052
 BYTE   W12
 BYTE   PEND 
Label_01274A7B:
 BYTE   N11  Dn1  v076
 BYTE   W12
 BYTE   Dn1  v052
 BYTE   W12
 BYTE   N11
 BYTE   W12
 BYTE   Dn1  v076
 BYTE   W12
 BYTE   N05  Dn1  v052
 BYTE   W06
 BYTE   N05
 BYTE   W06
 BYTE   N01
 BYTE   W02
 BYTE   N01
 BYTE   W02
 BYTE   N01
 BYTE   W02
 BYTE   N01
 BYTE   W02
 BYTE   N01
 BYTE   W02
 BYTE   N01
 BYTE   W02
 BYTE   N11  Dn1  v076
 BYTE   W12
//  #07 //002   ----------------------------------------
 BYTE   Dn1  v052
 BYTE   W12
 BYTE   PEND 
//  #07 //003   ----------------------------------------
 BYTE   PATT
  POIN2 Label_01274A7B
//  #07 //004   ----------------------------------------
Label_01274AA6:
//  #07 //005   ----------------------------------------
 BYTE   PATT
  POIN2 Label_01274A7B
//  #07 //006   ----------------------------------------
 BYTE   PATT
  POIN2 Label_01274A7B
//  #07 //007   ----------------------------------------
 BYTE   PATT
  POIN2 Label_01274A7B
//  #07 //008   ----------------------------------------
 BYTE   PATT
  POIN2 Label_01274A7B
//  #07 //009   ----------------------------------------
 BYTE   PATT
  POIN2 Label_01274A7B
//  #07 //010   ----------------------------------------
 BYTE   N11  Dn1  v076
 BYTE   N23  Cs2  v120
 BYTE   W12
 BYTE   N11  Dn1  v052
 BYTE   W12
 BYTE   N11
 BYTE   W12
 BYTE   Dn1  v076
 BYTE   W12
 BYTE   N05  Dn1  v052
 BYTE   W06
 BYTE   N05
 BYTE   W06
 BYTE   N01
 BYTE   W02
 BYTE   N01
 BYTE   W02
 BYTE   N01
 BYTE   W02
 BYTE   N01
 BYTE   W02
 BYTE   N01
 BYTE   W02
 BYTE   N01
 BYTE   W02
 BYTE   N11  Dn1  v076
 BYTE   W12
 BYTE   Dn1  v052
 BYTE   W12
//  #07 //011   ----------------------------------------
 BYTE   PATT
  POIN2 Label_01274A7B
//  #07 //012   ----------------------------------------
 BYTE   PATT
  POIN2 Label_01274A7B
//  #07 //013   ----------------------------------------
 BYTE   PATT
  POIN2 Label_01274A7B
//  #07 //014   ----------------------------------------
 BYTE   PATT
  POIN2 Label_01274A7B
//  #07 //015   ----------------------------------------
 BYTE   PATT
  POIN2 Label_01274A7B
//  #07 //016   ----------------------------------------
 BYTE   PATT
  POIN2 Label_01274A7B
//  #07 //017   ----------------------------------------
 BYTE   PATT
  POIN2 Label_01274A7B
//  #07 //018   ----------------------------------------
 BYTE   N23  Dn1  v076
 BYTE   N11  Ds1
 BYTE   N23  Cs2  v120
 BYTE   W12
 BYTE   N11  Ds1  v076
 BYTE   W12
 BYTE   N11
 BYTE   W06
 BYTE   N05  Dn1
 BYTE   W06
 BYTE   Dn1  v052
 BYTE   N05  Ds1  v076
 BYTE   W06
 BYTE   N05
 BYTE   W06
 BYTE   N17  Dn1  v052
 BYTE   N11  Ds1  v076
 BYTE   W12
 BYTE   N05
 BYTE   W06
 BYTE   N11  Dn1
 BYTE   N05  Ds1
 BYTE   W06
 BYTE   N11
 BYTE   W06
 BYTE   N05  Dn1  v052
 BYTE   W06
 BYTE   N01
 BYTE   N11  Ds1  v076
 BYTE   W02
 BYTE   N01  Dn1  v052
 BYTE   W02
 BYTE   N01
 BYTE   W02
 BYTE   N01
 BYTE   W02
 BYTE   N01
 BYTE   W02
 BYTE   N01
 BYTE   W02
//  #07 //019   ----------------------------------------
Label_01274B4A:
 BYTE   N23  Dn1  v076
 BYTE   N11  Ds1
 BYTE   W12
 BYTE   N11
 BYTE   W12
 BYTE   N11
 BYTE   W06
 BYTE   N05  Dn1
 BYTE   W06
 BYTE   Dn1  v052
 BYTE   N05  Ds1  v076
 BYTE   W06
 BYTE   N05
 BYTE   W06
 BYTE   N11
 BYTE   W12
 BYTE   N05
 BYTE   W06
 BYTE   N11  Dn1
 BYTE   N05  Ds1
 BYTE   W06
 BYTE   N11
 BYTE   W12
 BYTE   N01  Dn1  v052
 BYTE   N11  Ds1  v076
 BYTE   W02
 BYTE   N01  Dn1  v052
 BYTE   W02
 BYTE   N01
 BYTE   W02
 BYTE   N01
 BYTE   W02
 BYTE   N01
 BYTE   W02
 BYTE   N01
 BYTE   W02
 BYTE   PEND 
//  #07 //020   ----------------------------------------
Label_01274B7E:
 BYTE   N23  Dn1  v076
 BYTE   N11  Ds1
 BYTE   W12
 BYTE   N11
 BYTE   W12
 BYTE   N11
 BYTE   W06
 BYTE   N05  Dn1
 BYTE   W06
 BYTE   Dn1  v052
 BYTE   N05  Ds1  v076
 BYTE   W06
 BYTE   N05
 BYTE   W06
 BYTE   N11
 BYTE   W12
 BYTE   N05
 BYTE   W06
 BYTE   N11  Dn1
 BYTE   N05  Ds1
 BYTE   W06
 BYTE   N11
 BYTE   W06
 BYTE   N05  Dn1  v052
 BYTE   W06
 BYTE   N01
 BYTE   N11  Ds1  v076
 BYTE   W02
 BYTE   N01  Dn1  v052
 BYTE   W02
 BYTE   N01
 BYTE   W02
 BYTE   N01
 BYTE   W02
 BYTE   N01
 BYTE   W02
 BYTE   N01
 BYTE   W02
 BYTE   PEND 
//  #07 //021   ----------------------------------------
 BYTE   PATT
  POIN2 Label_01274B4A
//  #07 //022   ----------------------------------------
 BYTE   N23  Dn1  v076
 BYTE   N11  Ds1
 BYTE   W12
 BYTE   N11
 BYTE   W12
 BYTE   N11
 BYTE   W06
 BYTE   N05  Dn1
 BYTE   W06
 BYTE   Dn1  v052
 BYTE   N05  Ds1  v076
 BYTE   W06
 BYTE   N05
 BYTE   W06
 BYTE   N17  Dn1  v052
 BYTE   N11  Ds1  v076
 BYTE   W12
 BYTE   N05
 BYTE   W06
 BYTE   N11  Dn1
 BYTE   N05  Ds1
 BYTE   W06
 BYTE   N11
 BYTE   W06
 BYTE   N05  Dn1  v052
 BYTE   W06
 BYTE   N01
 BYTE   N11  Ds1  v076
 BYTE   W02
 BYTE   N01  Dn1  v052
 BYTE   W02
 BYTE   N01
 BYTE   W02
 BYTE   N01
 BYTE   W02
 BYTE   N01
 BYTE   W02
 BYTE   N01
 BYTE   W02
//  #07 //023   ----------------------------------------
 BYTE   PATT
  POIN2 Label_01274B4A
//  #07 //024   ----------------------------------------
 BYTE   PATT
  POIN2 Label_01274B7E
//  #07 //025   ----------------------------------------
 BYTE   PATT
  POIN2 Label_01274B4A
//  #07 //026   ----------------------------------------
 BYTE   N23  Dn1  v076
 BYTE   N23  Ds1
 BYTE   N23  Cs2  v120
 BYTE   W24
 BYTE   Ds1  v076
 BYTE   W06
 BYTE   N05  Dn1
 BYTE   W06
 BYTE   Dn1  v052
 BYTE   W12
 BYTE   N17
 BYTE   N23  Ds1  v076
 BYTE   W18
 BYTE   N11  Dn1
 BYTE   W06
 BYTE   N23  Ds1
 BYTE   W06
 BYTE   N05  Dn1  v052
 BYTE   W06
 BYTE   N01
 BYTE   W02
 BYTE   N01
 BYTE   W02
 BYTE   N01
 BYTE   W02
 BYTE   N01
 BYTE   W02
 BYTE   N01
 BYTE   W02
 BYTE   N01
 BYTE   W02
//  #07 //027   ----------------------------------------
Label_01274C2F:
 BYTE   N23  Dn1  v076
 BYTE   N23  Ds1
 BYTE   W24
 BYTE   N23
 BYTE   W06
 BYTE   N05  Dn1
 BYTE   W06
 BYTE   Dn1  v052
 BYTE   W12
 BYTE   N23  Ds1  v076
 BYTE   W18
 BYTE   N11  Dn1
 BYTE   W06
 BYTE   N23  Ds1
 BYTE   W12
 BYTE   N01  Dn1  v052
 BYTE   W02
 BYTE   N01
 BYTE   W02
 BYTE   N01
 BYTE   W02
 BYTE   N01
 BYTE   W02
 BYTE   N01
 BYTE   W02
 BYTE   N01
 BYTE   W02
 BYTE   PEND 
//  #07 //028   ----------------------------------------
Label_01274C56:
 BYTE   N23  Dn1  v076
 BYTE   N23  Ds1
 BYTE   W24
 BYTE   N23
 BYTE   W06
 BYTE   N05  Dn1
 BYTE   W06
 BYTE   Dn1  v052
 BYTE   W12
 BYTE   N23  Ds1  v076
 BYTE   W18
 BYTE   N11  Dn1
 BYTE   W06
 BYTE   N23  Ds1
 BYTE   W06
 BYTE   N05  Dn1  v052
 BYTE   W06
 BYTE   N01
 BYTE   W02
 BYTE   N01
 BYTE   W02
 BYTE   N01
 BYTE   W02
 BYTE   N01
 BYTE   W02
 BYTE   N01
 BYTE   W02
 BYTE   N01
 BYTE   W02
 BYTE   PEND 
//  #07 //029   ----------------------------------------
 BYTE   PATT
  POIN2 Label_01274C2F
//  #07 //030   ----------------------------------------
 BYTE   N23  Dn1  v076
 BYTE   N23  Ds1
 BYTE   W24
 BYTE   N23
 BYTE   W06
 BYTE   N05  Dn1
 BYTE   W06
 BYTE   Dn1  v052
 BYTE   W12
 BYTE   N17
 BYTE   N23  Ds1  v076
 BYTE   W18
 BYTE   N11  Dn1
 BYTE   W06
 BYTE   N23  Ds1
 BYTE   W06
 BYTE   N05  Dn1  v052
 BYTE   W06
 BYTE   N01
 BYTE   W02
 BYTE   N01
 BYTE   W02
 BYTE   N01
 BYTE   W02
 BYTE   N01
 BYTE   W02
 BYTE   N01
 BYTE   W02
 BYTE   N01
 BYTE   W02
//  #07 //031   ----------------------------------------
 BYTE   PATT
  POIN2 Label_01274C2F
//  #07 //032   ----------------------------------------
 BYTE   PATT
  POIN2 Label_01274C56
//  #07 //033   ----------------------------------------
 BYTE   PATT
  POIN2 Label_01274C2F
//  #07 //034   ----------------------------------------
 BYTE   N23  Cn1  v120
 BYTE   N11  Ds1  v076
 BYTE   N23  Cs2  v120
 BYTE   W12
 BYTE   N03  Ds1  v076
 BYTE   W04
 BYTE   N03
 BYTE   W04
 BYTE   N03
 BYTE   W04
 BYTE   N11  Cn1  v120
 BYTE   N11  Ds1  v076
 BYTE   W12
 BYTE   Cn1  v120
 BYTE   N11  Ds1  v076
 BYTE   W12
 BYTE   N23  Cn1  v120
 BYTE   N03  Ds1  v076
 BYTE   W04
 BYTE   N03
 BYTE   W04
 BYTE   N03
 BYTE   W04
 BYTE   N11
 BYTE   W12
 BYTE   N23  Cn1  v120
 BYTE   N23  Ds1  v076
 BYTE   W24
//  #07 //035   ----------------------------------------
Label_01274CEF:
 BYTE   N23  Cn1  v120
 BYTE   N11  Ds1  v076
 BYTE   W12
 BYTE   N03
 BYTE   W04
 BYTE   N03
 BYTE   W04
 BYTE   N03
 BYTE   W04
 BYTE   N11  Cn1  v120
 BYTE   N11  Ds1  v076
 BYTE   W12
 BYTE   Cn1  v120
 BYTE   N03  Ds1  v076
 BYTE   W04
 BYTE   N03
 BYTE   W04
 BYTE   N03
 BYTE   W04
 BYTE   N23  Cn1  v120
 BYTE   N03  Ds1  v076
 BYTE   W04
 BYTE   N03
 BYTE   W04
 BYTE   N03
 BYTE   W04
 BYTE   N11
 BYTE   W12
 BYTE   N23  Cn1  v120
 BYTE   N11  Ds1  v076
 BYTE   W12
 BYTE   N11
 BYTE   W12
 BYTE   PEND 
//  #07 //036   ----------------------------------------
 BYTE   N23  Cn1  v120
 BYTE   N11  Ds1  v076
 BYTE   W12
 BYTE   N03
 BYTE   W04
 BYTE   N03
 BYTE   W04
 BYTE   N03
 BYTE   W04
 BYTE   N11  Cn1  v120
 BYTE   N11  Ds1  v076
 BYTE   W12
 BYTE   Cn1  v120
 BYTE   N11  Ds1  v076
 BYTE   W12
 BYTE   N23  Cn1  v120
 BYTE   N03  Ds1  v076
 BYTE   W04
 BYTE   N03
 BYTE   W04
 BYTE   N03
 BYTE   W04
 BYTE   N11
 BYTE   W12
 BYTE   N23  Cn1  v120
 BYTE   N23  Ds1  v076
 BYTE   W24
//  #07 //037   ----------------------------------------
 BYTE   PATT
  POIN2 Label_01274CEF
//  #07 //038   ----------------------------------------
 BYTE   PATT
  POIN2 Label_01274CEF
//  #07 //039   ----------------------------------------
 BYTE   PATT
  POIN2 Label_01274CEF
//  #07 //040   ----------------------------------------
 BYTE   PATT
  POIN2 Label_01274CEF
//  #07 //041   ----------------------------------------
 BYTE   PATT
  POIN2 Label_01274CEF
//  #07 //042   ----------------------------------------
 BYTE   N23  Cn1  v120
 BYTE   N23  Dn1  v076
 BYTE   N11  Ds1
 BYTE   N23  Cs2  v120
 BYTE   W12
 BYTE   N11  Ds1  v076
 BYTE   W12
 BYTE   N23  Cn1  v120
 BYTE   N23  Dn1  v076
 BYTE   N11  Ds1
 BYTE   W12
 BYTE   N11
 BYTE   W12
 BYTE   N23  Cn1  v120
 BYTE   N05  Dn1  v052
 BYTE   N11  Ds1  v076
 BYTE   W06
 BYTE   N05  Dn1  v052
 BYTE   W06
 BYTE   N01
 BYTE   N11  Ds1  v076
 BYTE   W02
 BYTE   N01  Dn1  v052
 BYTE   W02
 BYTE   N01
 BYTE   W02
 BYTE   N01
 BYTE   W02
 BYTE   N01
 BYTE   W02
 BYTE   N01
 BYTE   W02
 BYTE   N23  Cn1  v120
 BYTE   N11  Dn1  v076
 BYTE   N11  Ds1
 BYTE   W12
 BYTE   Dn1  v052
 BYTE   N11  Ds1  v076
 BYTE   W12
//  #07 //043   ----------------------------------------
Label_01274DB4:
 BYTE   N23  Cn1  v120
 BYTE   N32  Dn1  v076
 BYTE   N11  Ds1
 BYTE   W12
 BYTE   N03
 BYTE   W04
 BYTE   N03
 BYTE   W04
 BYTE   N03
 BYTE   W04
 BYTE   N23  Cn1  v120
 BYTE   N11  Ds1  v076
 BYTE   W12
 BYTE   Dn1
 BYTE   N11  Ds1
 BYTE   W12
 BYTE   N23  Cn1  v120
 BYTE   N05  Dn1  v052
 BYTE   N11  Ds1  v076
 BYTE   W06
 BYTE   N05  Dn1  v052
 BYTE   W06
 BYTE   N01
 BYTE   N03  Ds1  v076
 BYTE   W02
 BYTE   N01  Dn1  v052
 BYTE   W02
 BYTE   N01
 BYTE   N03  Ds1  v076
 BYTE   W02
 BYTE   N01  Dn1  v052
 BYTE   W02
 BYTE   N01
 BYTE   N03  Ds1  v076
 BYTE   W02
 BYTE   N01  Dn1  v052
 BYTE   W02
 BYTE   N23  Cn1  v120
 BYTE   N11  Dn1  v076
 BYTE   N11  Ds1
 BYTE   W12
 BYTE   Dn1  v052
 BYTE   N11  Ds1  v076
 BYTE   W12
 BYTE   PEND 
//  #07 //044   ----------------------------------------
Label_01274E07:
 BYTE   N23  Cn1  v120
 BYTE   N23  Dn1  v076
 BYTE   N11  Ds1
 BYTE   W12
 BYTE   N11
 BYTE   W12
 BYTE   N23  Cn1  v120
 BYTE   N23  Dn1  v076
 BYTE   N11  Ds1
 BYTE   W12
 BYTE   N11
 BYTE   W12
 BYTE   N23  Cn1  v120
 BYTE   N05  Dn1  v052
 BYTE   N11  Ds1  v076
 BYTE   W06
 BYTE   N05  Dn1  v052
 BYTE   W06
 BYTE   N01
 BYTE   N11  Ds1  v076
 BYTE   W02
 BYTE   N01  Dn1  v052
 BYTE   W02
 BYTE   N01
 BYTE   W02
 BYTE   N01
 BYTE   W02
 BYTE   N01
 BYTE   W02
 BYTE   N01
 BYTE   W02
 BYTE   N23  Cn1  v120
 BYTE   N11  Dn1  v076
 BYTE   N11  Ds1
 BYTE   W12
 BYTE   Dn1  v052
 BYTE   N11  Ds1  v076
 BYTE   W12
 BYTE   PEND 
//  #07 //045   ----------------------------------------
 BYTE   PATT
  POIN2 Label_01274DB4
//  #07 //046   ----------------------------------------
 BYTE   PATT
  POIN2 Label_01274E07
//  #07 //047   ----------------------------------------
 BYTE   PATT
  POIN2 Label_01274DB4
//  #07 //048   ----------------------------------------
 BYTE   PATT
  POIN2 Label_01274E07
//  #07 //049   ----------------------------------------
 BYTE   PATT
  POIN2 Label_01274E07
//  #07 //050   ----------------------------------------
 BYTE   N23  Dn1  v076
 BYTE   N11  Ds1
 BYTE   N23  Cs2  v120
 BYTE   W12
 BYTE   N11  Ds1  v076
 BYTE   W12
 BYTE   N11
 BYTE   W06
 BYTE   N05  Dn1
 BYTE   W06
 BYTE   Dn1  v052
 BYTE   N11  Ds1  v076
 BYTE   W12
 BYTE   N05  Dn1
 BYTE   N11  Ds1
 BYTE   W12
 BYTE   N11
 BYTE   W06
 BYTE   Dn1
 BYTE   W06
 BYTE   Ds1
 BYTE   W06
 BYTE   N05  Dn1  v052
 BYTE   W06
 BYTE   N01
 BYTE   N11  Ds1  v076
 BYTE   W02
 BYTE   N01  Dn1  v052
 BYTE   W02
 BYTE   N01
 BYTE   W02
 BYTE   N01
 BYTE   W02
 BYTE   N01
 BYTE   W02
 BYTE   N01
 BYTE   W02
//  #07 //051   ----------------------------------------
Label_01274E9D:
 BYTE   N23  Dn1  v076
 BYTE   N11  Ds1
 BYTE   W12
 BYTE   N11
 BYTE   W12
 BYTE   N11
 BYTE   W06
 BYTE   N05  Dn1
 BYTE   W06
 BYTE   Dn1  v052
 BYTE   N11  Ds1  v076
 BYTE   W12
 BYTE   N05  Dn1
 BYTE   N11  Ds1
 BYTE   W12
 BYTE   N03
 BYTE   W04
 BYTE   N03
 BYTE   W02
 BYTE   N11  Dn1
 BYTE   W02
 BYTE   N03  Ds1
 BYTE   W04
 BYTE   N11
 BYTE   W06
 BYTE   N05  Dn1  v052
 BYTE   W06
 BYTE   N01
 BYTE   N11  Ds1  v076
 BYTE   W02
 BYTE   N01  Dn1  v052
 BYTE   W02
 BYTE   N01
 BYTE   W02
 BYTE   N01
 BYTE   W02
 BYTE   N01
 BYTE   W02
 BYTE   N01
 BYTE   W02
 BYTE   PEND 
//  #07 //052   ----------------------------------------
Label_01274ED7:
 BYTE   N23  Dn1  v076
 BYTE   N11  Ds1
 BYTE   W12
 BYTE   N11
 BYTE   W12
 BYTE   N11
 BYTE   W06
 BYTE   N05  Dn1
 BYTE   W06
 BYTE   Dn1  v052
 BYTE   N11  Ds1  v076
 BYTE   W12
 BYTE   N05  Dn1
 BYTE   N11  Ds1
 BYTE   W12
 BYTE   N11
 BYTE   W06
 BYTE   Dn1
 BYTE   W06
 BYTE   Ds1
 BYTE   W06
 BYTE   N05  Dn1  v052
 BYTE   W06
 BYTE   N01
 BYTE   N11  Ds1  v076
 BYTE   W02
 BYTE   N01  Dn1  v052
 BYTE   W02
 BYTE   N01
 BYTE   W02
 BYTE   N01
 BYTE   W02
 BYTE   N01
 BYTE   W02
 BYTE   N01
 BYTE   W02
 BYTE   PEND 
//  #07 //053   ----------------------------------------
Label_01274F0B:
 BYTE   N23  Dn1  v076
 BYTE   N11  Ds1
 BYTE   W12
 BYTE   N11
 BYTE   W12
 BYTE   N11
 BYTE   W06
 BYTE   N05  Dn1
 BYTE   W06
 BYTE   Dn1  v052
 BYTE   N11  Ds1  v076
 BYTE   N11  Cn2
 BYTE   W12
 BYTE   N05  Dn1
 BYTE   N11  Ds1
 BYTE   N11  Cn2  v096
 BYTE   W12
 BYTE   N03  Ds1  v076
 BYTE   N11  Cn2  v120
 BYTE   W04
 BYTE   N03  Ds1  v076
 BYTE   W02
 BYTE   N11  Dn1
 BYTE   W02
 BYTE   N03  Ds1
 BYTE   W04
 BYTE   N11
 BYTE   N11  Cn2  v096
 BYTE   W06
 BYTE   N05  Dn1  v052
 BYTE   W06
 BYTE   N01
 BYTE   N11  Ds1  v076
 BYTE   N11  Cn2
 BYTE   W02
 BYTE   N01  Dn1  v052
 BYTE   W02
 BYTE   N01
 BYTE   W02
 BYTE   N01
 BYTE   W02
 BYTE   N01
 BYTE   W02
 BYTE   N01
 BYTE   W02
 BYTE   PEND 
//  #07 //054   ----------------------------------------
 BYTE   PATT
  POIN2 Label_01274ED7
//  #07 //055   ----------------------------------------
 BYTE   N23  Dn1  v076
 BYTE   N11  Ds1
 BYTE   W12
 BYTE   N11
 BYTE   W12
 BYTE   N11
 BYTE   W06
 BYTE   N05  Dn1
 BYTE   W06
 BYTE   Dn1  v052
 BYTE   N11  Ds1  v076
 BYTE   N23  Bn1  v120
 BYTE   W12
 BYTE   N05  Dn1  v076
 BYTE   N11  Ds1
 BYTE   W12
 BYTE   N03
 BYTE   N17  Bn1  v120
 BYTE   W04
 BYTE   N03  Ds1  v076
 BYTE   W02
 BYTE   N11  Dn1
 BYTE   W02
 BYTE   N03  Ds1
 BYTE   W04
 BYTE   N11
 BYTE   W06
 BYTE   N05  Dn1  v052
 BYTE   N17  Bn1  v120
 BYTE   W06
 BYTE   N01  Dn1  v052
 BYTE   N11  Ds1  v076
 BYTE   W02
 BYTE   N01  Dn1  v052
 BYTE   W02
 BYTE   N01
 BYTE   W02
 BYTE   N01
 BYTE   W02
 BYTE   N01
 BYTE   W02
 BYTE   N01
 BYTE   W02
//  #07 //056   ----------------------------------------
 BYTE   N23  Dn1  v076
 BYTE   N11  Ds1
 BYTE   N11  Bn1  v120
 BYTE   W12
 BYTE   Ds1  v076
 BYTE   N11  Bn1  v120
 BYTE   W12
 BYTE   Ds1  v076
 BYTE   N11  Bn1  v120
 BYTE   W06
 BYTE   N05  Dn1  v076
 BYTE   W06
 BYTE   Dn1  v052
 BYTE   N11  Ds1  v076
 BYTE   N11  Bn1  v120
 BYTE   W12
 BYTE   N05  Dn1  v076
 BYTE   N11  Ds1
 BYTE   N07  Bn1  v120
 BYTE   W08
 BYTE   Bn1  v124
 BYTE   W04
 BYTE   N11  Ds1  v076
 BYTE   W04
 BYTE   N07  Bn1  v127
 BYTE   W02
 BYTE   N11  Dn1  v076
 BYTE   W06
 BYTE   Ds1
 BYTE   N07  Bn1  v127
 BYTE   W06
 BYTE   N05  Dn1  v052
 BYTE   W02
 BYTE   N07  Bn1  v127
 BYTE   W04
 BYTE   N01  Dn1  v052
 BYTE   N11  Ds1  v076
 BYTE   W02
 BYTE   N01  Dn1  v052
 BYTE   W02
 BYTE   N01
 BYTE   N07  Bn1  v127
 BYTE   W02
 BYTE   N01  Dn1  v052
 BYTE   W02
 BYTE   N01
 BYTE   W02
 BYTE   N01
 BYTE   W02
//  #07 //057   ----------------------------------------
 BYTE   N23  Dn1  v076
 BYTE   N11  Ds1
 BYTE   N07  Bn1  v127
 BYTE   W08
 BYTE   N07
 BYTE   W04
 BYTE   N11  Ds1  v076
 BYTE   W04
 BYTE   N07  Bn1  v127
 BYTE   W08
 BYTE   N11  Ds1  v076
 BYTE   N07  Bn1  v127
 BYTE   W06
 BYTE   N05  Dn1  v076
 BYTE   W02
 BYTE   N07  Bn1  v127
 BYTE   W04
 BYTE   N05  Dn1  v052
 BYTE   N11  Ds1  v076
 BYTE   W04
 BYTE   N07  Bn1  v127
 BYTE   W08
 BYTE   N05  Dn1  v076
 BYTE   N03  Ds1
 BYTE   N11  Bn1  v124
 BYTE   W04
 BYTE   N03  Ds1  v076
 BYTE   W04
 BYTE   N03
 BYTE   W04
 BYTE   N05
 BYTE   N11  Bn1  v120
 BYTE   W06
 BYTE   Dn1  v076
 BYTE   N05  Ds1
 BYTE   W06
 BYTE   N11
 BYTE   N11  Bn1  v112
 BYTE   W06
 BYTE   N05  Dn1  v052
 BYTE   W06
 BYTE   N01
 BYTE   N11  Ds1  v076
 BYTE   N11  Bn1  v104
 BYTE   W02
 BYTE   N01  Dn1  v052
 BYTE   W02
 BYTE   N01
 BYTE   W02
 BYTE   N01
 BYTE   W02
 BYTE   N01
 BYTE   W02
 BYTE   N01
 BYTE   W02
//  #07 //058   ----------------------------------------
 BYTE   PATT
  POIN2 Label_01274ED7
//  #07 //059   ----------------------------------------
 BYTE   PATT
  POIN2 Label_01274E9D
//  #07 //060   ----------------------------------------
 BYTE   PATT
  POIN2 Label_01274ED7
//  #07 //061   ----------------------------------------
 BYTE   PATT
  POIN2 Label_01274F0B
//  #07 //062   ----------------------------------------
 BYTE   N23  Dn1  v076
 BYTE   N11  Ds1
 BYTE   W12
 BYTE   N11
 BYTE   W12
 BYTE   N11
 BYTE   W06
 BYTE   N05  Dn1
 BYTE   W06
 BYTE   Dn1  v052
 BYTE   N11  Ds1  v076
 BYTE   N23  Bn1  v120
 BYTE   W12
 BYTE   N05  Dn1  v076
 BYTE   N11  Ds1
 BYTE   W12
 BYTE   N11
 BYTE   N17  Bn1  v120
 BYTE   W06
 BYTE   N11  Dn1  v076
 BYTE   W06
 BYTE   Ds1
 BYTE   W06
 BYTE   N05  Dn1  v052
 BYTE   N17  Bn1  v120
 BYTE   W06
 BYTE   N01  Dn1  v052
 BYTE   N11  Ds1  v076
 BYTE   W02
 BYTE   N01  Dn1  v052
 BYTE   W02
 BYTE   N01
 BYTE   W02
 BYTE   N01
 BYTE   W02
 BYTE   N01
 BYTE   W02
 BYTE   N01
 BYTE   W02
//  #07 //063   ----------------------------------------
 BYTE   N23  Dn1  v076
 BYTE   N11  Ds1
 BYTE   N11  Bn1  v120
 BYTE   W12
 BYTE   Ds1  v076
 BYTE   N11  Bn1  v120
 BYTE   W12
 BYTE   Ds1  v076
 BYTE   N11  Bn1  v120
 BYTE   W06
 BYTE   N05  Dn1  v076
 BYTE   W06
 BYTE   Dn1  v052
 BYTE   N11  Ds1  v076
 BYTE   N11  Bn1  v120
 BYTE   W12
 BYTE   N05  Dn1  v076
 BYTE   N11  Ds1
 BYTE   N07  Bn1  v120
 BYTE   W08
 BYTE   Bn1  v124
 BYTE   W04
 BYTE   N03  Ds1  v076
 BYTE   W04
 BYTE   N03
 BYTE   N07  Bn1  v127
 BYTE   W02
 BYTE   N11  Dn1  v076
 BYTE   W02
 BYTE   N03  Ds1
 BYTE   W04
 BYTE   N11
 BYTE   N07  Bn1  v127
 BYTE   W06
 BYTE   N05  Dn1  v052
 BYTE   W02
 BYTE   N07  Bn1  v127
 BYTE   W04
 BYTE   N01  Dn1  v052
 BYTE   N11  Ds1  v076
 BYTE   W02
 BYTE   N01  Dn1  v052
 BYTE   W02
 BYTE   N01
 BYTE   N07  Bn1  v127
 BYTE   W02
 BYTE   N01  Dn1  v052
 BYTE   W02
 BYTE   N01
 BYTE   W02
 BYTE   N01
 BYTE   W02
//  #07 //064   ----------------------------------------
 BYTE   N23  Dn1  v076
 BYTE   N11  Ds1
 BYTE   N07  Bn1  v127
 BYTE   W08
 BYTE   N07
 BYTE   W04
 BYTE   N11  Ds1  v076
 BYTE   W04
 BYTE   N07  Bn1  v127
 BYTE   W08
 BYTE   N11  Ds1  v076
 BYTE   N07  Bn1  v127
 BYTE   W06
 BYTE   N05  Dn1  v076
 BYTE   W02
 BYTE   N07  Bn1  v127
 BYTE   W04
 BYTE   N05  Dn1  v052
 BYTE   N11  Ds1  v076
 BYTE   W04
 BYTE   N07  Bn1  v127
 BYTE   W08
 BYTE   N05  Dn1  v076
 BYTE   N11  Ds1
 BYTE   N11  Bn1  v127
 BYTE   W12
 BYTE   Ds1  v076
 BYTE   N11  Bn1  v127
 BYTE   W06
 BYTE   Dn1  v076
 BYTE   W06
 BYTE   Ds1
 BYTE   N11  Bn1  v127
 BYTE   W06
 BYTE   N05  Dn1  v052
 BYTE   W06
 BYTE   N01
 BYTE   N11  Ds1  v076
 BYTE   N11  Bn1  v127
 BYTE   W02
 BYTE   N01  Dn1  v052
 BYTE   W02
 BYTE   N01
 BYTE   W02
 BYTE   N01
 BYTE   W02
 BYTE   N01
 BYTE   W02
 BYTE   N01
 BYTE   W02
//  #07 //065   ----------------------------------------
 BYTE   N23  Dn1  v076
 BYTE   N11  Ds1
 BYTE   W12
 BYTE   N11
 BYTE   W12
 BYTE   N11
 BYTE   W06
 BYTE   N05  Dn1
 BYTE   W06
 BYTE   Dn1  v052
 BYTE   N11  Ds1  v076
 BYTE   W12
 BYTE   N05  Dn1
 BYTE   N03  Ds1
 BYTE   W04
 BYTE   N03
 BYTE   W04
 BYTE   N03
 BYTE   W04
 BYTE   N05
 BYTE   W06
 BYTE   N11  Dn1
 BYTE   N05  Ds1
 BYTE   W06
 BYTE   N11
 BYTE   W06
 BYTE   N05  Dn1  v052
 BYTE   W06
 BYTE   N01
 BYTE   N11  Ds1  v076
 BYTE   W02
 BYTE   N01  Dn1  v052
 BYTE   W02
 BYTE   N01
 BYTE   W02
 BYTE   N01
 BYTE   W02
 BYTE   N01
 BYTE   W02
 BYTE   N01
 BYTE   W02
//  #07 //066   ----------------------------------------
 BYTE   PATT
  POIN2 Label_01274A51
//  #07 //067   ----------------------------------------
 BYTE   PATT
  POIN2 Label_01274A7B
//  #07 //068   ----------------------------------------
 BYTE   PATT
  POIN2 Label_01274A7B
//  #07 //069   ----------------------------------------
 BYTE   GoTo
  POIN2 Label_01274AA6
 BYTE   FINE

//******************************************************//
	ALIGN 4

song34:
	BYTE	7	// NumTrks
	BYTE	0	// NumBlks
	BYTE	song34_pri	// Priority
	BYTE	song34_rev	// Reverb.
    
	POIN2	song34_grp
    
	POIN2	song34_001
	POIN2	song34_002
	POIN2	song34_003
	POIN2	song34_004
	POIN2	song34_005
	POIN2	song34_006
	POIN2	song34_007

	
